M48
;DRILL file {KiCad 4.0.7} date 03/24/18 20:50:46
;FORMAT={-:-/ absolute / inch / decimal}
FMAT,2
INCH,TZ
T1C0.020
T2C0.031
T3C0.035
T4C0.040
T5C0.043
%
G90
G05
M72
T1
X1.37Y-1.395
X1.6425Y-1.5725
X1.775Y-1.545
X2.075Y-1.145
X2.17Y-1.64
X2.24Y-1.09
X2.35Y-1.91
X2.59Y-2.07
X2.915Y-2.19
X2.925Y-1.84
X2.94Y-2.12
X3.Y-1.865
X3.17Y-3.52
T2
X1.23Y-1.5325
X1.23Y-1.69
X1.23Y-1.8475
X1.235Y-2.8
X1.235Y-3.1
X1.335Y-2.8
X1.335Y-3.1
X1.435Y-2.8
X1.435Y-3.1
X1.535Y-2.8
X1.535Y-3.1
X1.635Y-2.8
X1.635Y-3.1
X1.735Y-2.8
X1.735Y-3.1
X1.835Y-2.8
X1.835Y-3.1
X1.935Y-2.8
X1.935Y-3.1
X2.035Y-2.8
X2.035Y-3.1
X2.135Y-2.8
X2.135Y-3.1
X2.235Y-2.8
X2.235Y-3.1
X2.335Y-2.8
X2.335Y-3.1
X2.435Y-2.8
X2.435Y-3.1
X2.535Y-2.8
X2.535Y-3.1
T3
X1.1445Y-3.4936
X1.1445Y-3.8164
X1.19Y-2.69
X1.19Y-3.21
X1.2075Y-4.0925
X1.29Y-2.69
X1.3325Y-2.06
X1.3335Y-3.4936
X1.3335Y-3.8164
X1.38Y-3.92
X1.39Y-2.69
X1.4845Y-3.8336
X1.4845Y-4.1564
X1.4875Y-3.3325
X1.49Y-2.69
X1.56Y-2.06
X1.58Y-1.39
X1.59Y-2.69
X1.6735Y-3.8336
X1.6735Y-4.1564
X1.69Y-2.69
X1.83Y-1.435
X1.9125Y-4.51
X2.0125Y-4.51
X2.065Y-1.3975
X2.1125Y-4.51
X2.2125Y-4.51
X2.2365Y-3.6636
X2.2365Y-3.9864
X2.3125Y-4.51
X2.4255Y-3.6636
X2.4255Y-3.9864
X2.5765Y-3.3236
X2.5765Y-3.6464
X2.5765Y-4.0036
X2.5765Y-4.3264
X2.59Y-3.7975
X2.68Y-1.14
X2.765Y-3.86
X2.7655Y-3.3236
X2.7655Y-3.6464
X2.7655Y-4.0036
X2.7655Y-4.3264
X2.845Y-1.14
X2.85Y-2.77
X2.85Y-2.87
X2.85Y-2.97
X2.9165Y-3.6636
X2.9165Y-3.9864
X2.95Y-2.77
X2.95Y-2.87
X2.95Y-2.97
X3.1055Y-3.6636
X3.1055Y-3.9864
T4
X1.8125Y-4.51
T5
X2.955Y-3.1191
X2.955Y-3.375
X3.1322Y-3.1191
X3.1322Y-3.375
T0
M30
