G04 #@! TF.FileFunction,Legend,Top*
%FSLAX46Y46*%
G04 Gerber Fmt 4.6, Leading zero omitted, Abs format (unit mm)*
G04 Created by KiCad (PCBNEW 4.0.7) date 03/24/18 20:50:43*
%MOMM*%
%LPD*%
G01*
G04 APERTURE LIST*
%ADD10C,0.100000*%
%ADD11C,0.300000*%
%ADD12C,0.120000*%
%ADD13C,0.150000*%
%ADD14C,0.076200*%
G04 APERTURE END LIST*
D10*
D11*
X40163714Y-54088000D02*
X40878000Y-54088000D01*
X40020857Y-54516571D02*
X40520857Y-53016571D01*
X41020857Y-54516571D01*
X41306571Y-53016571D02*
X42163714Y-53016571D01*
X41735143Y-54516571D02*
X41735143Y-53016571D01*
X42663714Y-54516571D02*
X42663714Y-53016571D01*
X43163714Y-54088000D01*
X43663714Y-53016571D01*
X43663714Y-54516571D01*
X44378000Y-53730857D02*
X44878000Y-53730857D01*
X45092286Y-54516571D02*
X44378000Y-54516571D01*
X44378000Y-53016571D01*
X45092286Y-53016571D01*
X46520857Y-53088000D02*
X46378000Y-53016571D01*
X46163714Y-53016571D01*
X45949429Y-53088000D01*
X45806571Y-53230857D01*
X45735143Y-53373714D01*
X45663714Y-53659429D01*
X45663714Y-53873714D01*
X45735143Y-54159429D01*
X45806571Y-54302286D01*
X45949429Y-54445143D01*
X46163714Y-54516571D01*
X46306571Y-54516571D01*
X46520857Y-54445143D01*
X46592286Y-54373714D01*
X46592286Y-53873714D01*
X46306571Y-53873714D01*
X47163714Y-54088000D02*
X47878000Y-54088000D01*
X47020857Y-54516571D02*
X47520857Y-53016571D01*
X48020857Y-54516571D01*
X48378000Y-53016571D02*
X49306571Y-53016571D01*
X48806571Y-53588000D01*
X49020857Y-53588000D01*
X49163714Y-53659429D01*
X49235143Y-53730857D01*
X49306571Y-53873714D01*
X49306571Y-54230857D01*
X49235143Y-54373714D01*
X49163714Y-54445143D01*
X49020857Y-54516571D01*
X48592285Y-54516571D01*
X48449428Y-54445143D01*
X48378000Y-54373714D01*
X49877999Y-53159429D02*
X49949428Y-53088000D01*
X50092285Y-53016571D01*
X50449428Y-53016571D01*
X50592285Y-53088000D01*
X50663714Y-53159429D01*
X50735142Y-53302286D01*
X50735142Y-53445143D01*
X50663714Y-53659429D01*
X49806571Y-54516571D01*
X50735142Y-54516571D01*
X51592285Y-53659429D02*
X51449427Y-53588000D01*
X51377999Y-53516571D01*
X51306570Y-53373714D01*
X51306570Y-53302286D01*
X51377999Y-53159429D01*
X51449427Y-53088000D01*
X51592285Y-53016571D01*
X51877999Y-53016571D01*
X52020856Y-53088000D01*
X52092285Y-53159429D01*
X52163713Y-53302286D01*
X52163713Y-53373714D01*
X52092285Y-53516571D01*
X52020856Y-53588000D01*
X51877999Y-53659429D01*
X51592285Y-53659429D01*
X51449427Y-53730857D01*
X51377999Y-53802286D01*
X51306570Y-53945143D01*
X51306570Y-54230857D01*
X51377999Y-54373714D01*
X51449427Y-54445143D01*
X51592285Y-54516571D01*
X51877999Y-54516571D01*
X52020856Y-54445143D01*
X52092285Y-54373714D01*
X52163713Y-54230857D01*
X52163713Y-53945143D01*
X52092285Y-53802286D01*
X52020856Y-53730857D01*
X51877999Y-53659429D01*
X52806570Y-54516571D02*
X52806570Y-53016571D01*
X53377998Y-53016571D01*
X53520856Y-53088000D01*
X53592284Y-53159429D01*
X53663713Y-53302286D01*
X53663713Y-53516571D01*
X53592284Y-53659429D01*
X53520856Y-53730857D01*
X53377998Y-53802286D01*
X52806570Y-53802286D01*
X56235141Y-53088000D02*
X56092284Y-53016571D01*
X55877998Y-53016571D01*
X55663713Y-53088000D01*
X55520855Y-53230857D01*
X55449427Y-53373714D01*
X55377998Y-53659429D01*
X55377998Y-53873714D01*
X55449427Y-54159429D01*
X55520855Y-54302286D01*
X55663713Y-54445143D01*
X55877998Y-54516571D01*
X56020855Y-54516571D01*
X56235141Y-54445143D01*
X56306570Y-54373714D01*
X56306570Y-53873714D01*
X56020855Y-53873714D01*
X57592284Y-54516571D02*
X57592284Y-53730857D01*
X57520855Y-53588000D01*
X57377998Y-53516571D01*
X57092284Y-53516571D01*
X56949427Y-53588000D01*
X57592284Y-54445143D02*
X57449427Y-54516571D01*
X57092284Y-54516571D01*
X56949427Y-54445143D01*
X56877998Y-54302286D01*
X56877998Y-54159429D01*
X56949427Y-54016571D01*
X57092284Y-53945143D01*
X57449427Y-53945143D01*
X57592284Y-53873714D01*
X58306570Y-54516571D02*
X58306570Y-53516571D01*
X58306570Y-53659429D02*
X58377998Y-53588000D01*
X58520856Y-53516571D01*
X58735141Y-53516571D01*
X58877998Y-53588000D01*
X58949427Y-53730857D01*
X58949427Y-54516571D01*
X58949427Y-53730857D02*
X59020856Y-53588000D01*
X59163713Y-53516571D01*
X59377998Y-53516571D01*
X59520856Y-53588000D01*
X59592284Y-53730857D01*
X59592284Y-54516571D01*
X60306570Y-54516571D02*
X60306570Y-53516571D01*
X60306570Y-53016571D02*
X60235141Y-53088000D01*
X60306570Y-53159429D01*
X60377998Y-53088000D01*
X60306570Y-53016571D01*
X60306570Y-53159429D01*
X61020856Y-53516571D02*
X61020856Y-54516571D01*
X61020856Y-53659429D02*
X61092284Y-53588000D01*
X61235142Y-53516571D01*
X61449427Y-53516571D01*
X61592284Y-53588000D01*
X61663713Y-53730857D01*
X61663713Y-54516571D01*
X63020856Y-53516571D02*
X63020856Y-54730857D01*
X62949427Y-54873714D01*
X62877999Y-54945143D01*
X62735142Y-55016571D01*
X62520856Y-55016571D01*
X62377999Y-54945143D01*
X63020856Y-54445143D02*
X62877999Y-54516571D01*
X62592285Y-54516571D01*
X62449427Y-54445143D01*
X62377999Y-54373714D01*
X62306570Y-54230857D01*
X62306570Y-53802286D01*
X62377999Y-53659429D01*
X62449427Y-53588000D01*
X62592285Y-53516571D01*
X62877999Y-53516571D01*
X63020856Y-53588000D01*
X64877999Y-54516571D02*
X64877999Y-53016571D01*
X65235142Y-53016571D01*
X65449427Y-53088000D01*
X65592285Y-53230857D01*
X65663713Y-53373714D01*
X65735142Y-53659429D01*
X65735142Y-53873714D01*
X65663713Y-54159429D01*
X65592285Y-54302286D01*
X65449427Y-54445143D01*
X65235142Y-54516571D01*
X64877999Y-54516571D01*
X66949427Y-54445143D02*
X66806570Y-54516571D01*
X66520856Y-54516571D01*
X66377999Y-54445143D01*
X66306570Y-54302286D01*
X66306570Y-53730857D01*
X66377999Y-53588000D01*
X66520856Y-53516571D01*
X66806570Y-53516571D01*
X66949427Y-53588000D01*
X67020856Y-53730857D01*
X67020856Y-53873714D01*
X66306570Y-54016571D01*
X67520856Y-53516571D02*
X67877999Y-54516571D01*
X68235141Y-53516571D01*
X68806570Y-54516571D02*
X68806570Y-53516571D01*
X68806570Y-53016571D02*
X68735141Y-53088000D01*
X68806570Y-53159429D01*
X68877998Y-53088000D01*
X68806570Y-53016571D01*
X68806570Y-53159429D01*
X70163713Y-54445143D02*
X70020856Y-54516571D01*
X69735142Y-54516571D01*
X69592284Y-54445143D01*
X69520856Y-54373714D01*
X69449427Y-54230857D01*
X69449427Y-53802286D01*
X69520856Y-53659429D01*
X69592284Y-53588000D01*
X69735142Y-53516571D01*
X70020856Y-53516571D01*
X70163713Y-53588000D01*
X71377998Y-54445143D02*
X71235141Y-54516571D01*
X70949427Y-54516571D01*
X70806570Y-54445143D01*
X70735141Y-54302286D01*
X70735141Y-53730857D01*
X70806570Y-53588000D01*
X70949427Y-53516571D01*
X71235141Y-53516571D01*
X71377998Y-53588000D01*
X71449427Y-53730857D01*
X71449427Y-53873714D01*
X70735141Y-54016571D01*
X40020857Y-55566571D02*
X40520857Y-57066571D01*
X41020857Y-55566571D01*
X42092285Y-56995143D02*
X41949428Y-57066571D01*
X41663714Y-57066571D01*
X41520857Y-56995143D01*
X41449428Y-56852286D01*
X41449428Y-56280857D01*
X41520857Y-56138000D01*
X41663714Y-56066571D01*
X41949428Y-56066571D01*
X42092285Y-56138000D01*
X42163714Y-56280857D01*
X42163714Y-56423714D01*
X41449428Y-56566571D01*
X42806571Y-57066571D02*
X42806571Y-56066571D01*
X42806571Y-56352286D02*
X42877999Y-56209429D01*
X42949428Y-56138000D01*
X43092285Y-56066571D01*
X43235142Y-56066571D01*
X43663713Y-56995143D02*
X43806570Y-57066571D01*
X44092285Y-57066571D01*
X44235142Y-56995143D01*
X44306570Y-56852286D01*
X44306570Y-56780857D01*
X44235142Y-56638000D01*
X44092285Y-56566571D01*
X43877999Y-56566571D01*
X43735142Y-56495143D01*
X43663713Y-56352286D01*
X43663713Y-56280857D01*
X43735142Y-56138000D01*
X43877999Y-56066571D01*
X44092285Y-56066571D01*
X44235142Y-56138000D01*
X44949428Y-57066571D02*
X44949428Y-56066571D01*
X44949428Y-55566571D02*
X44877999Y-55638000D01*
X44949428Y-55709429D01*
X45020856Y-55638000D01*
X44949428Y-55566571D01*
X44949428Y-55709429D01*
X45878000Y-57066571D02*
X45735142Y-56995143D01*
X45663714Y-56923714D01*
X45592285Y-56780857D01*
X45592285Y-56352286D01*
X45663714Y-56209429D01*
X45735142Y-56138000D01*
X45878000Y-56066571D01*
X46092285Y-56066571D01*
X46235142Y-56138000D01*
X46306571Y-56209429D01*
X46378000Y-56352286D01*
X46378000Y-56780857D01*
X46306571Y-56923714D01*
X46235142Y-56995143D01*
X46092285Y-57066571D01*
X45878000Y-57066571D01*
X47020857Y-56066571D02*
X47020857Y-57066571D01*
X47020857Y-56209429D02*
X47092285Y-56138000D01*
X47235143Y-56066571D01*
X47449428Y-56066571D01*
X47592285Y-56138000D01*
X47663714Y-56280857D01*
X47663714Y-57066571D01*
X50306571Y-57066571D02*
X49449428Y-57066571D01*
X49878000Y-57066571D02*
X49878000Y-55566571D01*
X49735143Y-55780857D01*
X49592285Y-55923714D01*
X49449428Y-55995143D01*
X50949428Y-56923714D02*
X51020856Y-56995143D01*
X50949428Y-57066571D01*
X50877999Y-56995143D01*
X50949428Y-56923714D01*
X50949428Y-57066571D01*
X51949428Y-55566571D02*
X52092285Y-55566571D01*
X52235142Y-55638000D01*
X52306571Y-55709429D01*
X52378000Y-55852286D01*
X52449428Y-56138000D01*
X52449428Y-56495143D01*
X52378000Y-56780857D01*
X52306571Y-56923714D01*
X52235142Y-56995143D01*
X52092285Y-57066571D01*
X51949428Y-57066571D01*
X51806571Y-56995143D01*
X51735142Y-56923714D01*
X51663714Y-56780857D01*
X51592285Y-56495143D01*
X51592285Y-56138000D01*
X51663714Y-55852286D01*
X51735142Y-55709429D01*
X51806571Y-55638000D01*
X51949428Y-55566571D01*
X40663714Y-60188000D02*
X40592286Y-60116571D01*
X40449429Y-59902286D01*
X40378000Y-59759429D01*
X40306571Y-59545143D01*
X40235143Y-59188000D01*
X40235143Y-58902286D01*
X40306571Y-58545143D01*
X40378000Y-58330857D01*
X40449429Y-58188000D01*
X40592286Y-57973714D01*
X40663714Y-57902286D01*
X41878000Y-59545143D02*
X41735143Y-59616571D01*
X41449429Y-59616571D01*
X41306571Y-59545143D01*
X41235143Y-59473714D01*
X41163714Y-59330857D01*
X41163714Y-58902286D01*
X41235143Y-58759429D01*
X41306571Y-58688000D01*
X41449429Y-58616571D01*
X41735143Y-58616571D01*
X41878000Y-58688000D01*
X42378000Y-60188000D02*
X42449428Y-60116571D01*
X42592285Y-59902286D01*
X42663714Y-59759429D01*
X42735143Y-59545143D01*
X42806571Y-59188000D01*
X42806571Y-58902286D01*
X42735143Y-58545143D01*
X42663714Y-58330857D01*
X42592285Y-58188000D01*
X42449428Y-57973714D01*
X42378000Y-57902286D01*
X44592285Y-58259429D02*
X44663714Y-58188000D01*
X44806571Y-58116571D01*
X45163714Y-58116571D01*
X45306571Y-58188000D01*
X45378000Y-58259429D01*
X45449428Y-58402286D01*
X45449428Y-58545143D01*
X45378000Y-58759429D01*
X44520857Y-59616571D01*
X45449428Y-59616571D01*
X46377999Y-58116571D02*
X46520856Y-58116571D01*
X46663713Y-58188000D01*
X46735142Y-58259429D01*
X46806571Y-58402286D01*
X46877999Y-58688000D01*
X46877999Y-59045143D01*
X46806571Y-59330857D01*
X46735142Y-59473714D01*
X46663713Y-59545143D01*
X46520856Y-59616571D01*
X46377999Y-59616571D01*
X46235142Y-59545143D01*
X46163713Y-59473714D01*
X46092285Y-59330857D01*
X46020856Y-59045143D01*
X46020856Y-58688000D01*
X46092285Y-58402286D01*
X46163713Y-58259429D01*
X46235142Y-58188000D01*
X46377999Y-58116571D01*
X48306570Y-59616571D02*
X47449427Y-59616571D01*
X47877999Y-59616571D02*
X47877999Y-58116571D01*
X47735142Y-58330857D01*
X47592284Y-58473714D01*
X47449427Y-58545143D01*
X49163713Y-58759429D02*
X49020855Y-58688000D01*
X48949427Y-58616571D01*
X48877998Y-58473714D01*
X48877998Y-58402286D01*
X48949427Y-58259429D01*
X49020855Y-58188000D01*
X49163713Y-58116571D01*
X49449427Y-58116571D01*
X49592284Y-58188000D01*
X49663713Y-58259429D01*
X49735141Y-58402286D01*
X49735141Y-58473714D01*
X49663713Y-58616571D01*
X49592284Y-58688000D01*
X49449427Y-58759429D01*
X49163713Y-58759429D01*
X49020855Y-58830857D01*
X48949427Y-58902286D01*
X48877998Y-59045143D01*
X48877998Y-59330857D01*
X48949427Y-59473714D01*
X49020855Y-59545143D01*
X49163713Y-59616571D01*
X49449427Y-59616571D01*
X49592284Y-59545143D01*
X49663713Y-59473714D01*
X49735141Y-59330857D01*
X49735141Y-59045143D01*
X49663713Y-58902286D01*
X49592284Y-58830857D01*
X49449427Y-58759429D01*
X51306569Y-58116571D02*
X52163712Y-58116571D01*
X51735141Y-59616571D02*
X51735141Y-58116571D01*
X52663712Y-59616571D02*
X52663712Y-58616571D01*
X52663712Y-58902286D02*
X52735140Y-58759429D01*
X52806569Y-58688000D01*
X52949426Y-58616571D01*
X53092283Y-58616571D01*
X54163711Y-59545143D02*
X54020854Y-59616571D01*
X53735140Y-59616571D01*
X53592283Y-59545143D01*
X53520854Y-59402286D01*
X53520854Y-58830857D01*
X53592283Y-58688000D01*
X53735140Y-58616571D01*
X54020854Y-58616571D01*
X54163711Y-58688000D01*
X54235140Y-58830857D01*
X54235140Y-58973714D01*
X53520854Y-59116571D01*
X54877997Y-58616571D02*
X54877997Y-59616571D01*
X54877997Y-58759429D02*
X54949425Y-58688000D01*
X55092283Y-58616571D01*
X55306568Y-58616571D01*
X55449425Y-58688000D01*
X55520854Y-58830857D01*
X55520854Y-59616571D01*
X56020854Y-58616571D02*
X56592283Y-58616571D01*
X56235140Y-58116571D02*
X56235140Y-59402286D01*
X56306568Y-59545143D01*
X56449426Y-59616571D01*
X56592283Y-59616571D01*
X58235140Y-59616571D02*
X58235140Y-58116571D01*
X58592283Y-58116571D01*
X58806568Y-58188000D01*
X58949426Y-58330857D01*
X59020854Y-58473714D01*
X59092283Y-58759429D01*
X59092283Y-58973714D01*
X59020854Y-59259429D01*
X58949426Y-59402286D01*
X58806568Y-59545143D01*
X58592283Y-59616571D01*
X58235140Y-59616571D01*
X59592283Y-58616571D02*
X59949426Y-59616571D01*
X60306568Y-58616571D02*
X59949426Y-59616571D01*
X59806568Y-59973714D01*
X59735140Y-60045143D01*
X59592283Y-60116571D01*
X61449425Y-59545143D02*
X61306568Y-59616571D01*
X61020854Y-59616571D01*
X60877997Y-59545143D01*
X60806568Y-59402286D01*
X60806568Y-58830857D01*
X60877997Y-58688000D01*
X61020854Y-58616571D01*
X61306568Y-58616571D01*
X61449425Y-58688000D01*
X61520854Y-58830857D01*
X61520854Y-58973714D01*
X60806568Y-59116571D01*
D12*
X45462000Y-64786000D02*
X45462000Y-66786000D01*
X47502000Y-66786000D02*
X47502000Y-64786000D01*
X46676500Y-89773000D02*
X46676500Y-87773000D01*
X44636500Y-87773000D02*
X44636500Y-89773000D01*
X57471500Y-88820500D02*
X57471500Y-86820500D01*
X55431500Y-86820500D02*
X55431500Y-88820500D01*
X47768000Y-46486000D02*
X49768000Y-46486000D01*
X49768000Y-44446000D02*
X47768000Y-44446000D01*
X51591500Y-42909000D02*
X51591500Y-38659000D01*
X53691500Y-42909000D02*
X53691500Y-38659000D01*
X51591500Y-42909000D02*
X53691500Y-42909000D01*
X76513500Y-42180000D02*
X76513500Y-44180000D01*
X78553500Y-44180000D02*
X78553500Y-42180000D01*
X66786000Y-113534000D02*
X64786000Y-113534000D01*
X64786000Y-115574000D02*
X66786000Y-115574000D01*
X54535000Y-27937500D02*
X54535000Y-26037500D01*
X54535000Y-26037500D02*
X49835000Y-26037500D01*
X54535000Y-27937500D02*
X49835000Y-27937500D01*
X55868500Y-63815000D02*
X55868500Y-61915000D01*
X55868500Y-61915000D02*
X51168500Y-61915000D01*
X55868500Y-63815000D02*
X51168500Y-63815000D01*
X65711000Y-27937500D02*
X65711000Y-26037500D01*
X65711000Y-26037500D02*
X61011000Y-26037500D01*
X65711000Y-27937500D02*
X61011000Y-27937500D01*
X33507000Y-54853000D02*
X34332000Y-54853000D01*
X34332000Y-54853000D02*
X34332000Y-63003000D01*
X34332000Y-63003000D02*
X33507000Y-63003000D01*
X29957000Y-54853000D02*
X29132000Y-54853000D01*
X29132000Y-54853000D02*
X29132000Y-57153000D01*
X29957000Y-63003000D02*
X29132000Y-63003000D01*
X29132000Y-63003000D02*
X29132000Y-60703000D01*
X29132000Y-57153000D02*
X26732000Y-57153000D01*
X49292000Y-106118000D02*
X51292000Y-106118000D01*
X51292000Y-108258000D02*
X49292000Y-108258000D01*
X56016500Y-109267500D02*
X56016500Y-107267500D01*
X58156500Y-107267500D02*
X58156500Y-109267500D01*
X52435000Y-32185000D02*
X50435000Y-32185000D01*
X50435000Y-30045000D02*
X52435000Y-30045000D01*
X39735000Y-38916000D02*
X37735000Y-38916000D01*
X37735000Y-36776000D02*
X39735000Y-36776000D01*
X74438000Y-88338000D02*
X76438000Y-88338000D01*
X76438000Y-90478000D02*
X74438000Y-90478000D01*
X78667000Y-50816000D02*
X78667000Y-52816000D01*
X76527000Y-52816000D02*
X76527000Y-50816000D01*
X53705000Y-66729000D02*
X51705000Y-66729000D01*
X51705000Y-64589000D02*
X53705000Y-64589000D01*
X49292000Y-109166000D02*
X51292000Y-109166000D01*
X51292000Y-111306000D02*
X49292000Y-111306000D01*
X61611000Y-29918000D02*
X63611000Y-29918000D01*
X63611000Y-32058000D02*
X61611000Y-32058000D01*
X80557000Y-84725000D02*
X80557000Y-80225000D01*
X76557000Y-85975000D02*
X78057000Y-85975000D01*
X74057000Y-80225000D02*
X74057000Y-84725000D01*
X78057000Y-78975000D02*
X76557000Y-78975000D01*
X30039000Y-73930000D02*
G75*
G02X30039000Y-75930000I0J-1000000D01*
G01*
X30039000Y-75930000D02*
X30039000Y-77580000D01*
X30039000Y-77580000D02*
X65719000Y-77580000D01*
X65719000Y-77580000D02*
X65719000Y-72280000D01*
X65719000Y-72280000D02*
X30039000Y-72280000D01*
X30039000Y-72280000D02*
X30039000Y-73930000D01*
X29979000Y-80070000D02*
X65779000Y-80070000D01*
X65779000Y-80070000D02*
X65779000Y-69790000D01*
X65779000Y-69790000D02*
X29979000Y-69790000D01*
X29979000Y-69790000D02*
X29979000Y-80070000D01*
X38470000Y-46568000D02*
X40270000Y-46568000D01*
X40270000Y-43348000D02*
X37820000Y-43348000D01*
X46142000Y-39486000D02*
X46142000Y-41286000D01*
X49362000Y-41286000D02*
X49362000Y-38836000D01*
D13*
X54343000Y-85634500D02*
X54343000Y-98134500D01*
X54343000Y-98134500D02*
X49543000Y-98134500D01*
X49543000Y-98134500D02*
X49543000Y-85634500D01*
X49543000Y-85634500D02*
X54343000Y-85634500D01*
X54343000Y-85634500D02*
X54343000Y-85684500D01*
X47561500Y-115570000D02*
X45021500Y-115570000D01*
X45021500Y-115570000D02*
X45021500Y-113538000D01*
X45021500Y-113538000D02*
X47561500Y-113538000D01*
X47561500Y-115570000D02*
X59753500Y-115570000D01*
X59753500Y-115570000D02*
X59753500Y-113538000D01*
X59753500Y-113538000D02*
X47561500Y-113538000D01*
X47561500Y-115570000D02*
X47561500Y-115570000D01*
X70463210Y-70358000D02*
G75*
G03X70463210Y-70358000I-359210J0D01*
G01*
X71120000Y-69088000D02*
X71120000Y-76708000D01*
X71120000Y-76708000D02*
X76200000Y-76708000D01*
X76200000Y-76708000D02*
X76200000Y-69088000D01*
X76200000Y-69088000D02*
X71120000Y-69088000D01*
X27042000Y-42926000D02*
X27642000Y-42526000D01*
X29442000Y-42926000D02*
X27042000Y-42926000D01*
X27042000Y-42926000D02*
X27642000Y-43326000D01*
X34042000Y-35926000D02*
X34042000Y-49926000D01*
X34042000Y-49926000D02*
X26042000Y-49926000D01*
X26042000Y-49926000D02*
X26042000Y-35926000D01*
X26042000Y-35926000D02*
X34042000Y-35926000D01*
X42135000Y-48149000D02*
X37135000Y-48149000D01*
X42135000Y-50149000D02*
X37135000Y-50149000D01*
X42135000Y-50149000D02*
X42135000Y-48149000D01*
D12*
X48053500Y-81276000D02*
X46053500Y-81276000D01*
X46053500Y-83316000D02*
X48053500Y-83316000D01*
D13*
X46315334Y-61825143D02*
X46267715Y-61872762D01*
X46124858Y-61920381D01*
X46029620Y-61920381D01*
X45886762Y-61872762D01*
X45791524Y-61777524D01*
X45743905Y-61682286D01*
X45696286Y-61491810D01*
X45696286Y-61348952D01*
X45743905Y-61158476D01*
X45791524Y-61063238D01*
X45886762Y-60968000D01*
X46029620Y-60920381D01*
X46124858Y-60920381D01*
X46267715Y-60968000D01*
X46315334Y-61015619D01*
X47267715Y-61920381D02*
X46696286Y-61920381D01*
X46982000Y-61920381D02*
X46982000Y-60920381D01*
X46886762Y-61063238D01*
X46791524Y-61158476D01*
X46696286Y-61206095D01*
X44299143Y-88812666D02*
X44346762Y-88860285D01*
X44394381Y-89003142D01*
X44394381Y-89098380D01*
X44346762Y-89241238D01*
X44251524Y-89336476D01*
X44156286Y-89384095D01*
X43965810Y-89431714D01*
X43822952Y-89431714D01*
X43632476Y-89384095D01*
X43537238Y-89336476D01*
X43442000Y-89241238D01*
X43394381Y-89098380D01*
X43394381Y-89003142D01*
X43442000Y-88860285D01*
X43489619Y-88812666D01*
X43489619Y-88431714D02*
X43442000Y-88384095D01*
X43394381Y-88288857D01*
X43394381Y-88050761D01*
X43442000Y-87955523D01*
X43489619Y-87907904D01*
X43584857Y-87860285D01*
X43680095Y-87860285D01*
X43822952Y-87907904D01*
X44394381Y-88479333D01*
X44394381Y-87860285D01*
X58558643Y-87987166D02*
X58606262Y-88034785D01*
X58653881Y-88177642D01*
X58653881Y-88272880D01*
X58606262Y-88415738D01*
X58511024Y-88510976D01*
X58415786Y-88558595D01*
X58225310Y-88606214D01*
X58082452Y-88606214D01*
X57891976Y-88558595D01*
X57796738Y-88510976D01*
X57701500Y-88415738D01*
X57653881Y-88272880D01*
X57653881Y-88177642D01*
X57701500Y-88034785D01*
X57749119Y-87987166D01*
X57653881Y-87653833D02*
X57653881Y-87034785D01*
X58034833Y-87368119D01*
X58034833Y-87225261D01*
X58082452Y-87130023D01*
X58130071Y-87082404D01*
X58225310Y-87034785D01*
X58463405Y-87034785D01*
X58558643Y-87082404D01*
X58606262Y-87130023D01*
X58653881Y-87225261D01*
X58653881Y-87510976D01*
X58606262Y-87606214D01*
X58558643Y-87653833D01*
X48601334Y-47573143D02*
X48553715Y-47620762D01*
X48410858Y-47668381D01*
X48315620Y-47668381D01*
X48172762Y-47620762D01*
X48077524Y-47525524D01*
X48029905Y-47430286D01*
X47982286Y-47239810D01*
X47982286Y-47096952D01*
X48029905Y-46906476D01*
X48077524Y-46811238D01*
X48172762Y-46716000D01*
X48315620Y-46668381D01*
X48410858Y-46668381D01*
X48553715Y-46716000D01*
X48601334Y-46763619D01*
X49458477Y-47001714D02*
X49458477Y-47668381D01*
X49220381Y-46620762D02*
X48982286Y-47335048D01*
X49601334Y-47335048D01*
X54967143Y-40425666D02*
X55014762Y-40473285D01*
X55062381Y-40616142D01*
X55062381Y-40711380D01*
X55014762Y-40854238D01*
X54919524Y-40949476D01*
X54824286Y-40997095D01*
X54633810Y-41044714D01*
X54490952Y-41044714D01*
X54300476Y-40997095D01*
X54205238Y-40949476D01*
X54110000Y-40854238D01*
X54062381Y-40711380D01*
X54062381Y-40616142D01*
X54110000Y-40473285D01*
X54157619Y-40425666D01*
X54062381Y-39520904D02*
X54062381Y-39997095D01*
X54538571Y-40044714D01*
X54490952Y-39997095D01*
X54443333Y-39901857D01*
X54443333Y-39663761D01*
X54490952Y-39568523D01*
X54538571Y-39520904D01*
X54633810Y-39473285D01*
X54871905Y-39473285D01*
X54967143Y-39520904D01*
X55014762Y-39568523D01*
X55062381Y-39663761D01*
X55062381Y-39901857D01*
X55014762Y-39997095D01*
X54967143Y-40044714D01*
X76140643Y-43346666D02*
X76188262Y-43394285D01*
X76235881Y-43537142D01*
X76235881Y-43632380D01*
X76188262Y-43775238D01*
X76093024Y-43870476D01*
X75997786Y-43918095D01*
X75807310Y-43965714D01*
X75664452Y-43965714D01*
X75473976Y-43918095D01*
X75378738Y-43870476D01*
X75283500Y-43775238D01*
X75235881Y-43632380D01*
X75235881Y-43537142D01*
X75283500Y-43394285D01*
X75331119Y-43346666D01*
X75235881Y-42489523D02*
X75235881Y-42680000D01*
X75283500Y-42775238D01*
X75331119Y-42822857D01*
X75473976Y-42918095D01*
X75664452Y-42965714D01*
X76045405Y-42965714D01*
X76140643Y-42918095D01*
X76188262Y-42870476D01*
X76235881Y-42775238D01*
X76235881Y-42584761D01*
X76188262Y-42489523D01*
X76140643Y-42441904D01*
X76045405Y-42394285D01*
X75807310Y-42394285D01*
X75712071Y-42441904D01*
X75664452Y-42489523D01*
X75616833Y-42584761D01*
X75616833Y-42775238D01*
X75664452Y-42870476D01*
X75712071Y-42918095D01*
X75807310Y-42965714D01*
X65619334Y-113161143D02*
X65571715Y-113208762D01*
X65428858Y-113256381D01*
X65333620Y-113256381D01*
X65190762Y-113208762D01*
X65095524Y-113113524D01*
X65047905Y-113018286D01*
X65000286Y-112827810D01*
X65000286Y-112684952D01*
X65047905Y-112494476D01*
X65095524Y-112399238D01*
X65190762Y-112304000D01*
X65333620Y-112256381D01*
X65428858Y-112256381D01*
X65571715Y-112304000D01*
X65619334Y-112351619D01*
X65952667Y-112256381D02*
X66619334Y-112256381D01*
X66190762Y-113256381D01*
X46505905Y-27503381D02*
X46505905Y-26503381D01*
X46744000Y-26503381D01*
X46886858Y-26551000D01*
X46982096Y-26646238D01*
X47029715Y-26741476D01*
X47077334Y-26931952D01*
X47077334Y-27074810D01*
X47029715Y-27265286D01*
X46982096Y-27360524D01*
X46886858Y-27455762D01*
X46744000Y-27503381D01*
X46505905Y-27503381D01*
X48029715Y-27503381D02*
X47458286Y-27503381D01*
X47744000Y-27503381D02*
X47744000Y-26503381D01*
X47648762Y-26646238D01*
X47553524Y-26741476D01*
X47458286Y-26789095D01*
X56411905Y-63317381D02*
X56411905Y-62317381D01*
X56650000Y-62317381D01*
X56792858Y-62365000D01*
X56888096Y-62460238D01*
X56935715Y-62555476D01*
X56983334Y-62745952D01*
X56983334Y-62888810D01*
X56935715Y-63079286D01*
X56888096Y-63174524D01*
X56792858Y-63269762D01*
X56650000Y-63317381D01*
X56411905Y-63317381D01*
X57316667Y-62317381D02*
X57935715Y-62317381D01*
X57602381Y-62698333D01*
X57745239Y-62698333D01*
X57840477Y-62745952D01*
X57888096Y-62793571D01*
X57935715Y-62888810D01*
X57935715Y-63126905D01*
X57888096Y-63222143D01*
X57840477Y-63269762D01*
X57745239Y-63317381D01*
X57459524Y-63317381D01*
X57364286Y-63269762D01*
X57316667Y-63222143D01*
X57681905Y-27503381D02*
X57681905Y-26503381D01*
X57920000Y-26503381D01*
X58062858Y-26551000D01*
X58158096Y-26646238D01*
X58205715Y-26741476D01*
X58253334Y-26931952D01*
X58253334Y-27074810D01*
X58205715Y-27265286D01*
X58158096Y-27360524D01*
X58062858Y-27455762D01*
X57920000Y-27503381D01*
X57681905Y-27503381D01*
X59110477Y-26836714D02*
X59110477Y-27503381D01*
X58872381Y-26455762D02*
X58634286Y-27170048D01*
X59253334Y-27170048D01*
X33575667Y-52665381D02*
X33575667Y-53379667D01*
X33528047Y-53522524D01*
X33432809Y-53617762D01*
X33289952Y-53665381D01*
X33194714Y-53665381D01*
X34575667Y-53665381D02*
X34004238Y-53665381D01*
X34289952Y-53665381D02*
X34289952Y-52665381D01*
X34194714Y-52808238D01*
X34099476Y-52903476D01*
X34004238Y-52951095D01*
X39104167Y-30762881D02*
X39104167Y-31477167D01*
X39056547Y-31620024D01*
X38961309Y-31715262D01*
X38818452Y-31762881D01*
X38723214Y-31762881D01*
X40008929Y-31096214D02*
X40008929Y-31762881D01*
X39770833Y-30715262D02*
X39532738Y-31429548D01*
X40151786Y-31429548D01*
X48577715Y-104862381D02*
X48577715Y-105576667D01*
X48530095Y-105719524D01*
X48434857Y-105814762D01*
X48292000Y-105862381D01*
X48196762Y-105862381D01*
X49053905Y-105862381D02*
X49053905Y-104862381D01*
X49434858Y-104862381D01*
X49530096Y-104910000D01*
X49577715Y-104957619D01*
X49625334Y-105052857D01*
X49625334Y-105195714D01*
X49577715Y-105290952D01*
X49530096Y-105338571D01*
X49434858Y-105386190D01*
X49053905Y-105386190D01*
X51387239Y-105862381D02*
X51053905Y-105386190D01*
X50815810Y-105862381D02*
X50815810Y-104862381D01*
X51196763Y-104862381D01*
X51292001Y-104910000D01*
X51339620Y-104957619D01*
X51387239Y-105052857D01*
X51387239Y-105195714D01*
X51339620Y-105290952D01*
X51292001Y-105338571D01*
X51196763Y-105386190D01*
X50815810Y-105386190D01*
X51720572Y-104862381D02*
X52387239Y-105862381D01*
X52387239Y-104862381D02*
X51720572Y-105862381D01*
X58380381Y-109926238D02*
X59094667Y-109926238D01*
X59237524Y-109973858D01*
X59332762Y-110069096D01*
X59380381Y-110211953D01*
X59380381Y-110307191D01*
X59380381Y-109450048D02*
X58380381Y-109450048D01*
X58380381Y-109069095D01*
X58428000Y-108973857D01*
X58475619Y-108926238D01*
X58570857Y-108878619D01*
X58713714Y-108878619D01*
X58808952Y-108926238D01*
X58856571Y-108973857D01*
X58904190Y-109069095D01*
X58904190Y-109450048D01*
X58380381Y-107831000D02*
X58380381Y-107259571D01*
X59380381Y-107545286D02*
X58380381Y-107545286D01*
X58380381Y-107021476D02*
X59380381Y-106354809D01*
X58380381Y-106354809D02*
X59380381Y-107021476D01*
X47077334Y-31567381D02*
X46744000Y-31091190D01*
X46505905Y-31567381D02*
X46505905Y-30567381D01*
X46886858Y-30567381D01*
X46982096Y-30615000D01*
X47029715Y-30662619D01*
X47077334Y-30757857D01*
X47077334Y-30900714D01*
X47029715Y-30995952D01*
X46982096Y-31043571D01*
X46886858Y-31091190D01*
X46505905Y-31091190D01*
X48029715Y-31567381D02*
X47458286Y-31567381D01*
X47744000Y-31567381D02*
X47744000Y-30567381D01*
X47648762Y-30710238D01*
X47553524Y-30805476D01*
X47458286Y-30853095D01*
X38568334Y-36448381D02*
X38235000Y-35972190D01*
X37996905Y-36448381D02*
X37996905Y-35448381D01*
X38377858Y-35448381D01*
X38473096Y-35496000D01*
X38520715Y-35543619D01*
X38568334Y-35638857D01*
X38568334Y-35781714D01*
X38520715Y-35876952D01*
X38473096Y-35924571D01*
X38377858Y-35972190D01*
X37996905Y-35972190D01*
X38949286Y-35543619D02*
X38996905Y-35496000D01*
X39092143Y-35448381D01*
X39330239Y-35448381D01*
X39425477Y-35496000D01*
X39473096Y-35543619D01*
X39520715Y-35638857D01*
X39520715Y-35734095D01*
X39473096Y-35876952D01*
X38901667Y-36448381D01*
X39520715Y-36448381D01*
X75271334Y-91710381D02*
X74938000Y-91234190D01*
X74699905Y-91710381D02*
X74699905Y-90710381D01*
X75080858Y-90710381D01*
X75176096Y-90758000D01*
X75223715Y-90805619D01*
X75271334Y-90900857D01*
X75271334Y-91043714D01*
X75223715Y-91138952D01*
X75176096Y-91186571D01*
X75080858Y-91234190D01*
X74699905Y-91234190D01*
X75604667Y-90710381D02*
X76223715Y-90710381D01*
X75890381Y-91091333D01*
X76033239Y-91091333D01*
X76128477Y-91138952D01*
X76176096Y-91186571D01*
X76223715Y-91281810D01*
X76223715Y-91519905D01*
X76176096Y-91615143D01*
X76128477Y-91662762D01*
X76033239Y-91710381D01*
X75747524Y-91710381D01*
X75652286Y-91662762D01*
X75604667Y-91615143D01*
X76199381Y-51982666D02*
X75723190Y-52316000D01*
X76199381Y-52554095D02*
X75199381Y-52554095D01*
X75199381Y-52173142D01*
X75247000Y-52077904D01*
X75294619Y-52030285D01*
X75389857Y-51982666D01*
X75532714Y-51982666D01*
X75627952Y-52030285D01*
X75675571Y-52077904D01*
X75723190Y-52173142D01*
X75723190Y-52554095D01*
X75532714Y-51125523D02*
X76199381Y-51125523D01*
X75151762Y-51363619D02*
X75866048Y-51601714D01*
X75866048Y-50982666D01*
X57046834Y-66238381D02*
X56713500Y-65762190D01*
X56475405Y-66238381D02*
X56475405Y-65238381D01*
X56856358Y-65238381D01*
X56951596Y-65286000D01*
X56999215Y-65333619D01*
X57046834Y-65428857D01*
X57046834Y-65571714D01*
X56999215Y-65666952D01*
X56951596Y-65714571D01*
X56856358Y-65762190D01*
X56475405Y-65762190D01*
X57951596Y-65238381D02*
X57475405Y-65238381D01*
X57427786Y-65714571D01*
X57475405Y-65666952D01*
X57570643Y-65619333D01*
X57808739Y-65619333D01*
X57903977Y-65666952D01*
X57951596Y-65714571D01*
X57999215Y-65809810D01*
X57999215Y-66047905D01*
X57951596Y-66143143D01*
X57903977Y-66190762D01*
X57808739Y-66238381D01*
X57570643Y-66238381D01*
X57475405Y-66190762D01*
X57427786Y-66143143D01*
X45807334Y-110815381D02*
X45474000Y-110339190D01*
X45235905Y-110815381D02*
X45235905Y-109815381D01*
X45616858Y-109815381D01*
X45712096Y-109863000D01*
X45759715Y-109910619D01*
X45807334Y-110005857D01*
X45807334Y-110148714D01*
X45759715Y-110243952D01*
X45712096Y-110291571D01*
X45616858Y-110339190D01*
X45235905Y-110339190D01*
X46664477Y-109815381D02*
X46474000Y-109815381D01*
X46378762Y-109863000D01*
X46331143Y-109910619D01*
X46235905Y-110053476D01*
X46188286Y-110243952D01*
X46188286Y-110624905D01*
X46235905Y-110720143D01*
X46283524Y-110767762D01*
X46378762Y-110815381D01*
X46569239Y-110815381D01*
X46664477Y-110767762D01*
X46712096Y-110720143D01*
X46759715Y-110624905D01*
X46759715Y-110386810D01*
X46712096Y-110291571D01*
X46664477Y-110243952D01*
X46569239Y-110196333D01*
X46378762Y-110196333D01*
X46283524Y-110243952D01*
X46235905Y-110291571D01*
X46188286Y-110386810D01*
X58253334Y-31567381D02*
X57920000Y-31091190D01*
X57681905Y-31567381D02*
X57681905Y-30567381D01*
X58062858Y-30567381D01*
X58158096Y-30615000D01*
X58205715Y-30662619D01*
X58253334Y-30757857D01*
X58253334Y-30900714D01*
X58205715Y-30995952D01*
X58158096Y-31043571D01*
X58062858Y-31091190D01*
X57681905Y-31091190D01*
X58586667Y-30567381D02*
X59253334Y-30567381D01*
X58824762Y-31567381D01*
X77711762Y-83808333D02*
X77759381Y-83665476D01*
X77759381Y-83427380D01*
X77711762Y-83332142D01*
X77664143Y-83284523D01*
X77568905Y-83236904D01*
X77473667Y-83236904D01*
X77378429Y-83284523D01*
X77330810Y-83332142D01*
X77283190Y-83427380D01*
X77235571Y-83617857D01*
X77187952Y-83713095D01*
X77140333Y-83760714D01*
X77045095Y-83808333D01*
X76949857Y-83808333D01*
X76854619Y-83760714D01*
X76807000Y-83713095D01*
X76759381Y-83617857D01*
X76759381Y-83379761D01*
X76807000Y-83236904D01*
X76759381Y-82903571D02*
X77759381Y-82665476D01*
X77045095Y-82474999D01*
X77759381Y-82284523D01*
X76759381Y-82046428D01*
X76854619Y-81713095D02*
X76807000Y-81665476D01*
X76759381Y-81570238D01*
X76759381Y-81332142D01*
X76807000Y-81236904D01*
X76854619Y-81189285D01*
X76949857Y-81141666D01*
X77045095Y-81141666D01*
X77187952Y-81189285D01*
X77759381Y-81760714D01*
X77759381Y-81141666D01*
X67310096Y-30234000D02*
X67214858Y-30186381D01*
X67072001Y-30186381D01*
X66929143Y-30234000D01*
X66833905Y-30329238D01*
X66786286Y-30424476D01*
X66738667Y-30614952D01*
X66738667Y-30757810D01*
X66786286Y-30948286D01*
X66833905Y-31043524D01*
X66929143Y-31138762D01*
X67072001Y-31186381D01*
X67167239Y-31186381D01*
X67310096Y-31138762D01*
X67357715Y-31091143D01*
X67357715Y-30757810D01*
X67167239Y-30757810D01*
X67786286Y-31186381D02*
X67786286Y-30186381D01*
X68357715Y-31186381D01*
X68357715Y-30186381D01*
X68833905Y-31186381D02*
X68833905Y-30186381D01*
X69072000Y-30186381D01*
X69214858Y-30234000D01*
X69310096Y-30329238D01*
X69357715Y-30424476D01*
X69405334Y-30614952D01*
X69405334Y-30757810D01*
X69357715Y-30948286D01*
X69310096Y-31043524D01*
X69214858Y-31138762D01*
X69072000Y-31186381D01*
X68833905Y-31186381D01*
X42164095Y-66095619D02*
X42211714Y-66048000D01*
X42306952Y-66000381D01*
X42545048Y-66000381D01*
X42640286Y-66048000D01*
X42687905Y-66095619D01*
X42735524Y-66190857D01*
X42735524Y-66286095D01*
X42687905Y-66428952D01*
X42116476Y-67000381D01*
X42735524Y-67000381D01*
X43068857Y-66000381D02*
X43687905Y-66000381D01*
X43354571Y-66381333D01*
X43497429Y-66381333D01*
X43592667Y-66428952D01*
X43640286Y-66476571D01*
X43687905Y-66571810D01*
X43687905Y-66809905D01*
X43640286Y-66905143D01*
X43592667Y-66952762D01*
X43497429Y-67000381D01*
X43211714Y-67000381D01*
X43116476Y-66952762D01*
X43068857Y-66905143D01*
X39624095Y-66095619D02*
X39671714Y-66048000D01*
X39766952Y-66000381D01*
X40005048Y-66000381D01*
X40100286Y-66048000D01*
X40147905Y-66095619D01*
X40195524Y-66190857D01*
X40195524Y-66286095D01*
X40147905Y-66428952D01*
X39576476Y-67000381D01*
X40195524Y-67000381D01*
X41052667Y-66333714D02*
X41052667Y-67000381D01*
X40814571Y-65952762D02*
X40576476Y-66667048D01*
X41195524Y-66667048D01*
X37084095Y-66095619D02*
X37131714Y-66048000D01*
X37226952Y-66000381D01*
X37465048Y-66000381D01*
X37560286Y-66048000D01*
X37607905Y-66095619D01*
X37655524Y-66190857D01*
X37655524Y-66286095D01*
X37607905Y-66428952D01*
X37036476Y-67000381D01*
X37655524Y-67000381D01*
X38560286Y-66000381D02*
X38084095Y-66000381D01*
X38036476Y-66476571D01*
X38084095Y-66428952D01*
X38179333Y-66381333D01*
X38417429Y-66381333D01*
X38512667Y-66428952D01*
X38560286Y-66476571D01*
X38607905Y-66571810D01*
X38607905Y-66809905D01*
X38560286Y-66905143D01*
X38512667Y-66952762D01*
X38417429Y-67000381D01*
X38179333Y-67000381D01*
X38084095Y-66952762D01*
X38036476Y-66905143D01*
X34544095Y-66095619D02*
X34591714Y-66048000D01*
X34686952Y-66000381D01*
X34925048Y-66000381D01*
X35020286Y-66048000D01*
X35067905Y-66095619D01*
X35115524Y-66190857D01*
X35115524Y-66286095D01*
X35067905Y-66428952D01*
X34496476Y-67000381D01*
X35115524Y-67000381D01*
X35972667Y-66000381D02*
X35782190Y-66000381D01*
X35686952Y-66048000D01*
X35639333Y-66095619D01*
X35544095Y-66238476D01*
X35496476Y-66428952D01*
X35496476Y-66809905D01*
X35544095Y-66905143D01*
X35591714Y-66952762D01*
X35686952Y-67000381D01*
X35877429Y-67000381D01*
X35972667Y-66952762D01*
X36020286Y-66905143D01*
X36067905Y-66809905D01*
X36067905Y-66571810D01*
X36020286Y-66476571D01*
X35972667Y-66428952D01*
X35877429Y-66381333D01*
X35686952Y-66381333D01*
X35591714Y-66428952D01*
X35544095Y-66476571D01*
X35496476Y-66571810D01*
X32004095Y-66095619D02*
X32051714Y-66048000D01*
X32146952Y-66000381D01*
X32385048Y-66000381D01*
X32480286Y-66048000D01*
X32527905Y-66095619D01*
X32575524Y-66190857D01*
X32575524Y-66286095D01*
X32527905Y-66428952D01*
X31956476Y-67000381D01*
X32575524Y-67000381D01*
X32908857Y-66000381D02*
X33575524Y-66000381D01*
X33146952Y-67000381D01*
X29464095Y-66095619D02*
X29511714Y-66048000D01*
X29606952Y-66000381D01*
X29845048Y-66000381D01*
X29940286Y-66048000D01*
X29987905Y-66095619D01*
X30035524Y-66190857D01*
X30035524Y-66286095D01*
X29987905Y-66428952D01*
X29416476Y-67000381D01*
X30035524Y-67000381D01*
X30606952Y-66428952D02*
X30511714Y-66381333D01*
X30464095Y-66333714D01*
X30416476Y-66238476D01*
X30416476Y-66190857D01*
X30464095Y-66095619D01*
X30511714Y-66048000D01*
X30606952Y-66000381D01*
X30797429Y-66000381D01*
X30892667Y-66048000D01*
X30940286Y-66095619D01*
X30987905Y-66190857D01*
X30987905Y-66238476D01*
X30940286Y-66333714D01*
X30892667Y-66381333D01*
X30797429Y-66428952D01*
X30606952Y-66428952D01*
X30511714Y-66476571D01*
X30464095Y-66524190D01*
X30416476Y-66619429D01*
X30416476Y-66809905D01*
X30464095Y-66905143D01*
X30511714Y-66952762D01*
X30606952Y-67000381D01*
X30797429Y-67000381D01*
X30892667Y-66952762D01*
X30940286Y-66905143D01*
X30987905Y-66809905D01*
X30987905Y-66619429D01*
X30940286Y-66524190D01*
X30892667Y-66476571D01*
X30797429Y-66428952D01*
X71024905Y-30186381D02*
X71643953Y-30186381D01*
X71310619Y-30567333D01*
X71453477Y-30567333D01*
X71548715Y-30614952D01*
X71596334Y-30662571D01*
X71643953Y-30757810D01*
X71643953Y-30995905D01*
X71596334Y-31091143D01*
X71548715Y-31138762D01*
X71453477Y-31186381D01*
X71167762Y-31186381D01*
X71072524Y-31138762D01*
X71024905Y-31091143D01*
X71929667Y-30186381D02*
X72263000Y-31186381D01*
X72596334Y-30186381D01*
X72834429Y-30186381D02*
X73453477Y-30186381D01*
X73120143Y-30567333D01*
X73263001Y-30567333D01*
X73358239Y-30614952D01*
X73405858Y-30662571D01*
X73453477Y-30757810D01*
X73453477Y-30995905D01*
X73405858Y-31091143D01*
X73358239Y-31138762D01*
X73263001Y-31186381D01*
X72977286Y-31186381D01*
X72882048Y-31138762D01*
X72834429Y-31091143D01*
X28491381Y-75691905D02*
X29300905Y-75691905D01*
X29396143Y-75644286D01*
X29443762Y-75596667D01*
X29491381Y-75501429D01*
X29491381Y-75310952D01*
X29443762Y-75215714D01*
X29396143Y-75168095D01*
X29300905Y-75120476D01*
X28491381Y-75120476D01*
X28586619Y-74691905D02*
X28539000Y-74644286D01*
X28491381Y-74549048D01*
X28491381Y-74310952D01*
X28539000Y-74215714D01*
X28586619Y-74168095D01*
X28681857Y-74120476D01*
X28777095Y-74120476D01*
X28919952Y-74168095D01*
X29491381Y-74739524D01*
X29491381Y-74120476D01*
X38481095Y-41870381D02*
X38481095Y-42679905D01*
X38528714Y-42775143D01*
X38576333Y-42822762D01*
X38671571Y-42870381D01*
X38862048Y-42870381D01*
X38957286Y-42822762D01*
X39004905Y-42775143D01*
X39052524Y-42679905D01*
X39052524Y-41870381D01*
X39433476Y-41870381D02*
X40052524Y-41870381D01*
X39719190Y-42251333D01*
X39862048Y-42251333D01*
X39957286Y-42298952D01*
X40004905Y-42346571D01*
X40052524Y-42441810D01*
X40052524Y-42679905D01*
X40004905Y-42775143D01*
X39957286Y-42822762D01*
X39862048Y-42870381D01*
X39576333Y-42870381D01*
X39481095Y-42822762D01*
X39433476Y-42775143D01*
X46863095Y-36790381D02*
X46863095Y-37599905D01*
X46910714Y-37695143D01*
X46958333Y-37742762D01*
X47053571Y-37790381D01*
X47244048Y-37790381D01*
X47339286Y-37742762D01*
X47386905Y-37695143D01*
X47434524Y-37599905D01*
X47434524Y-36790381D01*
X48339286Y-37123714D02*
X48339286Y-37790381D01*
X48101190Y-36742762D02*
X47863095Y-37457048D01*
X48482143Y-37457048D01*
X51339809Y-83669190D02*
X51339809Y-84145381D01*
X51006476Y-83145381D02*
X51339809Y-83669190D01*
X51673143Y-83145381D01*
X52530286Y-84145381D02*
X51958857Y-84145381D01*
X52244571Y-84145381D02*
X52244571Y-83145381D01*
X52149333Y-83288238D01*
X52054095Y-83383476D01*
X51958857Y-83431095D01*
X41695810Y-114482571D02*
X41362476Y-114482571D01*
X41362476Y-115006381D02*
X41362476Y-114006381D01*
X41838667Y-114006381D01*
X42076762Y-114006381D02*
X42648191Y-114006381D01*
X42362476Y-115006381D02*
X42362476Y-114006381D01*
X42981524Y-115006381D02*
X42981524Y-114006381D01*
X43219619Y-114006381D01*
X43362477Y-114054000D01*
X43457715Y-114149238D01*
X43505334Y-114244476D01*
X43552953Y-114434952D01*
X43552953Y-114577810D01*
X43505334Y-114768286D01*
X43457715Y-114863524D01*
X43362477Y-114958762D01*
X43219619Y-115006381D01*
X42981524Y-115006381D01*
X43981524Y-115006381D02*
X43981524Y-114006381D01*
D14*
X58409309Y-116283810D02*
X58239976Y-116041905D01*
X58119023Y-116283810D02*
X58119023Y-115775810D01*
X58312547Y-115775810D01*
X58360928Y-115800000D01*
X58385119Y-115824190D01*
X58409309Y-115872571D01*
X58409309Y-115945143D01*
X58385119Y-115993524D01*
X58360928Y-116017714D01*
X58312547Y-116041905D01*
X58119023Y-116041905D01*
X58554452Y-115775810D02*
X58844738Y-115775810D01*
X58699595Y-116283810D02*
X58699595Y-115775810D01*
X58989881Y-116259619D02*
X59062452Y-116283810D01*
X59183405Y-116283810D01*
X59231786Y-116259619D01*
X59255976Y-116235429D01*
X59280167Y-116187048D01*
X59280167Y-116138667D01*
X59255976Y-116090286D01*
X59231786Y-116066095D01*
X59183405Y-116041905D01*
X59086643Y-116017714D01*
X59038262Y-115993524D01*
X59014071Y-115969333D01*
X58989881Y-115920952D01*
X58989881Y-115872571D01*
X59014071Y-115824190D01*
X59038262Y-115800000D01*
X59086643Y-115775810D01*
X59207595Y-115775810D01*
X59280167Y-115800000D01*
X55848833Y-116283810D02*
X55679500Y-116041905D01*
X55558547Y-116283810D02*
X55558547Y-115775810D01*
X55752071Y-115775810D01*
X55800452Y-115800000D01*
X55824643Y-115824190D01*
X55848833Y-115872571D01*
X55848833Y-115945143D01*
X55824643Y-115993524D01*
X55800452Y-116017714D01*
X55752071Y-116041905D01*
X55558547Y-116041905D01*
X56018166Y-115775810D02*
X56356833Y-116283810D01*
X56356833Y-115775810D02*
X56018166Y-116283810D01*
X56550357Y-116283810D02*
X56550357Y-115775810D01*
X56671310Y-115775810D01*
X56743881Y-115800000D01*
X56792262Y-115848381D01*
X56816453Y-115896762D01*
X56840643Y-115993524D01*
X56840643Y-116066095D01*
X56816453Y-116162857D01*
X56792262Y-116211238D01*
X56743881Y-116259619D01*
X56671310Y-116283810D01*
X56550357Y-116283810D01*
X52946452Y-115775810D02*
X53236738Y-115775810D01*
X53091595Y-116283810D02*
X53091595Y-115775810D01*
X53357690Y-115775810D02*
X53696357Y-116283810D01*
X53696357Y-115775810D02*
X53357690Y-116283810D01*
X53889881Y-116283810D02*
X53889881Y-115775810D01*
X54010834Y-115775810D01*
X54083405Y-115800000D01*
X54131786Y-115848381D01*
X54155977Y-115896762D01*
X54180167Y-115993524D01*
X54180167Y-116066095D01*
X54155977Y-116162857D01*
X54131786Y-116211238D01*
X54083405Y-116259619D01*
X54010834Y-116283810D01*
X53889881Y-116283810D01*
X50410167Y-115775810D02*
X50579500Y-116283810D01*
X50748834Y-115775810D01*
X51208453Y-116235429D02*
X51184263Y-116259619D01*
X51111691Y-116283810D01*
X51063310Y-116283810D01*
X50990739Y-116259619D01*
X50942358Y-116211238D01*
X50918167Y-116162857D01*
X50893977Y-116066095D01*
X50893977Y-115993524D01*
X50918167Y-115896762D01*
X50942358Y-115848381D01*
X50990739Y-115800000D01*
X51063310Y-115775810D01*
X51111691Y-115775810D01*
X51184263Y-115800000D01*
X51208453Y-115824190D01*
X51716453Y-116235429D02*
X51692263Y-116259619D01*
X51619691Y-116283810D01*
X51571310Y-116283810D01*
X51498739Y-116259619D01*
X51450358Y-116211238D01*
X51426167Y-116162857D01*
X51401977Y-116066095D01*
X51401977Y-115993524D01*
X51426167Y-115896762D01*
X51450358Y-115848381D01*
X51498739Y-115800000D01*
X51571310Y-115775810D01*
X51619691Y-115775810D01*
X51692263Y-115800000D01*
X51716453Y-115824190D01*
X48309309Y-116235429D02*
X48285119Y-116259619D01*
X48212547Y-116283810D01*
X48164166Y-116283810D01*
X48091595Y-116259619D01*
X48043214Y-116211238D01*
X48019023Y-116162857D01*
X47994833Y-116066095D01*
X47994833Y-115993524D01*
X48019023Y-115896762D01*
X48043214Y-115848381D01*
X48091595Y-115800000D01*
X48164166Y-115775810D01*
X48212547Y-115775810D01*
X48285119Y-115800000D01*
X48309309Y-115824190D01*
X48454452Y-115775810D02*
X48744738Y-115775810D01*
X48599595Y-116283810D02*
X48599595Y-115775810D01*
X48889881Y-116259619D02*
X48962452Y-116283810D01*
X49083405Y-116283810D01*
X49131786Y-116259619D01*
X49155976Y-116235429D01*
X49180167Y-116187048D01*
X49180167Y-116138667D01*
X49155976Y-116090286D01*
X49131786Y-116066095D01*
X49083405Y-116041905D01*
X48986643Y-116017714D01*
X48938262Y-115993524D01*
X48914071Y-115969333D01*
X48889881Y-115920952D01*
X48889881Y-115872571D01*
X48914071Y-115824190D01*
X48938262Y-115800000D01*
X48986643Y-115775810D01*
X49107595Y-115775810D01*
X49180167Y-115800000D01*
X45600453Y-115800000D02*
X45552072Y-115775810D01*
X45479500Y-115775810D01*
X45406929Y-115800000D01*
X45358548Y-115848381D01*
X45334357Y-115896762D01*
X45310167Y-115993524D01*
X45310167Y-116066095D01*
X45334357Y-116162857D01*
X45358548Y-116211238D01*
X45406929Y-116259619D01*
X45479500Y-116283810D01*
X45527881Y-116283810D01*
X45600453Y-116259619D01*
X45624643Y-116235429D01*
X45624643Y-116066095D01*
X45527881Y-116066095D01*
X45842357Y-116283810D02*
X45842357Y-115775810D01*
X46132643Y-116283810D01*
X46132643Y-115775810D01*
X46374547Y-116283810D02*
X46374547Y-115775810D01*
X46495500Y-115775810D01*
X46568071Y-115800000D01*
X46616452Y-115848381D01*
X46640643Y-115896762D01*
X46664833Y-115993524D01*
X46664833Y-116066095D01*
X46640643Y-116162857D01*
X46616452Y-116211238D01*
X46568071Y-116259619D01*
X46495500Y-116283810D01*
X46374547Y-116283810D01*
D13*
X72183810Y-68524381D02*
X72183810Y-67524381D01*
X73231429Y-68429143D02*
X73183810Y-68476762D01*
X73040953Y-68524381D01*
X72945715Y-68524381D01*
X72802857Y-68476762D01*
X72707619Y-68381524D01*
X72660000Y-68286286D01*
X72612381Y-68095810D01*
X72612381Y-67952952D01*
X72660000Y-67762476D01*
X72707619Y-67667238D01*
X72802857Y-67572000D01*
X72945715Y-67524381D01*
X73040953Y-67524381D01*
X73183810Y-67572000D01*
X73231429Y-67619619D01*
X73612381Y-68476762D02*
X73755238Y-68524381D01*
X73993334Y-68524381D01*
X74088572Y-68476762D01*
X74136191Y-68429143D01*
X74183810Y-68333905D01*
X74183810Y-68238667D01*
X74136191Y-68143429D01*
X74088572Y-68095810D01*
X73993334Y-68048190D01*
X73802857Y-68000571D01*
X73707619Y-67952952D01*
X73660000Y-67905333D01*
X73612381Y-67810095D01*
X73612381Y-67714857D01*
X73660000Y-67619619D01*
X73707619Y-67572000D01*
X73802857Y-67524381D01*
X74040953Y-67524381D01*
X74183810Y-67572000D01*
X74612381Y-68524381D02*
X74612381Y-67524381D01*
X74993334Y-67524381D01*
X75088572Y-67572000D01*
X75136191Y-67619619D01*
X75183810Y-67714857D01*
X75183810Y-67857714D01*
X75136191Y-67952952D01*
X75088572Y-68000571D01*
X74993334Y-68048190D01*
X74612381Y-68048190D01*
X28765667Y-35710762D02*
X28908524Y-35758381D01*
X29146620Y-35758381D01*
X29241858Y-35710762D01*
X29289477Y-35663143D01*
X29337096Y-35567905D01*
X29337096Y-35472667D01*
X29289477Y-35377429D01*
X29241858Y-35329810D01*
X29146620Y-35282190D01*
X28956143Y-35234571D01*
X28860905Y-35186952D01*
X28813286Y-35139333D01*
X28765667Y-35044095D01*
X28765667Y-34948857D01*
X28813286Y-34853619D01*
X28860905Y-34806000D01*
X28956143Y-34758381D01*
X29194239Y-34758381D01*
X29337096Y-34806000D01*
X29670429Y-34758381D02*
X29908524Y-35758381D01*
X30099001Y-35044095D01*
X30289477Y-35758381D01*
X30527572Y-34758381D01*
X31432334Y-35758381D02*
X30860905Y-35758381D01*
X31146619Y-35758381D02*
X31146619Y-34758381D01*
X31051381Y-34901238D01*
X30956143Y-34996476D01*
X30860905Y-35044095D01*
X37869905Y-51379381D02*
X37869905Y-50379381D01*
X38108000Y-50379381D01*
X38250858Y-50427000D01*
X38346096Y-50522238D01*
X38393715Y-50617476D01*
X38441334Y-50807952D01*
X38441334Y-50950810D01*
X38393715Y-51141286D01*
X38346096Y-51236524D01*
X38250858Y-51331762D01*
X38108000Y-51379381D01*
X37869905Y-51379381D01*
X38822286Y-50474619D02*
X38869905Y-50427000D01*
X38965143Y-50379381D01*
X39203239Y-50379381D01*
X39298477Y-50427000D01*
X39346096Y-50474619D01*
X39393715Y-50569857D01*
X39393715Y-50665095D01*
X39346096Y-50807952D01*
X38774667Y-51379381D01*
X39393715Y-51379381D01*
X46886834Y-80903143D02*
X46839215Y-80950762D01*
X46696358Y-80998381D01*
X46601120Y-80998381D01*
X46458262Y-80950762D01*
X46363024Y-80855524D01*
X46315405Y-80760286D01*
X46267786Y-80569810D01*
X46267786Y-80426952D01*
X46315405Y-80236476D01*
X46363024Y-80141238D01*
X46458262Y-80046000D01*
X46601120Y-79998381D01*
X46696358Y-79998381D01*
X46839215Y-80046000D01*
X46886834Y-80093619D01*
X47458262Y-80426952D02*
X47363024Y-80379333D01*
X47315405Y-80331714D01*
X47267786Y-80236476D01*
X47267786Y-80188857D01*
X47315405Y-80093619D01*
X47363024Y-80046000D01*
X47458262Y-79998381D01*
X47648739Y-79998381D01*
X47743977Y-80046000D01*
X47791596Y-80093619D01*
X47839215Y-80188857D01*
X47839215Y-80236476D01*
X47791596Y-80331714D01*
X47743977Y-80379333D01*
X47648739Y-80426952D01*
X47458262Y-80426952D01*
X47363024Y-80474571D01*
X47315405Y-80522190D01*
X47267786Y-80617429D01*
X47267786Y-80807905D01*
X47315405Y-80903143D01*
X47363024Y-80950762D01*
X47458262Y-80998381D01*
X47648739Y-80998381D01*
X47743977Y-80950762D01*
X47791596Y-80903143D01*
X47839215Y-80807905D01*
X47839215Y-80617429D01*
X47791596Y-80522190D01*
X47743977Y-80474571D01*
X47648739Y-80426952D01*
M02*
