G04 #@! TF.FileFunction,Legend,Bot*
%FSLAX46Y46*%
G04 Gerber Fmt 4.6, Leading zero omitted, Abs format (unit mm)*
G04 Created by KiCad (PCBNEW 4.0.7) date 03/24/18 20:50:43*
%MOMM*%
%LPD*%
G01*
G04 APERTURE LIST*
%ADD10C,0.100000*%
%ADD11C,0.150000*%
G04 APERTURE END LIST*
D10*
D11*
X33633931Y-92837000D02*
G75*
G03X33633931Y-92837000I-2163331J0D01*
G01*
X35370600Y-96737000D02*
X27570600Y-96737000D01*
X27570600Y-96737000D02*
X27570600Y-88937000D01*
X35370600Y-88937000D02*
X27570600Y-88937000D01*
X35370600Y-96737000D02*
X35370600Y-88937000D01*
X42269931Y-101473000D02*
G75*
G03X42269931Y-101473000I-2163331J0D01*
G01*
X44006600Y-105373000D02*
X36206600Y-105373000D01*
X36206600Y-105373000D02*
X36206600Y-97573000D01*
X44006600Y-97573000D02*
X36206600Y-97573000D01*
X44006600Y-105373000D02*
X44006600Y-97573000D01*
X70006731Y-88519000D02*
G75*
G03X70006731Y-88519000I-2163331J0D01*
G01*
X63943400Y-84619000D02*
X71743400Y-84619000D01*
X71743400Y-84619000D02*
X71743400Y-92419000D01*
X63943400Y-92419000D02*
X71743400Y-92419000D01*
X63943400Y-84619000D02*
X63943400Y-92419000D01*
X70006731Y-105791000D02*
G75*
G03X70006731Y-105791000I-2163331J0D01*
G01*
X63943400Y-101891000D02*
X71743400Y-101891000D01*
X71743400Y-101891000D02*
X71743400Y-109691000D01*
X63943400Y-109691000D02*
X71743400Y-109691000D01*
X63943400Y-101891000D02*
X63943400Y-109691000D01*
X78642731Y-97155000D02*
G75*
G03X78642731Y-97155000I-2163331J0D01*
G01*
X72579400Y-93255000D02*
X80379400Y-93255000D01*
X80379400Y-93255000D02*
X80379400Y-101055000D01*
X72579400Y-101055000D02*
X80379400Y-101055000D01*
X72579400Y-93255000D02*
X72579400Y-101055000D01*
X61370731Y-97155000D02*
G75*
G03X61370731Y-97155000I-2163331J0D01*
G01*
X63107400Y-101055000D02*
X55307400Y-101055000D01*
X55307400Y-101055000D02*
X55307400Y-93255000D01*
X63107400Y-93255000D02*
X55307400Y-93255000D01*
X63107400Y-101055000D02*
X63107400Y-93255000D01*
X67135821Y-56355600D02*
G75*
G03X67135821Y-56355600I-141421J0D01*
G01*
X80492600Y-33909000D02*
X33782000Y-33909000D01*
X33782000Y-33909000D02*
X33782000Y-68402200D01*
X33782000Y-68402200D02*
X80492600Y-68402200D01*
X80492600Y-68402200D02*
X80492600Y-33909000D01*
X32829333Y-93241762D02*
X32686476Y-93289381D01*
X32448380Y-93289381D01*
X32353142Y-93241762D01*
X32305523Y-93194143D01*
X32257904Y-93098905D01*
X32257904Y-93003667D01*
X32305523Y-92908429D01*
X32353142Y-92860810D01*
X32448380Y-92813190D01*
X32638857Y-92765571D01*
X32734095Y-92717952D01*
X32781714Y-92670333D01*
X32829333Y-92575095D01*
X32829333Y-92479857D01*
X32781714Y-92384619D01*
X32734095Y-92337000D01*
X32638857Y-92289381D01*
X32400761Y-92289381D01*
X32257904Y-92337000D01*
X31924571Y-92289381D02*
X31686476Y-93289381D01*
X31495999Y-92575095D01*
X31305523Y-93289381D01*
X31067428Y-92289381D01*
X30781714Y-92289381D02*
X30162666Y-92289381D01*
X30496000Y-92670333D01*
X30353142Y-92670333D01*
X30257904Y-92717952D01*
X30210285Y-92765571D01*
X30162666Y-92860810D01*
X30162666Y-93098905D01*
X30210285Y-93194143D01*
X30257904Y-93241762D01*
X30353142Y-93289381D01*
X30638857Y-93289381D01*
X30734095Y-93241762D01*
X30781714Y-93194143D01*
X41465333Y-101877762D02*
X41322476Y-101925381D01*
X41084380Y-101925381D01*
X40989142Y-101877762D01*
X40941523Y-101830143D01*
X40893904Y-101734905D01*
X40893904Y-101639667D01*
X40941523Y-101544429D01*
X40989142Y-101496810D01*
X41084380Y-101449190D01*
X41274857Y-101401571D01*
X41370095Y-101353952D01*
X41417714Y-101306333D01*
X41465333Y-101211095D01*
X41465333Y-101115857D01*
X41417714Y-101020619D01*
X41370095Y-100973000D01*
X41274857Y-100925381D01*
X41036761Y-100925381D01*
X40893904Y-100973000D01*
X40560571Y-100925381D02*
X40322476Y-101925381D01*
X40131999Y-101211095D01*
X39941523Y-101925381D01*
X39703428Y-100925381D01*
X38893904Y-101258714D02*
X38893904Y-101925381D01*
X39132000Y-100877762D02*
X39370095Y-101592048D01*
X38751047Y-101592048D01*
X69151333Y-88923762D02*
X69008476Y-88971381D01*
X68770380Y-88971381D01*
X68675142Y-88923762D01*
X68627523Y-88876143D01*
X68579904Y-88780905D01*
X68579904Y-88685667D01*
X68627523Y-88590429D01*
X68675142Y-88542810D01*
X68770380Y-88495190D01*
X68960857Y-88447571D01*
X69056095Y-88399952D01*
X69103714Y-88352333D01*
X69151333Y-88257095D01*
X69151333Y-88161857D01*
X69103714Y-88066619D01*
X69056095Y-88019000D01*
X68960857Y-87971381D01*
X68722761Y-87971381D01*
X68579904Y-88019000D01*
X68246571Y-87971381D02*
X68008476Y-88971381D01*
X67817999Y-88257095D01*
X67627523Y-88971381D01*
X67389428Y-87971381D01*
X66532285Y-87971381D02*
X67008476Y-87971381D01*
X67056095Y-88447571D01*
X67008476Y-88399952D01*
X66913238Y-88352333D01*
X66675142Y-88352333D01*
X66579904Y-88399952D01*
X66532285Y-88447571D01*
X66484666Y-88542810D01*
X66484666Y-88780905D01*
X66532285Y-88876143D01*
X66579904Y-88923762D01*
X66675142Y-88971381D01*
X66913238Y-88971381D01*
X67008476Y-88923762D01*
X67056095Y-88876143D01*
X69151333Y-106322762D02*
X69008476Y-106370381D01*
X68770380Y-106370381D01*
X68675142Y-106322762D01*
X68627523Y-106275143D01*
X68579904Y-106179905D01*
X68579904Y-106084667D01*
X68627523Y-105989429D01*
X68675142Y-105941810D01*
X68770380Y-105894190D01*
X68960857Y-105846571D01*
X69056095Y-105798952D01*
X69103714Y-105751333D01*
X69151333Y-105656095D01*
X69151333Y-105560857D01*
X69103714Y-105465619D01*
X69056095Y-105418000D01*
X68960857Y-105370381D01*
X68722761Y-105370381D01*
X68579904Y-105418000D01*
X68246571Y-105370381D02*
X68008476Y-106370381D01*
X67817999Y-105656095D01*
X67627523Y-106370381D01*
X67389428Y-105370381D01*
X66579904Y-105370381D02*
X66770381Y-105370381D01*
X66865619Y-105418000D01*
X66913238Y-105465619D01*
X67008476Y-105608476D01*
X67056095Y-105798952D01*
X67056095Y-106179905D01*
X67008476Y-106275143D01*
X66960857Y-106322762D01*
X66865619Y-106370381D01*
X66675142Y-106370381D01*
X66579904Y-106322762D01*
X66532285Y-106275143D01*
X66484666Y-106179905D01*
X66484666Y-105941810D01*
X66532285Y-105846571D01*
X66579904Y-105798952D01*
X66675142Y-105751333D01*
X66865619Y-105751333D01*
X66960857Y-105798952D01*
X67008476Y-105846571D01*
X67056095Y-105941810D01*
X77787333Y-97559762D02*
X77644476Y-97607381D01*
X77406380Y-97607381D01*
X77311142Y-97559762D01*
X77263523Y-97512143D01*
X77215904Y-97416905D01*
X77215904Y-97321667D01*
X77263523Y-97226429D01*
X77311142Y-97178810D01*
X77406380Y-97131190D01*
X77596857Y-97083571D01*
X77692095Y-97035952D01*
X77739714Y-96988333D01*
X77787333Y-96893095D01*
X77787333Y-96797857D01*
X77739714Y-96702619D01*
X77692095Y-96655000D01*
X77596857Y-96607381D01*
X77358761Y-96607381D01*
X77215904Y-96655000D01*
X76882571Y-96607381D02*
X76644476Y-97607381D01*
X76453999Y-96893095D01*
X76263523Y-97607381D01*
X76025428Y-96607381D01*
X75739714Y-96607381D02*
X75073047Y-96607381D01*
X75501619Y-97607381D01*
X60515333Y-97559762D02*
X60372476Y-97607381D01*
X60134380Y-97607381D01*
X60039142Y-97559762D01*
X59991523Y-97512143D01*
X59943904Y-97416905D01*
X59943904Y-97321667D01*
X59991523Y-97226429D01*
X60039142Y-97178810D01*
X60134380Y-97131190D01*
X60324857Y-97083571D01*
X60420095Y-97035952D01*
X60467714Y-96988333D01*
X60515333Y-96893095D01*
X60515333Y-96797857D01*
X60467714Y-96702619D01*
X60420095Y-96655000D01*
X60324857Y-96607381D01*
X60086761Y-96607381D01*
X59943904Y-96655000D01*
X59610571Y-96607381D02*
X59372476Y-97607381D01*
X59181999Y-96893095D01*
X58991523Y-97607381D01*
X58753428Y-96607381D01*
X58229619Y-97035952D02*
X58324857Y-96988333D01*
X58372476Y-96940714D01*
X58420095Y-96845476D01*
X58420095Y-96797857D01*
X58372476Y-96702619D01*
X58324857Y-96655000D01*
X58229619Y-96607381D01*
X58039142Y-96607381D01*
X57943904Y-96655000D01*
X57896285Y-96702619D01*
X57848666Y-96797857D01*
X57848666Y-96845476D01*
X57896285Y-96940714D01*
X57943904Y-96988333D01*
X58039142Y-97035952D01*
X58229619Y-97035952D01*
X58324857Y-97083571D01*
X58372476Y-97131190D01*
X58420095Y-97226429D01*
X58420095Y-97416905D01*
X58372476Y-97512143D01*
X58324857Y-97559762D01*
X58229619Y-97607381D01*
X58039142Y-97607381D01*
X57943904Y-97559762D01*
X57896285Y-97512143D01*
X57848666Y-97416905D01*
X57848666Y-97226429D01*
X57896285Y-97131190D01*
X57943904Y-97083571D01*
X58039142Y-97035952D01*
X79708333Y-67016381D02*
X79708333Y-67730667D01*
X79755953Y-67873524D01*
X79851191Y-67968762D01*
X79994048Y-68016381D01*
X80089286Y-68016381D01*
X78755952Y-67016381D02*
X79232143Y-67016381D01*
X79279762Y-67492571D01*
X79232143Y-67444952D01*
X79136905Y-67397333D01*
X78898809Y-67397333D01*
X78803571Y-67444952D01*
X78755952Y-67492571D01*
X78708333Y-67587810D01*
X78708333Y-67825905D01*
X78755952Y-67921143D01*
X78803571Y-67968762D01*
X78898809Y-68016381D01*
X79136905Y-68016381D01*
X79232143Y-67968762D01*
X79279762Y-67921143D01*
M02*
