G04 #@! TF.FileFunction,Copper,L2,Bot,Signal*
%FSLAX46Y46*%
G04 Gerber Fmt 4.6, Leading zero omitted, Abs format (unit mm)*
G04 Created by KiCad (PCBNEW 4.0.7) date 03/24/18 20:50:43*
%MOMM*%
%LPD*%
G01*
G04 APERTURE LIST*
%ADD10C,0.100000*%
%ADD11C,1.250000*%
%ADD12C,1.550000*%
%ADD13C,2.000000*%
%ADD14O,1.651000X2.413000*%
%ADD15C,1.651000*%
%ADD16R,1.600000X1.600000*%
%ADD17O,1.600000X1.600000*%
%ADD18C,6.654800*%
%ADD19R,1.524000X1.524000*%
%ADD20R,1.651000X1.651000*%
%ADD21C,1.400000*%
%ADD22R,4.000000X0.400000*%
%ADD23C,0.939800*%
%ADD24C,1.447800*%
%ADD25C,0.399999*%
%ADD26C,0.762000*%
%ADD27C,0.381000*%
%ADD28C,0.254000*%
G04 APERTURE END LIST*
D10*
D11*
X37187500Y-29560500D03*
X42187500Y-29510500D03*
D12*
X36087500Y-26860500D03*
X43287500Y-26860500D03*
D13*
X79557000Y-85725000D03*
X75057000Y-85725000D03*
X79557000Y-79225000D03*
X75057000Y-79225000D03*
D14*
X33870600Y-96937000D03*
X29070600Y-96937000D03*
X33870600Y-88737000D03*
X29070600Y-88737000D03*
X42506600Y-105573000D03*
X37706600Y-105573000D03*
X42506600Y-97373000D03*
X37706600Y-97373000D03*
X65443400Y-84419000D03*
X70243400Y-84419000D03*
X65443400Y-92619000D03*
X70243400Y-92619000D03*
X65443400Y-101691000D03*
X70243400Y-101691000D03*
X65443400Y-109891000D03*
X70243400Y-109891000D03*
X74079400Y-93055000D03*
X78879400Y-93055000D03*
X74079400Y-101255000D03*
X78879400Y-101255000D03*
X61607400Y-101255000D03*
X56807400Y-101255000D03*
X61607400Y-93055000D03*
X56807400Y-93055000D03*
D15*
X68072000Y-28956000D03*
X42926000Y-68326000D03*
X40386000Y-68326000D03*
X37846000Y-68326000D03*
X35306000Y-68326000D03*
X32766000Y-68326000D03*
X30226000Y-68326000D03*
X72263000Y-28956000D03*
D16*
X31369000Y-78740000D03*
D17*
X64389000Y-71120000D03*
X33909000Y-78740000D03*
X61849000Y-71120000D03*
X36449000Y-78740000D03*
X59309000Y-71120000D03*
X38989000Y-78740000D03*
X56769000Y-71120000D03*
X41529000Y-78740000D03*
X54229000Y-71120000D03*
X44069000Y-78740000D03*
X51689000Y-71120000D03*
X46609000Y-78740000D03*
X49149000Y-71120000D03*
X49149000Y-78740000D03*
X46609000Y-71120000D03*
X51689000Y-78740000D03*
X44069000Y-71120000D03*
X54229000Y-78740000D03*
X41529000Y-71120000D03*
X56769000Y-78740000D03*
X38989000Y-71120000D03*
X59309000Y-78740000D03*
X36449000Y-71120000D03*
X61849000Y-78740000D03*
X33909000Y-71120000D03*
X64389000Y-78740000D03*
X31369000Y-71120000D03*
D18*
X29464000Y-29464000D03*
X78486000Y-29464000D03*
X29464000Y-113411000D03*
X78486000Y-113411000D03*
D19*
X46037500Y-114554000D03*
D15*
X48577500Y-114554000D03*
X51117500Y-114554000D03*
X53657500Y-114554000D03*
X56197500Y-114554000D03*
X58737500Y-114554000D03*
D20*
X72390000Y-70358000D03*
D15*
X74930000Y-70358000D03*
X72390000Y-72898000D03*
X74930000Y-72898000D03*
X72390000Y-75438000D03*
X74930000Y-75438000D03*
D21*
X31242000Y-42926000D03*
X31242000Y-46926000D03*
X31242000Y-38926000D03*
D13*
X32992000Y-36926000D03*
X32992000Y-48926000D03*
X26992000Y-48926000D03*
X26992000Y-36926000D03*
D22*
X69494400Y-51555600D03*
X69494400Y-52355600D03*
X69494400Y-53155600D03*
X69494400Y-53955600D03*
X69494400Y-54755600D03*
X69494400Y-55555600D03*
X69494400Y-56355600D03*
X69494400Y-50755600D03*
X69494400Y-49955600D03*
X69494400Y-49155600D03*
X69494400Y-48355600D03*
X69494400Y-47555600D03*
X69494400Y-46755600D03*
X69494400Y-45955600D03*
D23*
X76200000Y-47371000D03*
X80518000Y-89408000D03*
X55118000Y-41656000D03*
X56896000Y-27686000D03*
D24*
X33845500Y-52324000D03*
X39624000Y-52324000D03*
X70231000Y-98044000D03*
X65786000Y-96456500D03*
X30670500Y-103949500D03*
X35052000Y-99568000D03*
X30226000Y-81534000D03*
X37782500Y-84645500D03*
X52451000Y-35496500D03*
X40132000Y-35306000D03*
X46482000Y-36449000D03*
D23*
X74295000Y-46736000D03*
X74041000Y-55626000D03*
X52705000Y-29083000D03*
X34798000Y-35433000D03*
X41719500Y-39941500D03*
X74676000Y-53848000D03*
X45085000Y-39243000D03*
X65786000Y-52578000D03*
X59690000Y-48514000D03*
D25*
X69494400Y-49155600D02*
X73526400Y-49155600D01*
X73526400Y-49155600D02*
X73660000Y-49022000D01*
X69494400Y-48355600D02*
X73564400Y-48355600D01*
X73564400Y-48355600D02*
X73660000Y-48260000D01*
D26*
X33845500Y-52324000D02*
X39116000Y-52324000D01*
X70231000Y-98044000D02*
X67373500Y-98044000D01*
X67373500Y-98044000D02*
X65786000Y-96456500D01*
X35052000Y-99568000D02*
X30670500Y-103949500D01*
X33337500Y-84645500D02*
X30226000Y-81534000D01*
X37782500Y-84645500D02*
X33337500Y-84645500D01*
X46482000Y-36449000D02*
X47434500Y-35496500D01*
X47434500Y-35496500D02*
X52451000Y-35496500D01*
X46482000Y-36449000D02*
X45339000Y-35306000D01*
X45339000Y-35306000D02*
X40132000Y-35306000D01*
D25*
X69494400Y-54755600D02*
X69494400Y-55555600D01*
X69494400Y-53155600D02*
X66605400Y-53155600D01*
X66477600Y-55555600D02*
X69621400Y-55555600D01*
X66167000Y-55245000D02*
X66477600Y-55555600D01*
X66167000Y-53467000D02*
X66167000Y-55245000D01*
X66605400Y-53155600D02*
X66167000Y-53467000D01*
X69494400Y-46755600D02*
X74275400Y-46755600D01*
X74275400Y-46755600D02*
X74295000Y-46736000D01*
X69621400Y-55555600D02*
X73970600Y-55555600D01*
X73970600Y-55555600D02*
X74041000Y-55626000D01*
D27*
X30797500Y-46862500D02*
X31115500Y-46862500D01*
X31115500Y-46862500D02*
X31242000Y-46736000D01*
X45847000Y-29083000D02*
X52705000Y-29083000D01*
X42799000Y-32131000D02*
X45847000Y-29083000D01*
X37338000Y-32131000D02*
X42799000Y-32131000D01*
X34798000Y-35433000D02*
X37338000Y-32131000D01*
X31242000Y-38926000D02*
X31242000Y-39116000D01*
X31242000Y-39116000D02*
X32067500Y-39941500D01*
X32067500Y-39941500D02*
X41719500Y-39941500D01*
D25*
X54229000Y-71120000D02*
X54229000Y-69215000D01*
X59264400Y-49955600D02*
X69494400Y-49955600D01*
X57658000Y-51562000D02*
X59264400Y-49955600D01*
X57658000Y-67310000D02*
X57658000Y-51562000D01*
X56896000Y-68072000D02*
X57658000Y-67310000D01*
X55372000Y-68072000D02*
X56896000Y-68072000D01*
X54229000Y-69215000D02*
X55372000Y-68072000D01*
X59309000Y-71120000D02*
X59309000Y-66929000D01*
X59734400Y-50755600D02*
X68986400Y-50755600D01*
X58674000Y-51816000D02*
X59734400Y-50755600D01*
X58674000Y-66294000D02*
X58674000Y-51816000D01*
X59309000Y-66929000D02*
X58674000Y-66294000D01*
X69494400Y-53955600D02*
X74568400Y-53955600D01*
X74568400Y-53955600D02*
X74676000Y-53848000D01*
D27*
X31242000Y-42926000D02*
X32829500Y-42926000D01*
X42545000Y-41783000D02*
X45085000Y-39243000D01*
X33972500Y-41783000D02*
X42545000Y-41783000D01*
X32829500Y-42926000D02*
X33972500Y-41783000D01*
X30797500Y-43243500D02*
X30797500Y-42735500D01*
X63500000Y-99504500D02*
X63500000Y-99747600D01*
X58356500Y-80327500D02*
X58356500Y-86360000D01*
X58356500Y-86360000D02*
X58483500Y-86360000D01*
X58483500Y-86360000D02*
X63500000Y-91376500D01*
X63500000Y-91376500D02*
X63500000Y-99504500D01*
X56769000Y-78740000D02*
X58356500Y-80327500D01*
X63500000Y-99747600D02*
X65443400Y-101691000D01*
X74079400Y-93055000D02*
X74204000Y-93055000D01*
X61849000Y-80518000D02*
X61849000Y-78740000D01*
X62992000Y-81661000D02*
X61849000Y-80518000D01*
X65913000Y-81661000D02*
X62992000Y-81661000D01*
X67818000Y-83566000D02*
X65913000Y-81661000D01*
X67818000Y-94742000D02*
X67818000Y-83566000D01*
X68580000Y-95504000D02*
X67818000Y-94742000D01*
X71755000Y-95504000D02*
X68580000Y-95504000D01*
X74204000Y-93055000D02*
X71755000Y-95504000D01*
D25*
X69494400Y-52355600D02*
X66008400Y-52355600D01*
X66008400Y-52355600D02*
X65786000Y-52578000D01*
X60648400Y-47555600D02*
X69494400Y-47555600D01*
X59690000Y-48514000D02*
X60648400Y-47555600D01*
X69494400Y-51555600D02*
X65411400Y-51555600D01*
X66421000Y-76708000D02*
X64389000Y-78740000D01*
X66421000Y-69215000D02*
X66421000Y-76708000D01*
X64770000Y-67564000D02*
X66421000Y-69215000D01*
X64770000Y-52197000D02*
X64770000Y-67564000D01*
X65411400Y-51555600D02*
X64770000Y-52197000D01*
D28*
G36*
X34677745Y-26578803D02*
X34677255Y-27139736D01*
X34891463Y-27658158D01*
X35287756Y-28055143D01*
X35805803Y-28270255D01*
X36366736Y-28270745D01*
X36885158Y-28056537D01*
X37282143Y-27660244D01*
X37497255Y-27142197D01*
X37497745Y-26581264D01*
X37292693Y-26085000D01*
X42082790Y-26085000D01*
X41877745Y-26578803D01*
X41877255Y-27139736D01*
X42091463Y-27658158D01*
X42487756Y-28055143D01*
X43005803Y-28270255D01*
X43566736Y-28270745D01*
X44085158Y-28056537D01*
X44482143Y-27660244D01*
X44697255Y-27142197D01*
X44697745Y-26581264D01*
X44492693Y-26085000D01*
X74295000Y-26085000D01*
X74295000Y-33528000D01*
X74303685Y-33574159D01*
X74330965Y-33616553D01*
X74372590Y-33644994D01*
X74422000Y-33655000D01*
X81865000Y-33655000D01*
X81865000Y-109220000D01*
X74422000Y-109220000D01*
X74375841Y-109228685D01*
X74333447Y-109255965D01*
X74305006Y-109297590D01*
X74295000Y-109347000D01*
X74295000Y-116790000D01*
X33655000Y-116790000D01*
X33655000Y-113792000D01*
X44628060Y-113792000D01*
X44628060Y-115316000D01*
X44672338Y-115551317D01*
X44811410Y-115767441D01*
X45023610Y-115912431D01*
X45275500Y-115963440D01*
X46799500Y-115963440D01*
X47034817Y-115919162D01*
X47250941Y-115780090D01*
X47395931Y-115567890D01*
X47417860Y-115459599D01*
X47749113Y-115791430D01*
X48285714Y-116014246D01*
X48866737Y-116014753D01*
X49403726Y-115792874D01*
X49616756Y-115580215D01*
X50270890Y-115580215D01*
X50348156Y-115828976D01*
X50894631Y-116026340D01*
X51475035Y-115999553D01*
X51886844Y-115828976D01*
X51964110Y-115580215D01*
X51117500Y-114733605D01*
X50270890Y-115580215D01*
X49616756Y-115580215D01*
X49814930Y-115382387D01*
X49840987Y-115319634D01*
X49842524Y-115323344D01*
X50091285Y-115400610D01*
X50937895Y-114554000D01*
X51297105Y-114554000D01*
X52143715Y-115400610D01*
X52392476Y-115323344D01*
X52393711Y-115319926D01*
X52418626Y-115380226D01*
X52829113Y-115791430D01*
X53365714Y-116014246D01*
X53946737Y-116014753D01*
X54483726Y-115792874D01*
X54894930Y-115382387D01*
X54927304Y-115304421D01*
X54958626Y-115380226D01*
X55369113Y-115791430D01*
X55905714Y-116014246D01*
X56486737Y-116014753D01*
X57023726Y-115792874D01*
X57434930Y-115382387D01*
X57467304Y-115304421D01*
X57498626Y-115380226D01*
X57909113Y-115791430D01*
X58445714Y-116014246D01*
X59026737Y-116014753D01*
X59563726Y-115792874D01*
X59974930Y-115382387D01*
X60197746Y-114845786D01*
X60198253Y-114264763D01*
X59976374Y-113727774D01*
X59565887Y-113316570D01*
X59029286Y-113093754D01*
X58448263Y-113093247D01*
X57911274Y-113315126D01*
X57500070Y-113725613D01*
X57467696Y-113803579D01*
X57436374Y-113727774D01*
X57025887Y-113316570D01*
X56489286Y-113093754D01*
X55908263Y-113093247D01*
X55371274Y-113315126D01*
X54960070Y-113725613D01*
X54927696Y-113803579D01*
X54896374Y-113727774D01*
X54485887Y-113316570D01*
X53949286Y-113093754D01*
X53368263Y-113093247D01*
X52831274Y-113315126D01*
X52420070Y-113725613D01*
X52394013Y-113788366D01*
X52392476Y-113784656D01*
X52143715Y-113707390D01*
X51297105Y-114554000D01*
X50937895Y-114554000D01*
X50091285Y-113707390D01*
X49842524Y-113784656D01*
X49841289Y-113788074D01*
X49816374Y-113727774D01*
X49616734Y-113527785D01*
X50270890Y-113527785D01*
X51117500Y-114374395D01*
X51964110Y-113527785D01*
X51886844Y-113279024D01*
X51340369Y-113081660D01*
X50759965Y-113108447D01*
X50348156Y-113279024D01*
X50270890Y-113527785D01*
X49616734Y-113527785D01*
X49405887Y-113316570D01*
X48869286Y-113093754D01*
X48288263Y-113093247D01*
X47751274Y-113315126D01*
X47419524Y-113646297D01*
X47402662Y-113556683D01*
X47263590Y-113340559D01*
X47051390Y-113195569D01*
X46799500Y-113144560D01*
X45275500Y-113144560D01*
X45040183Y-113188838D01*
X44824059Y-113327910D01*
X44679069Y-113540110D01*
X44628060Y-113792000D01*
X33655000Y-113792000D01*
X33655000Y-109473923D01*
X63982900Y-109473923D01*
X63982900Y-110308077D01*
X64094074Y-110866986D01*
X64410671Y-111340806D01*
X64884491Y-111657403D01*
X65443400Y-111768577D01*
X66002309Y-111657403D01*
X66476129Y-111340806D01*
X66792726Y-110866986D01*
X66903900Y-110308077D01*
X66903900Y-109473923D01*
X68782900Y-109473923D01*
X68782900Y-110308077D01*
X68894074Y-110866986D01*
X69210671Y-111340806D01*
X69684491Y-111657403D01*
X70243400Y-111768577D01*
X70802309Y-111657403D01*
X71276129Y-111340806D01*
X71592726Y-110866986D01*
X71703900Y-110308077D01*
X71703900Y-109473923D01*
X71592726Y-108915014D01*
X71276129Y-108441194D01*
X70802309Y-108124597D01*
X70243400Y-108013423D01*
X69684491Y-108124597D01*
X69210671Y-108441194D01*
X68894074Y-108915014D01*
X68782900Y-109473923D01*
X66903900Y-109473923D01*
X66792726Y-108915014D01*
X66476129Y-108441194D01*
X66002309Y-108124597D01*
X65443400Y-108013423D01*
X64884491Y-108124597D01*
X64410671Y-108441194D01*
X64094074Y-108915014D01*
X63982900Y-109473923D01*
X33655000Y-109473923D01*
X33655000Y-109347000D01*
X33646315Y-109300841D01*
X33619035Y-109258447D01*
X33577410Y-109230006D01*
X33528000Y-109220000D01*
X26085000Y-109220000D01*
X26085000Y-104218616D01*
X29311365Y-104218616D01*
X29517809Y-104718249D01*
X29899740Y-105100847D01*
X30399012Y-105308163D01*
X30939616Y-105308635D01*
X31309207Y-105155923D01*
X36246100Y-105155923D01*
X36246100Y-105990077D01*
X36357274Y-106548986D01*
X36673871Y-107022806D01*
X37147691Y-107339403D01*
X37706600Y-107450577D01*
X38265509Y-107339403D01*
X38739329Y-107022806D01*
X39055926Y-106548986D01*
X39167100Y-105990077D01*
X39167100Y-105155923D01*
X41046100Y-105155923D01*
X41046100Y-105990077D01*
X41157274Y-106548986D01*
X41473871Y-107022806D01*
X41947691Y-107339403D01*
X42506600Y-107450577D01*
X43065509Y-107339403D01*
X43539329Y-107022806D01*
X43855926Y-106548986D01*
X43967100Y-105990077D01*
X43967100Y-105155923D01*
X43855926Y-104597014D01*
X43539329Y-104123194D01*
X43065509Y-103806597D01*
X42506600Y-103695423D01*
X41947691Y-103806597D01*
X41473871Y-104123194D01*
X41157274Y-104597014D01*
X41046100Y-105155923D01*
X39167100Y-105155923D01*
X39055926Y-104597014D01*
X38739329Y-104123194D01*
X38265509Y-103806597D01*
X37706600Y-103695423D01*
X37147691Y-103806597D01*
X36673871Y-104123194D01*
X36357274Y-104597014D01*
X36246100Y-105155923D01*
X31309207Y-105155923D01*
X31439249Y-105102191D01*
X31821847Y-104720260D01*
X32029163Y-104220988D01*
X32029332Y-104027508D01*
X35129873Y-100926968D01*
X35321116Y-100927135D01*
X35537025Y-100837923D01*
X55346900Y-100837923D01*
X55346900Y-101672077D01*
X55458074Y-102230986D01*
X55774671Y-102704806D01*
X56248491Y-103021403D01*
X56807400Y-103132577D01*
X57366309Y-103021403D01*
X57840129Y-102704806D01*
X58156726Y-102230986D01*
X58267900Y-101672077D01*
X58267900Y-100837923D01*
X58156726Y-100279014D01*
X57840129Y-99805194D01*
X57366309Y-99488597D01*
X56807400Y-99377423D01*
X56248491Y-99488597D01*
X55774671Y-99805194D01*
X55458074Y-100279014D01*
X55346900Y-100837923D01*
X35537025Y-100837923D01*
X35820749Y-100720691D01*
X36203347Y-100338760D01*
X36410663Y-99839488D01*
X36411135Y-99298884D01*
X36204691Y-98799251D01*
X35822760Y-98416653D01*
X35323488Y-98209337D01*
X35022086Y-98209074D01*
X35219926Y-97912986D01*
X35331100Y-97354077D01*
X35331100Y-96955923D01*
X36246100Y-96955923D01*
X36246100Y-97790077D01*
X36357274Y-98348986D01*
X36673871Y-98822806D01*
X37147691Y-99139403D01*
X37706600Y-99250577D01*
X38265509Y-99139403D01*
X38739329Y-98822806D01*
X39055926Y-98348986D01*
X39167100Y-97790077D01*
X39167100Y-96955923D01*
X41046100Y-96955923D01*
X41046100Y-97790077D01*
X41157274Y-98348986D01*
X41473871Y-98822806D01*
X41947691Y-99139403D01*
X42506600Y-99250577D01*
X43065509Y-99139403D01*
X43539329Y-98822806D01*
X43855926Y-98348986D01*
X43967100Y-97790077D01*
X43967100Y-96955923D01*
X43855926Y-96397014D01*
X43539329Y-95923194D01*
X43065509Y-95606597D01*
X42506600Y-95495423D01*
X41947691Y-95606597D01*
X41473871Y-95923194D01*
X41157274Y-96397014D01*
X41046100Y-96955923D01*
X39167100Y-96955923D01*
X39055926Y-96397014D01*
X38739329Y-95923194D01*
X38265509Y-95606597D01*
X37706600Y-95495423D01*
X37147691Y-95606597D01*
X36673871Y-95923194D01*
X36357274Y-96397014D01*
X36246100Y-96955923D01*
X35331100Y-96955923D01*
X35331100Y-96519923D01*
X35219926Y-95961014D01*
X34903329Y-95487194D01*
X34429509Y-95170597D01*
X33870600Y-95059423D01*
X33311691Y-95170597D01*
X32837871Y-95487194D01*
X32521274Y-95961014D01*
X32410100Y-96519923D01*
X32410100Y-97354077D01*
X32521274Y-97912986D01*
X32837871Y-98386806D01*
X33311691Y-98703403D01*
X33870600Y-98814577D01*
X33895512Y-98809622D01*
X33693337Y-99296512D01*
X33693168Y-99489991D01*
X30592628Y-102590532D01*
X30401384Y-102590365D01*
X29901751Y-102796809D01*
X29519153Y-103178740D01*
X29311837Y-103678012D01*
X29311365Y-104218616D01*
X26085000Y-104218616D01*
X26085000Y-96519923D01*
X27610100Y-96519923D01*
X27610100Y-97354077D01*
X27721274Y-97912986D01*
X28037871Y-98386806D01*
X28511691Y-98703403D01*
X29070600Y-98814577D01*
X29629509Y-98703403D01*
X30103329Y-98386806D01*
X30419926Y-97912986D01*
X30531100Y-97354077D01*
X30531100Y-96519923D01*
X30419926Y-95961014D01*
X30103329Y-95487194D01*
X29629509Y-95170597D01*
X29070600Y-95059423D01*
X28511691Y-95170597D01*
X28037871Y-95487194D01*
X27721274Y-95961014D01*
X27610100Y-96519923D01*
X26085000Y-96519923D01*
X26085000Y-92637923D01*
X55346900Y-92637923D01*
X55346900Y-93472077D01*
X55458074Y-94030986D01*
X55774671Y-94504806D01*
X56248491Y-94821403D01*
X56807400Y-94932577D01*
X57366309Y-94821403D01*
X57840129Y-94504806D01*
X58156726Y-94030986D01*
X58267900Y-93472077D01*
X58267900Y-92637923D01*
X58156726Y-92079014D01*
X57840129Y-91605194D01*
X57366309Y-91288597D01*
X56807400Y-91177423D01*
X56248491Y-91288597D01*
X55774671Y-91605194D01*
X55458074Y-92079014D01*
X55346900Y-92637923D01*
X26085000Y-92637923D01*
X26085000Y-88319923D01*
X27610100Y-88319923D01*
X27610100Y-89154077D01*
X27721274Y-89712986D01*
X28037871Y-90186806D01*
X28511691Y-90503403D01*
X29070600Y-90614577D01*
X29629509Y-90503403D01*
X30103329Y-90186806D01*
X30419926Y-89712986D01*
X30531100Y-89154077D01*
X30531100Y-88319923D01*
X32410100Y-88319923D01*
X32410100Y-89154077D01*
X32521274Y-89712986D01*
X32837871Y-90186806D01*
X33311691Y-90503403D01*
X33870600Y-90614577D01*
X34429509Y-90503403D01*
X34903329Y-90186806D01*
X35219926Y-89712986D01*
X35331100Y-89154077D01*
X35331100Y-88319923D01*
X35219926Y-87761014D01*
X34903329Y-87287194D01*
X34429509Y-86970597D01*
X33870600Y-86859423D01*
X33311691Y-86970597D01*
X32837871Y-87287194D01*
X32521274Y-87761014D01*
X32410100Y-88319923D01*
X30531100Y-88319923D01*
X30419926Y-87761014D01*
X30103329Y-87287194D01*
X29629509Y-86970597D01*
X29070600Y-86859423D01*
X28511691Y-86970597D01*
X28037871Y-87287194D01*
X27721274Y-87761014D01*
X27610100Y-88319923D01*
X26085000Y-88319923D01*
X26085000Y-81803116D01*
X28866865Y-81803116D01*
X29073309Y-82302749D01*
X29455240Y-82685347D01*
X29954512Y-82892663D01*
X30147992Y-82892832D01*
X32619079Y-85363920D01*
X32839321Y-85511081D01*
X32948694Y-85584162D01*
X33337500Y-85661500D01*
X36876629Y-85661500D01*
X37011740Y-85796847D01*
X37511012Y-86004163D01*
X38051616Y-86004635D01*
X38551249Y-85798191D01*
X38933847Y-85416260D01*
X39141163Y-84916988D01*
X39141635Y-84376384D01*
X38935191Y-83876751D01*
X38553260Y-83494153D01*
X38053988Y-83286837D01*
X37513384Y-83286365D01*
X37013751Y-83492809D01*
X36876821Y-83629500D01*
X33758341Y-83629500D01*
X31584968Y-81456128D01*
X31585135Y-81264884D01*
X31378691Y-80765251D01*
X30996760Y-80382653D01*
X30497488Y-80175337D01*
X29956884Y-80174865D01*
X29457251Y-80381309D01*
X29074653Y-80763240D01*
X28867337Y-81262512D01*
X28866865Y-81803116D01*
X26085000Y-81803116D01*
X26085000Y-77940000D01*
X29921560Y-77940000D01*
X29921560Y-79540000D01*
X29965838Y-79775317D01*
X30104910Y-79991441D01*
X30317110Y-80136431D01*
X30569000Y-80187440D01*
X32169000Y-80187440D01*
X32404317Y-80143162D01*
X32620441Y-80004090D01*
X32765431Y-79791890D01*
X32796815Y-79636911D01*
X32894302Y-79782811D01*
X33359849Y-80093880D01*
X33909000Y-80203113D01*
X34458151Y-80093880D01*
X34923698Y-79782811D01*
X35179000Y-79400725D01*
X35434302Y-79782811D01*
X35899849Y-80093880D01*
X36449000Y-80203113D01*
X36998151Y-80093880D01*
X37463698Y-79782811D01*
X37719000Y-79400725D01*
X37974302Y-79782811D01*
X38439849Y-80093880D01*
X38989000Y-80203113D01*
X39538151Y-80093880D01*
X40003698Y-79782811D01*
X40259000Y-79400725D01*
X40514302Y-79782811D01*
X40979849Y-80093880D01*
X41529000Y-80203113D01*
X42078151Y-80093880D01*
X42543698Y-79782811D01*
X42799000Y-79400725D01*
X43054302Y-79782811D01*
X43519849Y-80093880D01*
X44069000Y-80203113D01*
X44618151Y-80093880D01*
X45083698Y-79782811D01*
X45353986Y-79378297D01*
X45456611Y-79595134D01*
X45871577Y-79971041D01*
X46259961Y-80131904D01*
X46482000Y-80009915D01*
X46482000Y-78867000D01*
X46462000Y-78867000D01*
X46462000Y-78613000D01*
X46482000Y-78613000D01*
X46482000Y-77470085D01*
X46736000Y-77470085D01*
X46736000Y-78613000D01*
X46756000Y-78613000D01*
X46756000Y-78867000D01*
X46736000Y-78867000D01*
X46736000Y-80009915D01*
X46958039Y-80131904D01*
X47346423Y-79971041D01*
X47761389Y-79595134D01*
X47864014Y-79378297D01*
X48134302Y-79782811D01*
X48599849Y-80093880D01*
X49149000Y-80203113D01*
X49698151Y-80093880D01*
X50163698Y-79782811D01*
X50419000Y-79400725D01*
X50674302Y-79782811D01*
X51139849Y-80093880D01*
X51689000Y-80203113D01*
X52238151Y-80093880D01*
X52703698Y-79782811D01*
X52959000Y-79400725D01*
X53214302Y-79782811D01*
X53679849Y-80093880D01*
X54229000Y-80203113D01*
X54778151Y-80093880D01*
X55243698Y-79782811D01*
X55499000Y-79400725D01*
X55754302Y-79782811D01*
X56219849Y-80093880D01*
X56769000Y-80203113D01*
X57015623Y-80154057D01*
X57531000Y-80669434D01*
X57531000Y-86360000D01*
X57593837Y-86675905D01*
X57772783Y-86943717D01*
X58040595Y-87122663D01*
X58088198Y-87132132D01*
X62402446Y-91446379D01*
X62166309Y-91288597D01*
X61607400Y-91177423D01*
X61048491Y-91288597D01*
X60574671Y-91605194D01*
X60258074Y-92079014D01*
X60146900Y-92637923D01*
X60146900Y-93472077D01*
X60258074Y-94030986D01*
X60574671Y-94504806D01*
X61048491Y-94821403D01*
X61607400Y-94932577D01*
X62166309Y-94821403D01*
X62640129Y-94504806D01*
X62674500Y-94453366D01*
X62674500Y-99747600D01*
X62705381Y-99902850D01*
X62640129Y-99805194D01*
X62166309Y-99488597D01*
X61607400Y-99377423D01*
X61048491Y-99488597D01*
X60574671Y-99805194D01*
X60258074Y-100279014D01*
X60146900Y-100837923D01*
X60146900Y-101672077D01*
X60258074Y-102230986D01*
X60574671Y-102704806D01*
X61048491Y-103021403D01*
X61607400Y-103132577D01*
X62166309Y-103021403D01*
X62640129Y-102704806D01*
X62956726Y-102230986D01*
X63067900Y-101672077D01*
X63067900Y-100837923D01*
X62979755Y-100394789D01*
X63982900Y-101397933D01*
X63982900Y-102108077D01*
X64094074Y-102666986D01*
X64410671Y-103140806D01*
X64884491Y-103457403D01*
X65443400Y-103568577D01*
X66002309Y-103457403D01*
X66476129Y-103140806D01*
X66792726Y-102666986D01*
X66903900Y-102108077D01*
X66903900Y-101273923D01*
X68782900Y-101273923D01*
X68782900Y-102108077D01*
X68894074Y-102666986D01*
X69210671Y-103140806D01*
X69684491Y-103457403D01*
X70243400Y-103568577D01*
X70802309Y-103457403D01*
X71276129Y-103140806D01*
X71592726Y-102666986D01*
X71703900Y-102108077D01*
X71703900Y-101273923D01*
X71617175Y-100837923D01*
X72618900Y-100837923D01*
X72618900Y-101672077D01*
X72730074Y-102230986D01*
X73046671Y-102704806D01*
X73520491Y-103021403D01*
X74079400Y-103132577D01*
X74638309Y-103021403D01*
X75112129Y-102704806D01*
X75428726Y-102230986D01*
X75539900Y-101672077D01*
X75539900Y-100837923D01*
X77418900Y-100837923D01*
X77418900Y-101672077D01*
X77530074Y-102230986D01*
X77846671Y-102704806D01*
X78320491Y-103021403D01*
X78879400Y-103132577D01*
X79438309Y-103021403D01*
X79912129Y-102704806D01*
X80228726Y-102230986D01*
X80339900Y-101672077D01*
X80339900Y-100837923D01*
X80228726Y-100279014D01*
X79912129Y-99805194D01*
X79438309Y-99488597D01*
X78879400Y-99377423D01*
X78320491Y-99488597D01*
X77846671Y-99805194D01*
X77530074Y-100279014D01*
X77418900Y-100837923D01*
X75539900Y-100837923D01*
X75428726Y-100279014D01*
X75112129Y-99805194D01*
X74638309Y-99488597D01*
X74079400Y-99377423D01*
X73520491Y-99488597D01*
X73046671Y-99805194D01*
X72730074Y-100279014D01*
X72618900Y-100837923D01*
X71617175Y-100837923D01*
X71592726Y-100715014D01*
X71276129Y-100241194D01*
X70802309Y-99924597D01*
X70243400Y-99813423D01*
X69684491Y-99924597D01*
X69210671Y-100241194D01*
X68894074Y-100715014D01*
X68782900Y-101273923D01*
X66903900Y-101273923D01*
X66792726Y-100715014D01*
X66476129Y-100241194D01*
X66002309Y-99924597D01*
X65443400Y-99813423D01*
X64884491Y-99924597D01*
X64860477Y-99940643D01*
X64325500Y-99405666D01*
X64325500Y-96725616D01*
X64426865Y-96725616D01*
X64633309Y-97225249D01*
X65015240Y-97607847D01*
X65514512Y-97815163D01*
X65707992Y-97815332D01*
X66655079Y-98762420D01*
X66984693Y-98982662D01*
X67049200Y-98995493D01*
X67373500Y-99060000D01*
X69325129Y-99060000D01*
X69460240Y-99195347D01*
X69959512Y-99402663D01*
X70500116Y-99403135D01*
X70999749Y-99196691D01*
X71382347Y-98814760D01*
X71589663Y-98315488D01*
X71590135Y-97774884D01*
X71383691Y-97275251D01*
X71001760Y-96892653D01*
X70502488Y-96685337D01*
X69961884Y-96684865D01*
X69462251Y-96891309D01*
X69325321Y-97028000D01*
X67794341Y-97028000D01*
X67144968Y-96378628D01*
X67145135Y-96187384D01*
X66938691Y-95687751D01*
X66556760Y-95305153D01*
X66057488Y-95097837D01*
X65516884Y-95097365D01*
X65017251Y-95303809D01*
X64634653Y-95685740D01*
X64427337Y-96185012D01*
X64426865Y-96725616D01*
X64325500Y-96725616D01*
X64325500Y-93941339D01*
X64410671Y-94068806D01*
X64884491Y-94385403D01*
X65443400Y-94496577D01*
X66002309Y-94385403D01*
X66476129Y-94068806D01*
X66792726Y-93594986D01*
X66903900Y-93036077D01*
X66903900Y-92201923D01*
X66792726Y-91643014D01*
X66476129Y-91169194D01*
X66002309Y-90852597D01*
X65443400Y-90741423D01*
X64884491Y-90852597D01*
X64410671Y-91169194D01*
X64313262Y-91314976D01*
X64308015Y-91288597D01*
X64262663Y-91060594D01*
X64123683Y-90852597D01*
X64083717Y-90792783D01*
X64083714Y-90792781D01*
X59182000Y-85891066D01*
X59182000Y-80327500D01*
X59151007Y-80171686D01*
X59309000Y-80203113D01*
X59858151Y-80093880D01*
X60323698Y-79782811D01*
X60579000Y-79400725D01*
X60834302Y-79782811D01*
X61023500Y-79909229D01*
X61023500Y-80518000D01*
X61086337Y-80833906D01*
X61265283Y-81101717D01*
X62408283Y-82244717D01*
X62676094Y-82423663D01*
X62992000Y-82486500D01*
X65571066Y-82486500D01*
X65671326Y-82586760D01*
X65443400Y-82541423D01*
X64884491Y-82652597D01*
X64410671Y-82969194D01*
X64094074Y-83443014D01*
X63982900Y-84001923D01*
X63982900Y-84836077D01*
X64094074Y-85394986D01*
X64410671Y-85868806D01*
X64884491Y-86185403D01*
X65443400Y-86296577D01*
X66002309Y-86185403D01*
X66476129Y-85868806D01*
X66792726Y-85394986D01*
X66903900Y-84836077D01*
X66903900Y-84001923D01*
X66858563Y-83773997D01*
X66992500Y-83907934D01*
X66992500Y-94742000D01*
X67055337Y-95057906D01*
X67234283Y-95325717D01*
X67996281Y-96087714D01*
X67996283Y-96087717D01*
X68264095Y-96266663D01*
X68580000Y-96329501D01*
X68580005Y-96329500D01*
X71755000Y-96329500D01*
X72070906Y-96266663D01*
X72338717Y-96087717D01*
X73591005Y-94835429D01*
X74079400Y-94932577D01*
X74638309Y-94821403D01*
X75112129Y-94504806D01*
X75428726Y-94030986D01*
X75539900Y-93472077D01*
X75539900Y-92637923D01*
X77418900Y-92637923D01*
X77418900Y-93472077D01*
X77530074Y-94030986D01*
X77846671Y-94504806D01*
X78320491Y-94821403D01*
X78879400Y-94932577D01*
X79438309Y-94821403D01*
X79912129Y-94504806D01*
X80228726Y-94030986D01*
X80339900Y-93472077D01*
X80339900Y-92637923D01*
X80228726Y-92079014D01*
X79912129Y-91605194D01*
X79438309Y-91288597D01*
X78879400Y-91177423D01*
X78320491Y-91288597D01*
X77846671Y-91605194D01*
X77530074Y-92079014D01*
X77418900Y-92637923D01*
X75539900Y-92637923D01*
X75428726Y-92079014D01*
X75112129Y-91605194D01*
X74638309Y-91288597D01*
X74079400Y-91177423D01*
X73520491Y-91288597D01*
X73046671Y-91605194D01*
X72730074Y-92079014D01*
X72618900Y-92637923D01*
X72618900Y-93472077D01*
X72618998Y-93472568D01*
X71413066Y-94678500D01*
X68921933Y-94678500D01*
X68643500Y-94400066D01*
X68643500Y-92201923D01*
X68782900Y-92201923D01*
X68782900Y-93036077D01*
X68894074Y-93594986D01*
X69210671Y-94068806D01*
X69684491Y-94385403D01*
X70243400Y-94496577D01*
X70802309Y-94385403D01*
X71276129Y-94068806D01*
X71592726Y-93594986D01*
X71703900Y-93036077D01*
X71703900Y-92201923D01*
X71592726Y-91643014D01*
X71276129Y-91169194D01*
X70802309Y-90852597D01*
X70243400Y-90741423D01*
X69684491Y-90852597D01*
X69210671Y-91169194D01*
X68894074Y-91643014D01*
X68782900Y-92201923D01*
X68643500Y-92201923D01*
X68643500Y-84001923D01*
X68782900Y-84001923D01*
X68782900Y-84836077D01*
X68894074Y-85394986D01*
X69210671Y-85868806D01*
X69684491Y-86185403D01*
X70243400Y-86296577D01*
X70802309Y-86185403D01*
X71006756Y-86048795D01*
X73421716Y-86048795D01*
X73670106Y-86649943D01*
X74129637Y-87110278D01*
X74730352Y-87359716D01*
X75380795Y-87360284D01*
X75981943Y-87111894D01*
X76442278Y-86652363D01*
X76691716Y-86051648D01*
X76691718Y-86048795D01*
X77921716Y-86048795D01*
X78170106Y-86649943D01*
X78629637Y-87110278D01*
X79230352Y-87359716D01*
X79880795Y-87360284D01*
X80481943Y-87111894D01*
X80942278Y-86652363D01*
X81191716Y-86051648D01*
X81192284Y-85401205D01*
X80943894Y-84800057D01*
X80484363Y-84339722D01*
X79883648Y-84090284D01*
X79233205Y-84089716D01*
X78632057Y-84338106D01*
X78171722Y-84797637D01*
X77922284Y-85398352D01*
X77921716Y-86048795D01*
X76691718Y-86048795D01*
X76692284Y-85401205D01*
X76443894Y-84800057D01*
X75984363Y-84339722D01*
X75383648Y-84090284D01*
X74733205Y-84089716D01*
X74132057Y-84338106D01*
X73671722Y-84797637D01*
X73422284Y-85398352D01*
X73421716Y-86048795D01*
X71006756Y-86048795D01*
X71276129Y-85868806D01*
X71592726Y-85394986D01*
X71703900Y-84836077D01*
X71703900Y-84001923D01*
X71592726Y-83443014D01*
X71276129Y-82969194D01*
X70802309Y-82652597D01*
X70243400Y-82541423D01*
X69684491Y-82652597D01*
X69210671Y-82969194D01*
X68894074Y-83443014D01*
X68782900Y-84001923D01*
X68643500Y-84001923D01*
X68643500Y-83566005D01*
X68643501Y-83566000D01*
X68580663Y-83250095D01*
X68401717Y-82982283D01*
X66496717Y-81077283D01*
X66228906Y-80898337D01*
X65913000Y-80835500D01*
X63333934Y-80835500D01*
X62674500Y-80176066D01*
X62674500Y-79909229D01*
X62863698Y-79782811D01*
X63119000Y-79400725D01*
X63374302Y-79782811D01*
X63839849Y-80093880D01*
X64389000Y-80203113D01*
X64938151Y-80093880D01*
X65403698Y-79782811D01*
X65560062Y-79548795D01*
X73421716Y-79548795D01*
X73670106Y-80149943D01*
X74129637Y-80610278D01*
X74730352Y-80859716D01*
X75380795Y-80860284D01*
X75981943Y-80611894D01*
X76442278Y-80152363D01*
X76691716Y-79551648D01*
X76691718Y-79548795D01*
X77921716Y-79548795D01*
X78170106Y-80149943D01*
X78629637Y-80610278D01*
X79230352Y-80859716D01*
X79880795Y-80860284D01*
X80481943Y-80611894D01*
X80942278Y-80152363D01*
X81191716Y-79551648D01*
X81192284Y-78901205D01*
X80943894Y-78300057D01*
X80484363Y-77839722D01*
X79883648Y-77590284D01*
X79233205Y-77589716D01*
X78632057Y-77838106D01*
X78171722Y-78297637D01*
X77922284Y-78898352D01*
X77921716Y-79548795D01*
X76691718Y-79548795D01*
X76692284Y-78901205D01*
X76443894Y-78300057D01*
X75984363Y-77839722D01*
X75383648Y-77590284D01*
X74733205Y-77589716D01*
X74132057Y-77838106D01*
X73671722Y-78297637D01*
X73422284Y-78898352D01*
X73421716Y-79548795D01*
X65560062Y-79548795D01*
X65714767Y-79317264D01*
X65824000Y-78768113D01*
X65824000Y-78711887D01*
X65786501Y-78523365D01*
X67011433Y-77298433D01*
X67192438Y-77027540D01*
X67255999Y-76708000D01*
X67255999Y-69532500D01*
X70917060Y-69532500D01*
X70917060Y-71183500D01*
X70961338Y-71418817D01*
X71100410Y-71634941D01*
X71312610Y-71779931D01*
X71420809Y-71801842D01*
X71152570Y-72069613D01*
X70929754Y-72606214D01*
X70929247Y-73187237D01*
X71151126Y-73724226D01*
X71561613Y-74135430D01*
X71639579Y-74167804D01*
X71563774Y-74199126D01*
X71152570Y-74609613D01*
X70929754Y-75146214D01*
X70929247Y-75727237D01*
X71151126Y-76264226D01*
X71561613Y-76675430D01*
X72098214Y-76898246D01*
X72679237Y-76898753D01*
X73216226Y-76676874D01*
X73627430Y-76266387D01*
X73659804Y-76188421D01*
X73691126Y-76264226D01*
X74101613Y-76675430D01*
X74638214Y-76898246D01*
X75219237Y-76898753D01*
X75756226Y-76676874D01*
X76167430Y-76266387D01*
X76390246Y-75729786D01*
X76390753Y-75148763D01*
X76168874Y-74611774D01*
X75758387Y-74200570D01*
X75680421Y-74168196D01*
X75756226Y-74136874D01*
X76167430Y-73726387D01*
X76390246Y-73189786D01*
X76390753Y-72608763D01*
X76168874Y-72071774D01*
X75758387Y-71660570D01*
X75695634Y-71634513D01*
X75699344Y-71632976D01*
X75776610Y-71384215D01*
X74930000Y-70537605D01*
X74083390Y-71384215D01*
X74160656Y-71632976D01*
X74164074Y-71634211D01*
X74103774Y-71659126D01*
X73692570Y-72069613D01*
X73660196Y-72147579D01*
X73628874Y-72071774D01*
X73361109Y-71803542D01*
X73450817Y-71786662D01*
X73666941Y-71647590D01*
X73811931Y-71435390D01*
X73861335Y-71191425D01*
X73903785Y-71204610D01*
X74750395Y-70358000D01*
X75109605Y-70358000D01*
X75956215Y-71204610D01*
X76204976Y-71127344D01*
X76402340Y-70580869D01*
X76375553Y-70000465D01*
X76204976Y-69588656D01*
X75956215Y-69511390D01*
X75109605Y-70358000D01*
X74750395Y-70358000D01*
X73903785Y-69511390D01*
X73861443Y-69524542D01*
X73825173Y-69331785D01*
X74083390Y-69331785D01*
X74930000Y-70178395D01*
X75776610Y-69331785D01*
X75699344Y-69083024D01*
X75152869Y-68885660D01*
X74572465Y-68912447D01*
X74160656Y-69083024D01*
X74083390Y-69331785D01*
X73825173Y-69331785D01*
X73818662Y-69297183D01*
X73679590Y-69081059D01*
X73467390Y-68936069D01*
X73215500Y-68885060D01*
X71564500Y-68885060D01*
X71329183Y-68929338D01*
X71113059Y-69068410D01*
X70968069Y-69280610D01*
X70917060Y-69532500D01*
X67255999Y-69532500D01*
X67255999Y-69215000D01*
X67192438Y-68895460D01*
X67157678Y-68843438D01*
X67011434Y-68624567D01*
X65604999Y-67218133D01*
X65604999Y-58533857D01*
X65609590Y-58536994D01*
X65659000Y-58547000D01*
X73152000Y-58547000D01*
X73198159Y-58538315D01*
X73240553Y-58511035D01*
X73268994Y-58469410D01*
X73279000Y-58420000D01*
X73279000Y-56426599D01*
X73414307Y-56562142D01*
X73820258Y-56730708D01*
X74259814Y-56731091D01*
X74666058Y-56563235D01*
X74977142Y-56252693D01*
X75145708Y-55846742D01*
X75146091Y-55407186D01*
X74978235Y-55000942D01*
X74920056Y-54942661D01*
X75301058Y-54785235D01*
X75612142Y-54474693D01*
X75780708Y-54068742D01*
X75781091Y-53629186D01*
X75613235Y-53222942D01*
X75302693Y-52911858D01*
X74896742Y-52743292D01*
X74457186Y-52742909D01*
X74050942Y-52910765D01*
X73840740Y-53120601D01*
X73279000Y-53120601D01*
X73279000Y-47590599D01*
X73586906Y-47590599D01*
X73668307Y-47672142D01*
X74074258Y-47840708D01*
X74513814Y-47841091D01*
X74920058Y-47673235D01*
X75231142Y-47362693D01*
X75399708Y-46956742D01*
X75400091Y-46517186D01*
X75232235Y-46110942D01*
X74921693Y-45799858D01*
X74515742Y-45631292D01*
X74076186Y-45630909D01*
X73669942Y-45798765D01*
X73547893Y-45920601D01*
X73279000Y-45920601D01*
X73279000Y-43815000D01*
X73270315Y-43768841D01*
X73243035Y-43726447D01*
X73201410Y-43698006D01*
X73152000Y-43688000D01*
X65659000Y-43688000D01*
X65612841Y-43696685D01*
X65570447Y-43723965D01*
X65542006Y-43765590D01*
X65532000Y-43815000D01*
X65532000Y-46720601D01*
X60648400Y-46720601D01*
X60328860Y-46784162D01*
X60057966Y-46965167D01*
X59614100Y-47409034D01*
X59471186Y-47408909D01*
X59064942Y-47576765D01*
X58753858Y-47887307D01*
X58585292Y-48293258D01*
X58584909Y-48732814D01*
X58752765Y-49139058D01*
X58856636Y-49243111D01*
X58673967Y-49365166D01*
X57067567Y-50971567D01*
X56886562Y-51242460D01*
X56823001Y-51562000D01*
X56823001Y-66964132D01*
X56550133Y-67237001D01*
X55372000Y-67237001D01*
X55052460Y-67300562D01*
X54781566Y-67481567D01*
X53638567Y-68624567D01*
X53457562Y-68895460D01*
X53394001Y-69215000D01*
X53394001Y-69957118D01*
X53214302Y-70077189D01*
X52944014Y-70481703D01*
X52841389Y-70264866D01*
X52426423Y-69888959D01*
X52038039Y-69728096D01*
X51816000Y-69850085D01*
X51816000Y-70993000D01*
X51836000Y-70993000D01*
X51836000Y-71247000D01*
X51816000Y-71247000D01*
X51816000Y-72389915D01*
X52038039Y-72511904D01*
X52426423Y-72351041D01*
X52841389Y-71975134D01*
X52944014Y-71758297D01*
X53214302Y-72162811D01*
X53679849Y-72473880D01*
X54229000Y-72583113D01*
X54778151Y-72473880D01*
X55243698Y-72162811D01*
X55499000Y-71780725D01*
X55754302Y-72162811D01*
X56219849Y-72473880D01*
X56769000Y-72583113D01*
X57318151Y-72473880D01*
X57783698Y-72162811D01*
X58039000Y-71780725D01*
X58294302Y-72162811D01*
X58759849Y-72473880D01*
X59309000Y-72583113D01*
X59858151Y-72473880D01*
X60323698Y-72162811D01*
X60579000Y-71780725D01*
X60834302Y-72162811D01*
X61299849Y-72473880D01*
X61849000Y-72583113D01*
X62398151Y-72473880D01*
X62863698Y-72162811D01*
X63119000Y-71780725D01*
X63374302Y-72162811D01*
X63839849Y-72473880D01*
X64389000Y-72583113D01*
X64938151Y-72473880D01*
X65403698Y-72162811D01*
X65586001Y-71889976D01*
X65586001Y-76362133D01*
X64624419Y-77323715D01*
X64389000Y-77276887D01*
X63839849Y-77386120D01*
X63374302Y-77697189D01*
X63119000Y-78079275D01*
X62863698Y-77697189D01*
X62398151Y-77386120D01*
X61849000Y-77276887D01*
X61299849Y-77386120D01*
X60834302Y-77697189D01*
X60579000Y-78079275D01*
X60323698Y-77697189D01*
X59858151Y-77386120D01*
X59309000Y-77276887D01*
X58759849Y-77386120D01*
X58294302Y-77697189D01*
X58039000Y-78079275D01*
X57783698Y-77697189D01*
X57318151Y-77386120D01*
X56769000Y-77276887D01*
X56219849Y-77386120D01*
X55754302Y-77697189D01*
X55499000Y-78079275D01*
X55243698Y-77697189D01*
X54778151Y-77386120D01*
X54229000Y-77276887D01*
X53679849Y-77386120D01*
X53214302Y-77697189D01*
X52959000Y-78079275D01*
X52703698Y-77697189D01*
X52238151Y-77386120D01*
X51689000Y-77276887D01*
X51139849Y-77386120D01*
X50674302Y-77697189D01*
X50419000Y-78079275D01*
X50163698Y-77697189D01*
X49698151Y-77386120D01*
X49149000Y-77276887D01*
X48599849Y-77386120D01*
X48134302Y-77697189D01*
X47864014Y-78101703D01*
X47761389Y-77884866D01*
X47346423Y-77508959D01*
X46958039Y-77348096D01*
X46736000Y-77470085D01*
X46482000Y-77470085D01*
X46259961Y-77348096D01*
X45871577Y-77508959D01*
X45456611Y-77884866D01*
X45353986Y-78101703D01*
X45083698Y-77697189D01*
X44618151Y-77386120D01*
X44069000Y-77276887D01*
X43519849Y-77386120D01*
X43054302Y-77697189D01*
X42799000Y-78079275D01*
X42543698Y-77697189D01*
X42078151Y-77386120D01*
X41529000Y-77276887D01*
X40979849Y-77386120D01*
X40514302Y-77697189D01*
X40259000Y-78079275D01*
X40003698Y-77697189D01*
X39538151Y-77386120D01*
X38989000Y-77276887D01*
X38439849Y-77386120D01*
X37974302Y-77697189D01*
X37719000Y-78079275D01*
X37463698Y-77697189D01*
X36998151Y-77386120D01*
X36449000Y-77276887D01*
X35899849Y-77386120D01*
X35434302Y-77697189D01*
X35179000Y-78079275D01*
X34923698Y-77697189D01*
X34458151Y-77386120D01*
X33909000Y-77276887D01*
X33359849Y-77386120D01*
X32894302Y-77697189D01*
X32797899Y-77841465D01*
X32772162Y-77704683D01*
X32633090Y-77488559D01*
X32420890Y-77343569D01*
X32169000Y-77292560D01*
X30569000Y-77292560D01*
X30333683Y-77336838D01*
X30117559Y-77475910D01*
X29972569Y-77688110D01*
X29921560Y-77940000D01*
X26085000Y-77940000D01*
X26085000Y-71091887D01*
X29934000Y-71091887D01*
X29934000Y-71148113D01*
X30043233Y-71697264D01*
X30354302Y-72162811D01*
X30819849Y-72473880D01*
X31369000Y-72583113D01*
X31918151Y-72473880D01*
X32383698Y-72162811D01*
X32639000Y-71780725D01*
X32894302Y-72162811D01*
X33359849Y-72473880D01*
X33909000Y-72583113D01*
X34458151Y-72473880D01*
X34923698Y-72162811D01*
X35179000Y-71780725D01*
X35434302Y-72162811D01*
X35899849Y-72473880D01*
X36449000Y-72583113D01*
X36998151Y-72473880D01*
X37463698Y-72162811D01*
X37719000Y-71780725D01*
X37974302Y-72162811D01*
X38439849Y-72473880D01*
X38989000Y-72583113D01*
X39538151Y-72473880D01*
X40003698Y-72162811D01*
X40259000Y-71780725D01*
X40514302Y-72162811D01*
X40979849Y-72473880D01*
X41529000Y-72583113D01*
X42078151Y-72473880D01*
X42543698Y-72162811D01*
X42799000Y-71780725D01*
X43054302Y-72162811D01*
X43519849Y-72473880D01*
X44069000Y-72583113D01*
X44618151Y-72473880D01*
X45083698Y-72162811D01*
X45339000Y-71780725D01*
X45594302Y-72162811D01*
X46059849Y-72473880D01*
X46609000Y-72583113D01*
X47158151Y-72473880D01*
X47623698Y-72162811D01*
X47893986Y-71758297D01*
X47996611Y-71975134D01*
X48411577Y-72351041D01*
X48799961Y-72511904D01*
X49022000Y-72389915D01*
X49022000Y-71247000D01*
X49276000Y-71247000D01*
X49276000Y-72389915D01*
X49498039Y-72511904D01*
X49886423Y-72351041D01*
X50301389Y-71975134D01*
X50419000Y-71726633D01*
X50536611Y-71975134D01*
X50951577Y-72351041D01*
X51339961Y-72511904D01*
X51562000Y-72389915D01*
X51562000Y-71247000D01*
X49276000Y-71247000D01*
X49022000Y-71247000D01*
X49002000Y-71247000D01*
X49002000Y-70993000D01*
X49022000Y-70993000D01*
X49022000Y-69850085D01*
X49276000Y-69850085D01*
X49276000Y-70993000D01*
X51562000Y-70993000D01*
X51562000Y-69850085D01*
X51339961Y-69728096D01*
X50951577Y-69888959D01*
X50536611Y-70264866D01*
X50419000Y-70513367D01*
X50301389Y-70264866D01*
X49886423Y-69888959D01*
X49498039Y-69728096D01*
X49276000Y-69850085D01*
X49022000Y-69850085D01*
X48799961Y-69728096D01*
X48411577Y-69888959D01*
X47996611Y-70264866D01*
X47893986Y-70481703D01*
X47623698Y-70077189D01*
X47158151Y-69766120D01*
X46609000Y-69656887D01*
X46059849Y-69766120D01*
X45594302Y-70077189D01*
X45339000Y-70459275D01*
X45083698Y-70077189D01*
X44618151Y-69766120D01*
X44069000Y-69656887D01*
X43519849Y-69766120D01*
X43054302Y-70077189D01*
X42799000Y-70459275D01*
X42543698Y-70077189D01*
X42078151Y-69766120D01*
X41529000Y-69656887D01*
X40979849Y-69766120D01*
X40514302Y-70077189D01*
X40259000Y-70459275D01*
X40003698Y-70077189D01*
X39538151Y-69766120D01*
X38989000Y-69656887D01*
X38439849Y-69766120D01*
X37974302Y-70077189D01*
X37719000Y-70459275D01*
X37463698Y-70077189D01*
X36998151Y-69766120D01*
X36449000Y-69656887D01*
X35899849Y-69766120D01*
X35434302Y-70077189D01*
X35179000Y-70459275D01*
X34923698Y-70077189D01*
X34458151Y-69766120D01*
X33909000Y-69656887D01*
X33359849Y-69766120D01*
X32894302Y-70077189D01*
X32639000Y-70459275D01*
X32383698Y-70077189D01*
X31918151Y-69766120D01*
X31369000Y-69656887D01*
X30819849Y-69766120D01*
X30354302Y-70077189D01*
X30043233Y-70542736D01*
X29934000Y-71091887D01*
X26085000Y-71091887D01*
X26085000Y-68615237D01*
X28765247Y-68615237D01*
X28987126Y-69152226D01*
X29397613Y-69563430D01*
X29934214Y-69786246D01*
X30515237Y-69786753D01*
X31052226Y-69564874D01*
X31463430Y-69154387D01*
X31495804Y-69076421D01*
X31527126Y-69152226D01*
X31937613Y-69563430D01*
X32474214Y-69786246D01*
X33055237Y-69786753D01*
X33592226Y-69564874D01*
X34003430Y-69154387D01*
X34035804Y-69076421D01*
X34067126Y-69152226D01*
X34477613Y-69563430D01*
X35014214Y-69786246D01*
X35595237Y-69786753D01*
X36132226Y-69564874D01*
X36543430Y-69154387D01*
X36575804Y-69076421D01*
X36607126Y-69152226D01*
X37017613Y-69563430D01*
X37554214Y-69786246D01*
X38135237Y-69786753D01*
X38672226Y-69564874D01*
X39083430Y-69154387D01*
X39115804Y-69076421D01*
X39147126Y-69152226D01*
X39557613Y-69563430D01*
X40094214Y-69786246D01*
X40675237Y-69786753D01*
X41212226Y-69564874D01*
X41623430Y-69154387D01*
X41655804Y-69076421D01*
X41687126Y-69152226D01*
X42097613Y-69563430D01*
X42634214Y-69786246D01*
X43215237Y-69786753D01*
X43752226Y-69564874D01*
X44163430Y-69154387D01*
X44386246Y-68617786D01*
X44386753Y-68036763D01*
X44164874Y-67499774D01*
X43754387Y-67088570D01*
X43217786Y-66865754D01*
X42636763Y-66865247D01*
X42099774Y-67087126D01*
X41688570Y-67497613D01*
X41656196Y-67575579D01*
X41624874Y-67499774D01*
X41214387Y-67088570D01*
X40677786Y-66865754D01*
X40096763Y-66865247D01*
X39559774Y-67087126D01*
X39148570Y-67497613D01*
X39116196Y-67575579D01*
X39084874Y-67499774D01*
X38674387Y-67088570D01*
X38137786Y-66865754D01*
X37556763Y-66865247D01*
X37019774Y-67087126D01*
X36608570Y-67497613D01*
X36576196Y-67575579D01*
X36544874Y-67499774D01*
X36134387Y-67088570D01*
X35597786Y-66865754D01*
X35016763Y-66865247D01*
X34479774Y-67087126D01*
X34068570Y-67497613D01*
X34036196Y-67575579D01*
X34004874Y-67499774D01*
X33594387Y-67088570D01*
X33057786Y-66865754D01*
X32476763Y-66865247D01*
X31939774Y-67087126D01*
X31528570Y-67497613D01*
X31496196Y-67575579D01*
X31464874Y-67499774D01*
X31054387Y-67088570D01*
X30517786Y-66865754D01*
X29936763Y-66865247D01*
X29399774Y-67087126D01*
X28988570Y-67497613D01*
X28765754Y-68034214D01*
X28765247Y-68615237D01*
X26085000Y-68615237D01*
X26085000Y-52593116D01*
X32486365Y-52593116D01*
X32692809Y-53092749D01*
X33074740Y-53475347D01*
X33574012Y-53682663D01*
X34114616Y-53683135D01*
X34614249Y-53476691D01*
X34751179Y-53340000D01*
X38718129Y-53340000D01*
X38853240Y-53475347D01*
X39352512Y-53682663D01*
X39893116Y-53683135D01*
X40392749Y-53476691D01*
X40775347Y-53094760D01*
X40982663Y-52595488D01*
X40983135Y-52054884D01*
X40776691Y-51555251D01*
X40394760Y-51172653D01*
X39895488Y-50965337D01*
X39354884Y-50964865D01*
X38855251Y-51171309D01*
X38718321Y-51308000D01*
X34751371Y-51308000D01*
X34616260Y-51172653D01*
X34116988Y-50965337D01*
X33576384Y-50964865D01*
X33076751Y-51171309D01*
X32694153Y-51553240D01*
X32486837Y-52052512D01*
X32486365Y-52593116D01*
X26085000Y-52593116D01*
X26085000Y-50319733D01*
X26665352Y-50560716D01*
X27315795Y-50561284D01*
X27916943Y-50312894D01*
X28377278Y-49853363D01*
X28626716Y-49252648D01*
X28627284Y-48602205D01*
X28378894Y-48001057D01*
X27919363Y-47540722D01*
X27318648Y-47291284D01*
X26668205Y-47290716D01*
X26085000Y-47531692D01*
X26085000Y-47190383D01*
X29906769Y-47190383D01*
X30109582Y-47681229D01*
X30484796Y-48057098D01*
X30975287Y-48260768D01*
X31497687Y-48261223D01*
X31357284Y-48599352D01*
X31356716Y-49249795D01*
X31605106Y-49850943D01*
X32064637Y-50311278D01*
X32665352Y-50560716D01*
X33315795Y-50561284D01*
X33916943Y-50312894D01*
X34377278Y-49853363D01*
X34626716Y-49252648D01*
X34627284Y-48602205D01*
X34378894Y-48001057D01*
X33919363Y-47540722D01*
X33318648Y-47291284D01*
X32668205Y-47290716D01*
X32508708Y-47356619D01*
X32576768Y-47192713D01*
X32577231Y-46661617D01*
X32374418Y-46170771D01*
X31999204Y-45794902D01*
X31508713Y-45591232D01*
X30977617Y-45590769D01*
X30486771Y-45793582D01*
X30110902Y-46168796D01*
X29907232Y-46659287D01*
X29906769Y-47190383D01*
X26085000Y-47190383D01*
X26085000Y-39190383D01*
X29906769Y-39190383D01*
X30109582Y-39681229D01*
X30484796Y-40057098D01*
X30975287Y-40260768D01*
X31219548Y-40260981D01*
X31483781Y-40525214D01*
X31483783Y-40525217D01*
X31644324Y-40632487D01*
X31751594Y-40704163D01*
X32067500Y-40767000D01*
X33972500Y-40767000D01*
X33972500Y-40957500D01*
X33656594Y-41020337D01*
X33388783Y-41199283D01*
X32487566Y-42100500D01*
X32304269Y-42100500D01*
X31999204Y-41794902D01*
X31508713Y-41591232D01*
X30977617Y-41590769D01*
X30486771Y-41793582D01*
X30110902Y-42168796D01*
X29907232Y-42659287D01*
X29906769Y-43190383D01*
X30012179Y-43445496D01*
X30034837Y-43559405D01*
X30098798Y-43655129D01*
X30109582Y-43681229D01*
X30129709Y-43701391D01*
X30213783Y-43827217D01*
X30338510Y-43910557D01*
X30484796Y-44057098D01*
X30975287Y-44260768D01*
X31506383Y-44261231D01*
X31997229Y-44058418D01*
X32304683Y-43751500D01*
X32829500Y-43751500D01*
X33145406Y-43688663D01*
X33413217Y-43509717D01*
X34314434Y-42608500D01*
X42545000Y-42608500D01*
X42860906Y-42545663D01*
X43128717Y-42366717D01*
X45147478Y-40347955D01*
X45303814Y-40348091D01*
X45710058Y-40180235D01*
X46021142Y-39869693D01*
X46189708Y-39463742D01*
X46190091Y-39024186D01*
X46022235Y-38617942D01*
X45711693Y-38306858D01*
X45305742Y-38138292D01*
X44866186Y-38137909D01*
X44459942Y-38305765D01*
X44148858Y-38616307D01*
X43980292Y-39022258D01*
X43980154Y-39180413D01*
X42700569Y-40459997D01*
X42824208Y-40162242D01*
X42824591Y-39722686D01*
X42656735Y-39316442D01*
X42346193Y-39005358D01*
X41940242Y-38836792D01*
X41500686Y-38836409D01*
X41094442Y-39004265D01*
X40982512Y-39116000D01*
X32576835Y-39116000D01*
X32577231Y-38661617D01*
X32508655Y-38495650D01*
X32665352Y-38560716D01*
X33315795Y-38561284D01*
X33916943Y-38312894D01*
X34377278Y-37853363D01*
X34626716Y-37252648D01*
X34627284Y-36602205D01*
X34600643Y-36537728D01*
X35016814Y-36538091D01*
X35423058Y-36370235D01*
X35734142Y-36059693D01*
X35902708Y-35653742D01*
X35902776Y-35575116D01*
X38772865Y-35575116D01*
X38979309Y-36074749D01*
X39361240Y-36457347D01*
X39860512Y-36664663D01*
X40401116Y-36665135D01*
X40900749Y-36458691D01*
X41037679Y-36322000D01*
X44918160Y-36322000D01*
X45123032Y-36526872D01*
X45122865Y-36718116D01*
X45329309Y-37217749D01*
X45711240Y-37600347D01*
X46210512Y-37807663D01*
X46751116Y-37808135D01*
X47250749Y-37601691D01*
X47633347Y-37219760D01*
X47840663Y-36720488D01*
X47840832Y-36527009D01*
X47855341Y-36512500D01*
X51545129Y-36512500D01*
X51680240Y-36647847D01*
X52179512Y-36855163D01*
X52720116Y-36855635D01*
X53219749Y-36649191D01*
X53602347Y-36267260D01*
X53809663Y-35767988D01*
X53810135Y-35227384D01*
X53603691Y-34727751D01*
X53221760Y-34345153D01*
X52722488Y-34137837D01*
X52181884Y-34137365D01*
X51682251Y-34343809D01*
X51545321Y-34480500D01*
X47434500Y-34480500D01*
X47045694Y-34557838D01*
X47045692Y-34557839D01*
X47045693Y-34557839D01*
X46716079Y-34778080D01*
X46482000Y-35012159D01*
X46057420Y-34587580D01*
X45727807Y-34367338D01*
X45663300Y-34354507D01*
X45339000Y-34290000D01*
X41037871Y-34290000D01*
X40902760Y-34154653D01*
X40403488Y-33947337D01*
X39862884Y-33946865D01*
X39363251Y-34153309D01*
X38980653Y-34535240D01*
X38773337Y-35034512D01*
X38772865Y-35575116D01*
X35902776Y-35575116D01*
X35902972Y-35350456D01*
X37744477Y-32956500D01*
X42799000Y-32956500D01*
X43114906Y-32893663D01*
X43382717Y-32714717D01*
X46188934Y-29908500D01*
X51967858Y-29908500D01*
X52078307Y-30019142D01*
X52484258Y-30187708D01*
X52923814Y-30188091D01*
X53330058Y-30020235D01*
X53641142Y-29709693D01*
X53809708Y-29303742D01*
X53809758Y-29245237D01*
X66611247Y-29245237D01*
X66833126Y-29782226D01*
X67243613Y-30193430D01*
X67780214Y-30416246D01*
X68361237Y-30416753D01*
X68898226Y-30194874D01*
X69111256Y-29982215D01*
X71416390Y-29982215D01*
X71493656Y-30230976D01*
X72040131Y-30428340D01*
X72620535Y-30401553D01*
X73032344Y-30230976D01*
X73109610Y-29982215D01*
X72263000Y-29135605D01*
X71416390Y-29982215D01*
X69111256Y-29982215D01*
X69309430Y-29784387D01*
X69532246Y-29247786D01*
X69532695Y-28733131D01*
X70790660Y-28733131D01*
X70817447Y-29313535D01*
X70988024Y-29725344D01*
X71236785Y-29802610D01*
X72083395Y-28956000D01*
X72442605Y-28956000D01*
X73289215Y-29802610D01*
X73537976Y-29725344D01*
X73735340Y-29178869D01*
X73708553Y-28598465D01*
X73537976Y-28186656D01*
X73289215Y-28109390D01*
X72442605Y-28956000D01*
X72083395Y-28956000D01*
X71236785Y-28109390D01*
X70988024Y-28186656D01*
X70790660Y-28733131D01*
X69532695Y-28733131D01*
X69532753Y-28666763D01*
X69310874Y-28129774D01*
X69111234Y-27929785D01*
X71416390Y-27929785D01*
X72263000Y-28776395D01*
X73109610Y-27929785D01*
X73032344Y-27681024D01*
X72485869Y-27483660D01*
X71905465Y-27510447D01*
X71493656Y-27681024D01*
X71416390Y-27929785D01*
X69111234Y-27929785D01*
X68900387Y-27718570D01*
X68363786Y-27495754D01*
X67782763Y-27495247D01*
X67245774Y-27717126D01*
X66834570Y-28127613D01*
X66611754Y-28664214D01*
X66611247Y-29245237D01*
X53809758Y-29245237D01*
X53810091Y-28864186D01*
X53642235Y-28457942D01*
X53331693Y-28146858D01*
X52925742Y-27978292D01*
X52486186Y-27977909D01*
X52079942Y-28145765D01*
X51968012Y-28257500D01*
X45847005Y-28257500D01*
X45847000Y-28257499D01*
X45531094Y-28320337D01*
X45263283Y-28499283D01*
X42457066Y-31305500D01*
X37338000Y-31305500D01*
X37285077Y-31316027D01*
X37231231Y-31312433D01*
X37128475Y-31347177D01*
X37022095Y-31368337D01*
X36977227Y-31398317D01*
X36926106Y-31415602D01*
X36844472Y-31487021D01*
X36754283Y-31547283D01*
X36724301Y-31592154D01*
X36683689Y-31627684D01*
X34606574Y-34327933D01*
X34579186Y-34327909D01*
X34172942Y-34495765D01*
X33861858Y-34806307D01*
X33693292Y-35212258D01*
X33693088Y-35446765D01*
X33318648Y-35291284D01*
X32668205Y-35290716D01*
X32067057Y-35539106D01*
X31606722Y-35998637D01*
X31357284Y-36599352D01*
X31356716Y-37249795D01*
X31497791Y-37591222D01*
X30977617Y-37590769D01*
X30486771Y-37793582D01*
X30110902Y-38168796D01*
X29907232Y-38659287D01*
X29906769Y-39190383D01*
X26085000Y-39190383D01*
X26085000Y-38319733D01*
X26665352Y-38560716D01*
X27315795Y-38561284D01*
X27916943Y-38312894D01*
X28377278Y-37853363D01*
X28626716Y-37252648D01*
X28627284Y-36602205D01*
X28378894Y-36001057D01*
X27919363Y-35540722D01*
X27318648Y-35291284D01*
X26668205Y-35290716D01*
X26085000Y-35531692D01*
X26085000Y-33655000D01*
X33528000Y-33655000D01*
X33574159Y-33646315D01*
X33616553Y-33619035D01*
X33644994Y-33577410D01*
X33655000Y-33528000D01*
X33655000Y-29810030D01*
X35927282Y-29810030D01*
X36118701Y-30273300D01*
X36472835Y-30628053D01*
X36935771Y-30820281D01*
X37437030Y-30820718D01*
X37900300Y-30629299D01*
X38255053Y-30275165D01*
X38447281Y-29812229D01*
X38447326Y-29760030D01*
X40927282Y-29760030D01*
X41118701Y-30223300D01*
X41472835Y-30578053D01*
X41935771Y-30770281D01*
X42437030Y-30770718D01*
X42900300Y-30579299D01*
X43255053Y-30225165D01*
X43447281Y-29762229D01*
X43447718Y-29260970D01*
X43256299Y-28797700D01*
X42902165Y-28442947D01*
X42439229Y-28250719D01*
X41937970Y-28250282D01*
X41474700Y-28441701D01*
X41119947Y-28795835D01*
X40927719Y-29258771D01*
X40927282Y-29760030D01*
X38447326Y-29760030D01*
X38447718Y-29310970D01*
X38256299Y-28847700D01*
X37902165Y-28492947D01*
X37439229Y-28300719D01*
X36937970Y-28300282D01*
X36474700Y-28491701D01*
X36119947Y-28845835D01*
X35927719Y-29308771D01*
X35927282Y-29810030D01*
X33655000Y-29810030D01*
X33655000Y-26085000D01*
X34882790Y-26085000D01*
X34677745Y-26578803D01*
X34677745Y-26578803D01*
G37*
X34677745Y-26578803D02*
X34677255Y-27139736D01*
X34891463Y-27658158D01*
X35287756Y-28055143D01*
X35805803Y-28270255D01*
X36366736Y-28270745D01*
X36885158Y-28056537D01*
X37282143Y-27660244D01*
X37497255Y-27142197D01*
X37497745Y-26581264D01*
X37292693Y-26085000D01*
X42082790Y-26085000D01*
X41877745Y-26578803D01*
X41877255Y-27139736D01*
X42091463Y-27658158D01*
X42487756Y-28055143D01*
X43005803Y-28270255D01*
X43566736Y-28270745D01*
X44085158Y-28056537D01*
X44482143Y-27660244D01*
X44697255Y-27142197D01*
X44697745Y-26581264D01*
X44492693Y-26085000D01*
X74295000Y-26085000D01*
X74295000Y-33528000D01*
X74303685Y-33574159D01*
X74330965Y-33616553D01*
X74372590Y-33644994D01*
X74422000Y-33655000D01*
X81865000Y-33655000D01*
X81865000Y-109220000D01*
X74422000Y-109220000D01*
X74375841Y-109228685D01*
X74333447Y-109255965D01*
X74305006Y-109297590D01*
X74295000Y-109347000D01*
X74295000Y-116790000D01*
X33655000Y-116790000D01*
X33655000Y-113792000D01*
X44628060Y-113792000D01*
X44628060Y-115316000D01*
X44672338Y-115551317D01*
X44811410Y-115767441D01*
X45023610Y-115912431D01*
X45275500Y-115963440D01*
X46799500Y-115963440D01*
X47034817Y-115919162D01*
X47250941Y-115780090D01*
X47395931Y-115567890D01*
X47417860Y-115459599D01*
X47749113Y-115791430D01*
X48285714Y-116014246D01*
X48866737Y-116014753D01*
X49403726Y-115792874D01*
X49616756Y-115580215D01*
X50270890Y-115580215D01*
X50348156Y-115828976D01*
X50894631Y-116026340D01*
X51475035Y-115999553D01*
X51886844Y-115828976D01*
X51964110Y-115580215D01*
X51117500Y-114733605D01*
X50270890Y-115580215D01*
X49616756Y-115580215D01*
X49814930Y-115382387D01*
X49840987Y-115319634D01*
X49842524Y-115323344D01*
X50091285Y-115400610D01*
X50937895Y-114554000D01*
X51297105Y-114554000D01*
X52143715Y-115400610D01*
X52392476Y-115323344D01*
X52393711Y-115319926D01*
X52418626Y-115380226D01*
X52829113Y-115791430D01*
X53365714Y-116014246D01*
X53946737Y-116014753D01*
X54483726Y-115792874D01*
X54894930Y-115382387D01*
X54927304Y-115304421D01*
X54958626Y-115380226D01*
X55369113Y-115791430D01*
X55905714Y-116014246D01*
X56486737Y-116014753D01*
X57023726Y-115792874D01*
X57434930Y-115382387D01*
X57467304Y-115304421D01*
X57498626Y-115380226D01*
X57909113Y-115791430D01*
X58445714Y-116014246D01*
X59026737Y-116014753D01*
X59563726Y-115792874D01*
X59974930Y-115382387D01*
X60197746Y-114845786D01*
X60198253Y-114264763D01*
X59976374Y-113727774D01*
X59565887Y-113316570D01*
X59029286Y-113093754D01*
X58448263Y-113093247D01*
X57911274Y-113315126D01*
X57500070Y-113725613D01*
X57467696Y-113803579D01*
X57436374Y-113727774D01*
X57025887Y-113316570D01*
X56489286Y-113093754D01*
X55908263Y-113093247D01*
X55371274Y-113315126D01*
X54960070Y-113725613D01*
X54927696Y-113803579D01*
X54896374Y-113727774D01*
X54485887Y-113316570D01*
X53949286Y-113093754D01*
X53368263Y-113093247D01*
X52831274Y-113315126D01*
X52420070Y-113725613D01*
X52394013Y-113788366D01*
X52392476Y-113784656D01*
X52143715Y-113707390D01*
X51297105Y-114554000D01*
X50937895Y-114554000D01*
X50091285Y-113707390D01*
X49842524Y-113784656D01*
X49841289Y-113788074D01*
X49816374Y-113727774D01*
X49616734Y-113527785D01*
X50270890Y-113527785D01*
X51117500Y-114374395D01*
X51964110Y-113527785D01*
X51886844Y-113279024D01*
X51340369Y-113081660D01*
X50759965Y-113108447D01*
X50348156Y-113279024D01*
X50270890Y-113527785D01*
X49616734Y-113527785D01*
X49405887Y-113316570D01*
X48869286Y-113093754D01*
X48288263Y-113093247D01*
X47751274Y-113315126D01*
X47419524Y-113646297D01*
X47402662Y-113556683D01*
X47263590Y-113340559D01*
X47051390Y-113195569D01*
X46799500Y-113144560D01*
X45275500Y-113144560D01*
X45040183Y-113188838D01*
X44824059Y-113327910D01*
X44679069Y-113540110D01*
X44628060Y-113792000D01*
X33655000Y-113792000D01*
X33655000Y-109473923D01*
X63982900Y-109473923D01*
X63982900Y-110308077D01*
X64094074Y-110866986D01*
X64410671Y-111340806D01*
X64884491Y-111657403D01*
X65443400Y-111768577D01*
X66002309Y-111657403D01*
X66476129Y-111340806D01*
X66792726Y-110866986D01*
X66903900Y-110308077D01*
X66903900Y-109473923D01*
X68782900Y-109473923D01*
X68782900Y-110308077D01*
X68894074Y-110866986D01*
X69210671Y-111340806D01*
X69684491Y-111657403D01*
X70243400Y-111768577D01*
X70802309Y-111657403D01*
X71276129Y-111340806D01*
X71592726Y-110866986D01*
X71703900Y-110308077D01*
X71703900Y-109473923D01*
X71592726Y-108915014D01*
X71276129Y-108441194D01*
X70802309Y-108124597D01*
X70243400Y-108013423D01*
X69684491Y-108124597D01*
X69210671Y-108441194D01*
X68894074Y-108915014D01*
X68782900Y-109473923D01*
X66903900Y-109473923D01*
X66792726Y-108915014D01*
X66476129Y-108441194D01*
X66002309Y-108124597D01*
X65443400Y-108013423D01*
X64884491Y-108124597D01*
X64410671Y-108441194D01*
X64094074Y-108915014D01*
X63982900Y-109473923D01*
X33655000Y-109473923D01*
X33655000Y-109347000D01*
X33646315Y-109300841D01*
X33619035Y-109258447D01*
X33577410Y-109230006D01*
X33528000Y-109220000D01*
X26085000Y-109220000D01*
X26085000Y-104218616D01*
X29311365Y-104218616D01*
X29517809Y-104718249D01*
X29899740Y-105100847D01*
X30399012Y-105308163D01*
X30939616Y-105308635D01*
X31309207Y-105155923D01*
X36246100Y-105155923D01*
X36246100Y-105990077D01*
X36357274Y-106548986D01*
X36673871Y-107022806D01*
X37147691Y-107339403D01*
X37706600Y-107450577D01*
X38265509Y-107339403D01*
X38739329Y-107022806D01*
X39055926Y-106548986D01*
X39167100Y-105990077D01*
X39167100Y-105155923D01*
X41046100Y-105155923D01*
X41046100Y-105990077D01*
X41157274Y-106548986D01*
X41473871Y-107022806D01*
X41947691Y-107339403D01*
X42506600Y-107450577D01*
X43065509Y-107339403D01*
X43539329Y-107022806D01*
X43855926Y-106548986D01*
X43967100Y-105990077D01*
X43967100Y-105155923D01*
X43855926Y-104597014D01*
X43539329Y-104123194D01*
X43065509Y-103806597D01*
X42506600Y-103695423D01*
X41947691Y-103806597D01*
X41473871Y-104123194D01*
X41157274Y-104597014D01*
X41046100Y-105155923D01*
X39167100Y-105155923D01*
X39055926Y-104597014D01*
X38739329Y-104123194D01*
X38265509Y-103806597D01*
X37706600Y-103695423D01*
X37147691Y-103806597D01*
X36673871Y-104123194D01*
X36357274Y-104597014D01*
X36246100Y-105155923D01*
X31309207Y-105155923D01*
X31439249Y-105102191D01*
X31821847Y-104720260D01*
X32029163Y-104220988D01*
X32029332Y-104027508D01*
X35129873Y-100926968D01*
X35321116Y-100927135D01*
X35537025Y-100837923D01*
X55346900Y-100837923D01*
X55346900Y-101672077D01*
X55458074Y-102230986D01*
X55774671Y-102704806D01*
X56248491Y-103021403D01*
X56807400Y-103132577D01*
X57366309Y-103021403D01*
X57840129Y-102704806D01*
X58156726Y-102230986D01*
X58267900Y-101672077D01*
X58267900Y-100837923D01*
X58156726Y-100279014D01*
X57840129Y-99805194D01*
X57366309Y-99488597D01*
X56807400Y-99377423D01*
X56248491Y-99488597D01*
X55774671Y-99805194D01*
X55458074Y-100279014D01*
X55346900Y-100837923D01*
X35537025Y-100837923D01*
X35820749Y-100720691D01*
X36203347Y-100338760D01*
X36410663Y-99839488D01*
X36411135Y-99298884D01*
X36204691Y-98799251D01*
X35822760Y-98416653D01*
X35323488Y-98209337D01*
X35022086Y-98209074D01*
X35219926Y-97912986D01*
X35331100Y-97354077D01*
X35331100Y-96955923D01*
X36246100Y-96955923D01*
X36246100Y-97790077D01*
X36357274Y-98348986D01*
X36673871Y-98822806D01*
X37147691Y-99139403D01*
X37706600Y-99250577D01*
X38265509Y-99139403D01*
X38739329Y-98822806D01*
X39055926Y-98348986D01*
X39167100Y-97790077D01*
X39167100Y-96955923D01*
X41046100Y-96955923D01*
X41046100Y-97790077D01*
X41157274Y-98348986D01*
X41473871Y-98822806D01*
X41947691Y-99139403D01*
X42506600Y-99250577D01*
X43065509Y-99139403D01*
X43539329Y-98822806D01*
X43855926Y-98348986D01*
X43967100Y-97790077D01*
X43967100Y-96955923D01*
X43855926Y-96397014D01*
X43539329Y-95923194D01*
X43065509Y-95606597D01*
X42506600Y-95495423D01*
X41947691Y-95606597D01*
X41473871Y-95923194D01*
X41157274Y-96397014D01*
X41046100Y-96955923D01*
X39167100Y-96955923D01*
X39055926Y-96397014D01*
X38739329Y-95923194D01*
X38265509Y-95606597D01*
X37706600Y-95495423D01*
X37147691Y-95606597D01*
X36673871Y-95923194D01*
X36357274Y-96397014D01*
X36246100Y-96955923D01*
X35331100Y-96955923D01*
X35331100Y-96519923D01*
X35219926Y-95961014D01*
X34903329Y-95487194D01*
X34429509Y-95170597D01*
X33870600Y-95059423D01*
X33311691Y-95170597D01*
X32837871Y-95487194D01*
X32521274Y-95961014D01*
X32410100Y-96519923D01*
X32410100Y-97354077D01*
X32521274Y-97912986D01*
X32837871Y-98386806D01*
X33311691Y-98703403D01*
X33870600Y-98814577D01*
X33895512Y-98809622D01*
X33693337Y-99296512D01*
X33693168Y-99489991D01*
X30592628Y-102590532D01*
X30401384Y-102590365D01*
X29901751Y-102796809D01*
X29519153Y-103178740D01*
X29311837Y-103678012D01*
X29311365Y-104218616D01*
X26085000Y-104218616D01*
X26085000Y-96519923D01*
X27610100Y-96519923D01*
X27610100Y-97354077D01*
X27721274Y-97912986D01*
X28037871Y-98386806D01*
X28511691Y-98703403D01*
X29070600Y-98814577D01*
X29629509Y-98703403D01*
X30103329Y-98386806D01*
X30419926Y-97912986D01*
X30531100Y-97354077D01*
X30531100Y-96519923D01*
X30419926Y-95961014D01*
X30103329Y-95487194D01*
X29629509Y-95170597D01*
X29070600Y-95059423D01*
X28511691Y-95170597D01*
X28037871Y-95487194D01*
X27721274Y-95961014D01*
X27610100Y-96519923D01*
X26085000Y-96519923D01*
X26085000Y-92637923D01*
X55346900Y-92637923D01*
X55346900Y-93472077D01*
X55458074Y-94030986D01*
X55774671Y-94504806D01*
X56248491Y-94821403D01*
X56807400Y-94932577D01*
X57366309Y-94821403D01*
X57840129Y-94504806D01*
X58156726Y-94030986D01*
X58267900Y-93472077D01*
X58267900Y-92637923D01*
X58156726Y-92079014D01*
X57840129Y-91605194D01*
X57366309Y-91288597D01*
X56807400Y-91177423D01*
X56248491Y-91288597D01*
X55774671Y-91605194D01*
X55458074Y-92079014D01*
X55346900Y-92637923D01*
X26085000Y-92637923D01*
X26085000Y-88319923D01*
X27610100Y-88319923D01*
X27610100Y-89154077D01*
X27721274Y-89712986D01*
X28037871Y-90186806D01*
X28511691Y-90503403D01*
X29070600Y-90614577D01*
X29629509Y-90503403D01*
X30103329Y-90186806D01*
X30419926Y-89712986D01*
X30531100Y-89154077D01*
X30531100Y-88319923D01*
X32410100Y-88319923D01*
X32410100Y-89154077D01*
X32521274Y-89712986D01*
X32837871Y-90186806D01*
X33311691Y-90503403D01*
X33870600Y-90614577D01*
X34429509Y-90503403D01*
X34903329Y-90186806D01*
X35219926Y-89712986D01*
X35331100Y-89154077D01*
X35331100Y-88319923D01*
X35219926Y-87761014D01*
X34903329Y-87287194D01*
X34429509Y-86970597D01*
X33870600Y-86859423D01*
X33311691Y-86970597D01*
X32837871Y-87287194D01*
X32521274Y-87761014D01*
X32410100Y-88319923D01*
X30531100Y-88319923D01*
X30419926Y-87761014D01*
X30103329Y-87287194D01*
X29629509Y-86970597D01*
X29070600Y-86859423D01*
X28511691Y-86970597D01*
X28037871Y-87287194D01*
X27721274Y-87761014D01*
X27610100Y-88319923D01*
X26085000Y-88319923D01*
X26085000Y-81803116D01*
X28866865Y-81803116D01*
X29073309Y-82302749D01*
X29455240Y-82685347D01*
X29954512Y-82892663D01*
X30147992Y-82892832D01*
X32619079Y-85363920D01*
X32839321Y-85511081D01*
X32948694Y-85584162D01*
X33337500Y-85661500D01*
X36876629Y-85661500D01*
X37011740Y-85796847D01*
X37511012Y-86004163D01*
X38051616Y-86004635D01*
X38551249Y-85798191D01*
X38933847Y-85416260D01*
X39141163Y-84916988D01*
X39141635Y-84376384D01*
X38935191Y-83876751D01*
X38553260Y-83494153D01*
X38053988Y-83286837D01*
X37513384Y-83286365D01*
X37013751Y-83492809D01*
X36876821Y-83629500D01*
X33758341Y-83629500D01*
X31584968Y-81456128D01*
X31585135Y-81264884D01*
X31378691Y-80765251D01*
X30996760Y-80382653D01*
X30497488Y-80175337D01*
X29956884Y-80174865D01*
X29457251Y-80381309D01*
X29074653Y-80763240D01*
X28867337Y-81262512D01*
X28866865Y-81803116D01*
X26085000Y-81803116D01*
X26085000Y-77940000D01*
X29921560Y-77940000D01*
X29921560Y-79540000D01*
X29965838Y-79775317D01*
X30104910Y-79991441D01*
X30317110Y-80136431D01*
X30569000Y-80187440D01*
X32169000Y-80187440D01*
X32404317Y-80143162D01*
X32620441Y-80004090D01*
X32765431Y-79791890D01*
X32796815Y-79636911D01*
X32894302Y-79782811D01*
X33359849Y-80093880D01*
X33909000Y-80203113D01*
X34458151Y-80093880D01*
X34923698Y-79782811D01*
X35179000Y-79400725D01*
X35434302Y-79782811D01*
X35899849Y-80093880D01*
X36449000Y-80203113D01*
X36998151Y-80093880D01*
X37463698Y-79782811D01*
X37719000Y-79400725D01*
X37974302Y-79782811D01*
X38439849Y-80093880D01*
X38989000Y-80203113D01*
X39538151Y-80093880D01*
X40003698Y-79782811D01*
X40259000Y-79400725D01*
X40514302Y-79782811D01*
X40979849Y-80093880D01*
X41529000Y-80203113D01*
X42078151Y-80093880D01*
X42543698Y-79782811D01*
X42799000Y-79400725D01*
X43054302Y-79782811D01*
X43519849Y-80093880D01*
X44069000Y-80203113D01*
X44618151Y-80093880D01*
X45083698Y-79782811D01*
X45353986Y-79378297D01*
X45456611Y-79595134D01*
X45871577Y-79971041D01*
X46259961Y-80131904D01*
X46482000Y-80009915D01*
X46482000Y-78867000D01*
X46462000Y-78867000D01*
X46462000Y-78613000D01*
X46482000Y-78613000D01*
X46482000Y-77470085D01*
X46736000Y-77470085D01*
X46736000Y-78613000D01*
X46756000Y-78613000D01*
X46756000Y-78867000D01*
X46736000Y-78867000D01*
X46736000Y-80009915D01*
X46958039Y-80131904D01*
X47346423Y-79971041D01*
X47761389Y-79595134D01*
X47864014Y-79378297D01*
X48134302Y-79782811D01*
X48599849Y-80093880D01*
X49149000Y-80203113D01*
X49698151Y-80093880D01*
X50163698Y-79782811D01*
X50419000Y-79400725D01*
X50674302Y-79782811D01*
X51139849Y-80093880D01*
X51689000Y-80203113D01*
X52238151Y-80093880D01*
X52703698Y-79782811D01*
X52959000Y-79400725D01*
X53214302Y-79782811D01*
X53679849Y-80093880D01*
X54229000Y-80203113D01*
X54778151Y-80093880D01*
X55243698Y-79782811D01*
X55499000Y-79400725D01*
X55754302Y-79782811D01*
X56219849Y-80093880D01*
X56769000Y-80203113D01*
X57015623Y-80154057D01*
X57531000Y-80669434D01*
X57531000Y-86360000D01*
X57593837Y-86675905D01*
X57772783Y-86943717D01*
X58040595Y-87122663D01*
X58088198Y-87132132D01*
X62402446Y-91446379D01*
X62166309Y-91288597D01*
X61607400Y-91177423D01*
X61048491Y-91288597D01*
X60574671Y-91605194D01*
X60258074Y-92079014D01*
X60146900Y-92637923D01*
X60146900Y-93472077D01*
X60258074Y-94030986D01*
X60574671Y-94504806D01*
X61048491Y-94821403D01*
X61607400Y-94932577D01*
X62166309Y-94821403D01*
X62640129Y-94504806D01*
X62674500Y-94453366D01*
X62674500Y-99747600D01*
X62705381Y-99902850D01*
X62640129Y-99805194D01*
X62166309Y-99488597D01*
X61607400Y-99377423D01*
X61048491Y-99488597D01*
X60574671Y-99805194D01*
X60258074Y-100279014D01*
X60146900Y-100837923D01*
X60146900Y-101672077D01*
X60258074Y-102230986D01*
X60574671Y-102704806D01*
X61048491Y-103021403D01*
X61607400Y-103132577D01*
X62166309Y-103021403D01*
X62640129Y-102704806D01*
X62956726Y-102230986D01*
X63067900Y-101672077D01*
X63067900Y-100837923D01*
X62979755Y-100394789D01*
X63982900Y-101397933D01*
X63982900Y-102108077D01*
X64094074Y-102666986D01*
X64410671Y-103140806D01*
X64884491Y-103457403D01*
X65443400Y-103568577D01*
X66002309Y-103457403D01*
X66476129Y-103140806D01*
X66792726Y-102666986D01*
X66903900Y-102108077D01*
X66903900Y-101273923D01*
X68782900Y-101273923D01*
X68782900Y-102108077D01*
X68894074Y-102666986D01*
X69210671Y-103140806D01*
X69684491Y-103457403D01*
X70243400Y-103568577D01*
X70802309Y-103457403D01*
X71276129Y-103140806D01*
X71592726Y-102666986D01*
X71703900Y-102108077D01*
X71703900Y-101273923D01*
X71617175Y-100837923D01*
X72618900Y-100837923D01*
X72618900Y-101672077D01*
X72730074Y-102230986D01*
X73046671Y-102704806D01*
X73520491Y-103021403D01*
X74079400Y-103132577D01*
X74638309Y-103021403D01*
X75112129Y-102704806D01*
X75428726Y-102230986D01*
X75539900Y-101672077D01*
X75539900Y-100837923D01*
X77418900Y-100837923D01*
X77418900Y-101672077D01*
X77530074Y-102230986D01*
X77846671Y-102704806D01*
X78320491Y-103021403D01*
X78879400Y-103132577D01*
X79438309Y-103021403D01*
X79912129Y-102704806D01*
X80228726Y-102230986D01*
X80339900Y-101672077D01*
X80339900Y-100837923D01*
X80228726Y-100279014D01*
X79912129Y-99805194D01*
X79438309Y-99488597D01*
X78879400Y-99377423D01*
X78320491Y-99488597D01*
X77846671Y-99805194D01*
X77530074Y-100279014D01*
X77418900Y-100837923D01*
X75539900Y-100837923D01*
X75428726Y-100279014D01*
X75112129Y-99805194D01*
X74638309Y-99488597D01*
X74079400Y-99377423D01*
X73520491Y-99488597D01*
X73046671Y-99805194D01*
X72730074Y-100279014D01*
X72618900Y-100837923D01*
X71617175Y-100837923D01*
X71592726Y-100715014D01*
X71276129Y-100241194D01*
X70802309Y-99924597D01*
X70243400Y-99813423D01*
X69684491Y-99924597D01*
X69210671Y-100241194D01*
X68894074Y-100715014D01*
X68782900Y-101273923D01*
X66903900Y-101273923D01*
X66792726Y-100715014D01*
X66476129Y-100241194D01*
X66002309Y-99924597D01*
X65443400Y-99813423D01*
X64884491Y-99924597D01*
X64860477Y-99940643D01*
X64325500Y-99405666D01*
X64325500Y-96725616D01*
X64426865Y-96725616D01*
X64633309Y-97225249D01*
X65015240Y-97607847D01*
X65514512Y-97815163D01*
X65707992Y-97815332D01*
X66655079Y-98762420D01*
X66984693Y-98982662D01*
X67049200Y-98995493D01*
X67373500Y-99060000D01*
X69325129Y-99060000D01*
X69460240Y-99195347D01*
X69959512Y-99402663D01*
X70500116Y-99403135D01*
X70999749Y-99196691D01*
X71382347Y-98814760D01*
X71589663Y-98315488D01*
X71590135Y-97774884D01*
X71383691Y-97275251D01*
X71001760Y-96892653D01*
X70502488Y-96685337D01*
X69961884Y-96684865D01*
X69462251Y-96891309D01*
X69325321Y-97028000D01*
X67794341Y-97028000D01*
X67144968Y-96378628D01*
X67145135Y-96187384D01*
X66938691Y-95687751D01*
X66556760Y-95305153D01*
X66057488Y-95097837D01*
X65516884Y-95097365D01*
X65017251Y-95303809D01*
X64634653Y-95685740D01*
X64427337Y-96185012D01*
X64426865Y-96725616D01*
X64325500Y-96725616D01*
X64325500Y-93941339D01*
X64410671Y-94068806D01*
X64884491Y-94385403D01*
X65443400Y-94496577D01*
X66002309Y-94385403D01*
X66476129Y-94068806D01*
X66792726Y-93594986D01*
X66903900Y-93036077D01*
X66903900Y-92201923D01*
X66792726Y-91643014D01*
X66476129Y-91169194D01*
X66002309Y-90852597D01*
X65443400Y-90741423D01*
X64884491Y-90852597D01*
X64410671Y-91169194D01*
X64313262Y-91314976D01*
X64308015Y-91288597D01*
X64262663Y-91060594D01*
X64123683Y-90852597D01*
X64083717Y-90792783D01*
X64083714Y-90792781D01*
X59182000Y-85891066D01*
X59182000Y-80327500D01*
X59151007Y-80171686D01*
X59309000Y-80203113D01*
X59858151Y-80093880D01*
X60323698Y-79782811D01*
X60579000Y-79400725D01*
X60834302Y-79782811D01*
X61023500Y-79909229D01*
X61023500Y-80518000D01*
X61086337Y-80833906D01*
X61265283Y-81101717D01*
X62408283Y-82244717D01*
X62676094Y-82423663D01*
X62992000Y-82486500D01*
X65571066Y-82486500D01*
X65671326Y-82586760D01*
X65443400Y-82541423D01*
X64884491Y-82652597D01*
X64410671Y-82969194D01*
X64094074Y-83443014D01*
X63982900Y-84001923D01*
X63982900Y-84836077D01*
X64094074Y-85394986D01*
X64410671Y-85868806D01*
X64884491Y-86185403D01*
X65443400Y-86296577D01*
X66002309Y-86185403D01*
X66476129Y-85868806D01*
X66792726Y-85394986D01*
X66903900Y-84836077D01*
X66903900Y-84001923D01*
X66858563Y-83773997D01*
X66992500Y-83907934D01*
X66992500Y-94742000D01*
X67055337Y-95057906D01*
X67234283Y-95325717D01*
X67996281Y-96087714D01*
X67996283Y-96087717D01*
X68264095Y-96266663D01*
X68580000Y-96329501D01*
X68580005Y-96329500D01*
X71755000Y-96329500D01*
X72070906Y-96266663D01*
X72338717Y-96087717D01*
X73591005Y-94835429D01*
X74079400Y-94932577D01*
X74638309Y-94821403D01*
X75112129Y-94504806D01*
X75428726Y-94030986D01*
X75539900Y-93472077D01*
X75539900Y-92637923D01*
X77418900Y-92637923D01*
X77418900Y-93472077D01*
X77530074Y-94030986D01*
X77846671Y-94504806D01*
X78320491Y-94821403D01*
X78879400Y-94932577D01*
X79438309Y-94821403D01*
X79912129Y-94504806D01*
X80228726Y-94030986D01*
X80339900Y-93472077D01*
X80339900Y-92637923D01*
X80228726Y-92079014D01*
X79912129Y-91605194D01*
X79438309Y-91288597D01*
X78879400Y-91177423D01*
X78320491Y-91288597D01*
X77846671Y-91605194D01*
X77530074Y-92079014D01*
X77418900Y-92637923D01*
X75539900Y-92637923D01*
X75428726Y-92079014D01*
X75112129Y-91605194D01*
X74638309Y-91288597D01*
X74079400Y-91177423D01*
X73520491Y-91288597D01*
X73046671Y-91605194D01*
X72730074Y-92079014D01*
X72618900Y-92637923D01*
X72618900Y-93472077D01*
X72618998Y-93472568D01*
X71413066Y-94678500D01*
X68921933Y-94678500D01*
X68643500Y-94400066D01*
X68643500Y-92201923D01*
X68782900Y-92201923D01*
X68782900Y-93036077D01*
X68894074Y-93594986D01*
X69210671Y-94068806D01*
X69684491Y-94385403D01*
X70243400Y-94496577D01*
X70802309Y-94385403D01*
X71276129Y-94068806D01*
X71592726Y-93594986D01*
X71703900Y-93036077D01*
X71703900Y-92201923D01*
X71592726Y-91643014D01*
X71276129Y-91169194D01*
X70802309Y-90852597D01*
X70243400Y-90741423D01*
X69684491Y-90852597D01*
X69210671Y-91169194D01*
X68894074Y-91643014D01*
X68782900Y-92201923D01*
X68643500Y-92201923D01*
X68643500Y-84001923D01*
X68782900Y-84001923D01*
X68782900Y-84836077D01*
X68894074Y-85394986D01*
X69210671Y-85868806D01*
X69684491Y-86185403D01*
X70243400Y-86296577D01*
X70802309Y-86185403D01*
X71006756Y-86048795D01*
X73421716Y-86048795D01*
X73670106Y-86649943D01*
X74129637Y-87110278D01*
X74730352Y-87359716D01*
X75380795Y-87360284D01*
X75981943Y-87111894D01*
X76442278Y-86652363D01*
X76691716Y-86051648D01*
X76691718Y-86048795D01*
X77921716Y-86048795D01*
X78170106Y-86649943D01*
X78629637Y-87110278D01*
X79230352Y-87359716D01*
X79880795Y-87360284D01*
X80481943Y-87111894D01*
X80942278Y-86652363D01*
X81191716Y-86051648D01*
X81192284Y-85401205D01*
X80943894Y-84800057D01*
X80484363Y-84339722D01*
X79883648Y-84090284D01*
X79233205Y-84089716D01*
X78632057Y-84338106D01*
X78171722Y-84797637D01*
X77922284Y-85398352D01*
X77921716Y-86048795D01*
X76691718Y-86048795D01*
X76692284Y-85401205D01*
X76443894Y-84800057D01*
X75984363Y-84339722D01*
X75383648Y-84090284D01*
X74733205Y-84089716D01*
X74132057Y-84338106D01*
X73671722Y-84797637D01*
X73422284Y-85398352D01*
X73421716Y-86048795D01*
X71006756Y-86048795D01*
X71276129Y-85868806D01*
X71592726Y-85394986D01*
X71703900Y-84836077D01*
X71703900Y-84001923D01*
X71592726Y-83443014D01*
X71276129Y-82969194D01*
X70802309Y-82652597D01*
X70243400Y-82541423D01*
X69684491Y-82652597D01*
X69210671Y-82969194D01*
X68894074Y-83443014D01*
X68782900Y-84001923D01*
X68643500Y-84001923D01*
X68643500Y-83566005D01*
X68643501Y-83566000D01*
X68580663Y-83250095D01*
X68401717Y-82982283D01*
X66496717Y-81077283D01*
X66228906Y-80898337D01*
X65913000Y-80835500D01*
X63333934Y-80835500D01*
X62674500Y-80176066D01*
X62674500Y-79909229D01*
X62863698Y-79782811D01*
X63119000Y-79400725D01*
X63374302Y-79782811D01*
X63839849Y-80093880D01*
X64389000Y-80203113D01*
X64938151Y-80093880D01*
X65403698Y-79782811D01*
X65560062Y-79548795D01*
X73421716Y-79548795D01*
X73670106Y-80149943D01*
X74129637Y-80610278D01*
X74730352Y-80859716D01*
X75380795Y-80860284D01*
X75981943Y-80611894D01*
X76442278Y-80152363D01*
X76691716Y-79551648D01*
X76691718Y-79548795D01*
X77921716Y-79548795D01*
X78170106Y-80149943D01*
X78629637Y-80610278D01*
X79230352Y-80859716D01*
X79880795Y-80860284D01*
X80481943Y-80611894D01*
X80942278Y-80152363D01*
X81191716Y-79551648D01*
X81192284Y-78901205D01*
X80943894Y-78300057D01*
X80484363Y-77839722D01*
X79883648Y-77590284D01*
X79233205Y-77589716D01*
X78632057Y-77838106D01*
X78171722Y-78297637D01*
X77922284Y-78898352D01*
X77921716Y-79548795D01*
X76691718Y-79548795D01*
X76692284Y-78901205D01*
X76443894Y-78300057D01*
X75984363Y-77839722D01*
X75383648Y-77590284D01*
X74733205Y-77589716D01*
X74132057Y-77838106D01*
X73671722Y-78297637D01*
X73422284Y-78898352D01*
X73421716Y-79548795D01*
X65560062Y-79548795D01*
X65714767Y-79317264D01*
X65824000Y-78768113D01*
X65824000Y-78711887D01*
X65786501Y-78523365D01*
X67011433Y-77298433D01*
X67192438Y-77027540D01*
X67255999Y-76708000D01*
X67255999Y-69532500D01*
X70917060Y-69532500D01*
X70917060Y-71183500D01*
X70961338Y-71418817D01*
X71100410Y-71634941D01*
X71312610Y-71779931D01*
X71420809Y-71801842D01*
X71152570Y-72069613D01*
X70929754Y-72606214D01*
X70929247Y-73187237D01*
X71151126Y-73724226D01*
X71561613Y-74135430D01*
X71639579Y-74167804D01*
X71563774Y-74199126D01*
X71152570Y-74609613D01*
X70929754Y-75146214D01*
X70929247Y-75727237D01*
X71151126Y-76264226D01*
X71561613Y-76675430D01*
X72098214Y-76898246D01*
X72679237Y-76898753D01*
X73216226Y-76676874D01*
X73627430Y-76266387D01*
X73659804Y-76188421D01*
X73691126Y-76264226D01*
X74101613Y-76675430D01*
X74638214Y-76898246D01*
X75219237Y-76898753D01*
X75756226Y-76676874D01*
X76167430Y-76266387D01*
X76390246Y-75729786D01*
X76390753Y-75148763D01*
X76168874Y-74611774D01*
X75758387Y-74200570D01*
X75680421Y-74168196D01*
X75756226Y-74136874D01*
X76167430Y-73726387D01*
X76390246Y-73189786D01*
X76390753Y-72608763D01*
X76168874Y-72071774D01*
X75758387Y-71660570D01*
X75695634Y-71634513D01*
X75699344Y-71632976D01*
X75776610Y-71384215D01*
X74930000Y-70537605D01*
X74083390Y-71384215D01*
X74160656Y-71632976D01*
X74164074Y-71634211D01*
X74103774Y-71659126D01*
X73692570Y-72069613D01*
X73660196Y-72147579D01*
X73628874Y-72071774D01*
X73361109Y-71803542D01*
X73450817Y-71786662D01*
X73666941Y-71647590D01*
X73811931Y-71435390D01*
X73861335Y-71191425D01*
X73903785Y-71204610D01*
X74750395Y-70358000D01*
X75109605Y-70358000D01*
X75956215Y-71204610D01*
X76204976Y-71127344D01*
X76402340Y-70580869D01*
X76375553Y-70000465D01*
X76204976Y-69588656D01*
X75956215Y-69511390D01*
X75109605Y-70358000D01*
X74750395Y-70358000D01*
X73903785Y-69511390D01*
X73861443Y-69524542D01*
X73825173Y-69331785D01*
X74083390Y-69331785D01*
X74930000Y-70178395D01*
X75776610Y-69331785D01*
X75699344Y-69083024D01*
X75152869Y-68885660D01*
X74572465Y-68912447D01*
X74160656Y-69083024D01*
X74083390Y-69331785D01*
X73825173Y-69331785D01*
X73818662Y-69297183D01*
X73679590Y-69081059D01*
X73467390Y-68936069D01*
X73215500Y-68885060D01*
X71564500Y-68885060D01*
X71329183Y-68929338D01*
X71113059Y-69068410D01*
X70968069Y-69280610D01*
X70917060Y-69532500D01*
X67255999Y-69532500D01*
X67255999Y-69215000D01*
X67192438Y-68895460D01*
X67157678Y-68843438D01*
X67011434Y-68624567D01*
X65604999Y-67218133D01*
X65604999Y-58533857D01*
X65609590Y-58536994D01*
X65659000Y-58547000D01*
X73152000Y-58547000D01*
X73198159Y-58538315D01*
X73240553Y-58511035D01*
X73268994Y-58469410D01*
X73279000Y-58420000D01*
X73279000Y-56426599D01*
X73414307Y-56562142D01*
X73820258Y-56730708D01*
X74259814Y-56731091D01*
X74666058Y-56563235D01*
X74977142Y-56252693D01*
X75145708Y-55846742D01*
X75146091Y-55407186D01*
X74978235Y-55000942D01*
X74920056Y-54942661D01*
X75301058Y-54785235D01*
X75612142Y-54474693D01*
X75780708Y-54068742D01*
X75781091Y-53629186D01*
X75613235Y-53222942D01*
X75302693Y-52911858D01*
X74896742Y-52743292D01*
X74457186Y-52742909D01*
X74050942Y-52910765D01*
X73840740Y-53120601D01*
X73279000Y-53120601D01*
X73279000Y-47590599D01*
X73586906Y-47590599D01*
X73668307Y-47672142D01*
X74074258Y-47840708D01*
X74513814Y-47841091D01*
X74920058Y-47673235D01*
X75231142Y-47362693D01*
X75399708Y-46956742D01*
X75400091Y-46517186D01*
X75232235Y-46110942D01*
X74921693Y-45799858D01*
X74515742Y-45631292D01*
X74076186Y-45630909D01*
X73669942Y-45798765D01*
X73547893Y-45920601D01*
X73279000Y-45920601D01*
X73279000Y-43815000D01*
X73270315Y-43768841D01*
X73243035Y-43726447D01*
X73201410Y-43698006D01*
X73152000Y-43688000D01*
X65659000Y-43688000D01*
X65612841Y-43696685D01*
X65570447Y-43723965D01*
X65542006Y-43765590D01*
X65532000Y-43815000D01*
X65532000Y-46720601D01*
X60648400Y-46720601D01*
X60328860Y-46784162D01*
X60057966Y-46965167D01*
X59614100Y-47409034D01*
X59471186Y-47408909D01*
X59064942Y-47576765D01*
X58753858Y-47887307D01*
X58585292Y-48293258D01*
X58584909Y-48732814D01*
X58752765Y-49139058D01*
X58856636Y-49243111D01*
X58673967Y-49365166D01*
X57067567Y-50971567D01*
X56886562Y-51242460D01*
X56823001Y-51562000D01*
X56823001Y-66964132D01*
X56550133Y-67237001D01*
X55372000Y-67237001D01*
X55052460Y-67300562D01*
X54781566Y-67481567D01*
X53638567Y-68624567D01*
X53457562Y-68895460D01*
X53394001Y-69215000D01*
X53394001Y-69957118D01*
X53214302Y-70077189D01*
X52944014Y-70481703D01*
X52841389Y-70264866D01*
X52426423Y-69888959D01*
X52038039Y-69728096D01*
X51816000Y-69850085D01*
X51816000Y-70993000D01*
X51836000Y-70993000D01*
X51836000Y-71247000D01*
X51816000Y-71247000D01*
X51816000Y-72389915D01*
X52038039Y-72511904D01*
X52426423Y-72351041D01*
X52841389Y-71975134D01*
X52944014Y-71758297D01*
X53214302Y-72162811D01*
X53679849Y-72473880D01*
X54229000Y-72583113D01*
X54778151Y-72473880D01*
X55243698Y-72162811D01*
X55499000Y-71780725D01*
X55754302Y-72162811D01*
X56219849Y-72473880D01*
X56769000Y-72583113D01*
X57318151Y-72473880D01*
X57783698Y-72162811D01*
X58039000Y-71780725D01*
X58294302Y-72162811D01*
X58759849Y-72473880D01*
X59309000Y-72583113D01*
X59858151Y-72473880D01*
X60323698Y-72162811D01*
X60579000Y-71780725D01*
X60834302Y-72162811D01*
X61299849Y-72473880D01*
X61849000Y-72583113D01*
X62398151Y-72473880D01*
X62863698Y-72162811D01*
X63119000Y-71780725D01*
X63374302Y-72162811D01*
X63839849Y-72473880D01*
X64389000Y-72583113D01*
X64938151Y-72473880D01*
X65403698Y-72162811D01*
X65586001Y-71889976D01*
X65586001Y-76362133D01*
X64624419Y-77323715D01*
X64389000Y-77276887D01*
X63839849Y-77386120D01*
X63374302Y-77697189D01*
X63119000Y-78079275D01*
X62863698Y-77697189D01*
X62398151Y-77386120D01*
X61849000Y-77276887D01*
X61299849Y-77386120D01*
X60834302Y-77697189D01*
X60579000Y-78079275D01*
X60323698Y-77697189D01*
X59858151Y-77386120D01*
X59309000Y-77276887D01*
X58759849Y-77386120D01*
X58294302Y-77697189D01*
X58039000Y-78079275D01*
X57783698Y-77697189D01*
X57318151Y-77386120D01*
X56769000Y-77276887D01*
X56219849Y-77386120D01*
X55754302Y-77697189D01*
X55499000Y-78079275D01*
X55243698Y-77697189D01*
X54778151Y-77386120D01*
X54229000Y-77276887D01*
X53679849Y-77386120D01*
X53214302Y-77697189D01*
X52959000Y-78079275D01*
X52703698Y-77697189D01*
X52238151Y-77386120D01*
X51689000Y-77276887D01*
X51139849Y-77386120D01*
X50674302Y-77697189D01*
X50419000Y-78079275D01*
X50163698Y-77697189D01*
X49698151Y-77386120D01*
X49149000Y-77276887D01*
X48599849Y-77386120D01*
X48134302Y-77697189D01*
X47864014Y-78101703D01*
X47761389Y-77884866D01*
X47346423Y-77508959D01*
X46958039Y-77348096D01*
X46736000Y-77470085D01*
X46482000Y-77470085D01*
X46259961Y-77348096D01*
X45871577Y-77508959D01*
X45456611Y-77884866D01*
X45353986Y-78101703D01*
X45083698Y-77697189D01*
X44618151Y-77386120D01*
X44069000Y-77276887D01*
X43519849Y-77386120D01*
X43054302Y-77697189D01*
X42799000Y-78079275D01*
X42543698Y-77697189D01*
X42078151Y-77386120D01*
X41529000Y-77276887D01*
X40979849Y-77386120D01*
X40514302Y-77697189D01*
X40259000Y-78079275D01*
X40003698Y-77697189D01*
X39538151Y-77386120D01*
X38989000Y-77276887D01*
X38439849Y-77386120D01*
X37974302Y-77697189D01*
X37719000Y-78079275D01*
X37463698Y-77697189D01*
X36998151Y-77386120D01*
X36449000Y-77276887D01*
X35899849Y-77386120D01*
X35434302Y-77697189D01*
X35179000Y-78079275D01*
X34923698Y-77697189D01*
X34458151Y-77386120D01*
X33909000Y-77276887D01*
X33359849Y-77386120D01*
X32894302Y-77697189D01*
X32797899Y-77841465D01*
X32772162Y-77704683D01*
X32633090Y-77488559D01*
X32420890Y-77343569D01*
X32169000Y-77292560D01*
X30569000Y-77292560D01*
X30333683Y-77336838D01*
X30117559Y-77475910D01*
X29972569Y-77688110D01*
X29921560Y-77940000D01*
X26085000Y-77940000D01*
X26085000Y-71091887D01*
X29934000Y-71091887D01*
X29934000Y-71148113D01*
X30043233Y-71697264D01*
X30354302Y-72162811D01*
X30819849Y-72473880D01*
X31369000Y-72583113D01*
X31918151Y-72473880D01*
X32383698Y-72162811D01*
X32639000Y-71780725D01*
X32894302Y-72162811D01*
X33359849Y-72473880D01*
X33909000Y-72583113D01*
X34458151Y-72473880D01*
X34923698Y-72162811D01*
X35179000Y-71780725D01*
X35434302Y-72162811D01*
X35899849Y-72473880D01*
X36449000Y-72583113D01*
X36998151Y-72473880D01*
X37463698Y-72162811D01*
X37719000Y-71780725D01*
X37974302Y-72162811D01*
X38439849Y-72473880D01*
X38989000Y-72583113D01*
X39538151Y-72473880D01*
X40003698Y-72162811D01*
X40259000Y-71780725D01*
X40514302Y-72162811D01*
X40979849Y-72473880D01*
X41529000Y-72583113D01*
X42078151Y-72473880D01*
X42543698Y-72162811D01*
X42799000Y-71780725D01*
X43054302Y-72162811D01*
X43519849Y-72473880D01*
X44069000Y-72583113D01*
X44618151Y-72473880D01*
X45083698Y-72162811D01*
X45339000Y-71780725D01*
X45594302Y-72162811D01*
X46059849Y-72473880D01*
X46609000Y-72583113D01*
X47158151Y-72473880D01*
X47623698Y-72162811D01*
X47893986Y-71758297D01*
X47996611Y-71975134D01*
X48411577Y-72351041D01*
X48799961Y-72511904D01*
X49022000Y-72389915D01*
X49022000Y-71247000D01*
X49276000Y-71247000D01*
X49276000Y-72389915D01*
X49498039Y-72511904D01*
X49886423Y-72351041D01*
X50301389Y-71975134D01*
X50419000Y-71726633D01*
X50536611Y-71975134D01*
X50951577Y-72351041D01*
X51339961Y-72511904D01*
X51562000Y-72389915D01*
X51562000Y-71247000D01*
X49276000Y-71247000D01*
X49022000Y-71247000D01*
X49002000Y-71247000D01*
X49002000Y-70993000D01*
X49022000Y-70993000D01*
X49022000Y-69850085D01*
X49276000Y-69850085D01*
X49276000Y-70993000D01*
X51562000Y-70993000D01*
X51562000Y-69850085D01*
X51339961Y-69728096D01*
X50951577Y-69888959D01*
X50536611Y-70264866D01*
X50419000Y-70513367D01*
X50301389Y-70264866D01*
X49886423Y-69888959D01*
X49498039Y-69728096D01*
X49276000Y-69850085D01*
X49022000Y-69850085D01*
X48799961Y-69728096D01*
X48411577Y-69888959D01*
X47996611Y-70264866D01*
X47893986Y-70481703D01*
X47623698Y-70077189D01*
X47158151Y-69766120D01*
X46609000Y-69656887D01*
X46059849Y-69766120D01*
X45594302Y-70077189D01*
X45339000Y-70459275D01*
X45083698Y-70077189D01*
X44618151Y-69766120D01*
X44069000Y-69656887D01*
X43519849Y-69766120D01*
X43054302Y-70077189D01*
X42799000Y-70459275D01*
X42543698Y-70077189D01*
X42078151Y-69766120D01*
X41529000Y-69656887D01*
X40979849Y-69766120D01*
X40514302Y-70077189D01*
X40259000Y-70459275D01*
X40003698Y-70077189D01*
X39538151Y-69766120D01*
X38989000Y-69656887D01*
X38439849Y-69766120D01*
X37974302Y-70077189D01*
X37719000Y-70459275D01*
X37463698Y-70077189D01*
X36998151Y-69766120D01*
X36449000Y-69656887D01*
X35899849Y-69766120D01*
X35434302Y-70077189D01*
X35179000Y-70459275D01*
X34923698Y-70077189D01*
X34458151Y-69766120D01*
X33909000Y-69656887D01*
X33359849Y-69766120D01*
X32894302Y-70077189D01*
X32639000Y-70459275D01*
X32383698Y-70077189D01*
X31918151Y-69766120D01*
X31369000Y-69656887D01*
X30819849Y-69766120D01*
X30354302Y-70077189D01*
X30043233Y-70542736D01*
X29934000Y-71091887D01*
X26085000Y-71091887D01*
X26085000Y-68615237D01*
X28765247Y-68615237D01*
X28987126Y-69152226D01*
X29397613Y-69563430D01*
X29934214Y-69786246D01*
X30515237Y-69786753D01*
X31052226Y-69564874D01*
X31463430Y-69154387D01*
X31495804Y-69076421D01*
X31527126Y-69152226D01*
X31937613Y-69563430D01*
X32474214Y-69786246D01*
X33055237Y-69786753D01*
X33592226Y-69564874D01*
X34003430Y-69154387D01*
X34035804Y-69076421D01*
X34067126Y-69152226D01*
X34477613Y-69563430D01*
X35014214Y-69786246D01*
X35595237Y-69786753D01*
X36132226Y-69564874D01*
X36543430Y-69154387D01*
X36575804Y-69076421D01*
X36607126Y-69152226D01*
X37017613Y-69563430D01*
X37554214Y-69786246D01*
X38135237Y-69786753D01*
X38672226Y-69564874D01*
X39083430Y-69154387D01*
X39115804Y-69076421D01*
X39147126Y-69152226D01*
X39557613Y-69563430D01*
X40094214Y-69786246D01*
X40675237Y-69786753D01*
X41212226Y-69564874D01*
X41623430Y-69154387D01*
X41655804Y-69076421D01*
X41687126Y-69152226D01*
X42097613Y-69563430D01*
X42634214Y-69786246D01*
X43215237Y-69786753D01*
X43752226Y-69564874D01*
X44163430Y-69154387D01*
X44386246Y-68617786D01*
X44386753Y-68036763D01*
X44164874Y-67499774D01*
X43754387Y-67088570D01*
X43217786Y-66865754D01*
X42636763Y-66865247D01*
X42099774Y-67087126D01*
X41688570Y-67497613D01*
X41656196Y-67575579D01*
X41624874Y-67499774D01*
X41214387Y-67088570D01*
X40677786Y-66865754D01*
X40096763Y-66865247D01*
X39559774Y-67087126D01*
X39148570Y-67497613D01*
X39116196Y-67575579D01*
X39084874Y-67499774D01*
X38674387Y-67088570D01*
X38137786Y-66865754D01*
X37556763Y-66865247D01*
X37019774Y-67087126D01*
X36608570Y-67497613D01*
X36576196Y-67575579D01*
X36544874Y-67499774D01*
X36134387Y-67088570D01*
X35597786Y-66865754D01*
X35016763Y-66865247D01*
X34479774Y-67087126D01*
X34068570Y-67497613D01*
X34036196Y-67575579D01*
X34004874Y-67499774D01*
X33594387Y-67088570D01*
X33057786Y-66865754D01*
X32476763Y-66865247D01*
X31939774Y-67087126D01*
X31528570Y-67497613D01*
X31496196Y-67575579D01*
X31464874Y-67499774D01*
X31054387Y-67088570D01*
X30517786Y-66865754D01*
X29936763Y-66865247D01*
X29399774Y-67087126D01*
X28988570Y-67497613D01*
X28765754Y-68034214D01*
X28765247Y-68615237D01*
X26085000Y-68615237D01*
X26085000Y-52593116D01*
X32486365Y-52593116D01*
X32692809Y-53092749D01*
X33074740Y-53475347D01*
X33574012Y-53682663D01*
X34114616Y-53683135D01*
X34614249Y-53476691D01*
X34751179Y-53340000D01*
X38718129Y-53340000D01*
X38853240Y-53475347D01*
X39352512Y-53682663D01*
X39893116Y-53683135D01*
X40392749Y-53476691D01*
X40775347Y-53094760D01*
X40982663Y-52595488D01*
X40983135Y-52054884D01*
X40776691Y-51555251D01*
X40394760Y-51172653D01*
X39895488Y-50965337D01*
X39354884Y-50964865D01*
X38855251Y-51171309D01*
X38718321Y-51308000D01*
X34751371Y-51308000D01*
X34616260Y-51172653D01*
X34116988Y-50965337D01*
X33576384Y-50964865D01*
X33076751Y-51171309D01*
X32694153Y-51553240D01*
X32486837Y-52052512D01*
X32486365Y-52593116D01*
X26085000Y-52593116D01*
X26085000Y-50319733D01*
X26665352Y-50560716D01*
X27315795Y-50561284D01*
X27916943Y-50312894D01*
X28377278Y-49853363D01*
X28626716Y-49252648D01*
X28627284Y-48602205D01*
X28378894Y-48001057D01*
X27919363Y-47540722D01*
X27318648Y-47291284D01*
X26668205Y-47290716D01*
X26085000Y-47531692D01*
X26085000Y-47190383D01*
X29906769Y-47190383D01*
X30109582Y-47681229D01*
X30484796Y-48057098D01*
X30975287Y-48260768D01*
X31497687Y-48261223D01*
X31357284Y-48599352D01*
X31356716Y-49249795D01*
X31605106Y-49850943D01*
X32064637Y-50311278D01*
X32665352Y-50560716D01*
X33315795Y-50561284D01*
X33916943Y-50312894D01*
X34377278Y-49853363D01*
X34626716Y-49252648D01*
X34627284Y-48602205D01*
X34378894Y-48001057D01*
X33919363Y-47540722D01*
X33318648Y-47291284D01*
X32668205Y-47290716D01*
X32508708Y-47356619D01*
X32576768Y-47192713D01*
X32577231Y-46661617D01*
X32374418Y-46170771D01*
X31999204Y-45794902D01*
X31508713Y-45591232D01*
X30977617Y-45590769D01*
X30486771Y-45793582D01*
X30110902Y-46168796D01*
X29907232Y-46659287D01*
X29906769Y-47190383D01*
X26085000Y-47190383D01*
X26085000Y-39190383D01*
X29906769Y-39190383D01*
X30109582Y-39681229D01*
X30484796Y-40057098D01*
X30975287Y-40260768D01*
X31219548Y-40260981D01*
X31483781Y-40525214D01*
X31483783Y-40525217D01*
X31644324Y-40632487D01*
X31751594Y-40704163D01*
X32067500Y-40767000D01*
X33972500Y-40767000D01*
X33972500Y-40957500D01*
X33656594Y-41020337D01*
X33388783Y-41199283D01*
X32487566Y-42100500D01*
X32304269Y-42100500D01*
X31999204Y-41794902D01*
X31508713Y-41591232D01*
X30977617Y-41590769D01*
X30486771Y-41793582D01*
X30110902Y-42168796D01*
X29907232Y-42659287D01*
X29906769Y-43190383D01*
X30012179Y-43445496D01*
X30034837Y-43559405D01*
X30098798Y-43655129D01*
X30109582Y-43681229D01*
X30129709Y-43701391D01*
X30213783Y-43827217D01*
X30338510Y-43910557D01*
X30484796Y-44057098D01*
X30975287Y-44260768D01*
X31506383Y-44261231D01*
X31997229Y-44058418D01*
X32304683Y-43751500D01*
X32829500Y-43751500D01*
X33145406Y-43688663D01*
X33413217Y-43509717D01*
X34314434Y-42608500D01*
X42545000Y-42608500D01*
X42860906Y-42545663D01*
X43128717Y-42366717D01*
X45147478Y-40347955D01*
X45303814Y-40348091D01*
X45710058Y-40180235D01*
X46021142Y-39869693D01*
X46189708Y-39463742D01*
X46190091Y-39024186D01*
X46022235Y-38617942D01*
X45711693Y-38306858D01*
X45305742Y-38138292D01*
X44866186Y-38137909D01*
X44459942Y-38305765D01*
X44148858Y-38616307D01*
X43980292Y-39022258D01*
X43980154Y-39180413D01*
X42700569Y-40459997D01*
X42824208Y-40162242D01*
X42824591Y-39722686D01*
X42656735Y-39316442D01*
X42346193Y-39005358D01*
X41940242Y-38836792D01*
X41500686Y-38836409D01*
X41094442Y-39004265D01*
X40982512Y-39116000D01*
X32576835Y-39116000D01*
X32577231Y-38661617D01*
X32508655Y-38495650D01*
X32665352Y-38560716D01*
X33315795Y-38561284D01*
X33916943Y-38312894D01*
X34377278Y-37853363D01*
X34626716Y-37252648D01*
X34627284Y-36602205D01*
X34600643Y-36537728D01*
X35016814Y-36538091D01*
X35423058Y-36370235D01*
X35734142Y-36059693D01*
X35902708Y-35653742D01*
X35902776Y-35575116D01*
X38772865Y-35575116D01*
X38979309Y-36074749D01*
X39361240Y-36457347D01*
X39860512Y-36664663D01*
X40401116Y-36665135D01*
X40900749Y-36458691D01*
X41037679Y-36322000D01*
X44918160Y-36322000D01*
X45123032Y-36526872D01*
X45122865Y-36718116D01*
X45329309Y-37217749D01*
X45711240Y-37600347D01*
X46210512Y-37807663D01*
X46751116Y-37808135D01*
X47250749Y-37601691D01*
X47633347Y-37219760D01*
X47840663Y-36720488D01*
X47840832Y-36527009D01*
X47855341Y-36512500D01*
X51545129Y-36512500D01*
X51680240Y-36647847D01*
X52179512Y-36855163D01*
X52720116Y-36855635D01*
X53219749Y-36649191D01*
X53602347Y-36267260D01*
X53809663Y-35767988D01*
X53810135Y-35227384D01*
X53603691Y-34727751D01*
X53221760Y-34345153D01*
X52722488Y-34137837D01*
X52181884Y-34137365D01*
X51682251Y-34343809D01*
X51545321Y-34480500D01*
X47434500Y-34480500D01*
X47045694Y-34557838D01*
X47045692Y-34557839D01*
X47045693Y-34557839D01*
X46716079Y-34778080D01*
X46482000Y-35012159D01*
X46057420Y-34587580D01*
X45727807Y-34367338D01*
X45663300Y-34354507D01*
X45339000Y-34290000D01*
X41037871Y-34290000D01*
X40902760Y-34154653D01*
X40403488Y-33947337D01*
X39862884Y-33946865D01*
X39363251Y-34153309D01*
X38980653Y-34535240D01*
X38773337Y-35034512D01*
X38772865Y-35575116D01*
X35902776Y-35575116D01*
X35902972Y-35350456D01*
X37744477Y-32956500D01*
X42799000Y-32956500D01*
X43114906Y-32893663D01*
X43382717Y-32714717D01*
X46188934Y-29908500D01*
X51967858Y-29908500D01*
X52078307Y-30019142D01*
X52484258Y-30187708D01*
X52923814Y-30188091D01*
X53330058Y-30020235D01*
X53641142Y-29709693D01*
X53809708Y-29303742D01*
X53809758Y-29245237D01*
X66611247Y-29245237D01*
X66833126Y-29782226D01*
X67243613Y-30193430D01*
X67780214Y-30416246D01*
X68361237Y-30416753D01*
X68898226Y-30194874D01*
X69111256Y-29982215D01*
X71416390Y-29982215D01*
X71493656Y-30230976D01*
X72040131Y-30428340D01*
X72620535Y-30401553D01*
X73032344Y-30230976D01*
X73109610Y-29982215D01*
X72263000Y-29135605D01*
X71416390Y-29982215D01*
X69111256Y-29982215D01*
X69309430Y-29784387D01*
X69532246Y-29247786D01*
X69532695Y-28733131D01*
X70790660Y-28733131D01*
X70817447Y-29313535D01*
X70988024Y-29725344D01*
X71236785Y-29802610D01*
X72083395Y-28956000D01*
X72442605Y-28956000D01*
X73289215Y-29802610D01*
X73537976Y-29725344D01*
X73735340Y-29178869D01*
X73708553Y-28598465D01*
X73537976Y-28186656D01*
X73289215Y-28109390D01*
X72442605Y-28956000D01*
X72083395Y-28956000D01*
X71236785Y-28109390D01*
X70988024Y-28186656D01*
X70790660Y-28733131D01*
X69532695Y-28733131D01*
X69532753Y-28666763D01*
X69310874Y-28129774D01*
X69111234Y-27929785D01*
X71416390Y-27929785D01*
X72263000Y-28776395D01*
X73109610Y-27929785D01*
X73032344Y-27681024D01*
X72485869Y-27483660D01*
X71905465Y-27510447D01*
X71493656Y-27681024D01*
X71416390Y-27929785D01*
X69111234Y-27929785D01*
X68900387Y-27718570D01*
X68363786Y-27495754D01*
X67782763Y-27495247D01*
X67245774Y-27717126D01*
X66834570Y-28127613D01*
X66611754Y-28664214D01*
X66611247Y-29245237D01*
X53809758Y-29245237D01*
X53810091Y-28864186D01*
X53642235Y-28457942D01*
X53331693Y-28146858D01*
X52925742Y-27978292D01*
X52486186Y-27977909D01*
X52079942Y-28145765D01*
X51968012Y-28257500D01*
X45847005Y-28257500D01*
X45847000Y-28257499D01*
X45531094Y-28320337D01*
X45263283Y-28499283D01*
X42457066Y-31305500D01*
X37338000Y-31305500D01*
X37285077Y-31316027D01*
X37231231Y-31312433D01*
X37128475Y-31347177D01*
X37022095Y-31368337D01*
X36977227Y-31398317D01*
X36926106Y-31415602D01*
X36844472Y-31487021D01*
X36754283Y-31547283D01*
X36724301Y-31592154D01*
X36683689Y-31627684D01*
X34606574Y-34327933D01*
X34579186Y-34327909D01*
X34172942Y-34495765D01*
X33861858Y-34806307D01*
X33693292Y-35212258D01*
X33693088Y-35446765D01*
X33318648Y-35291284D01*
X32668205Y-35290716D01*
X32067057Y-35539106D01*
X31606722Y-35998637D01*
X31357284Y-36599352D01*
X31356716Y-37249795D01*
X31497791Y-37591222D01*
X30977617Y-37590769D01*
X30486771Y-37793582D01*
X30110902Y-38168796D01*
X29907232Y-38659287D01*
X29906769Y-39190383D01*
X26085000Y-39190383D01*
X26085000Y-38319733D01*
X26665352Y-38560716D01*
X27315795Y-38561284D01*
X27916943Y-38312894D01*
X28377278Y-37853363D01*
X28626716Y-37252648D01*
X28627284Y-36602205D01*
X28378894Y-36001057D01*
X27919363Y-35540722D01*
X27318648Y-35291284D01*
X26668205Y-35290716D01*
X26085000Y-35531692D01*
X26085000Y-33655000D01*
X33528000Y-33655000D01*
X33574159Y-33646315D01*
X33616553Y-33619035D01*
X33644994Y-33577410D01*
X33655000Y-33528000D01*
X33655000Y-29810030D01*
X35927282Y-29810030D01*
X36118701Y-30273300D01*
X36472835Y-30628053D01*
X36935771Y-30820281D01*
X37437030Y-30820718D01*
X37900300Y-30629299D01*
X38255053Y-30275165D01*
X38447281Y-29812229D01*
X38447326Y-29760030D01*
X40927282Y-29760030D01*
X41118701Y-30223300D01*
X41472835Y-30578053D01*
X41935771Y-30770281D01*
X42437030Y-30770718D01*
X42900300Y-30579299D01*
X43255053Y-30225165D01*
X43447281Y-29762229D01*
X43447718Y-29260970D01*
X43256299Y-28797700D01*
X42902165Y-28442947D01*
X42439229Y-28250719D01*
X41937970Y-28250282D01*
X41474700Y-28441701D01*
X41119947Y-28795835D01*
X40927719Y-29258771D01*
X40927282Y-29760030D01*
X38447326Y-29760030D01*
X38447718Y-29310970D01*
X38256299Y-28847700D01*
X37902165Y-28492947D01*
X37439229Y-28300719D01*
X36937970Y-28300282D01*
X36474700Y-28491701D01*
X36119947Y-28845835D01*
X35927719Y-29308771D01*
X35927282Y-29810030D01*
X33655000Y-29810030D01*
X33655000Y-26085000D01*
X34882790Y-26085000D01*
X34677745Y-26578803D01*
M02*
