G04 #@! TF.FileFunction,Copper,L1,Top,Signal*
%FSLAX46Y46*%
G04 Gerber Fmt 4.6, Leading zero omitted, Abs format (unit mm)*
G04 Created by KiCad (PCBNEW 4.0.7) date 03/24/18 20:50:43*
%MOMM*%
%LPD*%
G01*
G04 APERTURE LIST*
%ADD10C,0.100000*%
%ADD11R,1.600000X2.000000*%
%ADD12R,2.000000X1.600000*%
%ADD13R,1.500000X1.950000*%
%ADD14R,2.000000X1.700000*%
%ADD15R,5.500000X1.000000*%
%ADD16R,3.000000X1.600000*%
%ADD17R,0.400000X1.350000*%
%ADD18C,1.250000*%
%ADD19C,1.550000*%
%ADD20R,1.700000X2.000000*%
%ADD21C,2.000000*%
%ADD22O,1.651000X2.413000*%
%ADD23C,1.651000*%
%ADD24R,1.600000X1.600000*%
%ADD25O,1.600000X1.600000*%
%ADD26R,1.560000X0.650000*%
%ADD27R,0.650000X1.560000*%
%ADD28R,2.200000X4.000000*%
%ADD29C,6.654800*%
%ADD30R,1.524000X1.524000*%
%ADD31R,1.651000X1.651000*%
%ADD32C,1.400000*%
%ADD33R,2.500000X1.700000*%
%ADD34C,0.939800*%
%ADD35C,1.447800*%
%ADD36C,0.381000*%
%ADD37C,0.508000*%
%ADD38C,0.399999*%
%ADD39C,0.762000*%
%ADD40C,0.635000*%
%ADD41C,0.254000*%
G04 APERTURE END LIST*
D10*
D11*
X46482000Y-67786000D03*
X46482000Y-63786000D03*
X45656500Y-86773000D03*
X45656500Y-90773000D03*
X56451500Y-85820500D03*
X56451500Y-89820500D03*
D12*
X50768000Y-45466000D03*
X46768000Y-45466000D03*
D13*
X52641500Y-41634000D03*
X52641500Y-38884000D03*
D11*
X77533500Y-45180000D03*
X77533500Y-41180000D03*
D12*
X63786000Y-114554000D03*
X67786000Y-114554000D03*
D14*
X53435000Y-26987500D03*
X49435000Y-26987500D03*
X54768500Y-62865000D03*
X50768500Y-62865000D03*
X64611000Y-26987500D03*
X60611000Y-26987500D03*
D15*
X29482000Y-57928000D03*
X29482000Y-59928000D03*
D16*
X31732000Y-55528000D03*
X31732000Y-62328000D03*
D17*
X38387500Y-29560500D03*
X40987500Y-29560500D03*
D18*
X37187500Y-29560500D03*
X42187500Y-29510500D03*
D19*
X36087500Y-26860500D03*
X43287500Y-26860500D03*
D14*
X52292000Y-107188000D03*
X48292000Y-107188000D03*
D20*
X57086500Y-106267500D03*
X57086500Y-110267500D03*
D14*
X49435000Y-31115000D03*
X53435000Y-31115000D03*
X36735000Y-37846000D03*
X40735000Y-37846000D03*
X77438000Y-89408000D03*
X73438000Y-89408000D03*
D20*
X77597000Y-53816000D03*
X77597000Y-49816000D03*
D14*
X50705000Y-65659000D03*
X54705000Y-65659000D03*
X52292000Y-110236000D03*
X48292000Y-110236000D03*
X64611000Y-30988000D03*
X60611000Y-30988000D03*
D21*
X79557000Y-85725000D03*
X75057000Y-85725000D03*
X79557000Y-79225000D03*
X75057000Y-79225000D03*
D22*
X33870600Y-96937000D03*
X29070600Y-96937000D03*
X33870600Y-88737000D03*
X29070600Y-88737000D03*
X42506600Y-105573000D03*
X37706600Y-105573000D03*
X42506600Y-97373000D03*
X37706600Y-97373000D03*
X65443400Y-84419000D03*
X70243400Y-84419000D03*
X65443400Y-92619000D03*
X70243400Y-92619000D03*
X65443400Y-101691000D03*
X70243400Y-101691000D03*
X65443400Y-109891000D03*
X70243400Y-109891000D03*
X74079400Y-93055000D03*
X78879400Y-93055000D03*
X74079400Y-101255000D03*
X78879400Y-101255000D03*
X61607400Y-101255000D03*
X56807400Y-101255000D03*
X61607400Y-93055000D03*
X56807400Y-93055000D03*
D23*
X68072000Y-28956000D03*
X42926000Y-68326000D03*
X40386000Y-68326000D03*
X37846000Y-68326000D03*
X35306000Y-68326000D03*
X32766000Y-68326000D03*
X30226000Y-68326000D03*
X72263000Y-28956000D03*
D24*
X31369000Y-78740000D03*
D25*
X64389000Y-71120000D03*
X33909000Y-78740000D03*
X61849000Y-71120000D03*
X36449000Y-78740000D03*
X59309000Y-71120000D03*
X38989000Y-78740000D03*
X56769000Y-71120000D03*
X41529000Y-78740000D03*
X54229000Y-71120000D03*
X44069000Y-78740000D03*
X51689000Y-71120000D03*
X46609000Y-78740000D03*
X49149000Y-71120000D03*
X49149000Y-78740000D03*
X46609000Y-71120000D03*
X51689000Y-78740000D03*
X44069000Y-71120000D03*
X54229000Y-78740000D03*
X41529000Y-71120000D03*
X56769000Y-78740000D03*
X38989000Y-71120000D03*
X59309000Y-78740000D03*
X36449000Y-71120000D03*
X61849000Y-78740000D03*
X33909000Y-71120000D03*
X64389000Y-78740000D03*
X31369000Y-71120000D03*
D26*
X38020000Y-44008000D03*
X38020000Y-44958000D03*
X38020000Y-45908000D03*
X40720000Y-45908000D03*
X40720000Y-44008000D03*
D27*
X48702000Y-39036000D03*
X47752000Y-39036000D03*
X46802000Y-39036000D03*
X46802000Y-41736000D03*
X48702000Y-41736000D03*
D28*
X50193000Y-86834500D03*
X53693000Y-86834500D03*
X50193000Y-96934500D03*
X53693000Y-96934500D03*
D29*
X29464000Y-29464000D03*
X78486000Y-29464000D03*
X29464000Y-113411000D03*
X78486000Y-113411000D03*
D30*
X46037500Y-114554000D03*
D23*
X48577500Y-114554000D03*
X51117500Y-114554000D03*
X53657500Y-114554000D03*
X56197500Y-114554000D03*
X58737500Y-114554000D03*
D31*
X72390000Y-70358000D03*
D23*
X74930000Y-70358000D03*
X72390000Y-72898000D03*
X74930000Y-72898000D03*
X72390000Y-75438000D03*
X74930000Y-75438000D03*
D32*
X31242000Y-42926000D03*
X31242000Y-46926000D03*
X31242000Y-38926000D03*
D21*
X32992000Y-36926000D03*
X32992000Y-48926000D03*
X26992000Y-48926000D03*
X26992000Y-36926000D03*
D33*
X40735000Y-49149000D03*
X36735000Y-49149000D03*
D12*
X45053500Y-82296000D03*
X49053500Y-82296000D03*
D34*
X76200000Y-47371000D03*
X80518000Y-89408000D03*
X55118000Y-41656000D03*
X56896000Y-27686000D03*
D35*
X33845500Y-52324000D03*
X39624000Y-52324000D03*
X70231000Y-98044000D03*
X65786000Y-96456500D03*
X30670500Y-103949500D03*
X35052000Y-99568000D03*
X30226000Y-81534000D03*
X37782500Y-84645500D03*
X52451000Y-35496500D03*
X40132000Y-35306000D03*
X46482000Y-36449000D03*
D34*
X74295000Y-46736000D03*
X74041000Y-55626000D03*
X52705000Y-29083000D03*
X34798000Y-35433000D03*
X41719500Y-39941500D03*
X74676000Y-53848000D03*
X45085000Y-39243000D03*
X65786000Y-52578000D03*
X59690000Y-48514000D03*
D36*
X46609000Y-78740000D02*
X46609000Y-81185000D01*
X46609000Y-81185000D02*
X45815500Y-81978500D01*
D37*
X77533500Y-47371000D02*
X76200000Y-47371000D01*
X77533500Y-45180000D02*
X77533500Y-47371000D01*
X77533500Y-47371000D02*
X77533500Y-49752500D01*
D38*
X77533500Y-49752500D02*
X77597000Y-49816000D01*
D36*
X77438000Y-89408000D02*
X80518000Y-89408000D01*
X49149000Y-71120000D02*
X49149000Y-70453000D01*
D39*
X49149000Y-70453000D02*
X46482000Y-67786000D01*
X52641500Y-41634000D02*
X55096000Y-41634000D01*
X55096000Y-41634000D02*
X55118000Y-41656000D01*
D37*
X60611000Y-26987500D02*
X57594500Y-26987500D01*
X57594500Y-26987500D02*
X56896000Y-27686000D01*
D39*
X48702000Y-41736000D02*
X52539500Y-41736000D01*
X52539500Y-41736000D02*
X52641500Y-41634000D01*
D36*
X40132000Y-35306000D02*
X40068500Y-35242500D01*
X37211000Y-35369500D02*
X36735000Y-35845500D01*
X37211000Y-35242500D02*
X37211000Y-35369500D01*
X40068500Y-35242500D02*
X37211000Y-35242500D01*
X31242000Y-46926000D02*
X31115500Y-46926000D01*
X31115500Y-46926000D02*
X29337000Y-48704500D01*
X29337000Y-48704500D02*
X29337000Y-50800000D01*
X29337000Y-50800000D02*
X30861000Y-52324000D01*
X30861000Y-52324000D02*
X33845500Y-52324000D01*
D39*
X29482000Y-57928000D02*
X27559000Y-56005000D01*
X27559000Y-56005000D02*
X27559000Y-52832000D01*
X27559000Y-52832000D02*
X27432000Y-52705000D01*
D36*
X70231000Y-101678600D02*
X70231000Y-98044000D01*
X70243400Y-101691000D02*
X70231000Y-101678600D01*
X37706600Y-97373000D02*
X37719000Y-97385400D01*
X37719000Y-97385400D02*
X37719000Y-99568000D01*
X37719000Y-99568000D02*
X35052000Y-99568000D01*
X37706600Y-97373000D02*
X37706600Y-84721400D01*
X30226000Y-81597500D02*
X30162500Y-81661000D01*
X30226000Y-81534000D02*
X30226000Y-81597500D01*
X37706600Y-84721400D02*
X37782500Y-84645500D01*
D39*
X40195500Y-35306000D02*
X40259000Y-35369500D01*
X40132000Y-35306000D02*
X40195500Y-35306000D01*
D40*
X47752000Y-39036000D02*
X47752000Y-36830000D01*
X47752000Y-36830000D02*
X46482000Y-36449000D01*
D38*
X74295000Y-46736000D02*
X74168000Y-46736000D01*
D36*
X36735000Y-37846000D02*
X36735000Y-35845500D01*
X36735000Y-35845500D02*
X36735000Y-33115000D01*
X36735000Y-33115000D02*
X38387500Y-31462500D01*
X38387500Y-31462500D02*
X38387500Y-29560500D01*
X38020000Y-44958000D02*
X36068000Y-44958000D01*
D39*
X29482000Y-57928000D02*
X28718000Y-57928000D01*
D36*
X50193000Y-86834500D02*
X50193000Y-85760500D01*
X50193000Y-85760500D02*
X52832000Y-83121500D01*
X52832000Y-79883000D02*
X51689000Y-78740000D01*
X52832000Y-83121500D02*
X52832000Y-79883000D01*
X45656500Y-86773000D02*
X50131500Y-86773000D01*
X50131500Y-86773000D02*
X50193000Y-86834500D01*
D39*
X50193000Y-86999000D02*
X50193000Y-86834500D01*
D36*
X49242500Y-85884000D02*
X50193000Y-86834500D01*
X53693000Y-86834500D02*
X53693000Y-85308500D01*
X53693000Y-85308500D02*
X54229000Y-84772500D01*
X54229000Y-84772500D02*
X54229000Y-78740000D01*
X56451500Y-85820500D02*
X54707000Y-85820500D01*
X54707000Y-85820500D02*
X53693000Y-86834500D01*
X46802000Y-41736000D02*
X46802000Y-45432000D01*
X46802000Y-45432000D02*
X46768000Y-45466000D01*
D41*
X58737500Y-114554000D02*
X63786000Y-114554000D01*
D36*
X73438000Y-89408000D02*
X73438000Y-89122000D01*
X73438000Y-89122000D02*
X75057000Y-87503000D01*
X75057000Y-87503000D02*
X75057000Y-85725000D01*
X67818000Y-75438000D02*
X67818000Y-114522000D01*
D41*
X67818000Y-114522000D02*
X67786000Y-114554000D01*
X72390000Y-75438000D02*
X72390000Y-78486000D01*
X73129000Y-79225000D02*
X75057000Y-79225000D01*
X72390000Y-78486000D02*
X73129000Y-79225000D01*
D36*
X31369000Y-78740000D02*
X31369000Y-77089000D01*
X33020000Y-75438000D02*
X67818000Y-75438000D01*
X67818000Y-75438000D02*
X72390000Y-75438000D01*
X31369000Y-77089000D02*
X33020000Y-75438000D01*
X38020000Y-44008000D02*
X36007000Y-44008000D01*
D37*
X53435000Y-28353000D02*
X53435000Y-26987500D01*
X52705000Y-29083000D02*
X53435000Y-28353000D01*
D36*
X34798000Y-42799000D02*
X34798000Y-35433000D01*
X36007000Y-44008000D02*
X34798000Y-42799000D01*
D39*
X49435000Y-26987500D02*
X49435000Y-31115000D01*
X49530000Y-33782000D02*
X49530000Y-38354000D01*
X49149000Y-38862000D02*
X48829000Y-39036000D01*
X49530000Y-38354000D02*
X49149000Y-38862000D01*
D36*
X41719500Y-39941500D02*
X41783000Y-39878000D01*
X41783000Y-39878000D02*
X43053000Y-39878000D01*
D39*
X40720000Y-45908000D02*
X43053000Y-45908000D01*
X43053000Y-45908000D02*
X43053000Y-45847000D01*
X40513000Y-49149000D02*
X40735000Y-49149000D01*
X43053000Y-33782000D02*
X49530000Y-33782000D01*
X49530000Y-33782000D02*
X50768000Y-33782000D01*
X50768000Y-33782000D02*
X53435000Y-31115000D01*
X43053000Y-36957000D02*
X43053000Y-33782000D01*
X40894000Y-31623000D02*
X40894000Y-29210000D01*
X43053000Y-33782000D02*
X40894000Y-31623000D01*
X40735000Y-49149000D02*
X41783000Y-49149000D01*
X41783000Y-49149000D02*
X43053000Y-47879000D01*
X43053000Y-47879000D02*
X43053000Y-45847000D01*
X43053000Y-45847000D02*
X43053000Y-39878000D01*
X43053000Y-39878000D02*
X43053000Y-37338000D01*
X43053000Y-37338000D02*
X43053000Y-36957000D01*
X29482000Y-59928000D02*
X35195000Y-59928000D01*
X36735000Y-58388000D02*
X36735000Y-49149000D01*
X35195000Y-59928000D02*
X36735000Y-58388000D01*
D36*
X36735000Y-49149000D02*
X36735000Y-48164500D01*
X38036500Y-46863000D02*
X38036500Y-46101000D01*
X36735000Y-48164500D02*
X38036500Y-46863000D01*
X50768500Y-62865000D02*
X50768500Y-65532000D01*
D41*
X50768500Y-65532000D02*
X50641500Y-65659000D01*
D39*
X64611000Y-26987500D02*
X64611000Y-30988000D01*
D36*
X53657500Y-114554000D02*
X53657500Y-111601500D01*
X53657500Y-111601500D02*
X52292000Y-110236000D01*
X57086500Y-106267500D02*
X55975500Y-106267500D01*
X36449000Y-80645000D02*
X36449000Y-78740000D01*
X32258000Y-84836000D02*
X36449000Y-80645000D01*
X32258000Y-100330000D02*
X32258000Y-84836000D01*
X33528000Y-101600000D02*
X32258000Y-100330000D01*
X51308000Y-101600000D02*
X33528000Y-101600000D01*
X55975500Y-106267500D02*
X51308000Y-101600000D01*
D41*
X57912000Y-74167998D02*
X56769000Y-73024998D01*
X72390000Y-70358000D02*
X68580002Y-74167998D01*
X57912000Y-74167998D02*
X68580002Y-74167998D01*
X56769000Y-73024998D02*
X56769000Y-71120000D01*
X56769000Y-71120000D02*
X56642000Y-71247000D01*
X72136000Y-72898000D02*
X70231000Y-74803000D01*
X54229000Y-72771000D02*
X56261000Y-74803000D01*
X56261000Y-74803000D02*
X70231000Y-74803000D01*
X54229000Y-72771000D02*
X54229000Y-71120000D01*
X72136000Y-72898000D02*
X72390000Y-72898000D01*
D36*
X54229000Y-71120000D02*
X54229000Y-68453000D01*
X54229000Y-68453000D02*
X54641500Y-68040500D01*
X54641500Y-68040500D02*
X54641500Y-65659000D01*
D41*
X59309000Y-71120000D02*
X59309000Y-73152000D01*
X76581000Y-71247000D02*
X74930000Y-72898000D01*
X76581000Y-69469000D02*
X76581000Y-71247000D01*
X75946000Y-68834000D02*
X76581000Y-69469000D01*
X71374000Y-68834000D02*
X75946000Y-68834000D01*
X70739000Y-69469000D02*
X71374000Y-68834000D01*
X70739000Y-70993000D02*
X70739000Y-69469000D01*
X68199000Y-73533000D02*
X70739000Y-70993000D01*
X59690000Y-73533000D02*
X68199000Y-73533000D01*
X59309000Y-73152000D02*
X59690000Y-73533000D01*
D36*
X40735000Y-37719000D02*
X40735000Y-43993000D01*
X40735000Y-43993000D02*
X40720000Y-44008000D01*
D38*
X74708000Y-53816000D02*
X77597000Y-53816000D01*
X74676000Y-53848000D02*
X74708000Y-53816000D01*
D36*
X52292000Y-107188000D02*
X52292000Y-104362000D01*
X33909000Y-81661000D02*
X33909000Y-78740000D01*
X30988000Y-84582000D02*
X33909000Y-81661000D01*
X30988000Y-100838000D02*
X30988000Y-84582000D01*
X33020000Y-102870000D02*
X30988000Y-100838000D01*
X50800000Y-102870000D02*
X33020000Y-102870000D01*
X52292000Y-104362000D02*
X50800000Y-102870000D01*
X45292000Y-39036000D02*
X46802000Y-39036000D01*
X45085000Y-39243000D02*
X45292000Y-39036000D01*
X33870600Y-88737000D02*
X33782000Y-88648400D01*
X33782000Y-88648400D02*
X33782000Y-85217000D01*
X33782000Y-85217000D02*
X38862000Y-80137000D01*
X38862000Y-80137000D02*
X38862000Y-78867000D01*
X38862000Y-78867000D02*
X38989000Y-78740000D01*
X41529000Y-78740000D02*
X40005000Y-80264000D01*
X40005000Y-94871400D02*
X42506600Y-97373000D01*
X40005000Y-80264000D02*
X40005000Y-94871400D01*
X65443400Y-84419000D02*
X61305000Y-84419000D01*
X59309000Y-82423000D02*
X59309000Y-78740000D01*
X61305000Y-84419000D02*
X59309000Y-82423000D01*
X44862750Y-98329750D02*
X44862750Y-95853250D01*
X41846500Y-80962500D02*
X44069000Y-78740000D01*
X41846500Y-92837000D02*
X41846500Y-80962500D01*
X44862750Y-95853250D02*
X41846500Y-92837000D01*
X61051000Y-101255000D02*
X58420000Y-103886000D01*
X46609000Y-100076000D02*
X44862750Y-98329750D01*
X44862750Y-98329750D02*
X44831000Y-98298000D01*
X52070000Y-100076000D02*
X46609000Y-100076000D01*
X55880000Y-103886000D02*
X52070000Y-100076000D01*
X58420000Y-103886000D02*
X55880000Y-103886000D01*
X61607400Y-101255000D02*
X61051000Y-101255000D01*
D38*
X64389000Y-53975000D02*
X64389000Y-71120000D01*
X65786000Y-52578000D02*
X64389000Y-53975000D01*
X61849000Y-71120000D02*
X61849000Y-69723000D01*
X59690000Y-65786000D02*
X59690000Y-48514000D01*
X59690000Y-65786000D02*
X59690000Y-65786000D01*
X59690000Y-67564000D02*
X59690000Y-65786000D01*
X61849000Y-69723000D02*
X59690000Y-67564000D01*
D36*
X56197500Y-114554000D02*
X56197500Y-112966500D01*
X57086500Y-112077500D02*
X57086500Y-110267500D01*
X56197500Y-112966500D02*
X57086500Y-112077500D01*
X48292000Y-107188000D02*
X48292000Y-110236000D01*
X42926000Y-68326000D02*
X42926000Y-69977000D01*
X42926000Y-69977000D02*
X44069000Y-71120000D01*
X44069000Y-71120000D02*
X44069000Y-70739000D01*
X40386000Y-68326000D02*
X40386000Y-69977000D01*
X40386000Y-69977000D02*
X41529000Y-71120000D01*
X41529000Y-71120000D02*
X41529000Y-70739000D01*
X37846000Y-68326000D02*
X37846000Y-69977000D01*
X37846000Y-69977000D02*
X38989000Y-71120000D01*
X38989000Y-71120000D02*
X38989000Y-70739000D01*
X35306000Y-68326000D02*
X35306000Y-69977000D01*
X35306000Y-69977000D02*
X36449000Y-71120000D01*
X36449000Y-71120000D02*
X36449000Y-70739000D01*
X32766000Y-68326000D02*
X32766000Y-69977000D01*
X32766000Y-69977000D02*
X33909000Y-71120000D01*
X33909000Y-71120000D02*
X33909000Y-70739000D01*
X30226000Y-68326000D02*
X30226000Y-69977000D01*
X30226000Y-69977000D02*
X31369000Y-71120000D01*
D41*
G36*
X58971458Y-26098500D02*
X57594500Y-26098500D01*
X57254294Y-26166171D01*
X57114504Y-26259576D01*
X56965882Y-26358882D01*
X56743797Y-26580967D01*
X56677186Y-26580909D01*
X56270942Y-26748765D01*
X55959858Y-27059307D01*
X55791292Y-27465258D01*
X55790909Y-27904814D01*
X55958765Y-28311058D01*
X56269307Y-28622142D01*
X56675258Y-28790708D01*
X57114814Y-28791091D01*
X57521058Y-28623235D01*
X57832142Y-28312693D01*
X58000708Y-27906742D01*
X58000734Y-27876500D01*
X58970898Y-27876500D01*
X59007838Y-28072817D01*
X59146910Y-28288941D01*
X59359110Y-28433931D01*
X59611000Y-28484940D01*
X61611000Y-28484940D01*
X61846317Y-28440662D01*
X62062441Y-28301590D01*
X62207431Y-28089390D01*
X62258440Y-27837500D01*
X62258440Y-26137500D01*
X62248561Y-26085000D01*
X62974192Y-26085000D01*
X62963560Y-26137500D01*
X62963560Y-27837500D01*
X63007838Y-28072817D01*
X63146910Y-28288941D01*
X63359110Y-28433931D01*
X63595000Y-28481700D01*
X63595000Y-29493571D01*
X63375683Y-29534838D01*
X63159559Y-29673910D01*
X63014569Y-29886110D01*
X62963560Y-30138000D01*
X62963560Y-31838000D01*
X63007838Y-32073317D01*
X63146910Y-32289441D01*
X63359110Y-32434431D01*
X63611000Y-32485440D01*
X65611000Y-32485440D01*
X65846317Y-32441162D01*
X66062441Y-32302090D01*
X66207431Y-32089890D01*
X66258440Y-31838000D01*
X66258440Y-30138000D01*
X66229127Y-29982215D01*
X67225390Y-29982215D01*
X67302656Y-30230976D01*
X67849131Y-30428340D01*
X68429535Y-30401553D01*
X68841344Y-30230976D01*
X68918610Y-29982215D01*
X68072000Y-29135605D01*
X67225390Y-29982215D01*
X66229127Y-29982215D01*
X66214162Y-29902683D01*
X66075090Y-29686559D01*
X65862890Y-29541569D01*
X65627000Y-29493800D01*
X65627000Y-28733131D01*
X66599660Y-28733131D01*
X66626447Y-29313535D01*
X66797024Y-29725344D01*
X67045785Y-29802610D01*
X67892395Y-28956000D01*
X68251605Y-28956000D01*
X69098215Y-29802610D01*
X69346976Y-29725344D01*
X69520370Y-29245237D01*
X70802247Y-29245237D01*
X71024126Y-29782226D01*
X71434613Y-30193430D01*
X71971214Y-30416246D01*
X72552237Y-30416753D01*
X73089226Y-30194874D01*
X73500430Y-29784387D01*
X73723246Y-29247786D01*
X73723753Y-28666763D01*
X73501874Y-28129774D01*
X73091387Y-27718570D01*
X72554786Y-27495754D01*
X71973763Y-27495247D01*
X71436774Y-27717126D01*
X71025570Y-28127613D01*
X70802754Y-28664214D01*
X70802247Y-29245237D01*
X69520370Y-29245237D01*
X69544340Y-29178869D01*
X69517553Y-28598465D01*
X69346976Y-28186656D01*
X69098215Y-28109390D01*
X68251605Y-28956000D01*
X67892395Y-28956000D01*
X67045785Y-28109390D01*
X66797024Y-28186656D01*
X66599660Y-28733131D01*
X65627000Y-28733131D01*
X65627000Y-28481929D01*
X65846317Y-28440662D01*
X66062441Y-28301590D01*
X66207431Y-28089390D01*
X66239751Y-27929785D01*
X67225390Y-27929785D01*
X68072000Y-28776395D01*
X68918610Y-27929785D01*
X68841344Y-27681024D01*
X68294869Y-27483660D01*
X67714465Y-27510447D01*
X67302656Y-27681024D01*
X67225390Y-27929785D01*
X66239751Y-27929785D01*
X66258440Y-27837500D01*
X66258440Y-26137500D01*
X66248561Y-26085000D01*
X74295000Y-26085000D01*
X74295000Y-33528000D01*
X74303685Y-33574159D01*
X74330965Y-33616553D01*
X74372590Y-33644994D01*
X74422000Y-33655000D01*
X81865000Y-33655000D01*
X81865000Y-109220000D01*
X74422000Y-109220000D01*
X74375841Y-109228685D01*
X74333447Y-109255965D01*
X74305006Y-109297590D01*
X74295000Y-109347000D01*
X74295000Y-116790000D01*
X33655000Y-116790000D01*
X33655000Y-114839750D01*
X44640500Y-114839750D01*
X44640500Y-115442309D01*
X44737173Y-115675698D01*
X44915801Y-115854327D01*
X45149190Y-115951000D01*
X45751750Y-115951000D01*
X45910500Y-115792250D01*
X45910500Y-114681000D01*
X44799250Y-114681000D01*
X44640500Y-114839750D01*
X33655000Y-114839750D01*
X33655000Y-113665691D01*
X44640500Y-113665691D01*
X44640500Y-114268250D01*
X44799250Y-114427000D01*
X45910500Y-114427000D01*
X45910500Y-113315750D01*
X46164500Y-113315750D01*
X46164500Y-114427000D01*
X46184500Y-114427000D01*
X46184500Y-114681000D01*
X46164500Y-114681000D01*
X46164500Y-115792250D01*
X46323250Y-115951000D01*
X46925810Y-115951000D01*
X47159199Y-115854327D01*
X47337827Y-115675698D01*
X47377377Y-115580215D01*
X47730890Y-115580215D01*
X47808156Y-115828976D01*
X48354631Y-116026340D01*
X48935035Y-115999553D01*
X49346844Y-115828976D01*
X49424110Y-115580215D01*
X48577500Y-114733605D01*
X47730890Y-115580215D01*
X47377377Y-115580215D01*
X47434500Y-115442309D01*
X47434500Y-115364336D01*
X47551285Y-115400610D01*
X48397895Y-114554000D01*
X47551285Y-113707390D01*
X47434500Y-113743664D01*
X47434500Y-113665691D01*
X47377378Y-113527785D01*
X47730890Y-113527785D01*
X48577500Y-114374395D01*
X49424110Y-113527785D01*
X49346844Y-113279024D01*
X48800369Y-113081660D01*
X48219965Y-113108447D01*
X47808156Y-113279024D01*
X47730890Y-113527785D01*
X47377378Y-113527785D01*
X47337827Y-113432302D01*
X47159199Y-113253673D01*
X46925810Y-113157000D01*
X46323250Y-113157000D01*
X46164500Y-113315750D01*
X45910500Y-113315750D01*
X45751750Y-113157000D01*
X45149190Y-113157000D01*
X44915801Y-113253673D01*
X44737173Y-113432302D01*
X44640500Y-113665691D01*
X33655000Y-113665691D01*
X33655000Y-109347000D01*
X33646315Y-109300841D01*
X33619035Y-109258447D01*
X33577410Y-109230006D01*
X33528000Y-109220000D01*
X26085000Y-109220000D01*
X26085000Y-105700000D01*
X36246100Y-105700000D01*
X36246100Y-106081000D01*
X36405875Y-106630242D01*
X36763673Y-107076532D01*
X37265023Y-107351927D01*
X37353556Y-107371188D01*
X37579600Y-107249540D01*
X37579600Y-105700000D01*
X37833600Y-105700000D01*
X37833600Y-107249540D01*
X38059644Y-107371188D01*
X38148177Y-107351927D01*
X38649527Y-107076532D01*
X39007325Y-106630242D01*
X39167100Y-106081000D01*
X39167100Y-105700000D01*
X37833600Y-105700000D01*
X37579600Y-105700000D01*
X36246100Y-105700000D01*
X26085000Y-105700000D01*
X26085000Y-105065000D01*
X36246100Y-105065000D01*
X36246100Y-105446000D01*
X37579600Y-105446000D01*
X37579600Y-103896460D01*
X37833600Y-103896460D01*
X37833600Y-105446000D01*
X39167100Y-105446000D01*
X39167100Y-105065000D01*
X39007325Y-104515758D01*
X38649527Y-104069468D01*
X38148177Y-103794073D01*
X38059644Y-103774812D01*
X37833600Y-103896460D01*
X37579600Y-103896460D01*
X37353556Y-103774812D01*
X37265023Y-103794073D01*
X36763673Y-104069468D01*
X36405875Y-104515758D01*
X36246100Y-105065000D01*
X26085000Y-105065000D01*
X26085000Y-97064000D01*
X27610100Y-97064000D01*
X27610100Y-97445000D01*
X27769875Y-97994242D01*
X28127673Y-98440532D01*
X28629023Y-98715927D01*
X28717556Y-98735188D01*
X28943600Y-98613540D01*
X28943600Y-97064000D01*
X27610100Y-97064000D01*
X26085000Y-97064000D01*
X26085000Y-96429000D01*
X27610100Y-96429000D01*
X27610100Y-96810000D01*
X28943600Y-96810000D01*
X28943600Y-95260460D01*
X28717556Y-95138812D01*
X28629023Y-95158073D01*
X28127673Y-95433468D01*
X27769875Y-95879758D01*
X27610100Y-96429000D01*
X26085000Y-96429000D01*
X26085000Y-88864000D01*
X27610100Y-88864000D01*
X27610100Y-89245000D01*
X27769875Y-89794242D01*
X28127673Y-90240532D01*
X28629023Y-90515927D01*
X28717556Y-90535188D01*
X28943600Y-90413540D01*
X28943600Y-88864000D01*
X27610100Y-88864000D01*
X26085000Y-88864000D01*
X26085000Y-88229000D01*
X27610100Y-88229000D01*
X27610100Y-88610000D01*
X28943600Y-88610000D01*
X28943600Y-87060460D01*
X29197600Y-87060460D01*
X29197600Y-88610000D01*
X29217600Y-88610000D01*
X29217600Y-88864000D01*
X29197600Y-88864000D01*
X29197600Y-90413540D01*
X29423644Y-90535188D01*
X29512177Y-90515927D01*
X30013527Y-90240532D01*
X30162500Y-90054714D01*
X30162500Y-95619286D01*
X30013527Y-95433468D01*
X29512177Y-95158073D01*
X29423644Y-95138812D01*
X29197600Y-95260460D01*
X29197600Y-96810000D01*
X29217600Y-96810000D01*
X29217600Y-97064000D01*
X29197600Y-97064000D01*
X29197600Y-98613540D01*
X29423644Y-98735188D01*
X29512177Y-98715927D01*
X30013527Y-98440532D01*
X30162500Y-98254714D01*
X30162500Y-100838000D01*
X30225337Y-101153906D01*
X30404283Y-101421717D01*
X32436283Y-103453717D01*
X32704094Y-103632663D01*
X33020000Y-103695501D01*
X33020005Y-103695500D01*
X42506213Y-103695500D01*
X41947691Y-103806597D01*
X41473871Y-104123194D01*
X41157274Y-104597014D01*
X41046100Y-105155923D01*
X41046100Y-105990077D01*
X41157274Y-106548986D01*
X41473871Y-107022806D01*
X41947691Y-107339403D01*
X42506600Y-107450577D01*
X43065509Y-107339403D01*
X43539329Y-107022806D01*
X43855926Y-106548986D01*
X43967100Y-105990077D01*
X43967100Y-105155923D01*
X43855926Y-104597014D01*
X43539329Y-104123194D01*
X43065509Y-103806597D01*
X42506987Y-103695500D01*
X50458066Y-103695500D01*
X51466500Y-104703933D01*
X51466500Y-105690560D01*
X51292000Y-105690560D01*
X51056683Y-105734838D01*
X50840559Y-105873910D01*
X50810434Y-105918000D01*
X49776322Y-105918000D01*
X49756090Y-105886559D01*
X49543890Y-105741569D01*
X49292000Y-105690560D01*
X47292000Y-105690560D01*
X47056683Y-105734838D01*
X46840559Y-105873910D01*
X46695569Y-106086110D01*
X46644560Y-106338000D01*
X46644560Y-108038000D01*
X46688838Y-108273317D01*
X46827910Y-108489441D01*
X46863000Y-108513417D01*
X46863000Y-108907470D01*
X46840559Y-108921910D01*
X46695569Y-109134110D01*
X46644560Y-109386000D01*
X46644560Y-111086000D01*
X46688838Y-111321317D01*
X46827910Y-111537441D01*
X47040110Y-111682431D01*
X47292000Y-111733440D01*
X49292000Y-111733440D01*
X49527317Y-111689162D01*
X49743441Y-111550090D01*
X49773566Y-111506000D01*
X50807678Y-111506000D01*
X50827910Y-111537441D01*
X51040110Y-111682431D01*
X51292000Y-111733440D01*
X52622007Y-111733440D01*
X52832000Y-111943433D01*
X52832000Y-113314826D01*
X52831274Y-113315126D01*
X52420070Y-113725613D01*
X52387696Y-113803579D01*
X52356374Y-113727774D01*
X51945887Y-113316570D01*
X51409286Y-113093754D01*
X50828263Y-113093247D01*
X50291274Y-113315126D01*
X49880070Y-113725613D01*
X49854013Y-113788366D01*
X49852476Y-113784656D01*
X49603715Y-113707390D01*
X48757105Y-114554000D01*
X49603715Y-115400610D01*
X49852476Y-115323344D01*
X49853711Y-115319926D01*
X49878626Y-115380226D01*
X50289113Y-115791430D01*
X50825714Y-116014246D01*
X51406737Y-116014753D01*
X51943726Y-115792874D01*
X52354930Y-115382387D01*
X52387304Y-115304421D01*
X52418626Y-115380226D01*
X52829113Y-115791430D01*
X53365714Y-116014246D01*
X53946737Y-116014753D01*
X54483726Y-115792874D01*
X54894930Y-115382387D01*
X54927304Y-115304421D01*
X54958626Y-115380226D01*
X55369113Y-115791430D01*
X55905714Y-116014246D01*
X56486737Y-116014753D01*
X57023726Y-115792874D01*
X57434930Y-115382387D01*
X57467304Y-115304421D01*
X57498626Y-115380226D01*
X57909113Y-115791430D01*
X58445714Y-116014246D01*
X59026737Y-116014753D01*
X59563726Y-115792874D01*
X59974930Y-115382387D01*
X60002496Y-115316000D01*
X62138560Y-115316000D01*
X62138560Y-115354000D01*
X62182838Y-115589317D01*
X62321910Y-115805441D01*
X62534110Y-115950431D01*
X62786000Y-116001440D01*
X64786000Y-116001440D01*
X65021317Y-115957162D01*
X65237441Y-115818090D01*
X65382431Y-115605890D01*
X65433440Y-115354000D01*
X65433440Y-113754000D01*
X65389162Y-113518683D01*
X65250090Y-113302559D01*
X65037890Y-113157569D01*
X64786000Y-113106560D01*
X62786000Y-113106560D01*
X62550683Y-113150838D01*
X62334559Y-113289910D01*
X62189569Y-113502110D01*
X62138560Y-113754000D01*
X62138560Y-113792000D01*
X60002912Y-113792000D01*
X59976374Y-113727774D01*
X59565887Y-113316570D01*
X59029286Y-113093754D01*
X58448263Y-113093247D01*
X57911274Y-113315126D01*
X57500070Y-113725613D01*
X57467696Y-113803579D01*
X57436374Y-113727774D01*
X57025887Y-113316570D01*
X57023000Y-113315371D01*
X57023000Y-113308434D01*
X57670217Y-112661217D01*
X57849163Y-112393406D01*
X57912001Y-112077500D01*
X57912000Y-112077495D01*
X57912000Y-111914940D01*
X57936500Y-111914940D01*
X58171817Y-111870662D01*
X58387941Y-111731590D01*
X58532931Y-111519390D01*
X58583940Y-111267500D01*
X58583940Y-109473923D01*
X63982900Y-109473923D01*
X63982900Y-110308077D01*
X64094074Y-110866986D01*
X64410671Y-111340806D01*
X64884491Y-111657403D01*
X65443400Y-111768577D01*
X66002309Y-111657403D01*
X66476129Y-111340806D01*
X66792726Y-110866986D01*
X66903900Y-110308077D01*
X66903900Y-109473923D01*
X66792726Y-108915014D01*
X66476129Y-108441194D01*
X66002309Y-108124597D01*
X65443400Y-108013423D01*
X64884491Y-108124597D01*
X64410671Y-108441194D01*
X64094074Y-108915014D01*
X63982900Y-109473923D01*
X58583940Y-109473923D01*
X58583940Y-109267500D01*
X58539662Y-109032183D01*
X58420000Y-108846223D01*
X58420000Y-107684670D01*
X58532931Y-107519390D01*
X58583940Y-107267500D01*
X58583940Y-105267500D01*
X58539662Y-105032183D01*
X58400590Y-104816059D01*
X58247563Y-104711500D01*
X58420000Y-104711500D01*
X58735906Y-104648663D01*
X59003717Y-104469717D01*
X60690940Y-102782494D01*
X61048491Y-103021403D01*
X61607400Y-103132577D01*
X62166309Y-103021403D01*
X62640129Y-102704806D01*
X62956726Y-102230986D01*
X63067900Y-101672077D01*
X63067900Y-101273923D01*
X63982900Y-101273923D01*
X63982900Y-102108077D01*
X64094074Y-102666986D01*
X64410671Y-103140806D01*
X64884491Y-103457403D01*
X65443400Y-103568577D01*
X66002309Y-103457403D01*
X66476129Y-103140806D01*
X66792726Y-102666986D01*
X66903900Y-102108077D01*
X66903900Y-101273923D01*
X66792726Y-100715014D01*
X66476129Y-100241194D01*
X66002309Y-99924597D01*
X65443400Y-99813423D01*
X64884491Y-99924597D01*
X64410671Y-100241194D01*
X64094074Y-100715014D01*
X63982900Y-101273923D01*
X63067900Y-101273923D01*
X63067900Y-100837923D01*
X62956726Y-100279014D01*
X62640129Y-99805194D01*
X62369400Y-99624298D01*
X62369400Y-94685702D01*
X62640129Y-94504806D01*
X62956726Y-94030986D01*
X63067900Y-93472077D01*
X63067900Y-92637923D01*
X62981175Y-92201923D01*
X63982900Y-92201923D01*
X63982900Y-93036077D01*
X64094074Y-93594986D01*
X64410671Y-94068806D01*
X64884491Y-94385403D01*
X65443400Y-94496577D01*
X66002309Y-94385403D01*
X66476129Y-94068806D01*
X66792726Y-93594986D01*
X66903900Y-93036077D01*
X66903900Y-92201923D01*
X66792726Y-91643014D01*
X66476129Y-91169194D01*
X66002309Y-90852597D01*
X65443400Y-90741423D01*
X64884491Y-90852597D01*
X64410671Y-91169194D01*
X64094074Y-91643014D01*
X63982900Y-92201923D01*
X62981175Y-92201923D01*
X62956726Y-92079014D01*
X62640129Y-91605194D01*
X62166309Y-91288597D01*
X61607400Y-91177423D01*
X61048491Y-91288597D01*
X60574671Y-91605194D01*
X60258074Y-92079014D01*
X60146900Y-92637923D01*
X60146900Y-93472077D01*
X60258074Y-94030986D01*
X60574671Y-94504806D01*
X60845400Y-94685702D01*
X60845400Y-99624298D01*
X60574671Y-99805194D01*
X60258074Y-100279014D01*
X60146900Y-100837923D01*
X60146900Y-100991666D01*
X58078066Y-103060500D01*
X56934402Y-103060500D01*
X56934402Y-102931541D01*
X57160444Y-103053188D01*
X57248977Y-103033927D01*
X57750327Y-102758532D01*
X58108125Y-102312242D01*
X58267900Y-101763000D01*
X58267900Y-101382000D01*
X56934400Y-101382000D01*
X56934400Y-101402000D01*
X56680400Y-101402000D01*
X56680400Y-101382000D01*
X55346900Y-101382000D01*
X55346900Y-101763000D01*
X55506675Y-102312242D01*
X55640102Y-102478669D01*
X53908434Y-100747000D01*
X55346900Y-100747000D01*
X55346900Y-101128000D01*
X56680400Y-101128000D01*
X56680400Y-99578460D01*
X56934400Y-99578460D01*
X56934400Y-101128000D01*
X58267900Y-101128000D01*
X58267900Y-100747000D01*
X58108125Y-100197758D01*
X57750327Y-99751468D01*
X57248977Y-99476073D01*
X57160444Y-99456812D01*
X56934400Y-99578460D01*
X56680400Y-99578460D01*
X56454356Y-99456812D01*
X56365823Y-99476073D01*
X55864473Y-99751468D01*
X55506675Y-100197758D01*
X55346900Y-100747000D01*
X53908434Y-100747000D01*
X52743374Y-99581940D01*
X54793000Y-99581940D01*
X55028317Y-99537662D01*
X55244441Y-99398590D01*
X55389431Y-99186390D01*
X55440440Y-98934500D01*
X55440440Y-94934500D01*
X55396162Y-94699183D01*
X55257090Y-94483059D01*
X55044890Y-94338069D01*
X54793000Y-94287060D01*
X52593000Y-94287060D01*
X52357683Y-94331338D01*
X52141559Y-94470410D01*
X51996569Y-94682610D01*
X51945560Y-94934500D01*
X51945560Y-98934500D01*
X51989838Y-99169817D01*
X52041756Y-99250500D01*
X51845627Y-99250500D01*
X51889431Y-99186390D01*
X51940440Y-98934500D01*
X51940440Y-94934500D01*
X51896162Y-94699183D01*
X51757090Y-94483059D01*
X51544890Y-94338069D01*
X51293000Y-94287060D01*
X49093000Y-94287060D01*
X48857683Y-94331338D01*
X48641559Y-94470410D01*
X48496569Y-94682610D01*
X48445560Y-94934500D01*
X48445560Y-98934500D01*
X48489838Y-99169817D01*
X48541756Y-99250500D01*
X46950933Y-99250500D01*
X45688250Y-97987816D01*
X45688250Y-95853255D01*
X45688251Y-95853250D01*
X45625413Y-95537345D01*
X45570470Y-95455117D01*
X45446467Y-95269533D01*
X45446464Y-95269531D01*
X43358934Y-93182000D01*
X55346900Y-93182000D01*
X55346900Y-93563000D01*
X55506675Y-94112242D01*
X55864473Y-94558532D01*
X56365823Y-94833927D01*
X56454356Y-94853188D01*
X56680400Y-94731540D01*
X56680400Y-93182000D01*
X56934400Y-93182000D01*
X56934400Y-94731540D01*
X57160444Y-94853188D01*
X57248977Y-94833927D01*
X57750327Y-94558532D01*
X58108125Y-94112242D01*
X58267900Y-93563000D01*
X58267900Y-93182000D01*
X56934400Y-93182000D01*
X56680400Y-93182000D01*
X55346900Y-93182000D01*
X43358934Y-93182000D01*
X42672000Y-92495066D01*
X42672000Y-91058750D01*
X44221500Y-91058750D01*
X44221500Y-91899309D01*
X44318173Y-92132698D01*
X44496801Y-92311327D01*
X44730190Y-92408000D01*
X45370750Y-92408000D01*
X45529500Y-92249250D01*
X45529500Y-90900000D01*
X45783500Y-90900000D01*
X45783500Y-92249250D01*
X45942250Y-92408000D01*
X46582810Y-92408000D01*
X46816199Y-92311327D01*
X46994827Y-92132698D01*
X47091500Y-91899309D01*
X47091500Y-91058750D01*
X46932750Y-90900000D01*
X45783500Y-90900000D01*
X45529500Y-90900000D01*
X44380250Y-90900000D01*
X44221500Y-91058750D01*
X42672000Y-91058750D01*
X42672000Y-89646691D01*
X44221500Y-89646691D01*
X44221500Y-90487250D01*
X44380250Y-90646000D01*
X45529500Y-90646000D01*
X45529500Y-89296750D01*
X45783500Y-89296750D01*
X45783500Y-90646000D01*
X46932750Y-90646000D01*
X47091500Y-90487250D01*
X47091500Y-90106250D01*
X55016500Y-90106250D01*
X55016500Y-90946809D01*
X55113173Y-91180198D01*
X55291801Y-91358827D01*
X55525190Y-91455500D01*
X56039180Y-91455500D01*
X55864473Y-91551468D01*
X55506675Y-91997758D01*
X55346900Y-92547000D01*
X55346900Y-92928000D01*
X56680400Y-92928000D01*
X56680400Y-92908000D01*
X56934400Y-92908000D01*
X56934400Y-92928000D01*
X58267900Y-92928000D01*
X58267900Y-92547000D01*
X58108125Y-91997758D01*
X57750327Y-91551468D01*
X57490582Y-91408788D01*
X57611199Y-91358827D01*
X57789827Y-91180198D01*
X57886500Y-90946809D01*
X57886500Y-90106250D01*
X57727750Y-89947500D01*
X56578500Y-89947500D01*
X56578500Y-89967500D01*
X56324500Y-89967500D01*
X56324500Y-89947500D01*
X55175250Y-89947500D01*
X55016500Y-90106250D01*
X47091500Y-90106250D01*
X47091500Y-89646691D01*
X46994827Y-89413302D01*
X46816199Y-89234673D01*
X46582810Y-89138000D01*
X45942250Y-89138000D01*
X45783500Y-89296750D01*
X45529500Y-89296750D01*
X45370750Y-89138000D01*
X44730190Y-89138000D01*
X44496801Y-89234673D01*
X44318173Y-89413302D01*
X44221500Y-89646691D01*
X42672000Y-89646691D01*
X42672000Y-85773000D01*
X44209060Y-85773000D01*
X44209060Y-87773000D01*
X44253338Y-88008317D01*
X44392410Y-88224441D01*
X44604610Y-88369431D01*
X44856500Y-88420440D01*
X46456500Y-88420440D01*
X46691817Y-88376162D01*
X46907941Y-88237090D01*
X47052931Y-88024890D01*
X47103940Y-87773000D01*
X47103940Y-87598500D01*
X48445560Y-87598500D01*
X48445560Y-88834500D01*
X48489838Y-89069817D01*
X48628910Y-89285941D01*
X48841110Y-89430931D01*
X49093000Y-89481940D01*
X51293000Y-89481940D01*
X51528317Y-89437662D01*
X51744441Y-89298590D01*
X51889431Y-89086390D01*
X51940440Y-88834500D01*
X51940440Y-85180494D01*
X51945560Y-85175374D01*
X51945560Y-88834500D01*
X51989838Y-89069817D01*
X52128910Y-89285941D01*
X52341110Y-89430931D01*
X52593000Y-89481940D01*
X54793000Y-89481940D01*
X55016500Y-89439886D01*
X55016500Y-89534750D01*
X55175250Y-89693500D01*
X56324500Y-89693500D01*
X56324500Y-88344250D01*
X56578500Y-88344250D01*
X56578500Y-89693500D01*
X57727750Y-89693500D01*
X57886500Y-89534750D01*
X57886500Y-88694191D01*
X57789827Y-88460802D01*
X57611199Y-88282173D01*
X57377810Y-88185500D01*
X56737250Y-88185500D01*
X56578500Y-88344250D01*
X56324500Y-88344250D01*
X56165750Y-88185500D01*
X55525190Y-88185500D01*
X55440440Y-88220605D01*
X55440440Y-87425199D01*
X55651500Y-87467940D01*
X57251500Y-87467940D01*
X57486817Y-87423662D01*
X57702941Y-87284590D01*
X57847931Y-87072390D01*
X57898940Y-86820500D01*
X57898940Y-84820500D01*
X57854662Y-84585183D01*
X57715590Y-84369059D01*
X57503390Y-84224069D01*
X57251500Y-84173060D01*
X55651500Y-84173060D01*
X55416183Y-84217338D01*
X55209344Y-84350435D01*
X55054500Y-84244635D01*
X55054500Y-79909229D01*
X55243698Y-79782811D01*
X55499000Y-79400725D01*
X55754302Y-79782811D01*
X56219849Y-80093880D01*
X56769000Y-80203113D01*
X57318151Y-80093880D01*
X57783698Y-79782811D01*
X58039000Y-79400725D01*
X58294302Y-79782811D01*
X58483500Y-79909229D01*
X58483500Y-82423000D01*
X58546337Y-82738906D01*
X58725283Y-83006717D01*
X60721281Y-85002714D01*
X60721283Y-85002717D01*
X60849526Y-85088406D01*
X60989094Y-85181663D01*
X61305000Y-85244500D01*
X64064140Y-85244500D01*
X64094074Y-85394986D01*
X64410671Y-85868806D01*
X64884491Y-86185403D01*
X65443400Y-86296577D01*
X66002309Y-86185403D01*
X66476129Y-85868806D01*
X66792726Y-85394986D01*
X66903900Y-84836077D01*
X66903900Y-84001923D01*
X66792726Y-83443014D01*
X66476129Y-82969194D01*
X66002309Y-82652597D01*
X65443400Y-82541423D01*
X64884491Y-82652597D01*
X64410671Y-82969194D01*
X64094074Y-83443014D01*
X64064140Y-83593500D01*
X61646933Y-83593500D01*
X60134500Y-82081066D01*
X60134500Y-79909229D01*
X60323698Y-79782811D01*
X60579000Y-79400725D01*
X60834302Y-79782811D01*
X61299849Y-80093880D01*
X61849000Y-80203113D01*
X62398151Y-80093880D01*
X62863698Y-79782811D01*
X63119000Y-79400725D01*
X63374302Y-79782811D01*
X63839849Y-80093880D01*
X64389000Y-80203113D01*
X64938151Y-80093880D01*
X65403698Y-79782811D01*
X65714767Y-79317264D01*
X65824000Y-78768113D01*
X65824000Y-78711887D01*
X65714767Y-78162736D01*
X65403698Y-77697189D01*
X64938151Y-77386120D01*
X64389000Y-77276887D01*
X63839849Y-77386120D01*
X63374302Y-77697189D01*
X63119000Y-78079275D01*
X62863698Y-77697189D01*
X62398151Y-77386120D01*
X61849000Y-77276887D01*
X61299849Y-77386120D01*
X60834302Y-77697189D01*
X60579000Y-78079275D01*
X60323698Y-77697189D01*
X59858151Y-77386120D01*
X59309000Y-77276887D01*
X58759849Y-77386120D01*
X58294302Y-77697189D01*
X58039000Y-78079275D01*
X57783698Y-77697189D01*
X57318151Y-77386120D01*
X56769000Y-77276887D01*
X56219849Y-77386120D01*
X55754302Y-77697189D01*
X55499000Y-78079275D01*
X55243698Y-77697189D01*
X54778151Y-77386120D01*
X54229000Y-77276887D01*
X53679849Y-77386120D01*
X53214302Y-77697189D01*
X52959000Y-78079275D01*
X52703698Y-77697189D01*
X52238151Y-77386120D01*
X51689000Y-77276887D01*
X51139849Y-77386120D01*
X50674302Y-77697189D01*
X50404014Y-78101703D01*
X50301389Y-77884866D01*
X49886423Y-77508959D01*
X49498039Y-77348096D01*
X49276000Y-77470085D01*
X49276000Y-78613000D01*
X49296000Y-78613000D01*
X49296000Y-78867000D01*
X49276000Y-78867000D01*
X49276000Y-80009915D01*
X49498039Y-80131904D01*
X49886423Y-79971041D01*
X50301389Y-79595134D01*
X50404014Y-79378297D01*
X50674302Y-79782811D01*
X51139849Y-80093880D01*
X51689000Y-80203113D01*
X51935623Y-80154057D01*
X52006500Y-80224934D01*
X52006500Y-82779567D01*
X50599006Y-84187060D01*
X49093000Y-84187060D01*
X48857683Y-84231338D01*
X48641559Y-84370410D01*
X48496569Y-84582610D01*
X48445560Y-84834500D01*
X48445560Y-85740418D01*
X48417000Y-85884000D01*
X48429631Y-85947500D01*
X47103940Y-85947500D01*
X47103940Y-85773000D01*
X47059662Y-85537683D01*
X46920590Y-85321559D01*
X46708390Y-85176569D01*
X46456500Y-85125560D01*
X44856500Y-85125560D01*
X44621183Y-85169838D01*
X44405059Y-85308910D01*
X44260069Y-85521110D01*
X44209060Y-85773000D01*
X42672000Y-85773000D01*
X42672000Y-81304434D01*
X43822377Y-80154057D01*
X44069000Y-80203113D01*
X44618151Y-80093880D01*
X45083698Y-79782811D01*
X45339000Y-79400725D01*
X45594302Y-79782811D01*
X45783500Y-79909229D01*
X45783500Y-80843067D01*
X45778007Y-80848560D01*
X44053500Y-80848560D01*
X43818183Y-80892838D01*
X43602059Y-81031910D01*
X43457069Y-81244110D01*
X43406060Y-81496000D01*
X43406060Y-83096000D01*
X43450338Y-83331317D01*
X43589410Y-83547441D01*
X43801610Y-83692431D01*
X44053500Y-83743440D01*
X46053500Y-83743440D01*
X46288817Y-83699162D01*
X46504941Y-83560090D01*
X46649931Y-83347890D01*
X46700940Y-83096000D01*
X46700940Y-82581750D01*
X47418500Y-82581750D01*
X47418500Y-83222310D01*
X47515173Y-83455699D01*
X47693802Y-83634327D01*
X47927191Y-83731000D01*
X48767750Y-83731000D01*
X48926500Y-83572250D01*
X48926500Y-82423000D01*
X49180500Y-82423000D01*
X49180500Y-83572250D01*
X49339250Y-83731000D01*
X50179809Y-83731000D01*
X50413198Y-83634327D01*
X50591827Y-83455699D01*
X50688500Y-83222310D01*
X50688500Y-82581750D01*
X50529750Y-82423000D01*
X49180500Y-82423000D01*
X48926500Y-82423000D01*
X47577250Y-82423000D01*
X47418500Y-82581750D01*
X46700940Y-82581750D01*
X46700940Y-82260494D01*
X47192714Y-81768719D01*
X47192717Y-81768717D01*
X47371663Y-81500905D01*
X47397763Y-81369690D01*
X47418500Y-81369690D01*
X47418500Y-82010250D01*
X47577250Y-82169000D01*
X48926500Y-82169000D01*
X48926500Y-81019750D01*
X49180500Y-81019750D01*
X49180500Y-82169000D01*
X50529750Y-82169000D01*
X50688500Y-82010250D01*
X50688500Y-81369690D01*
X50591827Y-81136301D01*
X50413198Y-80957673D01*
X50179809Y-80861000D01*
X49339250Y-80861000D01*
X49180500Y-81019750D01*
X48926500Y-81019750D01*
X48767750Y-80861000D01*
X47927191Y-80861000D01*
X47693802Y-80957673D01*
X47515173Y-81136301D01*
X47418500Y-81369690D01*
X47397763Y-81369690D01*
X47434500Y-81185000D01*
X47434500Y-79909229D01*
X47623698Y-79782811D01*
X47893986Y-79378297D01*
X47996611Y-79595134D01*
X48411577Y-79971041D01*
X48799961Y-80131904D01*
X49022000Y-80009915D01*
X49022000Y-78867000D01*
X49002000Y-78867000D01*
X49002000Y-78613000D01*
X49022000Y-78613000D01*
X49022000Y-77470085D01*
X48799961Y-77348096D01*
X48411577Y-77508959D01*
X47996611Y-77884866D01*
X47893986Y-78101703D01*
X47623698Y-77697189D01*
X47158151Y-77386120D01*
X46609000Y-77276887D01*
X46059849Y-77386120D01*
X45594302Y-77697189D01*
X45339000Y-78079275D01*
X45083698Y-77697189D01*
X44618151Y-77386120D01*
X44069000Y-77276887D01*
X43519849Y-77386120D01*
X43054302Y-77697189D01*
X42799000Y-78079275D01*
X42543698Y-77697189D01*
X42078151Y-77386120D01*
X41529000Y-77276887D01*
X40979849Y-77386120D01*
X40514302Y-77697189D01*
X40259000Y-78079275D01*
X40003698Y-77697189D01*
X39538151Y-77386120D01*
X38989000Y-77276887D01*
X38439849Y-77386120D01*
X37974302Y-77697189D01*
X37719000Y-78079275D01*
X37463698Y-77697189D01*
X36998151Y-77386120D01*
X36449000Y-77276887D01*
X35899849Y-77386120D01*
X35434302Y-77697189D01*
X35179000Y-78079275D01*
X34923698Y-77697189D01*
X34458151Y-77386120D01*
X33909000Y-77276887D01*
X33359849Y-77386120D01*
X32894302Y-77697189D01*
X32797899Y-77841465D01*
X32772162Y-77704683D01*
X32633090Y-77488559D01*
X32420890Y-77343569D01*
X32305277Y-77320157D01*
X33361933Y-76263500D01*
X66992500Y-76263500D01*
X66992500Y-113106560D01*
X66786000Y-113106560D01*
X66550683Y-113150838D01*
X66334559Y-113289910D01*
X66189569Y-113502110D01*
X66138560Y-113754000D01*
X66138560Y-115354000D01*
X66182838Y-115589317D01*
X66321910Y-115805441D01*
X66534110Y-115950431D01*
X66786000Y-116001440D01*
X68786000Y-116001440D01*
X69021317Y-115957162D01*
X69237441Y-115818090D01*
X69382431Y-115605890D01*
X69433440Y-115354000D01*
X69433440Y-113754000D01*
X69389162Y-113518683D01*
X69250090Y-113302559D01*
X69037890Y-113157569D01*
X68786000Y-113106560D01*
X68643500Y-113106560D01*
X68643500Y-110018000D01*
X68782900Y-110018000D01*
X68782900Y-110399000D01*
X68942675Y-110948242D01*
X69300473Y-111394532D01*
X69801823Y-111669927D01*
X69890356Y-111689188D01*
X70116400Y-111567540D01*
X70116400Y-110018000D01*
X70370400Y-110018000D01*
X70370400Y-111567540D01*
X70596444Y-111689188D01*
X70684977Y-111669927D01*
X71186327Y-111394532D01*
X71544125Y-110948242D01*
X71703900Y-110399000D01*
X71703900Y-110018000D01*
X70370400Y-110018000D01*
X70116400Y-110018000D01*
X68782900Y-110018000D01*
X68643500Y-110018000D01*
X68643500Y-109383000D01*
X68782900Y-109383000D01*
X68782900Y-109764000D01*
X70116400Y-109764000D01*
X70116400Y-108214460D01*
X70370400Y-108214460D01*
X70370400Y-109764000D01*
X71703900Y-109764000D01*
X71703900Y-109383000D01*
X71544125Y-108833758D01*
X71186327Y-108387468D01*
X70684977Y-108112073D01*
X70596444Y-108092812D01*
X70370400Y-108214460D01*
X70116400Y-108214460D01*
X69890356Y-108092812D01*
X69801823Y-108112073D01*
X69300473Y-108387468D01*
X68942675Y-108833758D01*
X68782900Y-109383000D01*
X68643500Y-109383000D01*
X68643500Y-101818000D01*
X68782900Y-101818000D01*
X68782900Y-102199000D01*
X68942675Y-102748242D01*
X69300473Y-103194532D01*
X69801823Y-103469927D01*
X69890356Y-103489188D01*
X70116400Y-103367540D01*
X70116400Y-101818000D01*
X70370400Y-101818000D01*
X70370400Y-103367540D01*
X70596444Y-103489188D01*
X70684977Y-103469927D01*
X71186327Y-103194532D01*
X71544125Y-102748242D01*
X71703900Y-102199000D01*
X71703900Y-101818000D01*
X70370400Y-101818000D01*
X70116400Y-101818000D01*
X68782900Y-101818000D01*
X68643500Y-101818000D01*
X68643500Y-101183000D01*
X68782900Y-101183000D01*
X68782900Y-101564000D01*
X70116400Y-101564000D01*
X70116400Y-100014460D01*
X70370400Y-100014460D01*
X70370400Y-101564000D01*
X71703900Y-101564000D01*
X71703900Y-101183000D01*
X71603517Y-100837923D01*
X72618900Y-100837923D01*
X72618900Y-101672077D01*
X72730074Y-102230986D01*
X73046671Y-102704806D01*
X73520491Y-103021403D01*
X74079400Y-103132577D01*
X74638309Y-103021403D01*
X75112129Y-102704806D01*
X75428726Y-102230986D01*
X75539900Y-101672077D01*
X75539900Y-101382000D01*
X77418900Y-101382000D01*
X77418900Y-101763000D01*
X77578675Y-102312242D01*
X77936473Y-102758532D01*
X78437823Y-103033927D01*
X78526356Y-103053188D01*
X78752400Y-102931540D01*
X78752400Y-101382000D01*
X79006400Y-101382000D01*
X79006400Y-102931540D01*
X79232444Y-103053188D01*
X79320977Y-103033927D01*
X79822327Y-102758532D01*
X80180125Y-102312242D01*
X80339900Y-101763000D01*
X80339900Y-101382000D01*
X79006400Y-101382000D01*
X78752400Y-101382000D01*
X77418900Y-101382000D01*
X75539900Y-101382000D01*
X75539900Y-100837923D01*
X75521815Y-100747000D01*
X77418900Y-100747000D01*
X77418900Y-101128000D01*
X78752400Y-101128000D01*
X78752400Y-99578460D01*
X79006400Y-99578460D01*
X79006400Y-101128000D01*
X80339900Y-101128000D01*
X80339900Y-100747000D01*
X80180125Y-100197758D01*
X79822327Y-99751468D01*
X79320977Y-99476073D01*
X79232444Y-99456812D01*
X79006400Y-99578460D01*
X78752400Y-99578460D01*
X78526356Y-99456812D01*
X78437823Y-99476073D01*
X77936473Y-99751468D01*
X77578675Y-100197758D01*
X77418900Y-100747000D01*
X75521815Y-100747000D01*
X75428726Y-100279014D01*
X75112129Y-99805194D01*
X74638309Y-99488597D01*
X74079400Y-99377423D01*
X73520491Y-99488597D01*
X73046671Y-99805194D01*
X72730074Y-100279014D01*
X72618900Y-100837923D01*
X71603517Y-100837923D01*
X71544125Y-100633758D01*
X71186327Y-100187468D01*
X70684977Y-99912073D01*
X70596444Y-99892812D01*
X70370400Y-100014460D01*
X70116400Y-100014460D01*
X69890356Y-99892812D01*
X69801823Y-99912073D01*
X69300473Y-100187468D01*
X68942675Y-100633758D01*
X68782900Y-101183000D01*
X68643500Y-101183000D01*
X68643500Y-92746000D01*
X68782900Y-92746000D01*
X68782900Y-93127000D01*
X68942675Y-93676242D01*
X69300473Y-94122532D01*
X69801823Y-94397927D01*
X69890356Y-94417188D01*
X70116400Y-94295540D01*
X70116400Y-92746000D01*
X70370400Y-92746000D01*
X70370400Y-94295540D01*
X70596444Y-94417188D01*
X70684977Y-94397927D01*
X71186327Y-94122532D01*
X71544125Y-93676242D01*
X71703900Y-93127000D01*
X71703900Y-92746000D01*
X70370400Y-92746000D01*
X70116400Y-92746000D01*
X68782900Y-92746000D01*
X68643500Y-92746000D01*
X68643500Y-92637923D01*
X72618900Y-92637923D01*
X72618900Y-93472077D01*
X72730074Y-94030986D01*
X73046671Y-94504806D01*
X73520491Y-94821403D01*
X74079400Y-94932577D01*
X74638309Y-94821403D01*
X75112129Y-94504806D01*
X75428726Y-94030986D01*
X75539900Y-93472077D01*
X75539900Y-93182000D01*
X77418900Y-93182000D01*
X77418900Y-93563000D01*
X77578675Y-94112242D01*
X77936473Y-94558532D01*
X78437823Y-94833927D01*
X78526356Y-94853188D01*
X78752400Y-94731540D01*
X78752400Y-93182000D01*
X79006400Y-93182000D01*
X79006400Y-94731540D01*
X79232444Y-94853188D01*
X79320977Y-94833927D01*
X79822327Y-94558532D01*
X80180125Y-94112242D01*
X80339900Y-93563000D01*
X80339900Y-93182000D01*
X79006400Y-93182000D01*
X78752400Y-93182000D01*
X77418900Y-93182000D01*
X75539900Y-93182000D01*
X75539900Y-92637923D01*
X75521815Y-92547000D01*
X77418900Y-92547000D01*
X77418900Y-92928000D01*
X78752400Y-92928000D01*
X78752400Y-91378460D01*
X79006400Y-91378460D01*
X79006400Y-92928000D01*
X80339900Y-92928000D01*
X80339900Y-92547000D01*
X80180125Y-91997758D01*
X79822327Y-91551468D01*
X79320977Y-91276073D01*
X79232444Y-91256812D01*
X79006400Y-91378460D01*
X78752400Y-91378460D01*
X78526356Y-91256812D01*
X78437823Y-91276073D01*
X77936473Y-91551468D01*
X77578675Y-91997758D01*
X77418900Y-92547000D01*
X75521815Y-92547000D01*
X75428726Y-92079014D01*
X75112129Y-91605194D01*
X74638309Y-91288597D01*
X74079400Y-91177423D01*
X73520491Y-91288597D01*
X73046671Y-91605194D01*
X72730074Y-92079014D01*
X72618900Y-92637923D01*
X68643500Y-92637923D01*
X68643500Y-92111000D01*
X68782900Y-92111000D01*
X68782900Y-92492000D01*
X70116400Y-92492000D01*
X70116400Y-90942460D01*
X70370400Y-90942460D01*
X70370400Y-92492000D01*
X71703900Y-92492000D01*
X71703900Y-92111000D01*
X71544125Y-91561758D01*
X71186327Y-91115468D01*
X70684977Y-90840073D01*
X70596444Y-90820812D01*
X70370400Y-90942460D01*
X70116400Y-90942460D01*
X69890356Y-90820812D01*
X69801823Y-90840073D01*
X69300473Y-91115468D01*
X68942675Y-91561758D01*
X68782900Y-92111000D01*
X68643500Y-92111000D01*
X68643500Y-88558000D01*
X71790560Y-88558000D01*
X71790560Y-90258000D01*
X71834838Y-90493317D01*
X71973910Y-90709441D01*
X72186110Y-90854431D01*
X72438000Y-90905440D01*
X74438000Y-90905440D01*
X74673317Y-90861162D01*
X74889441Y-90722090D01*
X75034431Y-90509890D01*
X75085440Y-90258000D01*
X75085440Y-88641993D01*
X75169433Y-88558000D01*
X75790560Y-88558000D01*
X75790560Y-90258000D01*
X75834838Y-90493317D01*
X75973910Y-90709441D01*
X76186110Y-90854431D01*
X76438000Y-90905440D01*
X78438000Y-90905440D01*
X78673317Y-90861162D01*
X78889441Y-90722090D01*
X79034431Y-90509890D01*
X79085440Y-90258000D01*
X79085440Y-90233500D01*
X79780858Y-90233500D01*
X79891307Y-90344142D01*
X80297258Y-90512708D01*
X80736814Y-90513091D01*
X81143058Y-90345235D01*
X81454142Y-90034693D01*
X81622708Y-89628742D01*
X81623091Y-89189186D01*
X81455235Y-88782942D01*
X81144693Y-88471858D01*
X80738742Y-88303292D01*
X80299186Y-88302909D01*
X79892942Y-88470765D01*
X79781012Y-88582500D01*
X79085440Y-88582500D01*
X79085440Y-88558000D01*
X79041162Y-88322683D01*
X78902090Y-88106559D01*
X78689890Y-87961569D01*
X78438000Y-87910560D01*
X76438000Y-87910560D01*
X76202683Y-87954838D01*
X75986559Y-88093910D01*
X75841569Y-88306110D01*
X75790560Y-88558000D01*
X75169433Y-88558000D01*
X75640714Y-88086719D01*
X75640717Y-88086717D01*
X75819663Y-87818905D01*
X75831178Y-87761014D01*
X75882501Y-87503000D01*
X75882500Y-87502995D01*
X75882500Y-87152983D01*
X75981943Y-87111894D01*
X76216715Y-86877532D01*
X78584073Y-86877532D01*
X78682736Y-87144387D01*
X79292461Y-87370908D01*
X79942460Y-87346856D01*
X80431264Y-87144387D01*
X80529927Y-86877532D01*
X79557000Y-85904605D01*
X78584073Y-86877532D01*
X76216715Y-86877532D01*
X76442278Y-86652363D01*
X76691716Y-86051648D01*
X76692232Y-85460461D01*
X77911092Y-85460461D01*
X77935144Y-86110460D01*
X78137613Y-86599264D01*
X78404468Y-86697927D01*
X79377395Y-85725000D01*
X79736605Y-85725000D01*
X80709532Y-86697927D01*
X80976387Y-86599264D01*
X81202908Y-85989539D01*
X81178856Y-85339540D01*
X80976387Y-84850736D01*
X80709532Y-84752073D01*
X79736605Y-85725000D01*
X79377395Y-85725000D01*
X78404468Y-84752073D01*
X78137613Y-84850736D01*
X77911092Y-85460461D01*
X76692232Y-85460461D01*
X76692284Y-85401205D01*
X76443894Y-84800057D01*
X76216703Y-84572468D01*
X78584073Y-84572468D01*
X79557000Y-85545395D01*
X80529927Y-84572468D01*
X80431264Y-84305613D01*
X79821539Y-84079092D01*
X79171540Y-84103144D01*
X78682736Y-84305613D01*
X78584073Y-84572468D01*
X76216703Y-84572468D01*
X75984363Y-84339722D01*
X75383648Y-84090284D01*
X74733205Y-84089716D01*
X74132057Y-84338106D01*
X73671722Y-84797637D01*
X73422284Y-85398352D01*
X73421716Y-86048795D01*
X73670106Y-86649943D01*
X74129637Y-87110278D01*
X74231500Y-87152575D01*
X74231500Y-87161067D01*
X73482006Y-87910560D01*
X72438000Y-87910560D01*
X72202683Y-87954838D01*
X71986559Y-88093910D01*
X71841569Y-88306110D01*
X71790560Y-88558000D01*
X68643500Y-88558000D01*
X68643500Y-84546000D01*
X68782900Y-84546000D01*
X68782900Y-84927000D01*
X68942675Y-85476242D01*
X69300473Y-85922532D01*
X69801823Y-86197927D01*
X69890356Y-86217188D01*
X70116400Y-86095540D01*
X70116400Y-84546000D01*
X70370400Y-84546000D01*
X70370400Y-86095540D01*
X70596444Y-86217188D01*
X70684977Y-86197927D01*
X71186327Y-85922532D01*
X71544125Y-85476242D01*
X71703900Y-84927000D01*
X71703900Y-84546000D01*
X70370400Y-84546000D01*
X70116400Y-84546000D01*
X68782900Y-84546000D01*
X68643500Y-84546000D01*
X68643500Y-83911000D01*
X68782900Y-83911000D01*
X68782900Y-84292000D01*
X70116400Y-84292000D01*
X70116400Y-82742460D01*
X70370400Y-82742460D01*
X70370400Y-84292000D01*
X71703900Y-84292000D01*
X71703900Y-83911000D01*
X71544125Y-83361758D01*
X71186327Y-82915468D01*
X70684977Y-82640073D01*
X70596444Y-82620812D01*
X70370400Y-82742460D01*
X70116400Y-82742460D01*
X69890356Y-82620812D01*
X69801823Y-82640073D01*
X69300473Y-82915468D01*
X68942675Y-83361758D01*
X68782900Y-83911000D01*
X68643500Y-83911000D01*
X68643500Y-76263500D01*
X71150826Y-76263500D01*
X71151126Y-76264226D01*
X71561613Y-76675430D01*
X71628000Y-76702996D01*
X71628000Y-78486000D01*
X71686004Y-78777605D01*
X71727388Y-78839540D01*
X71851185Y-79024815D01*
X72590185Y-79763815D01*
X72837395Y-79928996D01*
X73129000Y-79987000D01*
X73602779Y-79987000D01*
X73670106Y-80149943D01*
X74129637Y-80610278D01*
X74730352Y-80859716D01*
X75380795Y-80860284D01*
X75981943Y-80611894D01*
X76216715Y-80377532D01*
X78584073Y-80377532D01*
X78682736Y-80644387D01*
X79292461Y-80870908D01*
X79942460Y-80846856D01*
X80431264Y-80644387D01*
X80529927Y-80377532D01*
X79557000Y-79404605D01*
X78584073Y-80377532D01*
X76216715Y-80377532D01*
X76442278Y-80152363D01*
X76691716Y-79551648D01*
X76692232Y-78960461D01*
X77911092Y-78960461D01*
X77935144Y-79610460D01*
X78137613Y-80099264D01*
X78404468Y-80197927D01*
X79377395Y-79225000D01*
X79736605Y-79225000D01*
X80709532Y-80197927D01*
X80976387Y-80099264D01*
X81202908Y-79489539D01*
X81178856Y-78839540D01*
X80976387Y-78350736D01*
X80709532Y-78252073D01*
X79736605Y-79225000D01*
X79377395Y-79225000D01*
X78404468Y-78252073D01*
X78137613Y-78350736D01*
X77911092Y-78960461D01*
X76692232Y-78960461D01*
X76692284Y-78901205D01*
X76443894Y-78300057D01*
X76216703Y-78072468D01*
X78584073Y-78072468D01*
X79557000Y-79045395D01*
X80529927Y-78072468D01*
X80431264Y-77805613D01*
X79821539Y-77579092D01*
X79171540Y-77603144D01*
X78682736Y-77805613D01*
X78584073Y-78072468D01*
X76216703Y-78072468D01*
X75984363Y-77839722D01*
X75383648Y-77590284D01*
X74733205Y-77589716D01*
X74132057Y-77838106D01*
X73671722Y-78297637D01*
X73603057Y-78463000D01*
X73444630Y-78463000D01*
X73152000Y-78170370D01*
X73152000Y-76703412D01*
X73216226Y-76676874D01*
X73429256Y-76464215D01*
X74083390Y-76464215D01*
X74160656Y-76712976D01*
X74707131Y-76910340D01*
X75287535Y-76883553D01*
X75699344Y-76712976D01*
X75776610Y-76464215D01*
X74930000Y-75617605D01*
X74083390Y-76464215D01*
X73429256Y-76464215D01*
X73627430Y-76266387D01*
X73653487Y-76203634D01*
X73655024Y-76207344D01*
X73903785Y-76284610D01*
X74750395Y-75438000D01*
X74930000Y-75438000D01*
X75109605Y-75438000D01*
X75956215Y-76284610D01*
X76204976Y-76207344D01*
X76402340Y-75660869D01*
X76375553Y-75080465D01*
X76204976Y-74668656D01*
X75956215Y-74591390D01*
X75109605Y-75438000D01*
X74930000Y-75438000D01*
X74976159Y-75429315D01*
X75018553Y-75402035D01*
X75046994Y-75360410D01*
X75057000Y-75311000D01*
X75057000Y-75131395D01*
X75776610Y-74411785D01*
X75699344Y-74163024D01*
X75695926Y-74161789D01*
X75756226Y-74136874D01*
X76167430Y-73726387D01*
X76390246Y-73189786D01*
X76390753Y-72608763D01*
X76363303Y-72542328D01*
X77119816Y-71785815D01*
X77284997Y-71538604D01*
X77343000Y-71247000D01*
X77343000Y-69469000D01*
X77284996Y-69177395D01*
X77212174Y-69068410D01*
X77119816Y-68930185D01*
X76484815Y-68295185D01*
X76484814Y-68295184D01*
X76237605Y-68130004D01*
X75946000Y-68072000D01*
X71374000Y-68072000D01*
X71082395Y-68130004D01*
X71071783Y-68137095D01*
X70835185Y-68295184D01*
X70200185Y-68930185D01*
X70035004Y-69177395D01*
X69977000Y-69469000D01*
X69977000Y-70677369D01*
X67883370Y-72771000D01*
X60071000Y-72771000D01*
X60071000Y-72331659D01*
X60323698Y-72162811D01*
X60579000Y-71780725D01*
X60834302Y-72162811D01*
X61299849Y-72473880D01*
X61849000Y-72583113D01*
X62398151Y-72473880D01*
X62863698Y-72162811D01*
X63119000Y-71780725D01*
X63374302Y-72162811D01*
X63839849Y-72473880D01*
X64389000Y-72583113D01*
X64938151Y-72473880D01*
X65403698Y-72162811D01*
X65714767Y-71697264D01*
X65824000Y-71148113D01*
X65824000Y-71091887D01*
X65714767Y-70542736D01*
X65403698Y-70077189D01*
X65223999Y-69957118D01*
X65223999Y-54320867D01*
X65478052Y-54066814D01*
X73570909Y-54066814D01*
X73738765Y-54473058D01*
X74049307Y-54784142D01*
X74455258Y-54952708D01*
X74894814Y-54953091D01*
X75301058Y-54785235D01*
X75435528Y-54650999D01*
X76099560Y-54650999D01*
X76099560Y-54816000D01*
X76143838Y-55051317D01*
X76282910Y-55267441D01*
X76495110Y-55412431D01*
X76747000Y-55463440D01*
X78447000Y-55463440D01*
X78682317Y-55419162D01*
X78898441Y-55280090D01*
X79043431Y-55067890D01*
X79094440Y-54816000D01*
X79094440Y-52816000D01*
X79050162Y-52580683D01*
X78911090Y-52364559D01*
X78698890Y-52219569D01*
X78447000Y-52168560D01*
X76747000Y-52168560D01*
X76511683Y-52212838D01*
X76295559Y-52351910D01*
X76150569Y-52564110D01*
X76099560Y-52816000D01*
X76099560Y-52981001D01*
X75371716Y-52981001D01*
X75302693Y-52911858D01*
X74896742Y-52743292D01*
X74457186Y-52742909D01*
X74050942Y-52910765D01*
X73739858Y-53221307D01*
X73571292Y-53627258D01*
X73570909Y-54066814D01*
X65478052Y-54066814D01*
X65861900Y-53682966D01*
X66004814Y-53683091D01*
X66411058Y-53515235D01*
X66722142Y-53204693D01*
X66890708Y-52798742D01*
X66891091Y-52359186D01*
X66723235Y-51952942D01*
X66412693Y-51641858D01*
X66006742Y-51473292D01*
X65567186Y-51472909D01*
X65160942Y-51640765D01*
X64849858Y-51951307D01*
X64681292Y-52357258D01*
X64681166Y-52501967D01*
X63798567Y-53384567D01*
X63617562Y-53655460D01*
X63554001Y-53975000D01*
X63554001Y-69957118D01*
X63374302Y-70077189D01*
X63119000Y-70459275D01*
X62863698Y-70077189D01*
X62683999Y-69957118D01*
X62683999Y-69723000D01*
X62620438Y-69403460D01*
X62549426Y-69297183D01*
X62439433Y-69132566D01*
X60524999Y-67218133D01*
X60524999Y-49241660D01*
X60626142Y-49140693D01*
X60794708Y-48734742D01*
X60795091Y-48295186D01*
X60627235Y-47888942D01*
X60328629Y-47589814D01*
X75094909Y-47589814D01*
X75262765Y-47996058D01*
X75573307Y-48307142D01*
X75979258Y-48475708D01*
X76210834Y-48475910D01*
X76150569Y-48564110D01*
X76099560Y-48816000D01*
X76099560Y-50816000D01*
X76143838Y-51051317D01*
X76282910Y-51267441D01*
X76495110Y-51412431D01*
X76747000Y-51463440D01*
X78447000Y-51463440D01*
X78682317Y-51419162D01*
X78898441Y-51280090D01*
X79043431Y-51067890D01*
X79094440Y-50816000D01*
X79094440Y-48816000D01*
X79050162Y-48580683D01*
X78911090Y-48364559D01*
X78698890Y-48219569D01*
X78447000Y-48168560D01*
X78422500Y-48168560D01*
X78422500Y-46810693D01*
X78568817Y-46783162D01*
X78784941Y-46644090D01*
X78929931Y-46431890D01*
X78980940Y-46180000D01*
X78980940Y-44180000D01*
X78936662Y-43944683D01*
X78797590Y-43728559D01*
X78585390Y-43583569D01*
X78333500Y-43532560D01*
X76733500Y-43532560D01*
X76498183Y-43576838D01*
X76282059Y-43715910D01*
X76137069Y-43928110D01*
X76086060Y-44180000D01*
X76086060Y-46180000D01*
X76102245Y-46266014D01*
X75981186Y-46265909D01*
X75574942Y-46433765D01*
X75263858Y-46744307D01*
X75095292Y-47150258D01*
X75094909Y-47589814D01*
X60328629Y-47589814D01*
X60316693Y-47577858D01*
X59910742Y-47409292D01*
X59471186Y-47408909D01*
X59064942Y-47576765D01*
X58753858Y-47887307D01*
X58585292Y-48293258D01*
X58584909Y-48732814D01*
X58752765Y-49139058D01*
X58855001Y-49241472D01*
X58855001Y-67564000D01*
X58890464Y-67742283D01*
X58918562Y-67883540D01*
X59099567Y-68154433D01*
X60947012Y-70001879D01*
X60834302Y-70077189D01*
X60579000Y-70459275D01*
X60323698Y-70077189D01*
X59858151Y-69766120D01*
X59309000Y-69656887D01*
X58759849Y-69766120D01*
X58294302Y-70077189D01*
X58039000Y-70459275D01*
X57783698Y-70077189D01*
X57318151Y-69766120D01*
X56769000Y-69656887D01*
X56219849Y-69766120D01*
X55754302Y-70077189D01*
X55499000Y-70459275D01*
X55243698Y-70077189D01*
X55054500Y-69950771D01*
X55054500Y-68794934D01*
X55225217Y-68624217D01*
X55404163Y-68356406D01*
X55467000Y-68040500D01*
X55467000Y-67156440D01*
X55705000Y-67156440D01*
X55940317Y-67112162D01*
X56156441Y-66973090D01*
X56301431Y-66760890D01*
X56352440Y-66509000D01*
X56352440Y-64809000D01*
X56308162Y-64573683D01*
X56169090Y-64357559D01*
X56058683Y-64282121D01*
X56128198Y-64253327D01*
X56306827Y-64074699D01*
X56403500Y-63841310D01*
X56403500Y-63150750D01*
X56244750Y-62992000D01*
X54895500Y-62992000D01*
X54895500Y-63012000D01*
X54641500Y-63012000D01*
X54641500Y-62992000D01*
X53292250Y-62992000D01*
X53133500Y-63150750D01*
X53133500Y-63841310D01*
X53230173Y-64074699D01*
X53403744Y-64248269D01*
X53253559Y-64344910D01*
X53108569Y-64557110D01*
X53057560Y-64809000D01*
X53057560Y-66509000D01*
X53101838Y-66744317D01*
X53240910Y-66960441D01*
X53453110Y-67105431D01*
X53705000Y-67156440D01*
X53816000Y-67156440D01*
X53816000Y-67698566D01*
X53645283Y-67869283D01*
X53466337Y-68137094D01*
X53434891Y-68295184D01*
X53403500Y-68453000D01*
X53403500Y-69950771D01*
X53214302Y-70077189D01*
X52959000Y-70459275D01*
X52703698Y-70077189D01*
X52238151Y-69766120D01*
X51689000Y-69656887D01*
X51139849Y-69766120D01*
X50674302Y-70077189D01*
X50419000Y-70459275D01*
X50163698Y-70077189D01*
X50042021Y-69995887D01*
X49867421Y-69734580D01*
X47929440Y-67796600D01*
X47929440Y-66786000D01*
X47885162Y-66550683D01*
X47746090Y-66334559D01*
X47533890Y-66189569D01*
X47282000Y-66138560D01*
X45682000Y-66138560D01*
X45446683Y-66182838D01*
X45230559Y-66321910D01*
X45085569Y-66534110D01*
X45034560Y-66786000D01*
X45034560Y-68786000D01*
X45078838Y-69021317D01*
X45217910Y-69237441D01*
X45430110Y-69382431D01*
X45682000Y-69433440D01*
X46692600Y-69433440D01*
X47007912Y-69748753D01*
X46958039Y-69728096D01*
X46736000Y-69850085D01*
X46736000Y-70993000D01*
X46756000Y-70993000D01*
X46756000Y-71247000D01*
X46736000Y-71247000D01*
X46736000Y-72389915D01*
X46958039Y-72511904D01*
X47346423Y-72351041D01*
X47761389Y-71975134D01*
X47864014Y-71758297D01*
X48134302Y-72162811D01*
X48599849Y-72473880D01*
X49149000Y-72583113D01*
X49698151Y-72473880D01*
X50163698Y-72162811D01*
X50419000Y-71780725D01*
X50674302Y-72162811D01*
X51139849Y-72473880D01*
X51689000Y-72583113D01*
X52238151Y-72473880D01*
X52703698Y-72162811D01*
X52959000Y-71780725D01*
X53214302Y-72162811D01*
X53467000Y-72331659D01*
X53467000Y-72771000D01*
X53525004Y-73062605D01*
X53644468Y-73241395D01*
X53690185Y-73309815D01*
X54992870Y-74612500D01*
X33020005Y-74612500D01*
X33020000Y-74612499D01*
X32704095Y-74675337D01*
X32436283Y-74854283D01*
X32436281Y-74854286D01*
X30785283Y-76505283D01*
X30606337Y-76773094D01*
X30606337Y-76773095D01*
X30543500Y-77089000D01*
X30543500Y-77297358D01*
X30333683Y-77336838D01*
X30117559Y-77475910D01*
X29972569Y-77688110D01*
X29921560Y-77940000D01*
X29921560Y-79540000D01*
X29965838Y-79775317D01*
X30104910Y-79991441D01*
X30317110Y-80136431D01*
X30569000Y-80187440D01*
X32169000Y-80187440D01*
X32404317Y-80143162D01*
X32620441Y-80004090D01*
X32765431Y-79791890D01*
X32796815Y-79636911D01*
X32894302Y-79782811D01*
X33083500Y-79909229D01*
X33083500Y-81319066D01*
X30404283Y-83998283D01*
X30225337Y-84266094D01*
X30187894Y-84454337D01*
X30162500Y-84582000D01*
X30162500Y-87419286D01*
X30013527Y-87233468D01*
X29512177Y-86958073D01*
X29423644Y-86938812D01*
X29197600Y-87060460D01*
X28943600Y-87060460D01*
X28717556Y-86938812D01*
X28629023Y-86958073D01*
X28127673Y-87233468D01*
X27769875Y-87679758D01*
X27610100Y-88229000D01*
X26085000Y-88229000D01*
X26085000Y-68615237D01*
X28765247Y-68615237D01*
X28987126Y-69152226D01*
X29397613Y-69563430D01*
X29400500Y-69564629D01*
X29400500Y-69977000D01*
X29463337Y-70292906D01*
X29642283Y-70560717D01*
X29973728Y-70892162D01*
X29934000Y-71091887D01*
X29934000Y-71148113D01*
X30043233Y-71697264D01*
X30354302Y-72162811D01*
X30819849Y-72473880D01*
X31369000Y-72583113D01*
X31918151Y-72473880D01*
X32383698Y-72162811D01*
X32639000Y-71780725D01*
X32894302Y-72162811D01*
X33359849Y-72473880D01*
X33909000Y-72583113D01*
X34458151Y-72473880D01*
X34923698Y-72162811D01*
X35179000Y-71780725D01*
X35434302Y-72162811D01*
X35899849Y-72473880D01*
X36449000Y-72583113D01*
X36998151Y-72473880D01*
X37463698Y-72162811D01*
X37719000Y-71780725D01*
X37974302Y-72162811D01*
X38439849Y-72473880D01*
X38989000Y-72583113D01*
X39538151Y-72473880D01*
X40003698Y-72162811D01*
X40259000Y-71780725D01*
X40514302Y-72162811D01*
X40979849Y-72473880D01*
X41529000Y-72583113D01*
X42078151Y-72473880D01*
X42543698Y-72162811D01*
X42799000Y-71780725D01*
X43054302Y-72162811D01*
X43519849Y-72473880D01*
X44069000Y-72583113D01*
X44618151Y-72473880D01*
X45083698Y-72162811D01*
X45353986Y-71758297D01*
X45456611Y-71975134D01*
X45871577Y-72351041D01*
X46259961Y-72511904D01*
X46482000Y-72389915D01*
X46482000Y-71247000D01*
X46462000Y-71247000D01*
X46462000Y-70993000D01*
X46482000Y-70993000D01*
X46482000Y-69850085D01*
X46259961Y-69728096D01*
X45871577Y-69888959D01*
X45456611Y-70264866D01*
X45353986Y-70481703D01*
X45083698Y-70077189D01*
X44618151Y-69766120D01*
X44069000Y-69656887D01*
X43822377Y-69705943D01*
X43751500Y-69635066D01*
X43751500Y-69565174D01*
X43752226Y-69564874D01*
X44163430Y-69154387D01*
X44386246Y-68617786D01*
X44386753Y-68036763D01*
X44164874Y-67499774D01*
X43754387Y-67088570D01*
X43217786Y-66865754D01*
X42636763Y-66865247D01*
X42099774Y-67087126D01*
X41688570Y-67497613D01*
X41656196Y-67575579D01*
X41624874Y-67499774D01*
X41214387Y-67088570D01*
X40677786Y-66865754D01*
X40096763Y-66865247D01*
X39559774Y-67087126D01*
X39148570Y-67497613D01*
X39116196Y-67575579D01*
X39084874Y-67499774D01*
X38674387Y-67088570D01*
X38137786Y-66865754D01*
X37556763Y-66865247D01*
X37019774Y-67087126D01*
X36608570Y-67497613D01*
X36576196Y-67575579D01*
X36544874Y-67499774D01*
X36134387Y-67088570D01*
X35597786Y-66865754D01*
X35016763Y-66865247D01*
X34479774Y-67087126D01*
X34068570Y-67497613D01*
X34036196Y-67575579D01*
X34004874Y-67499774D01*
X33594387Y-67088570D01*
X33057786Y-66865754D01*
X32476763Y-66865247D01*
X31939774Y-67087126D01*
X31528570Y-67497613D01*
X31496196Y-67575579D01*
X31464874Y-67499774D01*
X31054387Y-67088570D01*
X30517786Y-66865754D01*
X29936763Y-66865247D01*
X29399774Y-67087126D01*
X28988570Y-67497613D01*
X28765754Y-68034214D01*
X28765247Y-68615237D01*
X26085000Y-68615237D01*
X26085000Y-64071750D01*
X45047000Y-64071750D01*
X45047000Y-64912309D01*
X45143673Y-65145698D01*
X45322301Y-65324327D01*
X45555690Y-65421000D01*
X46196250Y-65421000D01*
X46355000Y-65262250D01*
X46355000Y-63913000D01*
X46609000Y-63913000D01*
X46609000Y-65262250D01*
X46767750Y-65421000D01*
X47408310Y-65421000D01*
X47641699Y-65324327D01*
X47820327Y-65145698D01*
X47917000Y-64912309D01*
X47917000Y-64809000D01*
X49057560Y-64809000D01*
X49057560Y-66509000D01*
X49101838Y-66744317D01*
X49240910Y-66960441D01*
X49453110Y-67105431D01*
X49705000Y-67156440D01*
X51705000Y-67156440D01*
X51940317Y-67112162D01*
X52156441Y-66973090D01*
X52301431Y-66760890D01*
X52352440Y-66509000D01*
X52352440Y-64809000D01*
X52308162Y-64573683D01*
X52169090Y-64357559D01*
X52059237Y-64282500D01*
X52219941Y-64179090D01*
X52364931Y-63966890D01*
X52415940Y-63715000D01*
X52415940Y-62015000D01*
X52392174Y-61888690D01*
X53133500Y-61888690D01*
X53133500Y-62579250D01*
X53292250Y-62738000D01*
X54641500Y-62738000D01*
X54641500Y-61538750D01*
X54895500Y-61538750D01*
X54895500Y-62738000D01*
X56244750Y-62738000D01*
X56403500Y-62579250D01*
X56403500Y-61888690D01*
X56306827Y-61655301D01*
X56128198Y-61476673D01*
X55894809Y-61380000D01*
X55054250Y-61380000D01*
X54895500Y-61538750D01*
X54641500Y-61538750D01*
X54482750Y-61380000D01*
X53642191Y-61380000D01*
X53408802Y-61476673D01*
X53230173Y-61655301D01*
X53133500Y-61888690D01*
X52392174Y-61888690D01*
X52371662Y-61779683D01*
X52232590Y-61563559D01*
X52020390Y-61418569D01*
X51768500Y-61367560D01*
X49768500Y-61367560D01*
X49533183Y-61411838D01*
X49317059Y-61550910D01*
X49172069Y-61763110D01*
X49121060Y-62015000D01*
X49121060Y-63715000D01*
X49165338Y-63950317D01*
X49304410Y-64166441D01*
X49414263Y-64241500D01*
X49253559Y-64344910D01*
X49108569Y-64557110D01*
X49057560Y-64809000D01*
X47917000Y-64809000D01*
X47917000Y-64071750D01*
X47758250Y-63913000D01*
X46609000Y-63913000D01*
X46355000Y-63913000D01*
X45205750Y-63913000D01*
X45047000Y-64071750D01*
X26085000Y-64071750D01*
X26085000Y-63881000D01*
X34798000Y-63881000D01*
X34844159Y-63872315D01*
X34886553Y-63845035D01*
X34914994Y-63803410D01*
X34925000Y-63754000D01*
X34925000Y-62659691D01*
X45047000Y-62659691D01*
X45047000Y-63500250D01*
X45205750Y-63659000D01*
X46355000Y-63659000D01*
X46355000Y-62309750D01*
X46609000Y-62309750D01*
X46609000Y-63659000D01*
X47758250Y-63659000D01*
X47917000Y-63500250D01*
X47917000Y-62659691D01*
X47820327Y-62426302D01*
X47641699Y-62247673D01*
X47408310Y-62151000D01*
X46767750Y-62151000D01*
X46609000Y-62309750D01*
X46355000Y-62309750D01*
X46196250Y-62151000D01*
X45555690Y-62151000D01*
X45322301Y-62247673D01*
X45143673Y-62426302D01*
X45047000Y-62659691D01*
X34925000Y-62659691D01*
X34925000Y-60944000D01*
X35195000Y-60944000D01*
X35519561Y-60879441D01*
X35583807Y-60866662D01*
X35913420Y-60646420D01*
X37453421Y-59106420D01*
X37673662Y-58776807D01*
X37717919Y-58554309D01*
X37751000Y-58388000D01*
X37751000Y-50646440D01*
X37985000Y-50646440D01*
X38220317Y-50602162D01*
X38436441Y-50463090D01*
X38581431Y-50250890D01*
X38632440Y-49999000D01*
X38632440Y-48299000D01*
X38588162Y-48063683D01*
X38449090Y-47847559D01*
X38312621Y-47754313D01*
X38620217Y-47446717D01*
X38799163Y-47178906D01*
X38860808Y-46868998D01*
X38892685Y-46863000D01*
X39853879Y-46863000D01*
X39940000Y-46880440D01*
X40501008Y-46880440D01*
X40720000Y-46924000D01*
X42037000Y-46924000D01*
X42037000Y-47458159D01*
X41843599Y-47651560D01*
X39485000Y-47651560D01*
X39249683Y-47695838D01*
X39033559Y-47834910D01*
X38888569Y-48047110D01*
X38837560Y-48299000D01*
X38837560Y-49999000D01*
X38881838Y-50234317D01*
X39020910Y-50450441D01*
X39233110Y-50595431D01*
X39485000Y-50646440D01*
X41985000Y-50646440D01*
X42220317Y-50602162D01*
X42436441Y-50463090D01*
X42581431Y-50250890D01*
X42632440Y-49999000D01*
X42632440Y-49736400D01*
X43771420Y-48597421D01*
X43991661Y-48267807D01*
X43991662Y-48267806D01*
X44069000Y-47879000D01*
X44069000Y-39677431D01*
X44147765Y-39868058D01*
X44458307Y-40179142D01*
X44864258Y-40347708D01*
X45303814Y-40348091D01*
X45593000Y-40228602D01*
X45593000Y-43180000D01*
X45601685Y-43226159D01*
X45628965Y-43268553D01*
X45670590Y-43296994D01*
X45720000Y-43307000D01*
X45976500Y-43307000D01*
X45976500Y-44018560D01*
X45768000Y-44018560D01*
X45532683Y-44062838D01*
X45316559Y-44201910D01*
X45171569Y-44414110D01*
X45120560Y-44666000D01*
X45120560Y-46266000D01*
X45164838Y-46501317D01*
X45303910Y-46717441D01*
X45516110Y-46862431D01*
X45768000Y-46913440D01*
X47768000Y-46913440D01*
X48003317Y-46869162D01*
X48219441Y-46730090D01*
X48364431Y-46517890D01*
X48415440Y-46266000D01*
X48415440Y-45751750D01*
X49133000Y-45751750D01*
X49133000Y-46392310D01*
X49229673Y-46625699D01*
X49408302Y-46804327D01*
X49641691Y-46901000D01*
X50482250Y-46901000D01*
X50641000Y-46742250D01*
X50641000Y-45593000D01*
X50895000Y-45593000D01*
X50895000Y-46742250D01*
X51053750Y-46901000D01*
X51894309Y-46901000D01*
X52127698Y-46804327D01*
X52306327Y-46625699D01*
X52403000Y-46392310D01*
X52403000Y-45751750D01*
X52244250Y-45593000D01*
X50895000Y-45593000D01*
X50641000Y-45593000D01*
X49291750Y-45593000D01*
X49133000Y-45751750D01*
X48415440Y-45751750D01*
X48415440Y-44666000D01*
X48391674Y-44539690D01*
X49133000Y-44539690D01*
X49133000Y-45180250D01*
X49291750Y-45339000D01*
X50641000Y-45339000D01*
X50641000Y-44189750D01*
X50895000Y-44189750D01*
X50895000Y-45339000D01*
X52244250Y-45339000D01*
X52403000Y-45180250D01*
X52403000Y-44539690D01*
X52306327Y-44306301D01*
X52127698Y-44127673D01*
X51894309Y-44031000D01*
X51053750Y-44031000D01*
X50895000Y-44189750D01*
X50641000Y-44189750D01*
X50482250Y-44031000D01*
X49641691Y-44031000D01*
X49408302Y-44127673D01*
X49229673Y-44306301D01*
X49133000Y-44539690D01*
X48391674Y-44539690D01*
X48371162Y-44430683D01*
X48232090Y-44214559D01*
X48019890Y-44069569D01*
X47768000Y-44018560D01*
X47627500Y-44018560D01*
X47627500Y-43307000D01*
X49784000Y-43307000D01*
X49830159Y-43298315D01*
X49872553Y-43271035D01*
X49900994Y-43229410D01*
X49911000Y-43180000D01*
X49911000Y-42752000D01*
X51270967Y-42752000D01*
X51288338Y-42844317D01*
X51427410Y-43060441D01*
X51639610Y-43205431D01*
X51891500Y-43256440D01*
X53391500Y-43256440D01*
X53626817Y-43212162D01*
X53842941Y-43073090D01*
X53987931Y-42860890D01*
X54030637Y-42650000D01*
X54630644Y-42650000D01*
X54897258Y-42760708D01*
X55336814Y-42761091D01*
X55743058Y-42593235D01*
X56054142Y-42282693D01*
X56222708Y-41876742D01*
X56223066Y-41465750D01*
X76098500Y-41465750D01*
X76098500Y-42306309D01*
X76195173Y-42539698D01*
X76373801Y-42718327D01*
X76607190Y-42815000D01*
X77247750Y-42815000D01*
X77406500Y-42656250D01*
X77406500Y-41307000D01*
X77660500Y-41307000D01*
X77660500Y-42656250D01*
X77819250Y-42815000D01*
X78459810Y-42815000D01*
X78693199Y-42718327D01*
X78871827Y-42539698D01*
X78968500Y-42306309D01*
X78968500Y-41465750D01*
X78809750Y-41307000D01*
X77660500Y-41307000D01*
X77406500Y-41307000D01*
X76257250Y-41307000D01*
X76098500Y-41465750D01*
X56223066Y-41465750D01*
X56223091Y-41437186D01*
X56055235Y-41030942D01*
X55744693Y-40719858D01*
X55338742Y-40551292D01*
X54899186Y-40550909D01*
X54736813Y-40618000D01*
X54031225Y-40618000D01*
X53994662Y-40423683D01*
X53889018Y-40259507D01*
X53929827Y-40218698D01*
X53998175Y-40053691D01*
X76098500Y-40053691D01*
X76098500Y-40894250D01*
X76257250Y-41053000D01*
X77406500Y-41053000D01*
X77406500Y-39703750D01*
X77660500Y-39703750D01*
X77660500Y-41053000D01*
X78809750Y-41053000D01*
X78968500Y-40894250D01*
X78968500Y-40053691D01*
X78871827Y-39820302D01*
X78693199Y-39641673D01*
X78459810Y-39545000D01*
X77819250Y-39545000D01*
X77660500Y-39703750D01*
X77406500Y-39703750D01*
X77247750Y-39545000D01*
X76607190Y-39545000D01*
X76373801Y-39641673D01*
X76195173Y-39820302D01*
X76098500Y-40053691D01*
X53998175Y-40053691D01*
X54026500Y-39985309D01*
X54026500Y-39169750D01*
X53867750Y-39011000D01*
X52768500Y-39011000D01*
X52768500Y-39031000D01*
X52514500Y-39031000D01*
X52514500Y-39011000D01*
X51415250Y-39011000D01*
X51256500Y-39169750D01*
X51256500Y-39985309D01*
X51353173Y-40218698D01*
X51395134Y-40260660D01*
X51295069Y-40407110D01*
X51244060Y-40659000D01*
X51244060Y-40720000D01*
X49911000Y-40720000D01*
X49911000Y-39524199D01*
X49938972Y-39500906D01*
X49947749Y-39484198D01*
X49961800Y-39471600D01*
X50342800Y-38963600D01*
X50397886Y-38848730D01*
X50468662Y-38742806D01*
X50482824Y-38671607D01*
X50514213Y-38606152D01*
X50521146Y-38478949D01*
X50546000Y-38354000D01*
X50546000Y-37782691D01*
X51256500Y-37782691D01*
X51256500Y-38598250D01*
X51415250Y-38757000D01*
X52514500Y-38757000D01*
X52514500Y-37432750D01*
X52768500Y-37432750D01*
X52768500Y-38757000D01*
X53867750Y-38757000D01*
X54026500Y-38598250D01*
X54026500Y-37782691D01*
X53929827Y-37549302D01*
X53751199Y-37370673D01*
X53517810Y-37274000D01*
X52927250Y-37274000D01*
X52768500Y-37432750D01*
X52514500Y-37432750D01*
X52355750Y-37274000D01*
X51765190Y-37274000D01*
X51531801Y-37370673D01*
X51353173Y-37549302D01*
X51256500Y-37782691D01*
X50546000Y-37782691D01*
X50546000Y-34798000D01*
X50768000Y-34798000D01*
X51092300Y-34733493D01*
X51156807Y-34720662D01*
X51486420Y-34500420D01*
X53374401Y-32612440D01*
X54435000Y-32612440D01*
X54670317Y-32568162D01*
X54886441Y-32429090D01*
X55031431Y-32216890D01*
X55082440Y-31965000D01*
X55082440Y-31273750D01*
X58976000Y-31273750D01*
X58976000Y-31964310D01*
X59072673Y-32197699D01*
X59251302Y-32376327D01*
X59484691Y-32473000D01*
X60325250Y-32473000D01*
X60484000Y-32314250D01*
X60484000Y-31115000D01*
X60738000Y-31115000D01*
X60738000Y-32314250D01*
X60896750Y-32473000D01*
X61737309Y-32473000D01*
X61970698Y-32376327D01*
X62149327Y-32197699D01*
X62246000Y-31964310D01*
X62246000Y-31273750D01*
X62087250Y-31115000D01*
X60738000Y-31115000D01*
X60484000Y-31115000D01*
X59134750Y-31115000D01*
X58976000Y-31273750D01*
X55082440Y-31273750D01*
X55082440Y-30265000D01*
X55038162Y-30029683D01*
X55026584Y-30011690D01*
X58976000Y-30011690D01*
X58976000Y-30702250D01*
X59134750Y-30861000D01*
X60484000Y-30861000D01*
X60484000Y-29661750D01*
X60738000Y-29661750D01*
X60738000Y-30861000D01*
X62087250Y-30861000D01*
X62246000Y-30702250D01*
X62246000Y-30011690D01*
X62149327Y-29778301D01*
X61970698Y-29599673D01*
X61737309Y-29503000D01*
X60896750Y-29503000D01*
X60738000Y-29661750D01*
X60484000Y-29661750D01*
X60325250Y-29503000D01*
X59484691Y-29503000D01*
X59251302Y-29599673D01*
X59072673Y-29778301D01*
X58976000Y-30011690D01*
X55026584Y-30011690D01*
X54899090Y-29813559D01*
X54686890Y-29668569D01*
X54435000Y-29617560D01*
X53679399Y-29617560D01*
X53809708Y-29303742D01*
X53809767Y-29235469D01*
X54063618Y-28981618D01*
X54127842Y-28885500D01*
X54256329Y-28693206D01*
X54297756Y-28484940D01*
X54435000Y-28484940D01*
X54670317Y-28440662D01*
X54886441Y-28301590D01*
X55031431Y-28089390D01*
X55082440Y-27837500D01*
X55082440Y-26137500D01*
X55072561Y-26085000D01*
X58974192Y-26085000D01*
X58971458Y-26098500D01*
X58971458Y-26098500D01*
G37*
X58971458Y-26098500D02*
X57594500Y-26098500D01*
X57254294Y-26166171D01*
X57114504Y-26259576D01*
X56965882Y-26358882D01*
X56743797Y-26580967D01*
X56677186Y-26580909D01*
X56270942Y-26748765D01*
X55959858Y-27059307D01*
X55791292Y-27465258D01*
X55790909Y-27904814D01*
X55958765Y-28311058D01*
X56269307Y-28622142D01*
X56675258Y-28790708D01*
X57114814Y-28791091D01*
X57521058Y-28623235D01*
X57832142Y-28312693D01*
X58000708Y-27906742D01*
X58000734Y-27876500D01*
X58970898Y-27876500D01*
X59007838Y-28072817D01*
X59146910Y-28288941D01*
X59359110Y-28433931D01*
X59611000Y-28484940D01*
X61611000Y-28484940D01*
X61846317Y-28440662D01*
X62062441Y-28301590D01*
X62207431Y-28089390D01*
X62258440Y-27837500D01*
X62258440Y-26137500D01*
X62248561Y-26085000D01*
X62974192Y-26085000D01*
X62963560Y-26137500D01*
X62963560Y-27837500D01*
X63007838Y-28072817D01*
X63146910Y-28288941D01*
X63359110Y-28433931D01*
X63595000Y-28481700D01*
X63595000Y-29493571D01*
X63375683Y-29534838D01*
X63159559Y-29673910D01*
X63014569Y-29886110D01*
X62963560Y-30138000D01*
X62963560Y-31838000D01*
X63007838Y-32073317D01*
X63146910Y-32289441D01*
X63359110Y-32434431D01*
X63611000Y-32485440D01*
X65611000Y-32485440D01*
X65846317Y-32441162D01*
X66062441Y-32302090D01*
X66207431Y-32089890D01*
X66258440Y-31838000D01*
X66258440Y-30138000D01*
X66229127Y-29982215D01*
X67225390Y-29982215D01*
X67302656Y-30230976D01*
X67849131Y-30428340D01*
X68429535Y-30401553D01*
X68841344Y-30230976D01*
X68918610Y-29982215D01*
X68072000Y-29135605D01*
X67225390Y-29982215D01*
X66229127Y-29982215D01*
X66214162Y-29902683D01*
X66075090Y-29686559D01*
X65862890Y-29541569D01*
X65627000Y-29493800D01*
X65627000Y-28733131D01*
X66599660Y-28733131D01*
X66626447Y-29313535D01*
X66797024Y-29725344D01*
X67045785Y-29802610D01*
X67892395Y-28956000D01*
X68251605Y-28956000D01*
X69098215Y-29802610D01*
X69346976Y-29725344D01*
X69520370Y-29245237D01*
X70802247Y-29245237D01*
X71024126Y-29782226D01*
X71434613Y-30193430D01*
X71971214Y-30416246D01*
X72552237Y-30416753D01*
X73089226Y-30194874D01*
X73500430Y-29784387D01*
X73723246Y-29247786D01*
X73723753Y-28666763D01*
X73501874Y-28129774D01*
X73091387Y-27718570D01*
X72554786Y-27495754D01*
X71973763Y-27495247D01*
X71436774Y-27717126D01*
X71025570Y-28127613D01*
X70802754Y-28664214D01*
X70802247Y-29245237D01*
X69520370Y-29245237D01*
X69544340Y-29178869D01*
X69517553Y-28598465D01*
X69346976Y-28186656D01*
X69098215Y-28109390D01*
X68251605Y-28956000D01*
X67892395Y-28956000D01*
X67045785Y-28109390D01*
X66797024Y-28186656D01*
X66599660Y-28733131D01*
X65627000Y-28733131D01*
X65627000Y-28481929D01*
X65846317Y-28440662D01*
X66062441Y-28301590D01*
X66207431Y-28089390D01*
X66239751Y-27929785D01*
X67225390Y-27929785D01*
X68072000Y-28776395D01*
X68918610Y-27929785D01*
X68841344Y-27681024D01*
X68294869Y-27483660D01*
X67714465Y-27510447D01*
X67302656Y-27681024D01*
X67225390Y-27929785D01*
X66239751Y-27929785D01*
X66258440Y-27837500D01*
X66258440Y-26137500D01*
X66248561Y-26085000D01*
X74295000Y-26085000D01*
X74295000Y-33528000D01*
X74303685Y-33574159D01*
X74330965Y-33616553D01*
X74372590Y-33644994D01*
X74422000Y-33655000D01*
X81865000Y-33655000D01*
X81865000Y-109220000D01*
X74422000Y-109220000D01*
X74375841Y-109228685D01*
X74333447Y-109255965D01*
X74305006Y-109297590D01*
X74295000Y-109347000D01*
X74295000Y-116790000D01*
X33655000Y-116790000D01*
X33655000Y-114839750D01*
X44640500Y-114839750D01*
X44640500Y-115442309D01*
X44737173Y-115675698D01*
X44915801Y-115854327D01*
X45149190Y-115951000D01*
X45751750Y-115951000D01*
X45910500Y-115792250D01*
X45910500Y-114681000D01*
X44799250Y-114681000D01*
X44640500Y-114839750D01*
X33655000Y-114839750D01*
X33655000Y-113665691D01*
X44640500Y-113665691D01*
X44640500Y-114268250D01*
X44799250Y-114427000D01*
X45910500Y-114427000D01*
X45910500Y-113315750D01*
X46164500Y-113315750D01*
X46164500Y-114427000D01*
X46184500Y-114427000D01*
X46184500Y-114681000D01*
X46164500Y-114681000D01*
X46164500Y-115792250D01*
X46323250Y-115951000D01*
X46925810Y-115951000D01*
X47159199Y-115854327D01*
X47337827Y-115675698D01*
X47377377Y-115580215D01*
X47730890Y-115580215D01*
X47808156Y-115828976D01*
X48354631Y-116026340D01*
X48935035Y-115999553D01*
X49346844Y-115828976D01*
X49424110Y-115580215D01*
X48577500Y-114733605D01*
X47730890Y-115580215D01*
X47377377Y-115580215D01*
X47434500Y-115442309D01*
X47434500Y-115364336D01*
X47551285Y-115400610D01*
X48397895Y-114554000D01*
X47551285Y-113707390D01*
X47434500Y-113743664D01*
X47434500Y-113665691D01*
X47377378Y-113527785D01*
X47730890Y-113527785D01*
X48577500Y-114374395D01*
X49424110Y-113527785D01*
X49346844Y-113279024D01*
X48800369Y-113081660D01*
X48219965Y-113108447D01*
X47808156Y-113279024D01*
X47730890Y-113527785D01*
X47377378Y-113527785D01*
X47337827Y-113432302D01*
X47159199Y-113253673D01*
X46925810Y-113157000D01*
X46323250Y-113157000D01*
X46164500Y-113315750D01*
X45910500Y-113315750D01*
X45751750Y-113157000D01*
X45149190Y-113157000D01*
X44915801Y-113253673D01*
X44737173Y-113432302D01*
X44640500Y-113665691D01*
X33655000Y-113665691D01*
X33655000Y-109347000D01*
X33646315Y-109300841D01*
X33619035Y-109258447D01*
X33577410Y-109230006D01*
X33528000Y-109220000D01*
X26085000Y-109220000D01*
X26085000Y-105700000D01*
X36246100Y-105700000D01*
X36246100Y-106081000D01*
X36405875Y-106630242D01*
X36763673Y-107076532D01*
X37265023Y-107351927D01*
X37353556Y-107371188D01*
X37579600Y-107249540D01*
X37579600Y-105700000D01*
X37833600Y-105700000D01*
X37833600Y-107249540D01*
X38059644Y-107371188D01*
X38148177Y-107351927D01*
X38649527Y-107076532D01*
X39007325Y-106630242D01*
X39167100Y-106081000D01*
X39167100Y-105700000D01*
X37833600Y-105700000D01*
X37579600Y-105700000D01*
X36246100Y-105700000D01*
X26085000Y-105700000D01*
X26085000Y-105065000D01*
X36246100Y-105065000D01*
X36246100Y-105446000D01*
X37579600Y-105446000D01*
X37579600Y-103896460D01*
X37833600Y-103896460D01*
X37833600Y-105446000D01*
X39167100Y-105446000D01*
X39167100Y-105065000D01*
X39007325Y-104515758D01*
X38649527Y-104069468D01*
X38148177Y-103794073D01*
X38059644Y-103774812D01*
X37833600Y-103896460D01*
X37579600Y-103896460D01*
X37353556Y-103774812D01*
X37265023Y-103794073D01*
X36763673Y-104069468D01*
X36405875Y-104515758D01*
X36246100Y-105065000D01*
X26085000Y-105065000D01*
X26085000Y-97064000D01*
X27610100Y-97064000D01*
X27610100Y-97445000D01*
X27769875Y-97994242D01*
X28127673Y-98440532D01*
X28629023Y-98715927D01*
X28717556Y-98735188D01*
X28943600Y-98613540D01*
X28943600Y-97064000D01*
X27610100Y-97064000D01*
X26085000Y-97064000D01*
X26085000Y-96429000D01*
X27610100Y-96429000D01*
X27610100Y-96810000D01*
X28943600Y-96810000D01*
X28943600Y-95260460D01*
X28717556Y-95138812D01*
X28629023Y-95158073D01*
X28127673Y-95433468D01*
X27769875Y-95879758D01*
X27610100Y-96429000D01*
X26085000Y-96429000D01*
X26085000Y-88864000D01*
X27610100Y-88864000D01*
X27610100Y-89245000D01*
X27769875Y-89794242D01*
X28127673Y-90240532D01*
X28629023Y-90515927D01*
X28717556Y-90535188D01*
X28943600Y-90413540D01*
X28943600Y-88864000D01*
X27610100Y-88864000D01*
X26085000Y-88864000D01*
X26085000Y-88229000D01*
X27610100Y-88229000D01*
X27610100Y-88610000D01*
X28943600Y-88610000D01*
X28943600Y-87060460D01*
X29197600Y-87060460D01*
X29197600Y-88610000D01*
X29217600Y-88610000D01*
X29217600Y-88864000D01*
X29197600Y-88864000D01*
X29197600Y-90413540D01*
X29423644Y-90535188D01*
X29512177Y-90515927D01*
X30013527Y-90240532D01*
X30162500Y-90054714D01*
X30162500Y-95619286D01*
X30013527Y-95433468D01*
X29512177Y-95158073D01*
X29423644Y-95138812D01*
X29197600Y-95260460D01*
X29197600Y-96810000D01*
X29217600Y-96810000D01*
X29217600Y-97064000D01*
X29197600Y-97064000D01*
X29197600Y-98613540D01*
X29423644Y-98735188D01*
X29512177Y-98715927D01*
X30013527Y-98440532D01*
X30162500Y-98254714D01*
X30162500Y-100838000D01*
X30225337Y-101153906D01*
X30404283Y-101421717D01*
X32436283Y-103453717D01*
X32704094Y-103632663D01*
X33020000Y-103695501D01*
X33020005Y-103695500D01*
X42506213Y-103695500D01*
X41947691Y-103806597D01*
X41473871Y-104123194D01*
X41157274Y-104597014D01*
X41046100Y-105155923D01*
X41046100Y-105990077D01*
X41157274Y-106548986D01*
X41473871Y-107022806D01*
X41947691Y-107339403D01*
X42506600Y-107450577D01*
X43065509Y-107339403D01*
X43539329Y-107022806D01*
X43855926Y-106548986D01*
X43967100Y-105990077D01*
X43967100Y-105155923D01*
X43855926Y-104597014D01*
X43539329Y-104123194D01*
X43065509Y-103806597D01*
X42506987Y-103695500D01*
X50458066Y-103695500D01*
X51466500Y-104703933D01*
X51466500Y-105690560D01*
X51292000Y-105690560D01*
X51056683Y-105734838D01*
X50840559Y-105873910D01*
X50810434Y-105918000D01*
X49776322Y-105918000D01*
X49756090Y-105886559D01*
X49543890Y-105741569D01*
X49292000Y-105690560D01*
X47292000Y-105690560D01*
X47056683Y-105734838D01*
X46840559Y-105873910D01*
X46695569Y-106086110D01*
X46644560Y-106338000D01*
X46644560Y-108038000D01*
X46688838Y-108273317D01*
X46827910Y-108489441D01*
X46863000Y-108513417D01*
X46863000Y-108907470D01*
X46840559Y-108921910D01*
X46695569Y-109134110D01*
X46644560Y-109386000D01*
X46644560Y-111086000D01*
X46688838Y-111321317D01*
X46827910Y-111537441D01*
X47040110Y-111682431D01*
X47292000Y-111733440D01*
X49292000Y-111733440D01*
X49527317Y-111689162D01*
X49743441Y-111550090D01*
X49773566Y-111506000D01*
X50807678Y-111506000D01*
X50827910Y-111537441D01*
X51040110Y-111682431D01*
X51292000Y-111733440D01*
X52622007Y-111733440D01*
X52832000Y-111943433D01*
X52832000Y-113314826D01*
X52831274Y-113315126D01*
X52420070Y-113725613D01*
X52387696Y-113803579D01*
X52356374Y-113727774D01*
X51945887Y-113316570D01*
X51409286Y-113093754D01*
X50828263Y-113093247D01*
X50291274Y-113315126D01*
X49880070Y-113725613D01*
X49854013Y-113788366D01*
X49852476Y-113784656D01*
X49603715Y-113707390D01*
X48757105Y-114554000D01*
X49603715Y-115400610D01*
X49852476Y-115323344D01*
X49853711Y-115319926D01*
X49878626Y-115380226D01*
X50289113Y-115791430D01*
X50825714Y-116014246D01*
X51406737Y-116014753D01*
X51943726Y-115792874D01*
X52354930Y-115382387D01*
X52387304Y-115304421D01*
X52418626Y-115380226D01*
X52829113Y-115791430D01*
X53365714Y-116014246D01*
X53946737Y-116014753D01*
X54483726Y-115792874D01*
X54894930Y-115382387D01*
X54927304Y-115304421D01*
X54958626Y-115380226D01*
X55369113Y-115791430D01*
X55905714Y-116014246D01*
X56486737Y-116014753D01*
X57023726Y-115792874D01*
X57434930Y-115382387D01*
X57467304Y-115304421D01*
X57498626Y-115380226D01*
X57909113Y-115791430D01*
X58445714Y-116014246D01*
X59026737Y-116014753D01*
X59563726Y-115792874D01*
X59974930Y-115382387D01*
X60002496Y-115316000D01*
X62138560Y-115316000D01*
X62138560Y-115354000D01*
X62182838Y-115589317D01*
X62321910Y-115805441D01*
X62534110Y-115950431D01*
X62786000Y-116001440D01*
X64786000Y-116001440D01*
X65021317Y-115957162D01*
X65237441Y-115818090D01*
X65382431Y-115605890D01*
X65433440Y-115354000D01*
X65433440Y-113754000D01*
X65389162Y-113518683D01*
X65250090Y-113302559D01*
X65037890Y-113157569D01*
X64786000Y-113106560D01*
X62786000Y-113106560D01*
X62550683Y-113150838D01*
X62334559Y-113289910D01*
X62189569Y-113502110D01*
X62138560Y-113754000D01*
X62138560Y-113792000D01*
X60002912Y-113792000D01*
X59976374Y-113727774D01*
X59565887Y-113316570D01*
X59029286Y-113093754D01*
X58448263Y-113093247D01*
X57911274Y-113315126D01*
X57500070Y-113725613D01*
X57467696Y-113803579D01*
X57436374Y-113727774D01*
X57025887Y-113316570D01*
X57023000Y-113315371D01*
X57023000Y-113308434D01*
X57670217Y-112661217D01*
X57849163Y-112393406D01*
X57912001Y-112077500D01*
X57912000Y-112077495D01*
X57912000Y-111914940D01*
X57936500Y-111914940D01*
X58171817Y-111870662D01*
X58387941Y-111731590D01*
X58532931Y-111519390D01*
X58583940Y-111267500D01*
X58583940Y-109473923D01*
X63982900Y-109473923D01*
X63982900Y-110308077D01*
X64094074Y-110866986D01*
X64410671Y-111340806D01*
X64884491Y-111657403D01*
X65443400Y-111768577D01*
X66002309Y-111657403D01*
X66476129Y-111340806D01*
X66792726Y-110866986D01*
X66903900Y-110308077D01*
X66903900Y-109473923D01*
X66792726Y-108915014D01*
X66476129Y-108441194D01*
X66002309Y-108124597D01*
X65443400Y-108013423D01*
X64884491Y-108124597D01*
X64410671Y-108441194D01*
X64094074Y-108915014D01*
X63982900Y-109473923D01*
X58583940Y-109473923D01*
X58583940Y-109267500D01*
X58539662Y-109032183D01*
X58420000Y-108846223D01*
X58420000Y-107684670D01*
X58532931Y-107519390D01*
X58583940Y-107267500D01*
X58583940Y-105267500D01*
X58539662Y-105032183D01*
X58400590Y-104816059D01*
X58247563Y-104711500D01*
X58420000Y-104711500D01*
X58735906Y-104648663D01*
X59003717Y-104469717D01*
X60690940Y-102782494D01*
X61048491Y-103021403D01*
X61607400Y-103132577D01*
X62166309Y-103021403D01*
X62640129Y-102704806D01*
X62956726Y-102230986D01*
X63067900Y-101672077D01*
X63067900Y-101273923D01*
X63982900Y-101273923D01*
X63982900Y-102108077D01*
X64094074Y-102666986D01*
X64410671Y-103140806D01*
X64884491Y-103457403D01*
X65443400Y-103568577D01*
X66002309Y-103457403D01*
X66476129Y-103140806D01*
X66792726Y-102666986D01*
X66903900Y-102108077D01*
X66903900Y-101273923D01*
X66792726Y-100715014D01*
X66476129Y-100241194D01*
X66002309Y-99924597D01*
X65443400Y-99813423D01*
X64884491Y-99924597D01*
X64410671Y-100241194D01*
X64094074Y-100715014D01*
X63982900Y-101273923D01*
X63067900Y-101273923D01*
X63067900Y-100837923D01*
X62956726Y-100279014D01*
X62640129Y-99805194D01*
X62369400Y-99624298D01*
X62369400Y-94685702D01*
X62640129Y-94504806D01*
X62956726Y-94030986D01*
X63067900Y-93472077D01*
X63067900Y-92637923D01*
X62981175Y-92201923D01*
X63982900Y-92201923D01*
X63982900Y-93036077D01*
X64094074Y-93594986D01*
X64410671Y-94068806D01*
X64884491Y-94385403D01*
X65443400Y-94496577D01*
X66002309Y-94385403D01*
X66476129Y-94068806D01*
X66792726Y-93594986D01*
X66903900Y-93036077D01*
X66903900Y-92201923D01*
X66792726Y-91643014D01*
X66476129Y-91169194D01*
X66002309Y-90852597D01*
X65443400Y-90741423D01*
X64884491Y-90852597D01*
X64410671Y-91169194D01*
X64094074Y-91643014D01*
X63982900Y-92201923D01*
X62981175Y-92201923D01*
X62956726Y-92079014D01*
X62640129Y-91605194D01*
X62166309Y-91288597D01*
X61607400Y-91177423D01*
X61048491Y-91288597D01*
X60574671Y-91605194D01*
X60258074Y-92079014D01*
X60146900Y-92637923D01*
X60146900Y-93472077D01*
X60258074Y-94030986D01*
X60574671Y-94504806D01*
X60845400Y-94685702D01*
X60845400Y-99624298D01*
X60574671Y-99805194D01*
X60258074Y-100279014D01*
X60146900Y-100837923D01*
X60146900Y-100991666D01*
X58078066Y-103060500D01*
X56934402Y-103060500D01*
X56934402Y-102931541D01*
X57160444Y-103053188D01*
X57248977Y-103033927D01*
X57750327Y-102758532D01*
X58108125Y-102312242D01*
X58267900Y-101763000D01*
X58267900Y-101382000D01*
X56934400Y-101382000D01*
X56934400Y-101402000D01*
X56680400Y-101402000D01*
X56680400Y-101382000D01*
X55346900Y-101382000D01*
X55346900Y-101763000D01*
X55506675Y-102312242D01*
X55640102Y-102478669D01*
X53908434Y-100747000D01*
X55346900Y-100747000D01*
X55346900Y-101128000D01*
X56680400Y-101128000D01*
X56680400Y-99578460D01*
X56934400Y-99578460D01*
X56934400Y-101128000D01*
X58267900Y-101128000D01*
X58267900Y-100747000D01*
X58108125Y-100197758D01*
X57750327Y-99751468D01*
X57248977Y-99476073D01*
X57160444Y-99456812D01*
X56934400Y-99578460D01*
X56680400Y-99578460D01*
X56454356Y-99456812D01*
X56365823Y-99476073D01*
X55864473Y-99751468D01*
X55506675Y-100197758D01*
X55346900Y-100747000D01*
X53908434Y-100747000D01*
X52743374Y-99581940D01*
X54793000Y-99581940D01*
X55028317Y-99537662D01*
X55244441Y-99398590D01*
X55389431Y-99186390D01*
X55440440Y-98934500D01*
X55440440Y-94934500D01*
X55396162Y-94699183D01*
X55257090Y-94483059D01*
X55044890Y-94338069D01*
X54793000Y-94287060D01*
X52593000Y-94287060D01*
X52357683Y-94331338D01*
X52141559Y-94470410D01*
X51996569Y-94682610D01*
X51945560Y-94934500D01*
X51945560Y-98934500D01*
X51989838Y-99169817D01*
X52041756Y-99250500D01*
X51845627Y-99250500D01*
X51889431Y-99186390D01*
X51940440Y-98934500D01*
X51940440Y-94934500D01*
X51896162Y-94699183D01*
X51757090Y-94483059D01*
X51544890Y-94338069D01*
X51293000Y-94287060D01*
X49093000Y-94287060D01*
X48857683Y-94331338D01*
X48641559Y-94470410D01*
X48496569Y-94682610D01*
X48445560Y-94934500D01*
X48445560Y-98934500D01*
X48489838Y-99169817D01*
X48541756Y-99250500D01*
X46950933Y-99250500D01*
X45688250Y-97987816D01*
X45688250Y-95853255D01*
X45688251Y-95853250D01*
X45625413Y-95537345D01*
X45570470Y-95455117D01*
X45446467Y-95269533D01*
X45446464Y-95269531D01*
X43358934Y-93182000D01*
X55346900Y-93182000D01*
X55346900Y-93563000D01*
X55506675Y-94112242D01*
X55864473Y-94558532D01*
X56365823Y-94833927D01*
X56454356Y-94853188D01*
X56680400Y-94731540D01*
X56680400Y-93182000D01*
X56934400Y-93182000D01*
X56934400Y-94731540D01*
X57160444Y-94853188D01*
X57248977Y-94833927D01*
X57750327Y-94558532D01*
X58108125Y-94112242D01*
X58267900Y-93563000D01*
X58267900Y-93182000D01*
X56934400Y-93182000D01*
X56680400Y-93182000D01*
X55346900Y-93182000D01*
X43358934Y-93182000D01*
X42672000Y-92495066D01*
X42672000Y-91058750D01*
X44221500Y-91058750D01*
X44221500Y-91899309D01*
X44318173Y-92132698D01*
X44496801Y-92311327D01*
X44730190Y-92408000D01*
X45370750Y-92408000D01*
X45529500Y-92249250D01*
X45529500Y-90900000D01*
X45783500Y-90900000D01*
X45783500Y-92249250D01*
X45942250Y-92408000D01*
X46582810Y-92408000D01*
X46816199Y-92311327D01*
X46994827Y-92132698D01*
X47091500Y-91899309D01*
X47091500Y-91058750D01*
X46932750Y-90900000D01*
X45783500Y-90900000D01*
X45529500Y-90900000D01*
X44380250Y-90900000D01*
X44221500Y-91058750D01*
X42672000Y-91058750D01*
X42672000Y-89646691D01*
X44221500Y-89646691D01*
X44221500Y-90487250D01*
X44380250Y-90646000D01*
X45529500Y-90646000D01*
X45529500Y-89296750D01*
X45783500Y-89296750D01*
X45783500Y-90646000D01*
X46932750Y-90646000D01*
X47091500Y-90487250D01*
X47091500Y-90106250D01*
X55016500Y-90106250D01*
X55016500Y-90946809D01*
X55113173Y-91180198D01*
X55291801Y-91358827D01*
X55525190Y-91455500D01*
X56039180Y-91455500D01*
X55864473Y-91551468D01*
X55506675Y-91997758D01*
X55346900Y-92547000D01*
X55346900Y-92928000D01*
X56680400Y-92928000D01*
X56680400Y-92908000D01*
X56934400Y-92908000D01*
X56934400Y-92928000D01*
X58267900Y-92928000D01*
X58267900Y-92547000D01*
X58108125Y-91997758D01*
X57750327Y-91551468D01*
X57490582Y-91408788D01*
X57611199Y-91358827D01*
X57789827Y-91180198D01*
X57886500Y-90946809D01*
X57886500Y-90106250D01*
X57727750Y-89947500D01*
X56578500Y-89947500D01*
X56578500Y-89967500D01*
X56324500Y-89967500D01*
X56324500Y-89947500D01*
X55175250Y-89947500D01*
X55016500Y-90106250D01*
X47091500Y-90106250D01*
X47091500Y-89646691D01*
X46994827Y-89413302D01*
X46816199Y-89234673D01*
X46582810Y-89138000D01*
X45942250Y-89138000D01*
X45783500Y-89296750D01*
X45529500Y-89296750D01*
X45370750Y-89138000D01*
X44730190Y-89138000D01*
X44496801Y-89234673D01*
X44318173Y-89413302D01*
X44221500Y-89646691D01*
X42672000Y-89646691D01*
X42672000Y-85773000D01*
X44209060Y-85773000D01*
X44209060Y-87773000D01*
X44253338Y-88008317D01*
X44392410Y-88224441D01*
X44604610Y-88369431D01*
X44856500Y-88420440D01*
X46456500Y-88420440D01*
X46691817Y-88376162D01*
X46907941Y-88237090D01*
X47052931Y-88024890D01*
X47103940Y-87773000D01*
X47103940Y-87598500D01*
X48445560Y-87598500D01*
X48445560Y-88834500D01*
X48489838Y-89069817D01*
X48628910Y-89285941D01*
X48841110Y-89430931D01*
X49093000Y-89481940D01*
X51293000Y-89481940D01*
X51528317Y-89437662D01*
X51744441Y-89298590D01*
X51889431Y-89086390D01*
X51940440Y-88834500D01*
X51940440Y-85180494D01*
X51945560Y-85175374D01*
X51945560Y-88834500D01*
X51989838Y-89069817D01*
X52128910Y-89285941D01*
X52341110Y-89430931D01*
X52593000Y-89481940D01*
X54793000Y-89481940D01*
X55016500Y-89439886D01*
X55016500Y-89534750D01*
X55175250Y-89693500D01*
X56324500Y-89693500D01*
X56324500Y-88344250D01*
X56578500Y-88344250D01*
X56578500Y-89693500D01*
X57727750Y-89693500D01*
X57886500Y-89534750D01*
X57886500Y-88694191D01*
X57789827Y-88460802D01*
X57611199Y-88282173D01*
X57377810Y-88185500D01*
X56737250Y-88185500D01*
X56578500Y-88344250D01*
X56324500Y-88344250D01*
X56165750Y-88185500D01*
X55525190Y-88185500D01*
X55440440Y-88220605D01*
X55440440Y-87425199D01*
X55651500Y-87467940D01*
X57251500Y-87467940D01*
X57486817Y-87423662D01*
X57702941Y-87284590D01*
X57847931Y-87072390D01*
X57898940Y-86820500D01*
X57898940Y-84820500D01*
X57854662Y-84585183D01*
X57715590Y-84369059D01*
X57503390Y-84224069D01*
X57251500Y-84173060D01*
X55651500Y-84173060D01*
X55416183Y-84217338D01*
X55209344Y-84350435D01*
X55054500Y-84244635D01*
X55054500Y-79909229D01*
X55243698Y-79782811D01*
X55499000Y-79400725D01*
X55754302Y-79782811D01*
X56219849Y-80093880D01*
X56769000Y-80203113D01*
X57318151Y-80093880D01*
X57783698Y-79782811D01*
X58039000Y-79400725D01*
X58294302Y-79782811D01*
X58483500Y-79909229D01*
X58483500Y-82423000D01*
X58546337Y-82738906D01*
X58725283Y-83006717D01*
X60721281Y-85002714D01*
X60721283Y-85002717D01*
X60849526Y-85088406D01*
X60989094Y-85181663D01*
X61305000Y-85244500D01*
X64064140Y-85244500D01*
X64094074Y-85394986D01*
X64410671Y-85868806D01*
X64884491Y-86185403D01*
X65443400Y-86296577D01*
X66002309Y-86185403D01*
X66476129Y-85868806D01*
X66792726Y-85394986D01*
X66903900Y-84836077D01*
X66903900Y-84001923D01*
X66792726Y-83443014D01*
X66476129Y-82969194D01*
X66002309Y-82652597D01*
X65443400Y-82541423D01*
X64884491Y-82652597D01*
X64410671Y-82969194D01*
X64094074Y-83443014D01*
X64064140Y-83593500D01*
X61646933Y-83593500D01*
X60134500Y-82081066D01*
X60134500Y-79909229D01*
X60323698Y-79782811D01*
X60579000Y-79400725D01*
X60834302Y-79782811D01*
X61299849Y-80093880D01*
X61849000Y-80203113D01*
X62398151Y-80093880D01*
X62863698Y-79782811D01*
X63119000Y-79400725D01*
X63374302Y-79782811D01*
X63839849Y-80093880D01*
X64389000Y-80203113D01*
X64938151Y-80093880D01*
X65403698Y-79782811D01*
X65714767Y-79317264D01*
X65824000Y-78768113D01*
X65824000Y-78711887D01*
X65714767Y-78162736D01*
X65403698Y-77697189D01*
X64938151Y-77386120D01*
X64389000Y-77276887D01*
X63839849Y-77386120D01*
X63374302Y-77697189D01*
X63119000Y-78079275D01*
X62863698Y-77697189D01*
X62398151Y-77386120D01*
X61849000Y-77276887D01*
X61299849Y-77386120D01*
X60834302Y-77697189D01*
X60579000Y-78079275D01*
X60323698Y-77697189D01*
X59858151Y-77386120D01*
X59309000Y-77276887D01*
X58759849Y-77386120D01*
X58294302Y-77697189D01*
X58039000Y-78079275D01*
X57783698Y-77697189D01*
X57318151Y-77386120D01*
X56769000Y-77276887D01*
X56219849Y-77386120D01*
X55754302Y-77697189D01*
X55499000Y-78079275D01*
X55243698Y-77697189D01*
X54778151Y-77386120D01*
X54229000Y-77276887D01*
X53679849Y-77386120D01*
X53214302Y-77697189D01*
X52959000Y-78079275D01*
X52703698Y-77697189D01*
X52238151Y-77386120D01*
X51689000Y-77276887D01*
X51139849Y-77386120D01*
X50674302Y-77697189D01*
X50404014Y-78101703D01*
X50301389Y-77884866D01*
X49886423Y-77508959D01*
X49498039Y-77348096D01*
X49276000Y-77470085D01*
X49276000Y-78613000D01*
X49296000Y-78613000D01*
X49296000Y-78867000D01*
X49276000Y-78867000D01*
X49276000Y-80009915D01*
X49498039Y-80131904D01*
X49886423Y-79971041D01*
X50301389Y-79595134D01*
X50404014Y-79378297D01*
X50674302Y-79782811D01*
X51139849Y-80093880D01*
X51689000Y-80203113D01*
X51935623Y-80154057D01*
X52006500Y-80224934D01*
X52006500Y-82779567D01*
X50599006Y-84187060D01*
X49093000Y-84187060D01*
X48857683Y-84231338D01*
X48641559Y-84370410D01*
X48496569Y-84582610D01*
X48445560Y-84834500D01*
X48445560Y-85740418D01*
X48417000Y-85884000D01*
X48429631Y-85947500D01*
X47103940Y-85947500D01*
X47103940Y-85773000D01*
X47059662Y-85537683D01*
X46920590Y-85321559D01*
X46708390Y-85176569D01*
X46456500Y-85125560D01*
X44856500Y-85125560D01*
X44621183Y-85169838D01*
X44405059Y-85308910D01*
X44260069Y-85521110D01*
X44209060Y-85773000D01*
X42672000Y-85773000D01*
X42672000Y-81304434D01*
X43822377Y-80154057D01*
X44069000Y-80203113D01*
X44618151Y-80093880D01*
X45083698Y-79782811D01*
X45339000Y-79400725D01*
X45594302Y-79782811D01*
X45783500Y-79909229D01*
X45783500Y-80843067D01*
X45778007Y-80848560D01*
X44053500Y-80848560D01*
X43818183Y-80892838D01*
X43602059Y-81031910D01*
X43457069Y-81244110D01*
X43406060Y-81496000D01*
X43406060Y-83096000D01*
X43450338Y-83331317D01*
X43589410Y-83547441D01*
X43801610Y-83692431D01*
X44053500Y-83743440D01*
X46053500Y-83743440D01*
X46288817Y-83699162D01*
X46504941Y-83560090D01*
X46649931Y-83347890D01*
X46700940Y-83096000D01*
X46700940Y-82581750D01*
X47418500Y-82581750D01*
X47418500Y-83222310D01*
X47515173Y-83455699D01*
X47693802Y-83634327D01*
X47927191Y-83731000D01*
X48767750Y-83731000D01*
X48926500Y-83572250D01*
X48926500Y-82423000D01*
X49180500Y-82423000D01*
X49180500Y-83572250D01*
X49339250Y-83731000D01*
X50179809Y-83731000D01*
X50413198Y-83634327D01*
X50591827Y-83455699D01*
X50688500Y-83222310D01*
X50688500Y-82581750D01*
X50529750Y-82423000D01*
X49180500Y-82423000D01*
X48926500Y-82423000D01*
X47577250Y-82423000D01*
X47418500Y-82581750D01*
X46700940Y-82581750D01*
X46700940Y-82260494D01*
X47192714Y-81768719D01*
X47192717Y-81768717D01*
X47371663Y-81500905D01*
X47397763Y-81369690D01*
X47418500Y-81369690D01*
X47418500Y-82010250D01*
X47577250Y-82169000D01*
X48926500Y-82169000D01*
X48926500Y-81019750D01*
X49180500Y-81019750D01*
X49180500Y-82169000D01*
X50529750Y-82169000D01*
X50688500Y-82010250D01*
X50688500Y-81369690D01*
X50591827Y-81136301D01*
X50413198Y-80957673D01*
X50179809Y-80861000D01*
X49339250Y-80861000D01*
X49180500Y-81019750D01*
X48926500Y-81019750D01*
X48767750Y-80861000D01*
X47927191Y-80861000D01*
X47693802Y-80957673D01*
X47515173Y-81136301D01*
X47418500Y-81369690D01*
X47397763Y-81369690D01*
X47434500Y-81185000D01*
X47434500Y-79909229D01*
X47623698Y-79782811D01*
X47893986Y-79378297D01*
X47996611Y-79595134D01*
X48411577Y-79971041D01*
X48799961Y-80131904D01*
X49022000Y-80009915D01*
X49022000Y-78867000D01*
X49002000Y-78867000D01*
X49002000Y-78613000D01*
X49022000Y-78613000D01*
X49022000Y-77470085D01*
X48799961Y-77348096D01*
X48411577Y-77508959D01*
X47996611Y-77884866D01*
X47893986Y-78101703D01*
X47623698Y-77697189D01*
X47158151Y-77386120D01*
X46609000Y-77276887D01*
X46059849Y-77386120D01*
X45594302Y-77697189D01*
X45339000Y-78079275D01*
X45083698Y-77697189D01*
X44618151Y-77386120D01*
X44069000Y-77276887D01*
X43519849Y-77386120D01*
X43054302Y-77697189D01*
X42799000Y-78079275D01*
X42543698Y-77697189D01*
X42078151Y-77386120D01*
X41529000Y-77276887D01*
X40979849Y-77386120D01*
X40514302Y-77697189D01*
X40259000Y-78079275D01*
X40003698Y-77697189D01*
X39538151Y-77386120D01*
X38989000Y-77276887D01*
X38439849Y-77386120D01*
X37974302Y-77697189D01*
X37719000Y-78079275D01*
X37463698Y-77697189D01*
X36998151Y-77386120D01*
X36449000Y-77276887D01*
X35899849Y-77386120D01*
X35434302Y-77697189D01*
X35179000Y-78079275D01*
X34923698Y-77697189D01*
X34458151Y-77386120D01*
X33909000Y-77276887D01*
X33359849Y-77386120D01*
X32894302Y-77697189D01*
X32797899Y-77841465D01*
X32772162Y-77704683D01*
X32633090Y-77488559D01*
X32420890Y-77343569D01*
X32305277Y-77320157D01*
X33361933Y-76263500D01*
X66992500Y-76263500D01*
X66992500Y-113106560D01*
X66786000Y-113106560D01*
X66550683Y-113150838D01*
X66334559Y-113289910D01*
X66189569Y-113502110D01*
X66138560Y-113754000D01*
X66138560Y-115354000D01*
X66182838Y-115589317D01*
X66321910Y-115805441D01*
X66534110Y-115950431D01*
X66786000Y-116001440D01*
X68786000Y-116001440D01*
X69021317Y-115957162D01*
X69237441Y-115818090D01*
X69382431Y-115605890D01*
X69433440Y-115354000D01*
X69433440Y-113754000D01*
X69389162Y-113518683D01*
X69250090Y-113302559D01*
X69037890Y-113157569D01*
X68786000Y-113106560D01*
X68643500Y-113106560D01*
X68643500Y-110018000D01*
X68782900Y-110018000D01*
X68782900Y-110399000D01*
X68942675Y-110948242D01*
X69300473Y-111394532D01*
X69801823Y-111669927D01*
X69890356Y-111689188D01*
X70116400Y-111567540D01*
X70116400Y-110018000D01*
X70370400Y-110018000D01*
X70370400Y-111567540D01*
X70596444Y-111689188D01*
X70684977Y-111669927D01*
X71186327Y-111394532D01*
X71544125Y-110948242D01*
X71703900Y-110399000D01*
X71703900Y-110018000D01*
X70370400Y-110018000D01*
X70116400Y-110018000D01*
X68782900Y-110018000D01*
X68643500Y-110018000D01*
X68643500Y-109383000D01*
X68782900Y-109383000D01*
X68782900Y-109764000D01*
X70116400Y-109764000D01*
X70116400Y-108214460D01*
X70370400Y-108214460D01*
X70370400Y-109764000D01*
X71703900Y-109764000D01*
X71703900Y-109383000D01*
X71544125Y-108833758D01*
X71186327Y-108387468D01*
X70684977Y-108112073D01*
X70596444Y-108092812D01*
X70370400Y-108214460D01*
X70116400Y-108214460D01*
X69890356Y-108092812D01*
X69801823Y-108112073D01*
X69300473Y-108387468D01*
X68942675Y-108833758D01*
X68782900Y-109383000D01*
X68643500Y-109383000D01*
X68643500Y-101818000D01*
X68782900Y-101818000D01*
X68782900Y-102199000D01*
X68942675Y-102748242D01*
X69300473Y-103194532D01*
X69801823Y-103469927D01*
X69890356Y-103489188D01*
X70116400Y-103367540D01*
X70116400Y-101818000D01*
X70370400Y-101818000D01*
X70370400Y-103367540D01*
X70596444Y-103489188D01*
X70684977Y-103469927D01*
X71186327Y-103194532D01*
X71544125Y-102748242D01*
X71703900Y-102199000D01*
X71703900Y-101818000D01*
X70370400Y-101818000D01*
X70116400Y-101818000D01*
X68782900Y-101818000D01*
X68643500Y-101818000D01*
X68643500Y-101183000D01*
X68782900Y-101183000D01*
X68782900Y-101564000D01*
X70116400Y-101564000D01*
X70116400Y-100014460D01*
X70370400Y-100014460D01*
X70370400Y-101564000D01*
X71703900Y-101564000D01*
X71703900Y-101183000D01*
X71603517Y-100837923D01*
X72618900Y-100837923D01*
X72618900Y-101672077D01*
X72730074Y-102230986D01*
X73046671Y-102704806D01*
X73520491Y-103021403D01*
X74079400Y-103132577D01*
X74638309Y-103021403D01*
X75112129Y-102704806D01*
X75428726Y-102230986D01*
X75539900Y-101672077D01*
X75539900Y-101382000D01*
X77418900Y-101382000D01*
X77418900Y-101763000D01*
X77578675Y-102312242D01*
X77936473Y-102758532D01*
X78437823Y-103033927D01*
X78526356Y-103053188D01*
X78752400Y-102931540D01*
X78752400Y-101382000D01*
X79006400Y-101382000D01*
X79006400Y-102931540D01*
X79232444Y-103053188D01*
X79320977Y-103033927D01*
X79822327Y-102758532D01*
X80180125Y-102312242D01*
X80339900Y-101763000D01*
X80339900Y-101382000D01*
X79006400Y-101382000D01*
X78752400Y-101382000D01*
X77418900Y-101382000D01*
X75539900Y-101382000D01*
X75539900Y-100837923D01*
X75521815Y-100747000D01*
X77418900Y-100747000D01*
X77418900Y-101128000D01*
X78752400Y-101128000D01*
X78752400Y-99578460D01*
X79006400Y-99578460D01*
X79006400Y-101128000D01*
X80339900Y-101128000D01*
X80339900Y-100747000D01*
X80180125Y-100197758D01*
X79822327Y-99751468D01*
X79320977Y-99476073D01*
X79232444Y-99456812D01*
X79006400Y-99578460D01*
X78752400Y-99578460D01*
X78526356Y-99456812D01*
X78437823Y-99476073D01*
X77936473Y-99751468D01*
X77578675Y-100197758D01*
X77418900Y-100747000D01*
X75521815Y-100747000D01*
X75428726Y-100279014D01*
X75112129Y-99805194D01*
X74638309Y-99488597D01*
X74079400Y-99377423D01*
X73520491Y-99488597D01*
X73046671Y-99805194D01*
X72730074Y-100279014D01*
X72618900Y-100837923D01*
X71603517Y-100837923D01*
X71544125Y-100633758D01*
X71186327Y-100187468D01*
X70684977Y-99912073D01*
X70596444Y-99892812D01*
X70370400Y-100014460D01*
X70116400Y-100014460D01*
X69890356Y-99892812D01*
X69801823Y-99912073D01*
X69300473Y-100187468D01*
X68942675Y-100633758D01*
X68782900Y-101183000D01*
X68643500Y-101183000D01*
X68643500Y-92746000D01*
X68782900Y-92746000D01*
X68782900Y-93127000D01*
X68942675Y-93676242D01*
X69300473Y-94122532D01*
X69801823Y-94397927D01*
X69890356Y-94417188D01*
X70116400Y-94295540D01*
X70116400Y-92746000D01*
X70370400Y-92746000D01*
X70370400Y-94295540D01*
X70596444Y-94417188D01*
X70684977Y-94397927D01*
X71186327Y-94122532D01*
X71544125Y-93676242D01*
X71703900Y-93127000D01*
X71703900Y-92746000D01*
X70370400Y-92746000D01*
X70116400Y-92746000D01*
X68782900Y-92746000D01*
X68643500Y-92746000D01*
X68643500Y-92637923D01*
X72618900Y-92637923D01*
X72618900Y-93472077D01*
X72730074Y-94030986D01*
X73046671Y-94504806D01*
X73520491Y-94821403D01*
X74079400Y-94932577D01*
X74638309Y-94821403D01*
X75112129Y-94504806D01*
X75428726Y-94030986D01*
X75539900Y-93472077D01*
X75539900Y-93182000D01*
X77418900Y-93182000D01*
X77418900Y-93563000D01*
X77578675Y-94112242D01*
X77936473Y-94558532D01*
X78437823Y-94833927D01*
X78526356Y-94853188D01*
X78752400Y-94731540D01*
X78752400Y-93182000D01*
X79006400Y-93182000D01*
X79006400Y-94731540D01*
X79232444Y-94853188D01*
X79320977Y-94833927D01*
X79822327Y-94558532D01*
X80180125Y-94112242D01*
X80339900Y-93563000D01*
X80339900Y-93182000D01*
X79006400Y-93182000D01*
X78752400Y-93182000D01*
X77418900Y-93182000D01*
X75539900Y-93182000D01*
X75539900Y-92637923D01*
X75521815Y-92547000D01*
X77418900Y-92547000D01*
X77418900Y-92928000D01*
X78752400Y-92928000D01*
X78752400Y-91378460D01*
X79006400Y-91378460D01*
X79006400Y-92928000D01*
X80339900Y-92928000D01*
X80339900Y-92547000D01*
X80180125Y-91997758D01*
X79822327Y-91551468D01*
X79320977Y-91276073D01*
X79232444Y-91256812D01*
X79006400Y-91378460D01*
X78752400Y-91378460D01*
X78526356Y-91256812D01*
X78437823Y-91276073D01*
X77936473Y-91551468D01*
X77578675Y-91997758D01*
X77418900Y-92547000D01*
X75521815Y-92547000D01*
X75428726Y-92079014D01*
X75112129Y-91605194D01*
X74638309Y-91288597D01*
X74079400Y-91177423D01*
X73520491Y-91288597D01*
X73046671Y-91605194D01*
X72730074Y-92079014D01*
X72618900Y-92637923D01*
X68643500Y-92637923D01*
X68643500Y-92111000D01*
X68782900Y-92111000D01*
X68782900Y-92492000D01*
X70116400Y-92492000D01*
X70116400Y-90942460D01*
X70370400Y-90942460D01*
X70370400Y-92492000D01*
X71703900Y-92492000D01*
X71703900Y-92111000D01*
X71544125Y-91561758D01*
X71186327Y-91115468D01*
X70684977Y-90840073D01*
X70596444Y-90820812D01*
X70370400Y-90942460D01*
X70116400Y-90942460D01*
X69890356Y-90820812D01*
X69801823Y-90840073D01*
X69300473Y-91115468D01*
X68942675Y-91561758D01*
X68782900Y-92111000D01*
X68643500Y-92111000D01*
X68643500Y-88558000D01*
X71790560Y-88558000D01*
X71790560Y-90258000D01*
X71834838Y-90493317D01*
X71973910Y-90709441D01*
X72186110Y-90854431D01*
X72438000Y-90905440D01*
X74438000Y-90905440D01*
X74673317Y-90861162D01*
X74889441Y-90722090D01*
X75034431Y-90509890D01*
X75085440Y-90258000D01*
X75085440Y-88641993D01*
X75169433Y-88558000D01*
X75790560Y-88558000D01*
X75790560Y-90258000D01*
X75834838Y-90493317D01*
X75973910Y-90709441D01*
X76186110Y-90854431D01*
X76438000Y-90905440D01*
X78438000Y-90905440D01*
X78673317Y-90861162D01*
X78889441Y-90722090D01*
X79034431Y-90509890D01*
X79085440Y-90258000D01*
X79085440Y-90233500D01*
X79780858Y-90233500D01*
X79891307Y-90344142D01*
X80297258Y-90512708D01*
X80736814Y-90513091D01*
X81143058Y-90345235D01*
X81454142Y-90034693D01*
X81622708Y-89628742D01*
X81623091Y-89189186D01*
X81455235Y-88782942D01*
X81144693Y-88471858D01*
X80738742Y-88303292D01*
X80299186Y-88302909D01*
X79892942Y-88470765D01*
X79781012Y-88582500D01*
X79085440Y-88582500D01*
X79085440Y-88558000D01*
X79041162Y-88322683D01*
X78902090Y-88106559D01*
X78689890Y-87961569D01*
X78438000Y-87910560D01*
X76438000Y-87910560D01*
X76202683Y-87954838D01*
X75986559Y-88093910D01*
X75841569Y-88306110D01*
X75790560Y-88558000D01*
X75169433Y-88558000D01*
X75640714Y-88086719D01*
X75640717Y-88086717D01*
X75819663Y-87818905D01*
X75831178Y-87761014D01*
X75882501Y-87503000D01*
X75882500Y-87502995D01*
X75882500Y-87152983D01*
X75981943Y-87111894D01*
X76216715Y-86877532D01*
X78584073Y-86877532D01*
X78682736Y-87144387D01*
X79292461Y-87370908D01*
X79942460Y-87346856D01*
X80431264Y-87144387D01*
X80529927Y-86877532D01*
X79557000Y-85904605D01*
X78584073Y-86877532D01*
X76216715Y-86877532D01*
X76442278Y-86652363D01*
X76691716Y-86051648D01*
X76692232Y-85460461D01*
X77911092Y-85460461D01*
X77935144Y-86110460D01*
X78137613Y-86599264D01*
X78404468Y-86697927D01*
X79377395Y-85725000D01*
X79736605Y-85725000D01*
X80709532Y-86697927D01*
X80976387Y-86599264D01*
X81202908Y-85989539D01*
X81178856Y-85339540D01*
X80976387Y-84850736D01*
X80709532Y-84752073D01*
X79736605Y-85725000D01*
X79377395Y-85725000D01*
X78404468Y-84752073D01*
X78137613Y-84850736D01*
X77911092Y-85460461D01*
X76692232Y-85460461D01*
X76692284Y-85401205D01*
X76443894Y-84800057D01*
X76216703Y-84572468D01*
X78584073Y-84572468D01*
X79557000Y-85545395D01*
X80529927Y-84572468D01*
X80431264Y-84305613D01*
X79821539Y-84079092D01*
X79171540Y-84103144D01*
X78682736Y-84305613D01*
X78584073Y-84572468D01*
X76216703Y-84572468D01*
X75984363Y-84339722D01*
X75383648Y-84090284D01*
X74733205Y-84089716D01*
X74132057Y-84338106D01*
X73671722Y-84797637D01*
X73422284Y-85398352D01*
X73421716Y-86048795D01*
X73670106Y-86649943D01*
X74129637Y-87110278D01*
X74231500Y-87152575D01*
X74231500Y-87161067D01*
X73482006Y-87910560D01*
X72438000Y-87910560D01*
X72202683Y-87954838D01*
X71986559Y-88093910D01*
X71841569Y-88306110D01*
X71790560Y-88558000D01*
X68643500Y-88558000D01*
X68643500Y-84546000D01*
X68782900Y-84546000D01*
X68782900Y-84927000D01*
X68942675Y-85476242D01*
X69300473Y-85922532D01*
X69801823Y-86197927D01*
X69890356Y-86217188D01*
X70116400Y-86095540D01*
X70116400Y-84546000D01*
X70370400Y-84546000D01*
X70370400Y-86095540D01*
X70596444Y-86217188D01*
X70684977Y-86197927D01*
X71186327Y-85922532D01*
X71544125Y-85476242D01*
X71703900Y-84927000D01*
X71703900Y-84546000D01*
X70370400Y-84546000D01*
X70116400Y-84546000D01*
X68782900Y-84546000D01*
X68643500Y-84546000D01*
X68643500Y-83911000D01*
X68782900Y-83911000D01*
X68782900Y-84292000D01*
X70116400Y-84292000D01*
X70116400Y-82742460D01*
X70370400Y-82742460D01*
X70370400Y-84292000D01*
X71703900Y-84292000D01*
X71703900Y-83911000D01*
X71544125Y-83361758D01*
X71186327Y-82915468D01*
X70684977Y-82640073D01*
X70596444Y-82620812D01*
X70370400Y-82742460D01*
X70116400Y-82742460D01*
X69890356Y-82620812D01*
X69801823Y-82640073D01*
X69300473Y-82915468D01*
X68942675Y-83361758D01*
X68782900Y-83911000D01*
X68643500Y-83911000D01*
X68643500Y-76263500D01*
X71150826Y-76263500D01*
X71151126Y-76264226D01*
X71561613Y-76675430D01*
X71628000Y-76702996D01*
X71628000Y-78486000D01*
X71686004Y-78777605D01*
X71727388Y-78839540D01*
X71851185Y-79024815D01*
X72590185Y-79763815D01*
X72837395Y-79928996D01*
X73129000Y-79987000D01*
X73602779Y-79987000D01*
X73670106Y-80149943D01*
X74129637Y-80610278D01*
X74730352Y-80859716D01*
X75380795Y-80860284D01*
X75981943Y-80611894D01*
X76216715Y-80377532D01*
X78584073Y-80377532D01*
X78682736Y-80644387D01*
X79292461Y-80870908D01*
X79942460Y-80846856D01*
X80431264Y-80644387D01*
X80529927Y-80377532D01*
X79557000Y-79404605D01*
X78584073Y-80377532D01*
X76216715Y-80377532D01*
X76442278Y-80152363D01*
X76691716Y-79551648D01*
X76692232Y-78960461D01*
X77911092Y-78960461D01*
X77935144Y-79610460D01*
X78137613Y-80099264D01*
X78404468Y-80197927D01*
X79377395Y-79225000D01*
X79736605Y-79225000D01*
X80709532Y-80197927D01*
X80976387Y-80099264D01*
X81202908Y-79489539D01*
X81178856Y-78839540D01*
X80976387Y-78350736D01*
X80709532Y-78252073D01*
X79736605Y-79225000D01*
X79377395Y-79225000D01*
X78404468Y-78252073D01*
X78137613Y-78350736D01*
X77911092Y-78960461D01*
X76692232Y-78960461D01*
X76692284Y-78901205D01*
X76443894Y-78300057D01*
X76216703Y-78072468D01*
X78584073Y-78072468D01*
X79557000Y-79045395D01*
X80529927Y-78072468D01*
X80431264Y-77805613D01*
X79821539Y-77579092D01*
X79171540Y-77603144D01*
X78682736Y-77805613D01*
X78584073Y-78072468D01*
X76216703Y-78072468D01*
X75984363Y-77839722D01*
X75383648Y-77590284D01*
X74733205Y-77589716D01*
X74132057Y-77838106D01*
X73671722Y-78297637D01*
X73603057Y-78463000D01*
X73444630Y-78463000D01*
X73152000Y-78170370D01*
X73152000Y-76703412D01*
X73216226Y-76676874D01*
X73429256Y-76464215D01*
X74083390Y-76464215D01*
X74160656Y-76712976D01*
X74707131Y-76910340D01*
X75287535Y-76883553D01*
X75699344Y-76712976D01*
X75776610Y-76464215D01*
X74930000Y-75617605D01*
X74083390Y-76464215D01*
X73429256Y-76464215D01*
X73627430Y-76266387D01*
X73653487Y-76203634D01*
X73655024Y-76207344D01*
X73903785Y-76284610D01*
X74750395Y-75438000D01*
X74930000Y-75438000D01*
X75109605Y-75438000D01*
X75956215Y-76284610D01*
X76204976Y-76207344D01*
X76402340Y-75660869D01*
X76375553Y-75080465D01*
X76204976Y-74668656D01*
X75956215Y-74591390D01*
X75109605Y-75438000D01*
X74930000Y-75438000D01*
X74976159Y-75429315D01*
X75018553Y-75402035D01*
X75046994Y-75360410D01*
X75057000Y-75311000D01*
X75057000Y-75131395D01*
X75776610Y-74411785D01*
X75699344Y-74163024D01*
X75695926Y-74161789D01*
X75756226Y-74136874D01*
X76167430Y-73726387D01*
X76390246Y-73189786D01*
X76390753Y-72608763D01*
X76363303Y-72542328D01*
X77119816Y-71785815D01*
X77284997Y-71538604D01*
X77343000Y-71247000D01*
X77343000Y-69469000D01*
X77284996Y-69177395D01*
X77212174Y-69068410D01*
X77119816Y-68930185D01*
X76484815Y-68295185D01*
X76484814Y-68295184D01*
X76237605Y-68130004D01*
X75946000Y-68072000D01*
X71374000Y-68072000D01*
X71082395Y-68130004D01*
X71071783Y-68137095D01*
X70835185Y-68295184D01*
X70200185Y-68930185D01*
X70035004Y-69177395D01*
X69977000Y-69469000D01*
X69977000Y-70677369D01*
X67883370Y-72771000D01*
X60071000Y-72771000D01*
X60071000Y-72331659D01*
X60323698Y-72162811D01*
X60579000Y-71780725D01*
X60834302Y-72162811D01*
X61299849Y-72473880D01*
X61849000Y-72583113D01*
X62398151Y-72473880D01*
X62863698Y-72162811D01*
X63119000Y-71780725D01*
X63374302Y-72162811D01*
X63839849Y-72473880D01*
X64389000Y-72583113D01*
X64938151Y-72473880D01*
X65403698Y-72162811D01*
X65714767Y-71697264D01*
X65824000Y-71148113D01*
X65824000Y-71091887D01*
X65714767Y-70542736D01*
X65403698Y-70077189D01*
X65223999Y-69957118D01*
X65223999Y-54320867D01*
X65478052Y-54066814D01*
X73570909Y-54066814D01*
X73738765Y-54473058D01*
X74049307Y-54784142D01*
X74455258Y-54952708D01*
X74894814Y-54953091D01*
X75301058Y-54785235D01*
X75435528Y-54650999D01*
X76099560Y-54650999D01*
X76099560Y-54816000D01*
X76143838Y-55051317D01*
X76282910Y-55267441D01*
X76495110Y-55412431D01*
X76747000Y-55463440D01*
X78447000Y-55463440D01*
X78682317Y-55419162D01*
X78898441Y-55280090D01*
X79043431Y-55067890D01*
X79094440Y-54816000D01*
X79094440Y-52816000D01*
X79050162Y-52580683D01*
X78911090Y-52364559D01*
X78698890Y-52219569D01*
X78447000Y-52168560D01*
X76747000Y-52168560D01*
X76511683Y-52212838D01*
X76295559Y-52351910D01*
X76150569Y-52564110D01*
X76099560Y-52816000D01*
X76099560Y-52981001D01*
X75371716Y-52981001D01*
X75302693Y-52911858D01*
X74896742Y-52743292D01*
X74457186Y-52742909D01*
X74050942Y-52910765D01*
X73739858Y-53221307D01*
X73571292Y-53627258D01*
X73570909Y-54066814D01*
X65478052Y-54066814D01*
X65861900Y-53682966D01*
X66004814Y-53683091D01*
X66411058Y-53515235D01*
X66722142Y-53204693D01*
X66890708Y-52798742D01*
X66891091Y-52359186D01*
X66723235Y-51952942D01*
X66412693Y-51641858D01*
X66006742Y-51473292D01*
X65567186Y-51472909D01*
X65160942Y-51640765D01*
X64849858Y-51951307D01*
X64681292Y-52357258D01*
X64681166Y-52501967D01*
X63798567Y-53384567D01*
X63617562Y-53655460D01*
X63554001Y-53975000D01*
X63554001Y-69957118D01*
X63374302Y-70077189D01*
X63119000Y-70459275D01*
X62863698Y-70077189D01*
X62683999Y-69957118D01*
X62683999Y-69723000D01*
X62620438Y-69403460D01*
X62549426Y-69297183D01*
X62439433Y-69132566D01*
X60524999Y-67218133D01*
X60524999Y-49241660D01*
X60626142Y-49140693D01*
X60794708Y-48734742D01*
X60795091Y-48295186D01*
X60627235Y-47888942D01*
X60328629Y-47589814D01*
X75094909Y-47589814D01*
X75262765Y-47996058D01*
X75573307Y-48307142D01*
X75979258Y-48475708D01*
X76210834Y-48475910D01*
X76150569Y-48564110D01*
X76099560Y-48816000D01*
X76099560Y-50816000D01*
X76143838Y-51051317D01*
X76282910Y-51267441D01*
X76495110Y-51412431D01*
X76747000Y-51463440D01*
X78447000Y-51463440D01*
X78682317Y-51419162D01*
X78898441Y-51280090D01*
X79043431Y-51067890D01*
X79094440Y-50816000D01*
X79094440Y-48816000D01*
X79050162Y-48580683D01*
X78911090Y-48364559D01*
X78698890Y-48219569D01*
X78447000Y-48168560D01*
X78422500Y-48168560D01*
X78422500Y-46810693D01*
X78568817Y-46783162D01*
X78784941Y-46644090D01*
X78929931Y-46431890D01*
X78980940Y-46180000D01*
X78980940Y-44180000D01*
X78936662Y-43944683D01*
X78797590Y-43728559D01*
X78585390Y-43583569D01*
X78333500Y-43532560D01*
X76733500Y-43532560D01*
X76498183Y-43576838D01*
X76282059Y-43715910D01*
X76137069Y-43928110D01*
X76086060Y-44180000D01*
X76086060Y-46180000D01*
X76102245Y-46266014D01*
X75981186Y-46265909D01*
X75574942Y-46433765D01*
X75263858Y-46744307D01*
X75095292Y-47150258D01*
X75094909Y-47589814D01*
X60328629Y-47589814D01*
X60316693Y-47577858D01*
X59910742Y-47409292D01*
X59471186Y-47408909D01*
X59064942Y-47576765D01*
X58753858Y-47887307D01*
X58585292Y-48293258D01*
X58584909Y-48732814D01*
X58752765Y-49139058D01*
X58855001Y-49241472D01*
X58855001Y-67564000D01*
X58890464Y-67742283D01*
X58918562Y-67883540D01*
X59099567Y-68154433D01*
X60947012Y-70001879D01*
X60834302Y-70077189D01*
X60579000Y-70459275D01*
X60323698Y-70077189D01*
X59858151Y-69766120D01*
X59309000Y-69656887D01*
X58759849Y-69766120D01*
X58294302Y-70077189D01*
X58039000Y-70459275D01*
X57783698Y-70077189D01*
X57318151Y-69766120D01*
X56769000Y-69656887D01*
X56219849Y-69766120D01*
X55754302Y-70077189D01*
X55499000Y-70459275D01*
X55243698Y-70077189D01*
X55054500Y-69950771D01*
X55054500Y-68794934D01*
X55225217Y-68624217D01*
X55404163Y-68356406D01*
X55467000Y-68040500D01*
X55467000Y-67156440D01*
X55705000Y-67156440D01*
X55940317Y-67112162D01*
X56156441Y-66973090D01*
X56301431Y-66760890D01*
X56352440Y-66509000D01*
X56352440Y-64809000D01*
X56308162Y-64573683D01*
X56169090Y-64357559D01*
X56058683Y-64282121D01*
X56128198Y-64253327D01*
X56306827Y-64074699D01*
X56403500Y-63841310D01*
X56403500Y-63150750D01*
X56244750Y-62992000D01*
X54895500Y-62992000D01*
X54895500Y-63012000D01*
X54641500Y-63012000D01*
X54641500Y-62992000D01*
X53292250Y-62992000D01*
X53133500Y-63150750D01*
X53133500Y-63841310D01*
X53230173Y-64074699D01*
X53403744Y-64248269D01*
X53253559Y-64344910D01*
X53108569Y-64557110D01*
X53057560Y-64809000D01*
X53057560Y-66509000D01*
X53101838Y-66744317D01*
X53240910Y-66960441D01*
X53453110Y-67105431D01*
X53705000Y-67156440D01*
X53816000Y-67156440D01*
X53816000Y-67698566D01*
X53645283Y-67869283D01*
X53466337Y-68137094D01*
X53434891Y-68295184D01*
X53403500Y-68453000D01*
X53403500Y-69950771D01*
X53214302Y-70077189D01*
X52959000Y-70459275D01*
X52703698Y-70077189D01*
X52238151Y-69766120D01*
X51689000Y-69656887D01*
X51139849Y-69766120D01*
X50674302Y-70077189D01*
X50419000Y-70459275D01*
X50163698Y-70077189D01*
X50042021Y-69995887D01*
X49867421Y-69734580D01*
X47929440Y-67796600D01*
X47929440Y-66786000D01*
X47885162Y-66550683D01*
X47746090Y-66334559D01*
X47533890Y-66189569D01*
X47282000Y-66138560D01*
X45682000Y-66138560D01*
X45446683Y-66182838D01*
X45230559Y-66321910D01*
X45085569Y-66534110D01*
X45034560Y-66786000D01*
X45034560Y-68786000D01*
X45078838Y-69021317D01*
X45217910Y-69237441D01*
X45430110Y-69382431D01*
X45682000Y-69433440D01*
X46692600Y-69433440D01*
X47007912Y-69748753D01*
X46958039Y-69728096D01*
X46736000Y-69850085D01*
X46736000Y-70993000D01*
X46756000Y-70993000D01*
X46756000Y-71247000D01*
X46736000Y-71247000D01*
X46736000Y-72389915D01*
X46958039Y-72511904D01*
X47346423Y-72351041D01*
X47761389Y-71975134D01*
X47864014Y-71758297D01*
X48134302Y-72162811D01*
X48599849Y-72473880D01*
X49149000Y-72583113D01*
X49698151Y-72473880D01*
X50163698Y-72162811D01*
X50419000Y-71780725D01*
X50674302Y-72162811D01*
X51139849Y-72473880D01*
X51689000Y-72583113D01*
X52238151Y-72473880D01*
X52703698Y-72162811D01*
X52959000Y-71780725D01*
X53214302Y-72162811D01*
X53467000Y-72331659D01*
X53467000Y-72771000D01*
X53525004Y-73062605D01*
X53644468Y-73241395D01*
X53690185Y-73309815D01*
X54992870Y-74612500D01*
X33020005Y-74612500D01*
X33020000Y-74612499D01*
X32704095Y-74675337D01*
X32436283Y-74854283D01*
X32436281Y-74854286D01*
X30785283Y-76505283D01*
X30606337Y-76773094D01*
X30606337Y-76773095D01*
X30543500Y-77089000D01*
X30543500Y-77297358D01*
X30333683Y-77336838D01*
X30117559Y-77475910D01*
X29972569Y-77688110D01*
X29921560Y-77940000D01*
X29921560Y-79540000D01*
X29965838Y-79775317D01*
X30104910Y-79991441D01*
X30317110Y-80136431D01*
X30569000Y-80187440D01*
X32169000Y-80187440D01*
X32404317Y-80143162D01*
X32620441Y-80004090D01*
X32765431Y-79791890D01*
X32796815Y-79636911D01*
X32894302Y-79782811D01*
X33083500Y-79909229D01*
X33083500Y-81319066D01*
X30404283Y-83998283D01*
X30225337Y-84266094D01*
X30187894Y-84454337D01*
X30162500Y-84582000D01*
X30162500Y-87419286D01*
X30013527Y-87233468D01*
X29512177Y-86958073D01*
X29423644Y-86938812D01*
X29197600Y-87060460D01*
X28943600Y-87060460D01*
X28717556Y-86938812D01*
X28629023Y-86958073D01*
X28127673Y-87233468D01*
X27769875Y-87679758D01*
X27610100Y-88229000D01*
X26085000Y-88229000D01*
X26085000Y-68615237D01*
X28765247Y-68615237D01*
X28987126Y-69152226D01*
X29397613Y-69563430D01*
X29400500Y-69564629D01*
X29400500Y-69977000D01*
X29463337Y-70292906D01*
X29642283Y-70560717D01*
X29973728Y-70892162D01*
X29934000Y-71091887D01*
X29934000Y-71148113D01*
X30043233Y-71697264D01*
X30354302Y-72162811D01*
X30819849Y-72473880D01*
X31369000Y-72583113D01*
X31918151Y-72473880D01*
X32383698Y-72162811D01*
X32639000Y-71780725D01*
X32894302Y-72162811D01*
X33359849Y-72473880D01*
X33909000Y-72583113D01*
X34458151Y-72473880D01*
X34923698Y-72162811D01*
X35179000Y-71780725D01*
X35434302Y-72162811D01*
X35899849Y-72473880D01*
X36449000Y-72583113D01*
X36998151Y-72473880D01*
X37463698Y-72162811D01*
X37719000Y-71780725D01*
X37974302Y-72162811D01*
X38439849Y-72473880D01*
X38989000Y-72583113D01*
X39538151Y-72473880D01*
X40003698Y-72162811D01*
X40259000Y-71780725D01*
X40514302Y-72162811D01*
X40979849Y-72473880D01*
X41529000Y-72583113D01*
X42078151Y-72473880D01*
X42543698Y-72162811D01*
X42799000Y-71780725D01*
X43054302Y-72162811D01*
X43519849Y-72473880D01*
X44069000Y-72583113D01*
X44618151Y-72473880D01*
X45083698Y-72162811D01*
X45353986Y-71758297D01*
X45456611Y-71975134D01*
X45871577Y-72351041D01*
X46259961Y-72511904D01*
X46482000Y-72389915D01*
X46482000Y-71247000D01*
X46462000Y-71247000D01*
X46462000Y-70993000D01*
X46482000Y-70993000D01*
X46482000Y-69850085D01*
X46259961Y-69728096D01*
X45871577Y-69888959D01*
X45456611Y-70264866D01*
X45353986Y-70481703D01*
X45083698Y-70077189D01*
X44618151Y-69766120D01*
X44069000Y-69656887D01*
X43822377Y-69705943D01*
X43751500Y-69635066D01*
X43751500Y-69565174D01*
X43752226Y-69564874D01*
X44163430Y-69154387D01*
X44386246Y-68617786D01*
X44386753Y-68036763D01*
X44164874Y-67499774D01*
X43754387Y-67088570D01*
X43217786Y-66865754D01*
X42636763Y-66865247D01*
X42099774Y-67087126D01*
X41688570Y-67497613D01*
X41656196Y-67575579D01*
X41624874Y-67499774D01*
X41214387Y-67088570D01*
X40677786Y-66865754D01*
X40096763Y-66865247D01*
X39559774Y-67087126D01*
X39148570Y-67497613D01*
X39116196Y-67575579D01*
X39084874Y-67499774D01*
X38674387Y-67088570D01*
X38137786Y-66865754D01*
X37556763Y-66865247D01*
X37019774Y-67087126D01*
X36608570Y-67497613D01*
X36576196Y-67575579D01*
X36544874Y-67499774D01*
X36134387Y-67088570D01*
X35597786Y-66865754D01*
X35016763Y-66865247D01*
X34479774Y-67087126D01*
X34068570Y-67497613D01*
X34036196Y-67575579D01*
X34004874Y-67499774D01*
X33594387Y-67088570D01*
X33057786Y-66865754D01*
X32476763Y-66865247D01*
X31939774Y-67087126D01*
X31528570Y-67497613D01*
X31496196Y-67575579D01*
X31464874Y-67499774D01*
X31054387Y-67088570D01*
X30517786Y-66865754D01*
X29936763Y-66865247D01*
X29399774Y-67087126D01*
X28988570Y-67497613D01*
X28765754Y-68034214D01*
X28765247Y-68615237D01*
X26085000Y-68615237D01*
X26085000Y-64071750D01*
X45047000Y-64071750D01*
X45047000Y-64912309D01*
X45143673Y-65145698D01*
X45322301Y-65324327D01*
X45555690Y-65421000D01*
X46196250Y-65421000D01*
X46355000Y-65262250D01*
X46355000Y-63913000D01*
X46609000Y-63913000D01*
X46609000Y-65262250D01*
X46767750Y-65421000D01*
X47408310Y-65421000D01*
X47641699Y-65324327D01*
X47820327Y-65145698D01*
X47917000Y-64912309D01*
X47917000Y-64809000D01*
X49057560Y-64809000D01*
X49057560Y-66509000D01*
X49101838Y-66744317D01*
X49240910Y-66960441D01*
X49453110Y-67105431D01*
X49705000Y-67156440D01*
X51705000Y-67156440D01*
X51940317Y-67112162D01*
X52156441Y-66973090D01*
X52301431Y-66760890D01*
X52352440Y-66509000D01*
X52352440Y-64809000D01*
X52308162Y-64573683D01*
X52169090Y-64357559D01*
X52059237Y-64282500D01*
X52219941Y-64179090D01*
X52364931Y-63966890D01*
X52415940Y-63715000D01*
X52415940Y-62015000D01*
X52392174Y-61888690D01*
X53133500Y-61888690D01*
X53133500Y-62579250D01*
X53292250Y-62738000D01*
X54641500Y-62738000D01*
X54641500Y-61538750D01*
X54895500Y-61538750D01*
X54895500Y-62738000D01*
X56244750Y-62738000D01*
X56403500Y-62579250D01*
X56403500Y-61888690D01*
X56306827Y-61655301D01*
X56128198Y-61476673D01*
X55894809Y-61380000D01*
X55054250Y-61380000D01*
X54895500Y-61538750D01*
X54641500Y-61538750D01*
X54482750Y-61380000D01*
X53642191Y-61380000D01*
X53408802Y-61476673D01*
X53230173Y-61655301D01*
X53133500Y-61888690D01*
X52392174Y-61888690D01*
X52371662Y-61779683D01*
X52232590Y-61563559D01*
X52020390Y-61418569D01*
X51768500Y-61367560D01*
X49768500Y-61367560D01*
X49533183Y-61411838D01*
X49317059Y-61550910D01*
X49172069Y-61763110D01*
X49121060Y-62015000D01*
X49121060Y-63715000D01*
X49165338Y-63950317D01*
X49304410Y-64166441D01*
X49414263Y-64241500D01*
X49253559Y-64344910D01*
X49108569Y-64557110D01*
X49057560Y-64809000D01*
X47917000Y-64809000D01*
X47917000Y-64071750D01*
X47758250Y-63913000D01*
X46609000Y-63913000D01*
X46355000Y-63913000D01*
X45205750Y-63913000D01*
X45047000Y-64071750D01*
X26085000Y-64071750D01*
X26085000Y-63881000D01*
X34798000Y-63881000D01*
X34844159Y-63872315D01*
X34886553Y-63845035D01*
X34914994Y-63803410D01*
X34925000Y-63754000D01*
X34925000Y-62659691D01*
X45047000Y-62659691D01*
X45047000Y-63500250D01*
X45205750Y-63659000D01*
X46355000Y-63659000D01*
X46355000Y-62309750D01*
X46609000Y-62309750D01*
X46609000Y-63659000D01*
X47758250Y-63659000D01*
X47917000Y-63500250D01*
X47917000Y-62659691D01*
X47820327Y-62426302D01*
X47641699Y-62247673D01*
X47408310Y-62151000D01*
X46767750Y-62151000D01*
X46609000Y-62309750D01*
X46355000Y-62309750D01*
X46196250Y-62151000D01*
X45555690Y-62151000D01*
X45322301Y-62247673D01*
X45143673Y-62426302D01*
X45047000Y-62659691D01*
X34925000Y-62659691D01*
X34925000Y-60944000D01*
X35195000Y-60944000D01*
X35519561Y-60879441D01*
X35583807Y-60866662D01*
X35913420Y-60646420D01*
X37453421Y-59106420D01*
X37673662Y-58776807D01*
X37717919Y-58554309D01*
X37751000Y-58388000D01*
X37751000Y-50646440D01*
X37985000Y-50646440D01*
X38220317Y-50602162D01*
X38436441Y-50463090D01*
X38581431Y-50250890D01*
X38632440Y-49999000D01*
X38632440Y-48299000D01*
X38588162Y-48063683D01*
X38449090Y-47847559D01*
X38312621Y-47754313D01*
X38620217Y-47446717D01*
X38799163Y-47178906D01*
X38860808Y-46868998D01*
X38892685Y-46863000D01*
X39853879Y-46863000D01*
X39940000Y-46880440D01*
X40501008Y-46880440D01*
X40720000Y-46924000D01*
X42037000Y-46924000D01*
X42037000Y-47458159D01*
X41843599Y-47651560D01*
X39485000Y-47651560D01*
X39249683Y-47695838D01*
X39033559Y-47834910D01*
X38888569Y-48047110D01*
X38837560Y-48299000D01*
X38837560Y-49999000D01*
X38881838Y-50234317D01*
X39020910Y-50450441D01*
X39233110Y-50595431D01*
X39485000Y-50646440D01*
X41985000Y-50646440D01*
X42220317Y-50602162D01*
X42436441Y-50463090D01*
X42581431Y-50250890D01*
X42632440Y-49999000D01*
X42632440Y-49736400D01*
X43771420Y-48597421D01*
X43991661Y-48267807D01*
X43991662Y-48267806D01*
X44069000Y-47879000D01*
X44069000Y-39677431D01*
X44147765Y-39868058D01*
X44458307Y-40179142D01*
X44864258Y-40347708D01*
X45303814Y-40348091D01*
X45593000Y-40228602D01*
X45593000Y-43180000D01*
X45601685Y-43226159D01*
X45628965Y-43268553D01*
X45670590Y-43296994D01*
X45720000Y-43307000D01*
X45976500Y-43307000D01*
X45976500Y-44018560D01*
X45768000Y-44018560D01*
X45532683Y-44062838D01*
X45316559Y-44201910D01*
X45171569Y-44414110D01*
X45120560Y-44666000D01*
X45120560Y-46266000D01*
X45164838Y-46501317D01*
X45303910Y-46717441D01*
X45516110Y-46862431D01*
X45768000Y-46913440D01*
X47768000Y-46913440D01*
X48003317Y-46869162D01*
X48219441Y-46730090D01*
X48364431Y-46517890D01*
X48415440Y-46266000D01*
X48415440Y-45751750D01*
X49133000Y-45751750D01*
X49133000Y-46392310D01*
X49229673Y-46625699D01*
X49408302Y-46804327D01*
X49641691Y-46901000D01*
X50482250Y-46901000D01*
X50641000Y-46742250D01*
X50641000Y-45593000D01*
X50895000Y-45593000D01*
X50895000Y-46742250D01*
X51053750Y-46901000D01*
X51894309Y-46901000D01*
X52127698Y-46804327D01*
X52306327Y-46625699D01*
X52403000Y-46392310D01*
X52403000Y-45751750D01*
X52244250Y-45593000D01*
X50895000Y-45593000D01*
X50641000Y-45593000D01*
X49291750Y-45593000D01*
X49133000Y-45751750D01*
X48415440Y-45751750D01*
X48415440Y-44666000D01*
X48391674Y-44539690D01*
X49133000Y-44539690D01*
X49133000Y-45180250D01*
X49291750Y-45339000D01*
X50641000Y-45339000D01*
X50641000Y-44189750D01*
X50895000Y-44189750D01*
X50895000Y-45339000D01*
X52244250Y-45339000D01*
X52403000Y-45180250D01*
X52403000Y-44539690D01*
X52306327Y-44306301D01*
X52127698Y-44127673D01*
X51894309Y-44031000D01*
X51053750Y-44031000D01*
X50895000Y-44189750D01*
X50641000Y-44189750D01*
X50482250Y-44031000D01*
X49641691Y-44031000D01*
X49408302Y-44127673D01*
X49229673Y-44306301D01*
X49133000Y-44539690D01*
X48391674Y-44539690D01*
X48371162Y-44430683D01*
X48232090Y-44214559D01*
X48019890Y-44069569D01*
X47768000Y-44018560D01*
X47627500Y-44018560D01*
X47627500Y-43307000D01*
X49784000Y-43307000D01*
X49830159Y-43298315D01*
X49872553Y-43271035D01*
X49900994Y-43229410D01*
X49911000Y-43180000D01*
X49911000Y-42752000D01*
X51270967Y-42752000D01*
X51288338Y-42844317D01*
X51427410Y-43060441D01*
X51639610Y-43205431D01*
X51891500Y-43256440D01*
X53391500Y-43256440D01*
X53626817Y-43212162D01*
X53842941Y-43073090D01*
X53987931Y-42860890D01*
X54030637Y-42650000D01*
X54630644Y-42650000D01*
X54897258Y-42760708D01*
X55336814Y-42761091D01*
X55743058Y-42593235D01*
X56054142Y-42282693D01*
X56222708Y-41876742D01*
X56223066Y-41465750D01*
X76098500Y-41465750D01*
X76098500Y-42306309D01*
X76195173Y-42539698D01*
X76373801Y-42718327D01*
X76607190Y-42815000D01*
X77247750Y-42815000D01*
X77406500Y-42656250D01*
X77406500Y-41307000D01*
X77660500Y-41307000D01*
X77660500Y-42656250D01*
X77819250Y-42815000D01*
X78459810Y-42815000D01*
X78693199Y-42718327D01*
X78871827Y-42539698D01*
X78968500Y-42306309D01*
X78968500Y-41465750D01*
X78809750Y-41307000D01*
X77660500Y-41307000D01*
X77406500Y-41307000D01*
X76257250Y-41307000D01*
X76098500Y-41465750D01*
X56223066Y-41465750D01*
X56223091Y-41437186D01*
X56055235Y-41030942D01*
X55744693Y-40719858D01*
X55338742Y-40551292D01*
X54899186Y-40550909D01*
X54736813Y-40618000D01*
X54031225Y-40618000D01*
X53994662Y-40423683D01*
X53889018Y-40259507D01*
X53929827Y-40218698D01*
X53998175Y-40053691D01*
X76098500Y-40053691D01*
X76098500Y-40894250D01*
X76257250Y-41053000D01*
X77406500Y-41053000D01*
X77406500Y-39703750D01*
X77660500Y-39703750D01*
X77660500Y-41053000D01*
X78809750Y-41053000D01*
X78968500Y-40894250D01*
X78968500Y-40053691D01*
X78871827Y-39820302D01*
X78693199Y-39641673D01*
X78459810Y-39545000D01*
X77819250Y-39545000D01*
X77660500Y-39703750D01*
X77406500Y-39703750D01*
X77247750Y-39545000D01*
X76607190Y-39545000D01*
X76373801Y-39641673D01*
X76195173Y-39820302D01*
X76098500Y-40053691D01*
X53998175Y-40053691D01*
X54026500Y-39985309D01*
X54026500Y-39169750D01*
X53867750Y-39011000D01*
X52768500Y-39011000D01*
X52768500Y-39031000D01*
X52514500Y-39031000D01*
X52514500Y-39011000D01*
X51415250Y-39011000D01*
X51256500Y-39169750D01*
X51256500Y-39985309D01*
X51353173Y-40218698D01*
X51395134Y-40260660D01*
X51295069Y-40407110D01*
X51244060Y-40659000D01*
X51244060Y-40720000D01*
X49911000Y-40720000D01*
X49911000Y-39524199D01*
X49938972Y-39500906D01*
X49947749Y-39484198D01*
X49961800Y-39471600D01*
X50342800Y-38963600D01*
X50397886Y-38848730D01*
X50468662Y-38742806D01*
X50482824Y-38671607D01*
X50514213Y-38606152D01*
X50521146Y-38478949D01*
X50546000Y-38354000D01*
X50546000Y-37782691D01*
X51256500Y-37782691D01*
X51256500Y-38598250D01*
X51415250Y-38757000D01*
X52514500Y-38757000D01*
X52514500Y-37432750D01*
X52768500Y-37432750D01*
X52768500Y-38757000D01*
X53867750Y-38757000D01*
X54026500Y-38598250D01*
X54026500Y-37782691D01*
X53929827Y-37549302D01*
X53751199Y-37370673D01*
X53517810Y-37274000D01*
X52927250Y-37274000D01*
X52768500Y-37432750D01*
X52514500Y-37432750D01*
X52355750Y-37274000D01*
X51765190Y-37274000D01*
X51531801Y-37370673D01*
X51353173Y-37549302D01*
X51256500Y-37782691D01*
X50546000Y-37782691D01*
X50546000Y-34798000D01*
X50768000Y-34798000D01*
X51092300Y-34733493D01*
X51156807Y-34720662D01*
X51486420Y-34500420D01*
X53374401Y-32612440D01*
X54435000Y-32612440D01*
X54670317Y-32568162D01*
X54886441Y-32429090D01*
X55031431Y-32216890D01*
X55082440Y-31965000D01*
X55082440Y-31273750D01*
X58976000Y-31273750D01*
X58976000Y-31964310D01*
X59072673Y-32197699D01*
X59251302Y-32376327D01*
X59484691Y-32473000D01*
X60325250Y-32473000D01*
X60484000Y-32314250D01*
X60484000Y-31115000D01*
X60738000Y-31115000D01*
X60738000Y-32314250D01*
X60896750Y-32473000D01*
X61737309Y-32473000D01*
X61970698Y-32376327D01*
X62149327Y-32197699D01*
X62246000Y-31964310D01*
X62246000Y-31273750D01*
X62087250Y-31115000D01*
X60738000Y-31115000D01*
X60484000Y-31115000D01*
X59134750Y-31115000D01*
X58976000Y-31273750D01*
X55082440Y-31273750D01*
X55082440Y-30265000D01*
X55038162Y-30029683D01*
X55026584Y-30011690D01*
X58976000Y-30011690D01*
X58976000Y-30702250D01*
X59134750Y-30861000D01*
X60484000Y-30861000D01*
X60484000Y-29661750D01*
X60738000Y-29661750D01*
X60738000Y-30861000D01*
X62087250Y-30861000D01*
X62246000Y-30702250D01*
X62246000Y-30011690D01*
X62149327Y-29778301D01*
X61970698Y-29599673D01*
X61737309Y-29503000D01*
X60896750Y-29503000D01*
X60738000Y-29661750D01*
X60484000Y-29661750D01*
X60325250Y-29503000D01*
X59484691Y-29503000D01*
X59251302Y-29599673D01*
X59072673Y-29778301D01*
X58976000Y-30011690D01*
X55026584Y-30011690D01*
X54899090Y-29813559D01*
X54686890Y-29668569D01*
X54435000Y-29617560D01*
X53679399Y-29617560D01*
X53809708Y-29303742D01*
X53809767Y-29235469D01*
X54063618Y-28981618D01*
X54127842Y-28885500D01*
X54256329Y-28693206D01*
X54297756Y-28484940D01*
X54435000Y-28484940D01*
X54670317Y-28440662D01*
X54886441Y-28301590D01*
X55031431Y-28089390D01*
X55082440Y-27837500D01*
X55082440Y-26137500D01*
X55072561Y-26085000D01*
X58974192Y-26085000D01*
X58971458Y-26098500D01*
G36*
X41453476Y-80188090D02*
X41262783Y-80378783D01*
X41083837Y-80646594D01*
X41033763Y-80898337D01*
X41021000Y-80962500D01*
X41021000Y-92837000D01*
X41083837Y-93152906D01*
X41262783Y-93420717D01*
X44037250Y-96195183D01*
X44037250Y-98138380D01*
X44005500Y-98298000D01*
X44068337Y-98613906D01*
X44247283Y-98881717D01*
X44279031Y-98913464D01*
X44279033Y-98913467D01*
X46025281Y-100659714D01*
X46025283Y-100659717D01*
X46197068Y-100774500D01*
X33869933Y-100774500D01*
X33083500Y-99988066D01*
X33083500Y-98550930D01*
X33311691Y-98703403D01*
X33870600Y-98814577D01*
X34429509Y-98703403D01*
X34903329Y-98386806D01*
X35219926Y-97912986D01*
X35302074Y-97500000D01*
X36246100Y-97500000D01*
X36246100Y-97881000D01*
X36405875Y-98430242D01*
X36763673Y-98876532D01*
X37265023Y-99151927D01*
X37353556Y-99171188D01*
X37579600Y-99049540D01*
X37579600Y-97500000D01*
X37833600Y-97500000D01*
X37833600Y-99049540D01*
X38059644Y-99171188D01*
X38148177Y-99151927D01*
X38649527Y-98876532D01*
X39007325Y-98430242D01*
X39167100Y-97881000D01*
X39167100Y-97500000D01*
X37833600Y-97500000D01*
X37579600Y-97500000D01*
X36246100Y-97500000D01*
X35302074Y-97500000D01*
X35331100Y-97354077D01*
X35331100Y-96865000D01*
X36246100Y-96865000D01*
X36246100Y-97246000D01*
X37579600Y-97246000D01*
X37579600Y-95696460D01*
X37833600Y-95696460D01*
X37833600Y-97246000D01*
X39167100Y-97246000D01*
X39167100Y-96865000D01*
X39007325Y-96315758D01*
X38649527Y-95869468D01*
X38148177Y-95594073D01*
X38059644Y-95574812D01*
X37833600Y-95696460D01*
X37579600Y-95696460D01*
X37353556Y-95574812D01*
X37265023Y-95594073D01*
X36763673Y-95869468D01*
X36405875Y-96315758D01*
X36246100Y-96865000D01*
X35331100Y-96865000D01*
X35331100Y-96519923D01*
X35219926Y-95961014D01*
X34903329Y-95487194D01*
X34429509Y-95170597D01*
X33870600Y-95059423D01*
X33311691Y-95170597D01*
X33083500Y-95323070D01*
X33083500Y-90350930D01*
X33311691Y-90503403D01*
X33870600Y-90614577D01*
X34429509Y-90503403D01*
X34903329Y-90186806D01*
X35219926Y-89712986D01*
X35331100Y-89154077D01*
X35331100Y-88319923D01*
X35219926Y-87761014D01*
X34903329Y-87287194D01*
X34607500Y-87089527D01*
X34607500Y-85558934D01*
X39179500Y-80986934D01*
X39179500Y-94871400D01*
X39242337Y-95187306D01*
X39421283Y-95455117D01*
X41046100Y-97079933D01*
X41046100Y-97790077D01*
X41157274Y-98348986D01*
X41473871Y-98822806D01*
X41947691Y-99139403D01*
X42506600Y-99250577D01*
X43065509Y-99139403D01*
X43539329Y-98822806D01*
X43855926Y-98348986D01*
X43967100Y-97790077D01*
X43967100Y-96955923D01*
X43855926Y-96397014D01*
X43539329Y-95923194D01*
X43065509Y-95606597D01*
X42506600Y-95495423D01*
X41947691Y-95606597D01*
X41923676Y-95622643D01*
X40830500Y-94529466D01*
X40830500Y-80605934D01*
X41282377Y-80154057D01*
X41453476Y-80188090D01*
X41453476Y-80188090D01*
G37*
X41453476Y-80188090D02*
X41262783Y-80378783D01*
X41083837Y-80646594D01*
X41033763Y-80898337D01*
X41021000Y-80962500D01*
X41021000Y-92837000D01*
X41083837Y-93152906D01*
X41262783Y-93420717D01*
X44037250Y-96195183D01*
X44037250Y-98138380D01*
X44005500Y-98298000D01*
X44068337Y-98613906D01*
X44247283Y-98881717D01*
X44279031Y-98913464D01*
X44279033Y-98913467D01*
X46025281Y-100659714D01*
X46025283Y-100659717D01*
X46197068Y-100774500D01*
X33869933Y-100774500D01*
X33083500Y-99988066D01*
X33083500Y-98550930D01*
X33311691Y-98703403D01*
X33870600Y-98814577D01*
X34429509Y-98703403D01*
X34903329Y-98386806D01*
X35219926Y-97912986D01*
X35302074Y-97500000D01*
X36246100Y-97500000D01*
X36246100Y-97881000D01*
X36405875Y-98430242D01*
X36763673Y-98876532D01*
X37265023Y-99151927D01*
X37353556Y-99171188D01*
X37579600Y-99049540D01*
X37579600Y-97500000D01*
X37833600Y-97500000D01*
X37833600Y-99049540D01*
X38059644Y-99171188D01*
X38148177Y-99151927D01*
X38649527Y-98876532D01*
X39007325Y-98430242D01*
X39167100Y-97881000D01*
X39167100Y-97500000D01*
X37833600Y-97500000D01*
X37579600Y-97500000D01*
X36246100Y-97500000D01*
X35302074Y-97500000D01*
X35331100Y-97354077D01*
X35331100Y-96865000D01*
X36246100Y-96865000D01*
X36246100Y-97246000D01*
X37579600Y-97246000D01*
X37579600Y-95696460D01*
X37833600Y-95696460D01*
X37833600Y-97246000D01*
X39167100Y-97246000D01*
X39167100Y-96865000D01*
X39007325Y-96315758D01*
X38649527Y-95869468D01*
X38148177Y-95594073D01*
X38059644Y-95574812D01*
X37833600Y-95696460D01*
X37579600Y-95696460D01*
X37353556Y-95574812D01*
X37265023Y-95594073D01*
X36763673Y-95869468D01*
X36405875Y-96315758D01*
X36246100Y-96865000D01*
X35331100Y-96865000D01*
X35331100Y-96519923D01*
X35219926Y-95961014D01*
X34903329Y-95487194D01*
X34429509Y-95170597D01*
X33870600Y-95059423D01*
X33311691Y-95170597D01*
X33083500Y-95323070D01*
X33083500Y-90350930D01*
X33311691Y-90503403D01*
X33870600Y-90614577D01*
X34429509Y-90503403D01*
X34903329Y-90186806D01*
X35219926Y-89712986D01*
X35331100Y-89154077D01*
X35331100Y-88319923D01*
X35219926Y-87761014D01*
X34903329Y-87287194D01*
X34607500Y-87089527D01*
X34607500Y-85558934D01*
X39179500Y-80986934D01*
X39179500Y-94871400D01*
X39242337Y-95187306D01*
X39421283Y-95455117D01*
X41046100Y-97079933D01*
X41046100Y-97790077D01*
X41157274Y-98348986D01*
X41473871Y-98822806D01*
X41947691Y-99139403D01*
X42506600Y-99250577D01*
X43065509Y-99139403D01*
X43539329Y-98822806D01*
X43855926Y-98348986D01*
X43967100Y-97790077D01*
X43967100Y-96955923D01*
X43855926Y-96397014D01*
X43539329Y-95923194D01*
X43065509Y-95606597D01*
X42506600Y-95495423D01*
X41947691Y-95606597D01*
X41923676Y-95622643D01*
X40830500Y-94529466D01*
X40830500Y-80605934D01*
X41282377Y-80154057D01*
X41453476Y-80188090D01*
G36*
X34677745Y-26578803D02*
X34677255Y-27139736D01*
X34891463Y-27658158D01*
X35287756Y-28055143D01*
X35805803Y-28270255D01*
X36366736Y-28270745D01*
X36885158Y-28056537D01*
X37282143Y-27660244D01*
X37497255Y-27142197D01*
X37497745Y-26581264D01*
X37292693Y-26085000D01*
X42082790Y-26085000D01*
X41877745Y-26578803D01*
X41877255Y-27139736D01*
X42091463Y-27658158D01*
X42487756Y-28055143D01*
X43005803Y-28270255D01*
X43566736Y-28270745D01*
X44085158Y-28056537D01*
X44482143Y-27660244D01*
X44697255Y-27142197D01*
X44697745Y-26581264D01*
X44492693Y-26085000D01*
X47798192Y-26085000D01*
X47787560Y-26137500D01*
X47787560Y-27837500D01*
X47831838Y-28072817D01*
X47970910Y-28288941D01*
X48183110Y-28433931D01*
X48419000Y-28481700D01*
X48419000Y-29620571D01*
X48199683Y-29661838D01*
X47983559Y-29800910D01*
X47838569Y-30013110D01*
X47787560Y-30265000D01*
X47787560Y-31965000D01*
X47831838Y-32200317D01*
X47970910Y-32416441D01*
X48183110Y-32561431D01*
X48435000Y-32612440D01*
X50435000Y-32612440D01*
X50515952Y-32597208D01*
X50347160Y-32766000D01*
X43473841Y-32766000D01*
X41910000Y-31202160D01*
X41910000Y-30759580D01*
X41935771Y-30770281D01*
X42437030Y-30770718D01*
X42900300Y-30579299D01*
X43255053Y-30225165D01*
X43447281Y-29762229D01*
X43447718Y-29260970D01*
X43256299Y-28797700D01*
X42902165Y-28442947D01*
X42439229Y-28250719D01*
X41937970Y-28250282D01*
X41591900Y-28393275D01*
X41439390Y-28289069D01*
X41187500Y-28238060D01*
X41115506Y-28238060D01*
X40894000Y-28194000D01*
X40505194Y-28271338D01*
X40175580Y-28491580D01*
X39955338Y-28821194D01*
X39878000Y-29210000D01*
X39878000Y-31623000D01*
X39895594Y-31711450D01*
X39955338Y-32011807D01*
X40175580Y-32341420D01*
X42037000Y-34202841D01*
X42037000Y-36433808D01*
X41986890Y-36399569D01*
X41735000Y-36348560D01*
X39735000Y-36348560D01*
X39499683Y-36392838D01*
X39283559Y-36531910D01*
X39138569Y-36744110D01*
X39087560Y-36996000D01*
X39087560Y-38696000D01*
X39131838Y-38931317D01*
X39270910Y-39147441D01*
X39483110Y-39292431D01*
X39735000Y-39343440D01*
X39909500Y-39343440D01*
X39909500Y-43041299D01*
X39847315Y-43053000D01*
X38886121Y-43053000D01*
X38800000Y-43035560D01*
X37240000Y-43035560D01*
X37147315Y-43053000D01*
X36576000Y-43053000D01*
X36529841Y-43061685D01*
X36487447Y-43088965D01*
X36459006Y-43130590D01*
X36449000Y-43180000D01*
X36449000Y-43182500D01*
X36348934Y-43182500D01*
X35623500Y-42457066D01*
X35623500Y-39331000D01*
X36449250Y-39331000D01*
X36608000Y-39172250D01*
X36608000Y-37973000D01*
X36862000Y-37973000D01*
X36862000Y-39172250D01*
X37020750Y-39331000D01*
X37861309Y-39331000D01*
X38094698Y-39234327D01*
X38273327Y-39055699D01*
X38370000Y-38822310D01*
X38370000Y-38131750D01*
X38211250Y-37973000D01*
X36862000Y-37973000D01*
X36608000Y-37973000D01*
X36588000Y-37973000D01*
X36588000Y-37719000D01*
X36608000Y-37719000D01*
X36608000Y-36519750D01*
X36862000Y-36519750D01*
X36862000Y-37719000D01*
X38211250Y-37719000D01*
X38370000Y-37560250D01*
X38370000Y-36869690D01*
X38273327Y-36636301D01*
X38094698Y-36457673D01*
X37861309Y-36361000D01*
X37020750Y-36361000D01*
X36862000Y-36519750D01*
X36608000Y-36519750D01*
X36449250Y-36361000D01*
X35623500Y-36361000D01*
X35623500Y-36170142D01*
X35734142Y-36059693D01*
X35902708Y-35653742D01*
X35903091Y-35214186D01*
X35735235Y-34807942D01*
X35424693Y-34496858D01*
X35018742Y-34328292D01*
X34579186Y-34327909D01*
X34172942Y-34495765D01*
X33861858Y-34806307D01*
X33693292Y-35212258D01*
X33693088Y-35446765D01*
X33318648Y-35291284D01*
X32668205Y-35290716D01*
X32067057Y-35539106D01*
X31606722Y-35998637D01*
X31357284Y-36599352D01*
X31356716Y-37249795D01*
X31497791Y-37591222D01*
X30977617Y-37590769D01*
X30486771Y-37793582D01*
X30110902Y-38168796D01*
X29907232Y-38659287D01*
X29906769Y-39190383D01*
X30109582Y-39681229D01*
X30484796Y-40057098D01*
X30975287Y-40260768D01*
X31506383Y-40261231D01*
X31997229Y-40058418D01*
X32373098Y-39683204D01*
X32576768Y-39192713D01*
X32577231Y-38661617D01*
X32508655Y-38495650D01*
X32665352Y-38560716D01*
X33315795Y-38561284D01*
X33916943Y-38312894D01*
X33972500Y-38257434D01*
X33972500Y-42799000D01*
X34035337Y-43114906D01*
X34214283Y-43382717D01*
X35423283Y-44591717D01*
X35691094Y-44770663D01*
X36007000Y-44833500D01*
X36449000Y-44833500D01*
X36449000Y-46736000D01*
X36457685Y-46782159D01*
X36484965Y-46824553D01*
X36526590Y-46852994D01*
X36576000Y-46863000D01*
X36869066Y-46863000D01*
X36151283Y-47580783D01*
X36103991Y-47651560D01*
X35485000Y-47651560D01*
X35249683Y-47695838D01*
X35033559Y-47834910D01*
X34888569Y-48047110D01*
X34837560Y-48299000D01*
X34837560Y-49999000D01*
X34881838Y-50234317D01*
X35020910Y-50450441D01*
X35233110Y-50595431D01*
X35485000Y-50646440D01*
X35719000Y-50646440D01*
X35719000Y-57967159D01*
X34925000Y-58761160D01*
X34925000Y-54102000D01*
X34916315Y-54055841D01*
X34889035Y-54013447D01*
X34847410Y-53985006D01*
X34798000Y-53975000D01*
X26085000Y-53975000D01*
X26085000Y-50319733D01*
X26665352Y-50560716D01*
X27315795Y-50561284D01*
X27916943Y-50312894D01*
X28377278Y-49853363D01*
X28626716Y-49252648D01*
X28627284Y-48602205D01*
X28378894Y-48001057D01*
X28239357Y-47861275D01*
X30486331Y-47861275D01*
X30548169Y-48097042D01*
X31049122Y-48273419D01*
X31502838Y-48248818D01*
X31357284Y-48599352D01*
X31356716Y-49249795D01*
X31605106Y-49850943D01*
X32064637Y-50311278D01*
X32665352Y-50560716D01*
X33315795Y-50561284D01*
X33916943Y-50312894D01*
X34377278Y-49853363D01*
X34626716Y-49252648D01*
X34627284Y-48602205D01*
X34378894Y-48001057D01*
X33919363Y-47540722D01*
X33318648Y-47291284D01*
X32668205Y-47290716D01*
X32505205Y-47358066D01*
X32589419Y-47118878D01*
X32560664Y-46588560D01*
X32413042Y-46232169D01*
X32177275Y-46170331D01*
X31421605Y-46926000D01*
X31435748Y-46940142D01*
X31256142Y-47119748D01*
X31242000Y-47105605D01*
X30486331Y-47861275D01*
X28239357Y-47861275D01*
X27919363Y-47540722D01*
X27318648Y-47291284D01*
X26668205Y-47290716D01*
X26085000Y-47531692D01*
X26085000Y-46733122D01*
X29894581Y-46733122D01*
X29923336Y-47263440D01*
X30070958Y-47619831D01*
X30306725Y-47681669D01*
X31062395Y-46926000D01*
X30306725Y-46170331D01*
X30070958Y-46232169D01*
X29894581Y-46733122D01*
X26085000Y-46733122D01*
X26085000Y-45990725D01*
X30486331Y-45990725D01*
X31242000Y-46746395D01*
X31997669Y-45990725D01*
X31935831Y-45754958D01*
X31434878Y-45578581D01*
X30904560Y-45607336D01*
X30548169Y-45754958D01*
X30486331Y-45990725D01*
X26085000Y-45990725D01*
X26085000Y-43190383D01*
X29906769Y-43190383D01*
X30109582Y-43681229D01*
X30484796Y-44057098D01*
X30975287Y-44260768D01*
X31506383Y-44261231D01*
X31997229Y-44058418D01*
X32373098Y-43683204D01*
X32576768Y-43192713D01*
X32577231Y-42661617D01*
X32374418Y-42170771D01*
X31999204Y-41794902D01*
X31508713Y-41591232D01*
X30977617Y-41590769D01*
X30486771Y-41793582D01*
X30110902Y-42168796D01*
X29907232Y-42659287D01*
X29906769Y-43190383D01*
X26085000Y-43190383D01*
X26085000Y-38319733D01*
X26665352Y-38560716D01*
X27315795Y-38561284D01*
X27916943Y-38312894D01*
X28377278Y-37853363D01*
X28626716Y-37252648D01*
X28627284Y-36602205D01*
X28378894Y-36001057D01*
X27919363Y-35540722D01*
X27318648Y-35291284D01*
X26668205Y-35290716D01*
X26085000Y-35531692D01*
X26085000Y-33655000D01*
X33528000Y-33655000D01*
X33574159Y-33646315D01*
X33616553Y-33619035D01*
X33644994Y-33577410D01*
X33655000Y-33528000D01*
X33655000Y-29810030D01*
X35927282Y-29810030D01*
X36118701Y-30273300D01*
X36472835Y-30628053D01*
X36935771Y-30820281D01*
X37437030Y-30820718D01*
X37746728Y-30692754D01*
X37827802Y-30773827D01*
X38061191Y-30870500D01*
X38128750Y-30870500D01*
X38287500Y-30711750D01*
X38287500Y-30197024D01*
X38447281Y-29812229D01*
X38447389Y-29687500D01*
X38487500Y-29687500D01*
X38487500Y-30711750D01*
X38646250Y-30870500D01*
X38713809Y-30870500D01*
X38947198Y-30773827D01*
X39125827Y-30595199D01*
X39222500Y-30361810D01*
X39222500Y-29846250D01*
X39063750Y-29687500D01*
X38487500Y-29687500D01*
X38447389Y-29687500D01*
X38447718Y-29310970D01*
X38287500Y-28923212D01*
X38287500Y-28409250D01*
X38487500Y-28409250D01*
X38487500Y-29433500D01*
X39063750Y-29433500D01*
X39222500Y-29274750D01*
X39222500Y-28759190D01*
X39125827Y-28525801D01*
X38947198Y-28347173D01*
X38713809Y-28250500D01*
X38646250Y-28250500D01*
X38487500Y-28409250D01*
X38287500Y-28409250D01*
X38128750Y-28250500D01*
X38061191Y-28250500D01*
X37827802Y-28347173D01*
X37746617Y-28428358D01*
X37439229Y-28300719D01*
X36937970Y-28300282D01*
X36474700Y-28491701D01*
X36119947Y-28845835D01*
X35927719Y-29308771D01*
X35927282Y-29810030D01*
X33655000Y-29810030D01*
X33655000Y-26085000D01*
X34882790Y-26085000D01*
X34677745Y-26578803D01*
X34677745Y-26578803D01*
G37*
X34677745Y-26578803D02*
X34677255Y-27139736D01*
X34891463Y-27658158D01*
X35287756Y-28055143D01*
X35805803Y-28270255D01*
X36366736Y-28270745D01*
X36885158Y-28056537D01*
X37282143Y-27660244D01*
X37497255Y-27142197D01*
X37497745Y-26581264D01*
X37292693Y-26085000D01*
X42082790Y-26085000D01*
X41877745Y-26578803D01*
X41877255Y-27139736D01*
X42091463Y-27658158D01*
X42487756Y-28055143D01*
X43005803Y-28270255D01*
X43566736Y-28270745D01*
X44085158Y-28056537D01*
X44482143Y-27660244D01*
X44697255Y-27142197D01*
X44697745Y-26581264D01*
X44492693Y-26085000D01*
X47798192Y-26085000D01*
X47787560Y-26137500D01*
X47787560Y-27837500D01*
X47831838Y-28072817D01*
X47970910Y-28288941D01*
X48183110Y-28433931D01*
X48419000Y-28481700D01*
X48419000Y-29620571D01*
X48199683Y-29661838D01*
X47983559Y-29800910D01*
X47838569Y-30013110D01*
X47787560Y-30265000D01*
X47787560Y-31965000D01*
X47831838Y-32200317D01*
X47970910Y-32416441D01*
X48183110Y-32561431D01*
X48435000Y-32612440D01*
X50435000Y-32612440D01*
X50515952Y-32597208D01*
X50347160Y-32766000D01*
X43473841Y-32766000D01*
X41910000Y-31202160D01*
X41910000Y-30759580D01*
X41935771Y-30770281D01*
X42437030Y-30770718D01*
X42900300Y-30579299D01*
X43255053Y-30225165D01*
X43447281Y-29762229D01*
X43447718Y-29260970D01*
X43256299Y-28797700D01*
X42902165Y-28442947D01*
X42439229Y-28250719D01*
X41937970Y-28250282D01*
X41591900Y-28393275D01*
X41439390Y-28289069D01*
X41187500Y-28238060D01*
X41115506Y-28238060D01*
X40894000Y-28194000D01*
X40505194Y-28271338D01*
X40175580Y-28491580D01*
X39955338Y-28821194D01*
X39878000Y-29210000D01*
X39878000Y-31623000D01*
X39895594Y-31711450D01*
X39955338Y-32011807D01*
X40175580Y-32341420D01*
X42037000Y-34202841D01*
X42037000Y-36433808D01*
X41986890Y-36399569D01*
X41735000Y-36348560D01*
X39735000Y-36348560D01*
X39499683Y-36392838D01*
X39283559Y-36531910D01*
X39138569Y-36744110D01*
X39087560Y-36996000D01*
X39087560Y-38696000D01*
X39131838Y-38931317D01*
X39270910Y-39147441D01*
X39483110Y-39292431D01*
X39735000Y-39343440D01*
X39909500Y-39343440D01*
X39909500Y-43041299D01*
X39847315Y-43053000D01*
X38886121Y-43053000D01*
X38800000Y-43035560D01*
X37240000Y-43035560D01*
X37147315Y-43053000D01*
X36576000Y-43053000D01*
X36529841Y-43061685D01*
X36487447Y-43088965D01*
X36459006Y-43130590D01*
X36449000Y-43180000D01*
X36449000Y-43182500D01*
X36348934Y-43182500D01*
X35623500Y-42457066D01*
X35623500Y-39331000D01*
X36449250Y-39331000D01*
X36608000Y-39172250D01*
X36608000Y-37973000D01*
X36862000Y-37973000D01*
X36862000Y-39172250D01*
X37020750Y-39331000D01*
X37861309Y-39331000D01*
X38094698Y-39234327D01*
X38273327Y-39055699D01*
X38370000Y-38822310D01*
X38370000Y-38131750D01*
X38211250Y-37973000D01*
X36862000Y-37973000D01*
X36608000Y-37973000D01*
X36588000Y-37973000D01*
X36588000Y-37719000D01*
X36608000Y-37719000D01*
X36608000Y-36519750D01*
X36862000Y-36519750D01*
X36862000Y-37719000D01*
X38211250Y-37719000D01*
X38370000Y-37560250D01*
X38370000Y-36869690D01*
X38273327Y-36636301D01*
X38094698Y-36457673D01*
X37861309Y-36361000D01*
X37020750Y-36361000D01*
X36862000Y-36519750D01*
X36608000Y-36519750D01*
X36449250Y-36361000D01*
X35623500Y-36361000D01*
X35623500Y-36170142D01*
X35734142Y-36059693D01*
X35902708Y-35653742D01*
X35903091Y-35214186D01*
X35735235Y-34807942D01*
X35424693Y-34496858D01*
X35018742Y-34328292D01*
X34579186Y-34327909D01*
X34172942Y-34495765D01*
X33861858Y-34806307D01*
X33693292Y-35212258D01*
X33693088Y-35446765D01*
X33318648Y-35291284D01*
X32668205Y-35290716D01*
X32067057Y-35539106D01*
X31606722Y-35998637D01*
X31357284Y-36599352D01*
X31356716Y-37249795D01*
X31497791Y-37591222D01*
X30977617Y-37590769D01*
X30486771Y-37793582D01*
X30110902Y-38168796D01*
X29907232Y-38659287D01*
X29906769Y-39190383D01*
X30109582Y-39681229D01*
X30484796Y-40057098D01*
X30975287Y-40260768D01*
X31506383Y-40261231D01*
X31997229Y-40058418D01*
X32373098Y-39683204D01*
X32576768Y-39192713D01*
X32577231Y-38661617D01*
X32508655Y-38495650D01*
X32665352Y-38560716D01*
X33315795Y-38561284D01*
X33916943Y-38312894D01*
X33972500Y-38257434D01*
X33972500Y-42799000D01*
X34035337Y-43114906D01*
X34214283Y-43382717D01*
X35423283Y-44591717D01*
X35691094Y-44770663D01*
X36007000Y-44833500D01*
X36449000Y-44833500D01*
X36449000Y-46736000D01*
X36457685Y-46782159D01*
X36484965Y-46824553D01*
X36526590Y-46852994D01*
X36576000Y-46863000D01*
X36869066Y-46863000D01*
X36151283Y-47580783D01*
X36103991Y-47651560D01*
X35485000Y-47651560D01*
X35249683Y-47695838D01*
X35033559Y-47834910D01*
X34888569Y-48047110D01*
X34837560Y-48299000D01*
X34837560Y-49999000D01*
X34881838Y-50234317D01*
X35020910Y-50450441D01*
X35233110Y-50595431D01*
X35485000Y-50646440D01*
X35719000Y-50646440D01*
X35719000Y-57967159D01*
X34925000Y-58761160D01*
X34925000Y-54102000D01*
X34916315Y-54055841D01*
X34889035Y-54013447D01*
X34847410Y-53985006D01*
X34798000Y-53975000D01*
X26085000Y-53975000D01*
X26085000Y-50319733D01*
X26665352Y-50560716D01*
X27315795Y-50561284D01*
X27916943Y-50312894D01*
X28377278Y-49853363D01*
X28626716Y-49252648D01*
X28627284Y-48602205D01*
X28378894Y-48001057D01*
X28239357Y-47861275D01*
X30486331Y-47861275D01*
X30548169Y-48097042D01*
X31049122Y-48273419D01*
X31502838Y-48248818D01*
X31357284Y-48599352D01*
X31356716Y-49249795D01*
X31605106Y-49850943D01*
X32064637Y-50311278D01*
X32665352Y-50560716D01*
X33315795Y-50561284D01*
X33916943Y-50312894D01*
X34377278Y-49853363D01*
X34626716Y-49252648D01*
X34627284Y-48602205D01*
X34378894Y-48001057D01*
X33919363Y-47540722D01*
X33318648Y-47291284D01*
X32668205Y-47290716D01*
X32505205Y-47358066D01*
X32589419Y-47118878D01*
X32560664Y-46588560D01*
X32413042Y-46232169D01*
X32177275Y-46170331D01*
X31421605Y-46926000D01*
X31435748Y-46940142D01*
X31256142Y-47119748D01*
X31242000Y-47105605D01*
X30486331Y-47861275D01*
X28239357Y-47861275D01*
X27919363Y-47540722D01*
X27318648Y-47291284D01*
X26668205Y-47290716D01*
X26085000Y-47531692D01*
X26085000Y-46733122D01*
X29894581Y-46733122D01*
X29923336Y-47263440D01*
X30070958Y-47619831D01*
X30306725Y-47681669D01*
X31062395Y-46926000D01*
X30306725Y-46170331D01*
X30070958Y-46232169D01*
X29894581Y-46733122D01*
X26085000Y-46733122D01*
X26085000Y-45990725D01*
X30486331Y-45990725D01*
X31242000Y-46746395D01*
X31997669Y-45990725D01*
X31935831Y-45754958D01*
X31434878Y-45578581D01*
X30904560Y-45607336D01*
X30548169Y-45754958D01*
X30486331Y-45990725D01*
X26085000Y-45990725D01*
X26085000Y-43190383D01*
X29906769Y-43190383D01*
X30109582Y-43681229D01*
X30484796Y-44057098D01*
X30975287Y-44260768D01*
X31506383Y-44261231D01*
X31997229Y-44058418D01*
X32373098Y-43683204D01*
X32576768Y-43192713D01*
X32577231Y-42661617D01*
X32374418Y-42170771D01*
X31999204Y-41794902D01*
X31508713Y-41591232D01*
X30977617Y-41590769D01*
X30486771Y-41793582D01*
X30110902Y-42168796D01*
X29907232Y-42659287D01*
X29906769Y-43190383D01*
X26085000Y-43190383D01*
X26085000Y-38319733D01*
X26665352Y-38560716D01*
X27315795Y-38561284D01*
X27916943Y-38312894D01*
X28377278Y-37853363D01*
X28626716Y-37252648D01*
X28627284Y-36602205D01*
X28378894Y-36001057D01*
X27919363Y-35540722D01*
X27318648Y-35291284D01*
X26668205Y-35290716D01*
X26085000Y-35531692D01*
X26085000Y-33655000D01*
X33528000Y-33655000D01*
X33574159Y-33646315D01*
X33616553Y-33619035D01*
X33644994Y-33577410D01*
X33655000Y-33528000D01*
X33655000Y-29810030D01*
X35927282Y-29810030D01*
X36118701Y-30273300D01*
X36472835Y-30628053D01*
X36935771Y-30820281D01*
X37437030Y-30820718D01*
X37746728Y-30692754D01*
X37827802Y-30773827D01*
X38061191Y-30870500D01*
X38128750Y-30870500D01*
X38287500Y-30711750D01*
X38287500Y-30197024D01*
X38447281Y-29812229D01*
X38447389Y-29687500D01*
X38487500Y-29687500D01*
X38487500Y-30711750D01*
X38646250Y-30870500D01*
X38713809Y-30870500D01*
X38947198Y-30773827D01*
X39125827Y-30595199D01*
X39222500Y-30361810D01*
X39222500Y-29846250D01*
X39063750Y-29687500D01*
X38487500Y-29687500D01*
X38447389Y-29687500D01*
X38447718Y-29310970D01*
X38287500Y-28923212D01*
X38287500Y-28409250D01*
X38487500Y-28409250D01*
X38487500Y-29433500D01*
X39063750Y-29433500D01*
X39222500Y-29274750D01*
X39222500Y-28759190D01*
X39125827Y-28525801D01*
X38947198Y-28347173D01*
X38713809Y-28250500D01*
X38646250Y-28250500D01*
X38487500Y-28409250D01*
X38287500Y-28409250D01*
X38128750Y-28250500D01*
X38061191Y-28250500D01*
X37827802Y-28347173D01*
X37746617Y-28428358D01*
X37439229Y-28300719D01*
X36937970Y-28300282D01*
X36474700Y-28491701D01*
X36119947Y-28845835D01*
X35927719Y-29308771D01*
X35927282Y-29810030D01*
X33655000Y-29810030D01*
X33655000Y-26085000D01*
X34882790Y-26085000D01*
X34677745Y-26578803D01*
G36*
X48514000Y-37465000D02*
X45720000Y-37465000D01*
X45673841Y-37473685D01*
X45631447Y-37500965D01*
X45603006Y-37542590D01*
X45593000Y-37592000D01*
X45593000Y-38210500D01*
X45479638Y-38210500D01*
X45305742Y-38138292D01*
X44866186Y-38137909D01*
X44459942Y-38305765D01*
X44148858Y-38616307D01*
X44069000Y-38808626D01*
X44069000Y-34798000D01*
X48514000Y-34798000D01*
X48514000Y-37465000D01*
X48514000Y-37465000D01*
G37*
X48514000Y-37465000D02*
X45720000Y-37465000D01*
X45673841Y-37473685D01*
X45631447Y-37500965D01*
X45603006Y-37542590D01*
X45593000Y-37592000D01*
X45593000Y-38210500D01*
X45479638Y-38210500D01*
X45305742Y-38138292D01*
X44866186Y-38137909D01*
X44459942Y-38305765D01*
X44148858Y-38616307D01*
X44069000Y-38808626D01*
X44069000Y-34798000D01*
X48514000Y-34798000D01*
X48514000Y-37465000D01*
M02*
