G04 #@! TF.FileFunction,Soldermask,Top*
%FSLAX46Y46*%
G04 Gerber Fmt 4.6, Leading zero omitted, Abs format (unit mm)*
G04 Created by KiCad (PCBNEW 4.0.7) date 03/24/18 20:50:43*
%MOMM*%
%LPD*%
G01*
G04 APERTURE LIST*
%ADD10C,0.100000*%
%ADD11R,1.600000X2.000000*%
%ADD12R,2.000000X1.600000*%
%ADD13R,1.500000X1.950000*%
%ADD14R,2.000000X1.700000*%
%ADD15R,5.500000X1.000000*%
%ADD16R,3.000000X1.600000*%
%ADD17R,0.400000X1.350000*%
%ADD18C,1.250000*%
%ADD19C,1.550000*%
%ADD20R,1.700000X2.000000*%
%ADD21C,2.000000*%
%ADD22O,1.651000X2.413000*%
%ADD23C,1.651000*%
%ADD24R,1.600000X1.600000*%
%ADD25O,1.600000X1.600000*%
%ADD26R,1.560000X0.650000*%
%ADD27R,0.650000X1.560000*%
%ADD28R,2.200000X4.000000*%
%ADD29C,6.654800*%
%ADD30R,1.524000X1.524000*%
%ADD31R,1.651000X1.651000*%
%ADD32C,1.400000*%
%ADD33R,2.500000X1.700000*%
G04 APERTURE END LIST*
D10*
D11*
X46482000Y-67786000D03*
X46482000Y-63786000D03*
X45656500Y-86773000D03*
X45656500Y-90773000D03*
X56451500Y-85820500D03*
X56451500Y-89820500D03*
D12*
X50768000Y-45466000D03*
X46768000Y-45466000D03*
D13*
X52641500Y-41634000D03*
X52641500Y-38884000D03*
D11*
X77533500Y-45180000D03*
X77533500Y-41180000D03*
D12*
X63786000Y-114554000D03*
X67786000Y-114554000D03*
D14*
X53435000Y-26987500D03*
X49435000Y-26987500D03*
X54768500Y-62865000D03*
X50768500Y-62865000D03*
X64611000Y-26987500D03*
X60611000Y-26987500D03*
D15*
X29482000Y-57928000D03*
X29482000Y-59928000D03*
D16*
X31732000Y-55528000D03*
X31732000Y-62328000D03*
D17*
X38387500Y-29560500D03*
X40987500Y-29560500D03*
D18*
X37187500Y-29560500D03*
X42187500Y-29510500D03*
D19*
X36087500Y-26860500D03*
X43287500Y-26860500D03*
D14*
X52292000Y-107188000D03*
X48292000Y-107188000D03*
D20*
X57086500Y-106267500D03*
X57086500Y-110267500D03*
D14*
X49435000Y-31115000D03*
X53435000Y-31115000D03*
X36735000Y-37846000D03*
X40735000Y-37846000D03*
X77438000Y-89408000D03*
X73438000Y-89408000D03*
D20*
X77597000Y-53816000D03*
X77597000Y-49816000D03*
D14*
X50705000Y-65659000D03*
X54705000Y-65659000D03*
X52292000Y-110236000D03*
X48292000Y-110236000D03*
X64611000Y-30988000D03*
X60611000Y-30988000D03*
D21*
X79557000Y-85725000D03*
X75057000Y-85725000D03*
X79557000Y-79225000D03*
X75057000Y-79225000D03*
D22*
X33870600Y-96937000D03*
X29070600Y-96937000D03*
X33870600Y-88737000D03*
X29070600Y-88737000D03*
X42506600Y-105573000D03*
X37706600Y-105573000D03*
X42506600Y-97373000D03*
X37706600Y-97373000D03*
X65443400Y-84419000D03*
X70243400Y-84419000D03*
X65443400Y-92619000D03*
X70243400Y-92619000D03*
X65443400Y-101691000D03*
X70243400Y-101691000D03*
X65443400Y-109891000D03*
X70243400Y-109891000D03*
X74079400Y-93055000D03*
X78879400Y-93055000D03*
X74079400Y-101255000D03*
X78879400Y-101255000D03*
X61607400Y-101255000D03*
X56807400Y-101255000D03*
X61607400Y-93055000D03*
X56807400Y-93055000D03*
D23*
X68072000Y-28956000D03*
X42926000Y-68326000D03*
X40386000Y-68326000D03*
X37846000Y-68326000D03*
X35306000Y-68326000D03*
X32766000Y-68326000D03*
X30226000Y-68326000D03*
X72263000Y-28956000D03*
D24*
X31369000Y-78740000D03*
D25*
X64389000Y-71120000D03*
X33909000Y-78740000D03*
X61849000Y-71120000D03*
X36449000Y-78740000D03*
X59309000Y-71120000D03*
X38989000Y-78740000D03*
X56769000Y-71120000D03*
X41529000Y-78740000D03*
X54229000Y-71120000D03*
X44069000Y-78740000D03*
X51689000Y-71120000D03*
X46609000Y-78740000D03*
X49149000Y-71120000D03*
X49149000Y-78740000D03*
X46609000Y-71120000D03*
X51689000Y-78740000D03*
X44069000Y-71120000D03*
X54229000Y-78740000D03*
X41529000Y-71120000D03*
X56769000Y-78740000D03*
X38989000Y-71120000D03*
X59309000Y-78740000D03*
X36449000Y-71120000D03*
X61849000Y-78740000D03*
X33909000Y-71120000D03*
X64389000Y-78740000D03*
X31369000Y-71120000D03*
D26*
X38020000Y-44008000D03*
X38020000Y-44958000D03*
X38020000Y-45908000D03*
X40720000Y-45908000D03*
X40720000Y-44008000D03*
D27*
X48702000Y-39036000D03*
X47752000Y-39036000D03*
X46802000Y-39036000D03*
X46802000Y-41736000D03*
X48702000Y-41736000D03*
D28*
X50193000Y-86834500D03*
X53693000Y-86834500D03*
X50193000Y-96934500D03*
X53693000Y-96934500D03*
D29*
X29464000Y-29464000D03*
X78486000Y-29464000D03*
X29464000Y-113411000D03*
X78486000Y-113411000D03*
D30*
X46037500Y-114554000D03*
D23*
X48577500Y-114554000D03*
X51117500Y-114554000D03*
X53657500Y-114554000D03*
X56197500Y-114554000D03*
X58737500Y-114554000D03*
D31*
X72390000Y-70358000D03*
D23*
X74930000Y-70358000D03*
X72390000Y-72898000D03*
X74930000Y-72898000D03*
X72390000Y-75438000D03*
X74930000Y-75438000D03*
D32*
X31242000Y-42926000D03*
X31242000Y-46926000D03*
X31242000Y-38926000D03*
D21*
X32992000Y-36926000D03*
X32992000Y-48926000D03*
X26992000Y-48926000D03*
X26992000Y-36926000D03*
D33*
X40735000Y-49149000D03*
X36735000Y-49149000D03*
D12*
X45053500Y-82296000D03*
X49053500Y-82296000D03*
M02*
